<svg id="svg" version="1.1" xmlns="http://www.w3.org/2000/svg" xmlns:xlink="http://www.w3.org/1999/xlink" width="400" height="402" viewBox="0, 0, 400,402"><g id="svgg"><path id="path0" d="M191.506 26.445 C 190.805 27.158,190.111 27.498,189.572 27.395 C 189.050 27.294,188.400 27.590,187.857 28.177 C 187.344 28.730,186.406 29.177,185.591 29.257 C 183.978 29.414,183.239 29.943,183.406 30.821 C 183.489 31.259,183.212 31.435,182.463 31.421 C 181.879 31.409,181.379 31.625,181.351 31.900 C 181.323 32.175,181.278 32.649,181.250 32.954 C 181.214 33.349,180.657 33.492,179.302 33.454 C 178.046 33.418,177.387 33.569,177.352 33.900 C 177.324 34.175,177.278 34.649,177.250 34.954 C 177.214 35.349,176.657 35.492,175.302 35.454 C 174.046 35.418,173.387 35.569,173.352 35.900 C 173.324 36.175,173.278 36.649,173.250 36.954 C 173.214 37.349,172.657 37.492,171.302 37.454 C 170.046 37.418,169.387 37.569,169.352 37.900 C 169.324 38.175,169.278 38.662,169.250 38.981 C 169.211 39.440,168.779 39.512,167.200 39.325 C 165.245 39.094,165.200 39.113,165.200 40.144 C 165.200 40.725,164.975 41.215,164.700 41.233 C 162.819 41.359,162.223 41.574,161.649 42.333 C 161.274 42.830,160.424 43.260,159.636 43.352 C 158.859 43.442,157.998 43.872,157.636 44.352 C 157.274 44.831,156.413 45.261,155.636 45.352 C 154.859 45.442,153.998 45.872,153.636 46.352 C 153.274 46.831,152.413 47.261,151.636 47.352 C 150.859 47.442,149.998 47.872,149.636 48.352 C 149.274 48.831,148.413 49.261,147.636 49.352 C 146.859 49.442,145.998 49.872,145.636 50.352 C 145.274 50.831,144.413 51.261,143.636 51.352 C 142.859 51.442,141.998 51.872,141.636 52.352 C 141.274 52.831,140.413 53.261,139.636 53.352 C 138.859 53.442,137.998 53.872,137.636 54.352 C 137.274 54.831,136.413 55.261,135.636 55.352 C 134.859 55.442,133.998 55.872,133.636 56.352 C 133.274 56.831,132.413 57.261,131.636 57.352 C 130.859 57.442,129.998 57.872,129.636 58.352 C 129.272 58.833,128.412 59.261,127.627 59.353 C 126.419 59.493,125.200 60.433,125.200 61.224 C 125.200 61.373,124.661 61.432,124.002 61.356 C 122.754 61.210,118.907 64.403,119.390 65.184 C 119.506 65.372,119.246 65.433,118.812 65.319 C 118.239 65.169,117.892 65.399,117.547 66.156 C 117.286 66.730,116.808 67.200,116.487 67.200 C 116.043 67.200,116.009 67.329,116.348 67.737 C 116.915 68.421,116.441 68.932,115.761 68.368 C 115.346 68.023,115.263 73.896,115.324 99.537 C 115.396 129.502,115.363 131.155,114.684 131.579 C 114.291 131.825,114.077 132.200,114.208 132.413 C 114.340 132.626,114.122 132.803,113.724 132.806 C 113.165 132.811,113.124 132.891,113.543 133.156 C 113.927 133.400,113.954 133.581,113.636 133.778 C 113.389 133.930,113.275 134.198,113.383 134.373 C 113.730 134.934,110.866 137.200,109.811 137.200 C 108.872 137.200,107.200 138.417,107.200 139.100 C 107.200 139.265,106.345 139.400,105.300 139.400 C 104.074 139.400,103.382 139.577,103.350 139.900 C 103.323 140.175,103.278 140.649,103.250 140.954 C 103.214 141.349,102.657 141.492,101.302 141.454 C 100.046 141.418,99.387 141.569,99.352 141.900 C 99.324 142.175,99.278 142.637,99.250 142.927 C 99.217 143.272,98.679 143.437,97.700 143.403 C 96.875 143.374,96.065 143.542,95.900 143.775 C 95.697 144.063,95.488 144.026,95.253 143.662 C 94.982 143.243,94.631 143.393,93.661 144.340 C 92.873 145.111,92.117 145.500,91.600 145.400 C 91.089 145.302,90.341 145.676,89.600 146.400 C 88.861 147.123,88.110 147.498,87.602 147.400 C 87.055 147.295,86.233 147.788,85.096 148.902 C 83.763 150.209,83.376 150.416,83.272 149.880 C 83.200 149.506,82.862 149.200,82.522 149.200 C 82.049 149.200,82.007 149.327,82.348 149.737 C 82.956 150.470,82.419 150.912,81.667 150.297 C 81.156 149.878,81.094 149.926,81.267 150.600 C 81.455 151.328,81.308 151.387,79.648 151.253 C 78.085 151.126,77.893 151.189,78.308 151.690 C 78.946 152.458,78.445 152.933,77.667 152.297 C 77.156 151.878,77.094 151.926,77.267 152.600 C 77.455 153.328,77.308 153.387,75.648 153.253 C 74.085 153.126,73.893 153.189,74.308 153.690 C 74.946 154.458,74.445 154.933,73.667 154.297 C 73.156 153.878,73.094 153.926,73.267 154.600 C 73.455 155.328,73.308 155.387,71.648 155.253 C 70.085 155.126,69.893 155.189,70.308 155.690 C 70.946 156.458,70.445 156.933,69.667 156.297 C 69.156 155.877,69.094 155.927,69.270 156.613 C 69.454 157.328,69.321 157.407,68.159 157.271 C 67.131 157.151,66.625 157.348,65.872 158.160 C 65.315 158.761,64.347 159.268,63.588 159.357 C 62.856 159.442,61.989 159.884,61.636 160.352 C 61.274 160.831,60.413 161.261,59.636 161.352 C 58.859 161.442,57.998 161.872,57.636 162.352 C 57.274 162.831,56.413 163.261,55.636 163.352 C 54.859 163.442,53.998 163.872,53.636 164.352 C 53.274 164.831,52.413 165.261,51.636 165.352 C 50.838 165.444,49.997 165.873,49.612 166.384 C 49.129 167.024,48.476 167.280,47.176 167.336 C 46.110 167.383,45.380 167.611,45.350 167.907 C 45.323 168.178,45.278 168.649,45.250 168.954 C 45.214 169.349,44.657 169.492,43.302 169.454 C 42.046 169.418,41.387 169.569,41.352 169.900 C 41.324 170.175,41.278 170.649,41.250 170.954 C 41.214 171.349,40.657 171.492,39.302 171.454 C 38.046 171.418,37.387 171.569,37.352 171.900 C 37.324 172.175,37.277 172.649,37.250 172.954 C 37.214 173.349,36.657 173.492,35.302 173.454 C 34.046 173.418,33.387 173.569,33.352 173.900 C 33.324 174.175,33.277 174.649,33.250 174.954 C 33.214 175.349,32.657 175.492,31.302 175.454 C 30.046 175.418,29.387 175.569,29.352 175.900 C 29.324 176.175,29.278 176.645,29.250 176.945 C 29.213 177.347,28.614 177.464,26.967 177.391 C 24.986 177.303,24.603 177.419,23.575 178.424 C 22.854 179.129,22.108 179.498,21.600 179.400 C 21.089 179.302,20.341 179.676,19.600 180.400 C 18.859 181.124,18.111 181.498,17.600 181.400 C 17.089 181.302,16.341 181.676,15.600 182.400 C 14.850 183.133,14.113 183.499,13.589 183.398 C 12.734 183.233,11.017 184.580,11.364 185.142 C 11.471 185.314,10.999 185.373,10.315 185.273 C 9.284 185.121,9.116 185.203,9.327 185.754 C 9.651 186.598,6.679 189.682,5.849 189.363 C 5.376 189.182,5.280 189.973,5.277 194.045 C 5.275 199.142,5.586 200.800,6.547 200.800 C 7.181 200.800,7.725 201.874,7.378 202.436 C 7.254 202.636,7.618 202.800,8.186 202.800 C 8.905 202.800,9.329 203.088,9.579 203.745 C 9.777 204.265,10.336 204.795,10.822 204.922 C 11.482 205.094,11.650 205.364,11.488 205.985 C 11.282 206.773,11.401 206.809,13.735 206.661 C 15.091 206.575,15.975 206.586,15.700 206.685 C 14.844 206.996,15.120 207.946,16.000 207.716 C 16.865 207.490,17.122 208.199,16.300 208.542 C 16.025 208.657,16.340 208.731,17.000 208.707 C 18.780 208.642,20.000 209.160,20.000 209.980 C 20.000 210.385,20.377 210.805,20.853 210.930 C 21.483 211.094,21.649 211.370,21.488 211.985 C 21.282 212.773,21.401 212.809,23.735 212.661 C 25.091 212.575,25.975 212.586,25.700 212.685 C 24.844 212.996,25.120 213.946,26.000 213.716 C 26.863 213.490,27.126 214.205,26.300 214.531 C 26.025 214.639,26.459 214.716,27.265 214.700 C 28.128 214.684,29.003 214.946,29.394 215.337 C 29.762 215.705,29.856 216.000,29.605 216.000 C 29.356 216.000,29.275 216.197,29.423 216.438 C 29.572 216.678,30.103 216.797,30.603 216.702 C 31.388 216.551,31.501 216.682,31.433 217.664 C 31.357 218.765,31.413 218.800,33.277 218.800 C 35.062 218.800,35.200 218.872,35.200 219.800 C 35.200 220.721,35.345 220.800,37.029 220.800 C 38.687 220.800,39.864 221.367,40.114 222.286 C 40.161 222.459,40.495 222.588,40.855 222.573 C 41.331 222.554,41.489 222.855,41.432 223.673 C 41.357 224.764,41.416 224.800,43.277 224.800 C 45.062 224.800,45.200 224.872,45.200 225.800 C 45.200 226.721,45.345 226.800,47.029 226.800 C 48.687 226.800,49.864 227.367,50.114 228.286 C 50.161 228.459,50.495 228.588,50.855 228.573 C 51.331 228.554,51.489 228.855,51.432 229.673 C 51.357 230.764,51.416 230.800,53.277 230.800 C 55.062 230.800,55.200 230.872,55.200 231.800 C 55.200 232.716,55.349 232.800,56.967 232.800 C 59.222 232.800,60.000 233.107,60.000 233.996 C 60.000 234.387,60.384 234.807,60.853 234.930 C 61.490 235.096,61.649 235.368,61.483 236.004 C 61.287 236.752,61.415 236.845,62.530 236.770 C 64.640 236.627,65.200 236.769,65.200 237.449 C 65.200 238.008,65.294 238.022,65.877 237.549 C 66.249 237.247,66.428 237.210,66.274 237.466 C 66.121 237.722,66.221 238.023,66.498 238.134 C 66.787 238.251,66.661 238.377,66.200 238.431 C 65.760 238.483,66.300 238.632,67.400 238.763 C 69.057 238.959,69.399 239.137,69.395 239.800 C 69.392 240.334,69.724 240.670,70.395 240.811 C 71.118 240.963,71.391 241.271,71.368 241.911 C 71.344 242.584,71.562 242.800,72.268 242.800 C 72.802 242.800,73.200 243.040,73.200 243.363 C 73.200 243.728,73.480 243.852,74.000 243.716 C 74.864 243.490,75.125 244.202,74.300 244.535 C 74.001 244.656,74.082 244.750,74.500 244.768 C 75.161 244.798,75.200 246.610,75.200 276.967 C 75.200 302.325,75.306 309.176,75.700 309.336 C 76.024 309.468,76.059 309.655,75.800 309.870 C 75.447 310.161,75.332 311.826,75.541 313.600 C 75.604 314.133,75.655 314.133,76.000 313.600 C 76.352 313.055,76.493 313.306,76.366 314.255 C 76.347 314.396,76.557 314.650,76.832 314.820 C 77.107 314.990,77.307 315.793,77.277 316.605 C 77.227 317.934,77.288 318.027,77.887 317.540 C 78.354 317.162,78.463 317.150,78.253 317.500 C 78.075 317.796,78.166 318.011,78.476 318.028 C 78.764 318.044,78.640 318.211,78.200 318.400 C 77.437 318.728,77.441 318.745,78.300 318.772 C 78.795 318.787,79.200 319.053,79.200 319.363 C 79.200 319.728,79.480 319.852,80.000 319.716 C 80.870 319.489,81.114 320.184,80.300 320.571 C 80.025 320.702,80.186 320.739,80.657 320.653 C 81.381 320.522,81.501 320.673,81.435 321.631 C 81.360 322.722,81.432 322.768,83.378 322.882 C 85.094 322.982,85.400 323.121,85.400 323.800 C 85.400 324.467,85.733 324.633,87.400 324.800 C 89.067 324.967,89.400 325.133,89.400 325.800 C 89.400 326.467,89.733 326.633,91.400 326.800 C 93.067 326.967,93.400 327.133,93.400 327.800 C 93.400 328.467,93.733 328.633,95.400 328.800 C 97.067 328.967,97.400 329.133,97.400 329.800 C 97.400 330.467,97.733 330.633,99.400 330.800 C 101.067 330.967,101.400 331.133,101.400 331.800 C 101.400 332.467,101.733 332.633,103.400 332.800 C 105.067 332.967,105.400 333.133,105.400 333.800 C 105.400 334.467,105.733 334.633,107.400 334.800 C 109.067 334.967,109.400 335.133,109.400 335.800 C 109.400 336.467,109.733 336.633,111.400 336.800 C 113.067 336.967,113.400 337.133,113.400 337.800 C 113.400 338.467,113.733 338.633,115.400 338.800 C 117.067 338.967,117.400 339.133,117.400 339.800 C 117.400 340.467,117.733 340.633,119.400 340.800 C 121.067 340.967,121.400 341.133,121.400 341.800 C 121.400 342.467,121.733 342.633,123.400 342.800 C 125.067 342.967,125.400 343.133,125.400 343.800 C 125.400 344.467,125.733 344.633,127.400 344.800 C 129.178 344.978,129.396 345.102,129.366 345.924 C 129.336 346.713,129.511 346.836,130.566 346.766 C 132.641 346.628,133.200 346.773,133.200 347.449 C 133.200 348.008,133.294 348.022,133.877 347.549 C 134.337 347.176,134.457 347.160,134.253 347.500 C 134.075 347.796,134.166 348.011,134.476 348.028 C 134.764 348.044,134.640 348.222,134.200 348.424 C 133.612 348.694,133.940 348.766,135.437 348.696 C 137.298 348.608,137.456 348.669,137.268 349.400 C 137.079 350.133,137.124 350.150,137.807 349.600 C 138.239 349.253,138.427 349.211,138.253 349.500 C 138.075 349.796,138.166 350.011,138.476 350.028 C 138.764 350.044,138.640 350.222,138.200 350.424 C 137.612 350.694,137.940 350.766,139.437 350.696 C 141.298 350.608,141.456 350.669,141.268 351.400 C 141.079 352.133,141.124 352.150,141.807 351.600 C 142.239 351.253,142.427 351.211,142.253 351.500 C 142.075 351.796,142.166 352.011,142.476 352.028 C 142.764 352.044,142.640 352.222,142.200 352.424 C 141.612 352.694,141.940 352.766,143.437 352.696 C 145.298 352.608,145.456 352.669,145.268 353.400 C 145.079 354.133,145.124 354.150,145.807 353.600 C 146.239 353.253,146.427 353.211,146.253 353.500 C 146.075 353.796,146.166 354.011,146.476 354.028 C 146.764 354.044,146.640 354.222,146.200 354.424 C 145.612 354.694,145.940 354.766,147.437 354.696 C 149.298 354.608,149.456 354.669,149.268 355.400 C 149.079 356.133,149.124 356.150,149.807 355.600 C 150.239 355.253,150.427 355.211,150.253 355.500 C 150.075 355.796,150.166 356.011,150.476 356.028 C 150.764 356.044,150.640 356.222,150.200 356.424 C 149.612 356.694,149.940 356.766,151.437 356.696 C 153.298 356.608,153.456 356.669,153.268 357.400 C 153.079 358.133,153.124 358.150,153.807 357.600 C 154.239 357.253,154.427 357.211,154.253 357.500 C 154.075 357.796,154.166 358.011,154.476 358.028 C 154.764 358.044,154.640 358.222,154.200 358.424 C 153.612 358.694,153.940 358.766,155.437 358.696 C 157.298 358.608,157.456 358.669,157.268 359.400 C 157.079 360.133,157.124 360.150,157.807 359.600 C 158.239 359.253,158.427 359.211,158.253 359.500 C 158.075 359.796,158.166 360.011,158.476 360.028 C 158.764 360.044,158.640 360.222,158.200 360.424 C 157.612 360.694,157.940 360.766,159.437 360.696 C 161.298 360.608,161.456 360.669,161.268 361.400 C 161.079 362.133,161.124 362.150,161.807 361.600 C 162.239 361.253,162.427 361.211,162.253 361.500 C 162.075 361.796,162.166 362.011,162.476 362.028 C 162.764 362.044,162.640 362.222,162.200 362.424 C 161.612 362.694,161.940 362.766,163.437 362.696 C 165.298 362.608,165.456 362.669,165.268 363.400 C 165.079 364.133,165.124 364.150,165.807 363.600 C 166.239 363.253,166.427 363.211,166.253 363.500 C 166.075 363.796,166.166 364.011,166.476 364.028 C 166.764 364.044,166.640 364.211,166.200 364.400 C 165.598 364.659,165.870 364.751,167.300 364.772 C 169.053 364.798,169.200 364.878,169.200 365.800 C 169.200 366.733,169.333 366.800,171.200 366.800 C 172.430 366.800,173.200 366.975,173.200 367.256 C 173.200 368.021,174.528 368.774,175.900 368.787 C 176.615 368.794,177.200 369.005,177.200 369.256 C 177.200 370.021,178.528 370.774,179.900 370.787 C 180.615 370.794,181.200 371.005,181.200 371.256 C 181.200 372.021,182.528 372.774,183.900 372.787 C 184.615 372.794,185.200 373.005,185.200 373.256 C 185.200 374.021,186.528 374.774,187.900 374.787 C 188.615 374.794,189.200 375.005,189.200 375.256 C 189.200 376.016,190.524 376.774,191.876 376.787 C 192.578 376.794,193.266 376.983,193.404 377.207 C 193.542 377.430,193.823 377.509,194.028 377.383 C 194.527 377.074,194.504 377.736,193.998 378.242 C 193.414 378.826,196.586 378.943,197.645 378.376 C 198.253 378.051,198.418 378.047,198.222 378.365 C 198.026 378.681,199.110 378.789,201.980 378.741 C 205.855 378.676,206.006 378.641,205.811 377.837 C 205.699 377.377,205.711 377.225,205.837 377.500 C 206.129 378.136,206.833 378.157,206.700 377.525 C 206.643 377.254,207.282 376.931,208.185 376.774 C 209.136 376.609,209.995 376.159,210.334 375.649 C 210.695 375.106,211.319 374.800,212.068 374.800 C 212.802 374.800,213.583 374.428,214.165 373.800 C 214.710 373.212,215.534 372.800,216.165 372.800 C 216.796 372.800,217.620 372.388,218.165 371.800 C 218.710 371.212,219.534 370.800,220.165 370.800 C 220.796 370.800,221.620 370.388,222.165 369.800 C 222.710 369.212,223.534 368.800,224.165 368.800 C 224.796 368.800,225.620 368.388,226.165 367.800 C 226.897 367.010,227.482 366.800,228.946 366.800 C 230.657 366.800,230.800 366.723,230.800 365.800 C 230.800 364.920,230.971 364.800,232.229 364.800 C 233.738 364.800,235.006 363.915,234.688 363.084 C 234.551 362.728,234.932 362.630,236.036 362.735 C 237.665 362.890,239.050 362.028,238.688 361.084 C 238.551 360.728,238.932 360.630,240.036 360.735 C 241.665 360.890,243.050 360.028,242.688 359.084 C 242.551 358.728,242.932 358.630,244.036 358.735 C 245.665 358.890,247.050 358.028,246.688 357.084 C 246.551 356.728,246.932 356.630,248.036 356.735 C 249.665 356.890,251.050 356.028,250.688 355.084 C 250.551 354.727,250.937 354.630,252.064 354.738 C 253.781 354.901,255.787 353.410,254.729 352.756 C 254.461 352.591,255.000 352.557,255.927 352.681 C 257.749 352.925,259.875 351.464,258.729 350.756 C 258.461 350.591,259.000 350.557,259.927 350.681 C 261.749 350.925,263.875 349.464,262.729 348.756 C 262.461 348.591,263.000 348.557,263.927 348.681 C 265.736 348.924,267.875 347.464,266.739 346.762 C 266.476 346.600,267.338 346.546,268.654 346.644 L 271.047 346.820 270.970 345.710 C 270.893 344.614,270.918 344.602,272.971 344.733 C 275.034 344.864,275.050 344.856,274.971 343.733 C 274.893 342.609,274.909 342.601,276.971 342.733 C 279.034 342.864,279.050 342.856,278.971 341.733 C 278.893 340.609,278.909 340.601,280.971 340.733 C 283.034 340.864,283.050 340.856,282.971 339.733 C 282.893 338.609,282.909 338.601,284.971 338.733 C 287.034 338.864,287.050 338.856,286.971 337.733 C 286.893 336.609,286.909 336.601,288.971 336.733 C 291.034 336.864,291.050 336.856,290.971 335.733 C 290.893 334.609,290.909 334.601,292.971 334.733 C 295.034 334.864,295.050 334.856,294.971 333.733 C 294.893 332.609,294.909 332.601,296.971 332.733 C 299.034 332.864,299.050 332.856,298.971 331.733 C 298.893 330.609,298.909 330.601,300.971 330.733 C 303.034 330.864,303.050 330.856,302.971 329.733 C 302.894 328.616,302.920 328.602,304.846 328.739 C 306.719 328.871,306.800 328.834,306.800 327.839 C 306.800 326.859,306.914 326.800,308.800 326.800 C 310.667 326.800,310.800 326.733,310.800 325.800 C 310.800 324.867,310.933 324.800,312.800 324.800 C 314.667 324.800,314.800 324.733,314.800 323.800 C 314.800 322.864,314.930 322.800,316.845 322.800 C 318.882 322.800,318.890 322.795,318.718 321.621 C 318.623 320.973,318.692 320.533,318.872 320.645 C 319.053 320.756,319.200 320.477,319.200 320.024 C 319.200 319.459,319.459 319.200,320.024 319.200 C 320.477 319.200,320.737 319.022,320.603 318.805 C 320.464 318.579,320.621 318.510,320.969 318.643 C 321.890 318.997,322.730 317.899,322.873 316.156 C 322.953 315.175,323.185 314.637,323.500 314.700 C 323.775 314.755,324.000 314.635,324.000 314.433 C 324.000 314.232,323.775 313.963,323.500 313.837 C 323.225 313.711,323.400 313.706,323.888 313.827 L 324.776 314.046 324.688 279.261 C 324.640 260.130,324.735 244.560,324.900 244.662 C 325.065 244.764,325.200 244.488,325.200 244.048 C 325.200 243.405,325.559 243.195,327.038 242.973 C 328.749 242.717,328.865 242.624,328.719 241.630 C 328.577 240.661,328.666 240.578,329.681 240.727 C 330.663 240.871,330.800 240.763,330.800 239.845 C 330.800 238.913,330.955 238.800,332.229 238.800 C 333.626 238.800,334.800 238.083,334.800 237.229 C 334.800 236.732,335.233 236.654,337.300 236.778 C 338.670 236.861,338.800 236.779,338.800 235.834 C 338.800 235.240,339.026 234.800,339.332 234.800 C 339.625 234.800,340.106 234.350,340.400 233.800 C 340.777 233.095,341.269 232.800,342.068 232.800 C 342.911 232.800,343.200 232.607,343.200 232.045 C 343.200 231.196,345.204 230.612,347.551 230.776 C 348.831 230.865,348.892 230.810,348.730 229.704 C 348.574 228.645,348.660 228.544,349.663 228.604 C 350.270 228.640,350.683 228.535,350.582 228.371 C 350.020 227.462,350.972 226.800,352.843 226.800 C 354.664 226.800,354.800 226.730,354.800 225.800 C 354.800 224.746,355.050 224.655,357.551 224.794 C 358.828 224.866,358.892 224.807,358.730 223.704 C 358.574 222.645,358.660 222.544,359.663 222.604 C 360.270 222.640,360.683 222.535,360.582 222.371 C 360.020 221.462,360.972 220.800,362.843 220.800 C 364.664 220.800,364.800 220.730,364.800 219.800 C 364.800 218.746,365.050 218.655,367.551 218.794 C 368.844 218.867,368.893 218.818,368.720 217.638 C 368.621 216.960,368.620 216.486,368.717 216.584 C 368.815 216.682,369.158 216.499,369.480 216.177 C 369.801 215.856,370.230 215.695,370.432 215.820 C 370.635 215.945,370.800 215.767,370.800 215.424 C 370.800 214.997,371.180 214.800,372.000 214.800 C 372.933 214.800,373.200 214.622,373.200 214.000 C 373.200 213.459,373.467 213.200,374.024 213.200 C 374.477 213.200,374.753 213.047,374.638 212.861 C 374.522 212.675,375.412 212.594,376.614 212.682 C 378.733 212.838,378.800 212.812,378.800 211.821 C 378.800 211.238,379.028 210.800,379.332 210.800 C 379.625 210.800,380.106 210.350,380.400 209.800 C 380.777 209.095,381.269 208.800,382.068 208.800 C 382.933 208.800,383.200 208.612,383.200 208.000 C 383.200 207.459,383.467 207.200,384.024 207.200 C 384.477 207.200,384.753 207.047,384.638 206.861 C 384.522 206.675,385.434 206.596,386.663 206.686 L 388.898 206.850 388.728 205.694 C 388.576 204.658,388.668 204.545,389.611 204.601 C 390.520 204.655,390.654 204.515,390.598 203.569 C 390.540 202.594,390.654 202.490,391.645 202.616 C 392.654 202.743,392.743 202.654,392.616 201.645 C 392.490 200.651,392.592 200.540,393.583 200.599 L 394.692 200.665 394.743 194.968 C 394.790 189.759,394.734 189.281,394.097 189.386 C 393.714 189.449,393.040 189.110,392.600 188.631 C 392.160 188.153,391.890 187.959,392.000 188.200 C 392.110 188.441,391.885 188.294,391.500 187.875 C 391.115 187.455,390.800 186.705,390.800 186.208 C 390.800 185.525,390.582 185.316,389.906 185.352 C 389.256 185.387,388.956 185.128,388.806 184.400 C 388.624 183.515,388.393 183.398,386.801 183.385 C 385.217 183.371,384.979 183.252,384.801 182.385 C 384.624 181.517,384.386 181.398,382.801 181.385 C 381.217 181.371,380.979 181.252,380.801 180.385 C 380.624 179.517,380.386 179.398,378.801 179.385 C 377.217 179.371,376.979 179.252,376.801 178.385 C 376.610 177.447,376.460 177.400,373.700 177.400 C 370.841 177.400,370.801 177.386,370.800 176.355 C 370.800 175.358,370.708 175.313,368.800 175.381 C 366.880 175.450,366.800 175.410,366.800 174.381 C 366.800 173.353,366.720 173.313,364.800 173.381 C 362.880 173.450,362.800 173.410,362.800 172.381 C 362.800 171.353,362.720 171.313,360.800 171.381 C 358.880 171.450,358.800 171.410,358.800 170.381 C 358.800 169.353,358.720 169.313,356.800 169.381 C 354.884 169.449,354.800 169.408,354.800 168.390 C 354.800 167.403,354.682 167.331,353.140 167.376 C 352.228 167.402,351.259 167.202,350.988 166.931 C 350.717 166.660,350.369 166.565,350.214 166.719 C 350.060 166.874,349.970 166.820,350.014 166.600 C 350.246 165.452,349.950 165.199,348.577 165.369 C 347.588 165.492,347.087 165.371,346.935 164.975 C 346.815 164.661,346.551 164.507,346.348 164.632 C 346.146 164.757,346.006 164.711,346.037 164.530 C 346.227 163.441,345.926 163.202,344.577 163.369 C 343.588 163.492,343.087 163.371,342.935 162.975 C 342.815 162.661,342.551 162.507,342.348 162.632 C 342.146 162.757,342.006 162.711,342.037 162.530 C 342.227 161.441,341.926 161.202,340.577 161.369 C 339.588 161.492,339.087 161.371,338.935 160.975 C 338.815 160.661,338.551 160.507,338.348 160.632 C 338.146 160.757,338.006 160.711,338.037 160.530 C 338.227 159.441,337.926 159.202,336.577 159.369 C 335.588 159.492,335.087 159.371,334.935 158.975 C 334.815 158.661,334.551 158.507,334.348 158.632 C 334.146 158.757,334.006 158.711,334.037 158.530 C 334.222 157.466,333.898 157.249,332.270 157.345 C 330.624 157.442,330.547 157.397,330.676 156.424 C 330.796 155.516,330.768 155.491,330.434 156.200 C 330.226 156.640,330.044 156.764,330.028 156.476 C 330.011 156.166,329.796 156.075,329.500 156.253 C 329.177 156.447,329.200 156.307,329.564 155.858 C 330.087 155.214,329.997 155.175,328.330 155.329 C 326.586 155.491,326.535 155.464,326.671 154.448 C 326.794 153.529,326.765 153.499,326.434 154.200 C 326.226 154.640,326.044 154.764,326.028 154.476 C 326.011 154.166,325.796 154.075,325.500 154.253 C 325.177 154.447,325.200 154.307,325.564 153.858 C 326.087 153.214,325.997 153.175,324.330 153.329 C 322.586 153.491,322.535 153.464,322.671 152.448 C 322.794 151.529,322.765 151.499,322.434 152.200 C 322.226 152.640,322.044 152.764,322.028 152.476 C 322.011 152.166,321.796 152.075,321.500 152.253 C 321.177 152.447,321.200 152.307,321.564 151.858 C 322.087 151.214,321.997 151.175,320.330 151.329 C 318.586 151.491,318.535 151.464,318.671 150.448 C 318.794 149.529,318.765 149.499,318.434 150.200 C 318.226 150.640,318.044 150.764,318.028 150.476 C 318.011 150.166,317.796 150.075,317.500 150.253 C 317.160 150.457,317.176 150.337,317.549 149.877 C 318.020 149.296,318.010 149.200,317.478 149.200 C 317.138 149.200,316.776 149.515,316.676 149.900 C 316.502 150.567,316.491 150.567,316.446 149.900 C 316.419 149.482,316.078 149.200,315.600 149.200 C 315.037 149.200,314.800 148.933,314.800 148.300 C 314.800 147.493,314.604 147.400,312.904 147.400 C 311.202 147.400,310.987 147.297,310.804 146.400 C 310.623 145.515,310.393 145.398,308.801 145.385 C 307.217 145.371,306.979 145.252,306.801 144.385 C 306.611 143.456,306.448 143.400,303.900 143.400 C 302.034 143.400,301.185 143.246,301.150 142.900 C 301.123 142.625,301.078 142.175,301.050 141.900 C 301.018 141.577,300.327 141.400,299.100 141.400 C 297.873 141.400,297.182 141.223,297.150 140.900 C 297.123 140.625,297.078 140.175,297.050 139.900 C 296.991 139.311,296.162 139.225,294.877 139.675 C 294.354 139.858,294.049 139.844,294.173 139.644 C 294.375 139.317,292.984 138.658,292.300 138.757 C 292.135 138.781,292.021 138.665,292.047 138.500 C 292.175 137.691,291.951 137.171,291.500 137.230 C 289.903 137.437,289.154 137.131,288.767 136.114 C 288.443 135.260,288.278 135.150,287.999 135.602 C 287.803 135.918,287.589 136.092,287.522 135.988 C 286.563 134.505,286.391 133.892,286.796 133.404 C 287.333 132.758,286.662 132.195,285.900 132.653 C 285.581 132.845,285.605 132.701,285.968 132.254 C 286.280 131.870,286.370 131.594,286.168 131.641 C 285.583 131.778,284.386 131.147,284.593 130.811 C 284.893 130.326,284.867 70.432,284.567 69.947 C 284.419 69.707,284.484 69.395,284.712 69.254 C 285.177 68.967,284.454 67.995,282.592 66.400 C 281.736 65.667,281.581 65.614,282.012 66.200 C 282.556 66.940,282.548 66.959,281.900 66.451 C 281.515 66.149,281.200 65.682,281.200 65.413 C 281.200 65.144,280.798 64.581,280.307 64.162 C 279.426 63.411,279.422 63.411,280.007 64.177 C 280.418 64.715,280.439 64.856,280.075 64.638 C 279.787 64.464,279.382 63.879,279.176 63.337 C 278.970 62.795,278.617 62.466,278.391 62.606 C 278.165 62.745,278.006 62.711,278.037 62.530 C 278.232 61.407,277.933 61.199,276.401 61.391 C 275.259 61.535,274.831 61.451,274.901 61.096 C 274.956 60.823,274.775 60.645,274.500 60.700 C 274.225 60.755,274.021 60.665,274.047 60.500 C 274.221 59.401,273.923 59.200,272.401 59.391 C 271.259 59.535,270.831 59.451,270.901 59.096 C 270.956 58.823,270.775 58.645,270.500 58.700 C 270.225 58.755,270.021 58.665,270.047 58.500 C 270.221 57.401,269.923 57.200,268.401 57.391 C 267.259 57.535,266.831 57.451,266.901 57.096 C 266.956 56.823,266.775 56.645,266.500 56.700 C 266.225 56.755,266.021 56.665,266.047 56.500 C 266.221 55.401,265.923 55.200,264.401 55.391 C 263.259 55.535,262.831 55.451,262.901 55.096 C 262.956 54.823,262.775 54.645,262.500 54.700 C 262.225 54.755,262.021 54.665,262.047 54.500 C 262.221 53.401,261.923 53.200,260.401 53.391 C 259.259 53.535,258.831 53.451,258.901 53.096 C 258.956 52.823,258.775 52.645,258.500 52.700 C 258.225 52.755,258.021 52.665,258.047 52.500 C 258.221 51.401,257.923 51.200,256.401 51.391 C 255.259 51.535,254.831 51.451,254.901 51.096 C 254.956 50.823,254.775 50.645,254.500 50.700 C 254.225 50.755,254.021 50.665,254.047 50.500 C 254.216 49.433,253.916 49.203,252.577 49.369 C 251.588 49.492,251.087 49.371,250.935 48.975 C 250.815 48.661,250.551 48.507,250.348 48.632 C 250.146 48.757,250.006 48.711,250.037 48.530 C 250.227 47.441,249.926 47.202,248.577 47.369 C 247.588 47.492,247.087 47.371,246.935 46.975 C 246.815 46.661,246.551 46.507,246.348 46.632 C 246.146 46.757,246.006 46.711,246.037 46.530 C 246.227 45.441,245.926 45.202,244.577 45.369 C 243.588 45.492,243.087 45.371,242.935 44.975 C 242.815 44.661,242.551 44.507,242.348 44.632 C 242.146 44.757,242.006 44.711,242.037 44.530 C 242.227 43.441,241.926 43.202,240.577 43.369 C 239.588 43.492,239.087 43.371,238.935 42.975 C 238.815 42.661,238.551 42.507,238.348 42.632 C 238.146 42.757,238.006 42.711,238.037 42.530 C 238.227 41.437,237.927 41.201,236.556 41.371 C 235.378 41.518,235.075 41.408,234.909 40.775 C 234.790 40.317,234.358 39.997,233.853 39.994 C 233.140 39.989,233.099 39.918,233.600 39.562 C 234.049 39.243,233.773 39.185,232.500 39.330 C 230.863 39.517,230.800 39.483,230.800 38.417 C 230.800 37.346,230.735 37.312,228.800 37.381 C 226.880 37.450,226.800 37.410,226.800 36.381 C 226.800 35.353,226.720 35.313,224.800 35.381 C 222.880 35.450,222.800 35.410,222.800 34.381 C 222.800 33.353,222.720 33.313,220.800 33.381 C 218.872 33.450,218.800 33.413,218.800 32.362 C 218.800 31.552,218.620 31.297,218.102 31.373 C 217.719 31.429,216.926 30.964,216.342 30.338 C 215.757 29.712,214.946 29.203,214.540 29.206 C 213.916 29.211,213.894 29.273,214.400 29.600 C 214.929 29.942,214.926 29.988,214.380 29.994 C 213.519 30.002,212.800 29.196,212.800 28.220 C 212.800 27.509,212.549 27.400,210.904 27.400 C 209.199 27.400,208.987 27.298,208.804 26.394 L 208.600 25.388 200.600 25.360 L 192.600 25.333 191.506 26.445 M205.367 49.043 C 205.715 49.176,206.000 49.649,206.000 50.094 C 206.000 50.813,206.177 50.874,207.600 50.646 C 209.256 50.382,209.388 50.505,209.211 52.160 C 209.137 52.845,209.330 52.896,211.165 52.679 C 213.269 52.430,213.387 52.515,213.211 54.160 C 213.137 54.845,213.330 54.896,215.165 54.679 C 217.269 54.430,217.387 54.515,217.211 56.160 C 217.137 56.845,217.330 56.896,219.165 56.679 C 221.269 56.430,221.387 56.515,221.211 58.160 C 221.137 58.845,221.330 58.896,223.165 58.679 C 225.269 58.430,225.387 58.515,225.211 60.160 C 225.137 60.845,225.330 60.896,227.165 60.679 C 229.269 60.430,229.387 60.515,229.211 62.160 C 229.137 62.845,229.330 62.896,231.165 62.679 C 232.788 62.486,233.200 62.555,233.200 63.019 C 233.200 63.338,233.380 63.600,233.600 63.600 C 233.820 63.600,233.955 63.825,233.900 64.100 C 233.844 64.381,234.174 64.588,234.655 64.573 C 235.347 64.551,235.496 64.758,235.433 65.655 C 235.360 66.717,235.443 66.769,237.378 66.882 C 239.094 66.982,239.400 67.121,239.400 67.800 C 239.400 68.467,239.733 68.633,241.400 68.800 C 243.067 68.967,243.400 69.133,243.400 69.800 C 243.400 70.467,243.733 70.633,245.400 70.800 C 247.161 70.976,247.396 71.108,247.368 71.900 C 247.344 72.585,247.559 72.800,248.268 72.800 C 248.781 72.800,249.203 72.575,249.206 72.300 C 249.211 71.926,249.298 71.935,249.551 72.334 C 249.737 72.628,250.004 72.853,250.145 72.834 C 250.875 72.736,251.200 72.835,251.200 73.154 C 251.200 73.349,250.346 73.484,249.302 73.454 C 248.046 73.418,247.387 73.569,247.352 73.900 C 247.324 74.175,247.278 74.649,247.250 74.954 C 247.214 75.349,246.657 75.492,245.302 75.454 C 244.046 75.418,243.387 75.569,243.352 75.900 C 243.324 76.175,243.278 76.580,243.250 76.800 C 243.222 77.020,242.651 77.200,241.981 77.200 C 241.194 77.200,240.433 77.555,239.833 78.202 C 239.311 78.765,238.329 79.270,237.588 79.357 C 236.856 79.442,235.989 79.884,235.636 80.352 C 235.274 80.831,234.413 81.261,233.636 81.352 C 232.859 81.442,231.998 81.872,231.636 82.352 C 231.274 82.831,230.413 83.261,229.636 83.352 C 228.859 83.442,227.998 83.872,227.636 84.352 C 227.274 84.831,226.413 85.261,225.636 85.352 C 224.859 85.442,223.998 85.872,223.636 86.352 C 223.274 86.831,222.413 87.261,221.636 87.352 C 220.859 87.442,219.998 87.872,219.636 88.352 C 219.277 88.827,218.414 89.261,217.652 89.350 C 216.778 89.451,215.976 89.909,215.367 90.653 C 214.851 91.284,214.422 91.643,214.414 91.451 C 214.406 91.259,214.130 91.326,213.800 91.600 C 213.385 91.944,213.200 91.959,213.200 91.649 C 213.200 91.402,212.908 91.200,212.551 91.200 C 212.053 91.200,212.006 91.325,212.348 91.737 C 212.956 92.470,212.419 92.912,211.667 92.297 C 211.156 91.878,211.094 91.926,211.267 92.600 C 211.455 93.328,211.308 93.387,209.648 93.253 C 208.085 93.126,207.893 93.189,208.308 93.690 C 208.946 94.458,208.445 94.933,207.667 94.297 C 207.156 93.878,207.094 93.926,207.267 94.600 C 207.455 95.328,207.308 95.387,205.648 95.253 C 204.085 95.126,203.893 95.189,204.308 95.690 C 204.946 96.458,204.445 96.933,203.667 96.297 C 203.157 95.878,203.093 95.926,203.266 96.600 C 203.459 97.354,203.272 97.400,200.010 97.400 C 196.550 97.400,196.549 97.400,196.680 96.400 C 196.798 95.503,196.772 95.483,196.434 96.200 C 196.226 96.640,196.044 96.764,196.028 96.476 C 196.011 96.166,195.796 96.075,195.500 96.253 C 195.177 96.447,195.200 96.307,195.564 95.858 C 196.087 95.214,195.997 95.175,194.330 95.329 C 192.586 95.491,192.535 95.464,192.671 94.448 C 192.794 93.529,192.765 93.499,192.434 94.200 C 192.226 94.640,192.044 94.764,192.028 94.476 C 192.011 94.166,191.796 94.075,191.500 94.253 C 191.177 94.447,191.200 94.307,191.564 93.858 C 192.087 93.214,191.997 93.175,190.330 93.329 C 188.586 93.491,188.535 93.464,188.671 92.448 C 188.794 91.529,188.765 91.499,188.434 92.200 C 188.226 92.640,188.044 92.764,188.028 92.476 C 188.011 92.166,187.796 92.075,187.500 92.253 C 187.160 92.457,187.176 92.337,187.549 91.877 C 188.048 91.262,187.948 91.200,186.449 91.200 C 185.542 91.200,184.800 91.009,184.800 90.776 C 184.800 90.543,184.616 90.467,184.390 90.606 C 184.165 90.745,184.006 90.711,184.037 90.530 C 184.227 89.441,183.926 89.202,182.577 89.369 C 181.588 89.492,181.087 89.371,180.935 88.975 C 180.815 88.661,180.551 88.507,180.348 88.632 C 180.146 88.757,180.006 88.711,180.037 88.530 C 180.227 87.441,179.926 87.202,178.577 87.369 C 177.588 87.492,177.087 87.371,176.935 86.975 C 176.815 86.661,176.551 86.507,176.348 86.632 C 176.146 86.757,176.006 86.711,176.037 86.530 C 176.227 85.441,175.926 85.202,174.577 85.369 C 173.588 85.492,173.087 85.371,172.935 84.975 C 172.815 84.661,172.551 84.507,172.348 84.632 C 172.146 84.757,172.006 84.711,172.037 84.530 C 172.227 83.441,171.926 83.202,170.577 83.369 C 169.588 83.492,169.087 83.371,168.935 82.975 C 168.815 82.661,168.551 82.507,168.348 82.632 C 168.146 82.757,168.006 82.711,168.037 82.530 C 168.227 81.441,167.926 81.202,166.577 81.369 C 165.588 81.492,165.087 81.371,164.935 80.975 C 164.815 80.661,164.551 80.507,164.348 80.632 C 164.146 80.757,164.006 80.711,164.037 80.530 C 164.227 79.441,163.926 79.202,162.577 79.369 C 161.588 79.492,161.087 79.371,160.935 78.975 C 160.815 78.661,160.551 78.507,160.348 78.632 C 160.146 78.757,160.006 78.711,160.037 78.530 C 160.227 77.441,159.926 77.202,158.577 77.369 C 157.588 77.492,157.087 77.371,156.935 76.975 C 156.815 76.661,156.551 76.507,156.348 76.632 C 156.146 76.757,156.006 76.711,156.037 76.530 C 156.227 75.438,155.914 75.208,154.400 75.328 C 152.900 75.447,152.800 75.388,152.800 74.382 C 152.800 73.352,152.721 73.313,150.791 73.382 C 149.518 73.427,148.835 73.297,148.926 73.027 C 149.009 72.781,149.860 72.653,150.935 72.726 C 152.703 72.845,152.800 72.798,152.800 71.826 C 152.800 70.862,152.920 70.800,154.800 70.800 C 156.667 70.800,156.800 70.733,156.800 69.800 C 156.800 68.867,156.933 68.800,158.800 68.800 C 160.667 68.800,160.800 68.733,160.800 67.800 C 160.800 67.250,160.935 66.781,161.100 66.758 C 161.265 66.735,162.127 66.690,163.016 66.658 C 164.489 66.606,164.626 66.510,164.561 65.576 C 164.498 64.663,164.615 64.570,165.645 64.721 C 166.704 64.877,166.800 64.789,166.800 63.664 L 166.800 62.438 168.800 62.675 L 170.800 62.911 170.800 61.675 L 170.800 60.438 172.800 60.675 L 174.800 60.911 174.800 59.675 L 174.800 58.438 176.800 58.675 L 178.800 58.911 178.800 57.675 L 178.800 56.438 180.800 56.675 L 182.800 56.911 182.800 55.675 L 182.800 54.438 184.800 54.675 L 186.800 54.911 186.800 53.675 L 186.800 52.438 188.800 52.675 L 190.800 52.911 190.800 51.675 L 190.800 50.438 192.800 50.675 C 194.755 50.906,194.800 50.887,194.800 49.856 L 194.800 48.800 199.767 48.800 C 202.499 48.800,205.019 48.909,205.367 49.043 M140.079 92.738 C 141.425 92.581,141.504 92.635,141.433 93.667 C 141.360 94.714,141.448 94.769,143.378 94.882 C 145.094 94.982,145.400 95.121,145.400 95.800 C 145.400 96.467,145.733 96.633,147.400 96.800 C 149.067 96.967,149.400 97.133,149.400 97.800 C 149.400 98.467,149.733 98.633,151.400 98.800 C 153.067 98.967,153.400 99.133,153.400 99.800 C 153.400 100.467,153.733 100.633,155.400 100.800 C 157.067 100.967,157.400 101.133,157.400 101.800 C 157.400 102.467,157.733 102.633,159.400 102.800 C 161.067 102.967,161.400 103.133,161.400 103.800 C 161.400 104.467,161.733 104.633,163.400 104.800 C 165.067 104.967,165.400 105.133,165.400 105.800 C 165.400 106.467,165.733 106.633,167.400 106.800 C 169.067 106.967,169.400 107.133,169.400 107.800 C 169.400 108.467,169.733 108.633,171.400 108.800 C 173.067 108.967,173.400 109.133,173.400 109.800 C 173.400 110.467,173.733 110.633,175.400 110.800 C 177.185 110.978,177.396 111.100,177.365 111.933 C 177.331 112.812,177.451 112.859,179.402 112.733 C 181.307 112.611,181.458 112.665,181.268 113.400 C 181.079 114.133,181.124 114.150,181.807 113.600 C 182.239 113.253,182.427 113.211,182.253 113.500 C 182.075 113.796,182.166 114.011,182.476 114.028 C 182.764 114.044,182.640 114.222,182.200 114.424 C 181.612 114.694,181.940 114.766,183.437 114.696 C 185.298 114.608,185.456 114.669,185.268 115.400 C 185.079 116.133,185.124 116.150,185.807 115.600 C 186.239 115.253,186.427 115.211,186.253 115.500 C 186.075 115.796,186.166 116.011,186.476 116.028 C 186.764 116.044,186.640 116.222,186.200 116.424 C 185.612 116.694,185.940 116.766,187.437 116.696 C 189.298 116.608,189.456 116.669,189.268 117.400 C 189.079 118.133,189.124 118.150,189.807 117.600 C 190.239 117.253,190.427 117.211,190.253 117.500 C 190.075 117.796,190.166 118.011,190.476 118.028 C 190.764 118.044,190.640 118.222,190.200 118.424 C 189.612 118.694,189.940 118.766,191.437 118.696 C 193.298 118.608,193.456 118.669,193.268 119.400 C 193.079 120.133,193.124 120.150,193.807 119.600 C 194.239 119.253,194.427 119.211,194.253 119.500 C 194.075 119.796,194.166 120.011,194.476 120.028 C 194.764 120.044,194.640 120.207,194.200 120.391 C 193.721 120.592,195.870 120.730,199.558 120.734 C 205.843 120.742,207.203 120.427,206.688 119.084 C 206.551 118.728,206.932 118.630,208.036 118.735 C 209.665 118.890,211.050 118.028,210.688 117.084 C 210.551 116.728,210.932 116.630,212.036 116.735 C 213.665 116.890,215.050 116.028,214.688 115.084 C 214.551 114.728,214.932 114.630,216.036 114.735 C 217.661 114.890,219.050 114.028,218.689 113.090 C 218.551 112.731,219.075 112.637,220.650 112.737 C 222.732 112.870,222.800 112.841,222.800 111.837 C 222.800 110.859,222.914 110.800,224.800 110.800 C 226.667 110.800,226.800 110.733,226.800 109.800 C 226.800 108.867,226.933 108.800,228.800 108.800 C 230.667 108.800,230.800 108.733,230.800 107.800 C 230.800 106.867,230.933 106.800,232.800 106.800 C 234.667 106.800,234.800 106.733,234.800 105.800 C 234.800 104.867,234.933 104.800,236.800 104.800 C 238.667 104.800,238.800 104.733,238.800 103.800 C 238.800 102.867,238.933 102.800,240.800 102.800 C 242.667 102.800,242.800 102.733,242.800 101.800 C 242.800 100.867,242.933 100.800,244.800 100.800 C 246.667 100.800,246.800 100.733,246.800 99.800 C 246.800 98.867,246.933 98.800,248.800 98.800 C 250.667 98.800,250.800 98.733,250.800 97.800 C 250.800 97.250,250.935 96.781,251.100 96.758 C 251.265 96.735,252.136 96.690,253.036 96.658 C 254.384 96.610,254.641 96.477,254.490 95.900 C 254.382 95.487,254.531 95.197,254.853 95.194 C 255.279 95.189,255.268 95.103,254.800 94.805 C 254.386 94.541,254.649 94.495,255.652 94.656 C 256.885 94.854,257.102 94.777,257.097 94.144 C 257.083 92.525,257.163 92.467,259.150 92.664 C 260.990 92.846,261.098 92.804,261.050 91.928 C 261.014 91.251,261.243 90.965,261.901 90.872 C 263.106 90.701,264.034 91.639,263.536 92.528 C 263.246 93.047,263.324 93.203,263.880 93.213 C 264.537 93.224,264.543 93.269,263.948 93.722 C 263.080 94.383,262.815 103.868,263.678 103.378 C 264.097 103.141,264.102 103.189,263.700 103.621 C 263.059 104.312,262.958 157.797,263.599 157.401 C 263.863 157.238,263.866 157.501,263.609 158.177 C 263.285 159.028,263.336 159.202,263.910 159.213 C 264.543 159.224,264.546 159.267,263.948 159.722 C 263.082 160.381,262.855 169.293,263.678 170.310 C 264.067 170.789,264.072 170.877,263.700 170.653 C 263.425 170.488,263.200 170.543,263.200 170.776 C 263.200 171.009,263.515 171.213,263.900 171.228 C 264.543 171.254,264.540 171.280,263.870 171.544 C 263.469 171.702,263.154 171.959,263.170 172.116 C 263.318 173.537,263.160 174.066,262.700 173.689 C 262.222 173.298,260.994 174.061,261.419 174.485 C 261.735 174.801,259.006 177.426,258.400 177.388 C 258.070 177.368,257.575 177.519,257.300 177.724 C 256.975 177.967,256.800 177.941,256.800 177.649 C 256.800 177.402,256.440 177.560,256.000 178.000 C 255.560 178.440,255.200 178.958,255.200 179.151 C 255.200 179.344,254.645 179.455,253.967 179.397 C 253.063 179.320,252.424 179.595,251.575 180.425 C 250.854 181.130,250.108 181.498,249.600 181.400 C 249.089 181.302,248.341 181.676,247.600 182.400 C 246.859 183.124,246.111 183.498,245.600 183.400 C 245.089 183.302,244.341 183.676,243.600 184.400 C 242.859 185.124,242.111 185.498,241.600 185.400 C 241.089 185.302,240.341 185.676,239.600 186.400 C 238.859 187.124,238.111 187.498,237.600 187.400 C 237.089 187.302,236.341 187.676,235.600 188.400 C 234.859 189.124,234.111 189.498,233.600 189.400 C 233.089 189.302,232.341 189.676,231.600 190.400 C 230.859 191.124,230.111 191.498,229.600 191.400 C 229.089 191.302,228.341 191.676,227.600 192.400 C 226.859 193.124,226.111 193.498,225.600 193.400 C 225.089 193.302,224.341 193.676,223.600 194.400 C 222.859 195.124,222.111 195.498,221.600 195.400 C 221.089 195.302,220.341 195.676,219.600 196.400 C 218.859 197.124,218.111 197.498,217.600 197.400 C 217.089 197.302,216.341 197.676,215.600 198.400 C 214.859 199.124,214.111 199.498,213.600 199.400 C 213.089 199.302,212.341 199.676,211.600 200.400 C 210.859 201.124,210.111 201.498,209.600 201.400 C 209.089 201.302,208.341 201.676,207.600 202.400 C 206.839 203.144,206.115 203.499,205.574 203.395 C 205.040 203.292,204.390 203.601,203.799 204.239 C 203.032 205.067,202.489 205.247,200.733 205.258 C 196.851 205.282,196.800 205.270,196.800 204.300 C 196.800 203.493,196.604 203.400,194.904 203.400 C 193.202 203.400,192.987 203.297,192.804 202.400 C 192.623 201.515,192.393 201.398,190.801 201.385 C 189.217 201.371,188.979 201.252,188.801 200.385 C 188.624 199.517,188.386 199.398,186.801 199.385 C 185.217 199.371,184.979 199.252,184.801 198.385 C 184.624 197.517,184.386 197.398,182.801 197.385 C 181.217 197.371,180.979 197.252,180.801 196.385 C 180.623 195.510,179.852 195.204,178.800 195.588 C 177.980 195.888,177.200 195.865,177.200 195.541 C 177.200 195.327,177.046 195.248,176.858 195.364 C 176.670 195.481,176.582 195.086,176.663 194.488 C 176.791 193.551,176.759 193.511,176.434 194.200 C 176.226 194.640,176.044 194.764,176.028 194.476 C 176.011 194.166,175.796 194.075,175.500 194.253 C 175.177 194.447,175.200 194.307,175.564 193.858 C 176.087 193.214,175.997 193.175,174.330 193.329 C 172.586 193.491,172.535 193.464,172.671 192.448 C 172.794 191.529,172.765 191.499,172.434 192.200 C 172.226 192.640,172.044 192.764,172.028 192.476 C 172.011 192.166,171.796 192.075,171.500 192.253 C 171.177 192.447,171.200 192.307,171.564 191.858 C 172.087 191.214,171.997 191.175,170.330 191.329 C 168.586 191.491,168.535 191.464,168.671 190.448 C 168.794 189.529,168.765 189.499,168.434 190.200 C 168.226 190.640,168.044 190.764,168.028 190.476 C 168.011 190.166,167.796 190.075,167.500 190.253 C 167.177 190.447,167.200 190.307,167.564 189.858 C 168.087 189.214,167.997 189.175,166.330 189.329 C 164.586 189.491,164.535 189.464,164.671 188.448 C 164.794 187.529,164.765 187.499,164.434 188.200 C 164.226 188.640,164.044 188.764,164.028 188.476 C 164.011 188.166,163.796 188.075,163.500 188.253 C 163.177 188.447,163.200 188.307,163.564 187.858 C 164.087 187.214,163.997 187.175,162.330 187.329 C 160.586 187.491,160.535 187.464,160.671 186.448 C 160.794 185.529,160.765 185.499,160.434 186.200 C 160.226 186.640,160.044 186.764,160.028 186.476 C 160.011 186.166,159.796 186.075,159.500 186.253 C 159.177 186.447,159.200 186.307,159.564 185.858 C 160.087 185.214,159.997 185.175,158.330 185.329 C 156.586 185.491,156.535 185.464,156.671 184.448 C 156.794 183.529,156.765 183.499,156.434 184.200 C 156.226 184.640,156.044 184.764,156.028 184.476 C 156.011 184.166,155.796 184.075,155.500 184.253 C 155.177 184.447,155.200 184.307,155.564 183.858 C 156.087 183.214,155.997 183.175,154.330 183.329 C 152.586 183.491,152.535 183.464,152.671 182.448 C 152.794 181.529,152.765 181.499,152.434 182.200 C 152.226 182.640,152.044 182.764,152.028 182.476 C 152.011 182.166,151.796 182.075,151.500 182.253 C 151.177 182.447,151.200 182.307,151.564 181.858 C 152.087 181.214,151.997 181.175,150.330 181.329 C 148.586 181.491,148.535 181.464,148.671 180.448 C 148.794 179.529,148.765 179.499,148.434 180.200 C 148.226 180.640,148.044 180.764,148.028 180.476 C 148.011 180.166,147.796 180.075,147.500 180.253 C 147.177 180.447,147.200 180.307,147.564 179.858 C 148.087 179.214,147.997 179.175,146.330 179.329 C 144.586 179.491,144.535 179.464,144.671 178.448 C 144.794 177.529,144.765 177.499,144.434 178.200 C 144.226 178.640,144.044 178.764,144.028 178.476 C 144.011 178.166,143.796 178.075,143.500 178.253 C 143.177 178.447,143.200 178.307,143.564 177.858 C 144.087 177.214,143.997 177.175,142.330 177.329 C 140.586 177.491,140.535 177.464,140.671 176.448 C 140.794 175.529,140.765 175.499,140.434 176.200 C 140.226 176.640,140.044 176.764,140.028 176.476 C 140.011 176.166,139.796 176.075,139.500 176.253 C 139.160 176.457,139.176 176.337,139.549 175.877 C 140.048 175.262,139.948 175.200,138.449 175.200 C 136.692 175.200,136.458 174.654,136.759 171.264 C 136.819 170.589,136.696 170.415,136.321 170.640 C 135.903 170.892,135.897 170.833,136.292 170.346 C 136.893 169.603,137.046 97.801,136.446 98.172 C 136.247 98.295,135.977 98.117,135.846 97.777 C 135.716 97.437,135.775 97.261,135.977 97.386 C 136.576 97.756,136.935 96.772,136.386 96.265 C 136.001 95.909,135.948 95.916,136.162 96.295 C 136.350 96.629,136.237 96.712,135.813 96.549 C 135.271 96.342,135.298 96.209,136.004 95.597 C 136.666 95.023,136.791 94.535,136.654 93.067 C 136.441 90.791,136.723 90.490,137.801 91.842 C 138.499 92.718,138.900 92.876,140.079 92.738 M89.267 175.400 C 89.078 176.133,89.124 176.150,89.807 175.600 C 90.239 175.253,90.427 175.211,90.253 175.500 C 90.075 175.796,90.166 176.011,90.476 176.028 C 90.764 176.044,90.640 176.222,90.200 176.424 C 89.612 176.694,89.940 176.766,91.437 176.696 C 93.298 176.608,93.456 176.669,93.268 177.400 C 93.079 178.133,93.124 178.150,93.807 177.600 C 94.239 177.253,94.427 177.211,94.253 177.500 C 94.075 177.796,94.166 178.011,94.476 178.028 C 94.764 178.044,94.640 178.222,94.200 178.424 C 93.612 178.694,93.940 178.766,95.437 178.696 C 97.298 178.608,97.456 178.669,97.268 179.400 C 97.079 180.133,97.124 180.150,97.807 179.600 C 98.239 179.253,98.427 179.211,98.253 179.500 C 98.075 179.796,98.166 180.011,98.476 180.028 C 98.764 180.044,98.640 180.222,98.200 180.424 C 97.612 180.694,97.940 180.766,99.437 180.696 C 101.298 180.608,101.456 180.669,101.268 181.400 C 101.079 182.133,101.124 182.150,101.807 181.600 C 102.239 181.253,102.427 181.211,102.253 181.500 C 102.075 181.796,102.166 182.011,102.476 182.028 C 102.764 182.044,102.640 182.222,102.200 182.424 C 101.612 182.694,101.940 182.766,103.437 182.696 C 105.298 182.608,105.456 182.669,105.268 183.400 C 105.079 184.133,105.124 184.150,105.807 183.600 C 106.239 183.253,106.427 183.211,106.253 183.500 C 106.075 183.796,106.166 184.011,106.476 184.028 C 106.764 184.044,106.640 184.222,106.200 184.424 C 105.612 184.694,105.940 184.766,107.437 184.696 C 109.298 184.608,109.456 184.669,109.268 185.400 C 109.079 186.133,109.124 186.150,109.807 185.600 C 110.239 185.253,110.427 185.211,110.253 185.500 C 110.075 185.796,110.166 186.011,110.476 186.028 C 110.764 186.044,110.640 186.222,110.200 186.424 C 109.612 186.694,109.940 186.766,111.437 186.696 C 113.298 186.608,113.456 186.669,113.268 187.400 C 113.079 188.133,113.124 188.150,113.807 187.600 C 114.239 187.253,114.427 187.211,114.253 187.500 C 114.075 187.796,114.166 188.011,114.476 188.028 C 114.764 188.044,114.640 188.222,114.200 188.424 C 113.612 188.694,113.940 188.766,115.437 188.696 C 117.298 188.608,117.456 188.669,117.268 189.400 C 117.079 190.133,117.124 190.150,117.807 189.600 C 118.239 189.253,118.427 189.211,118.253 189.500 C 118.075 189.796,118.166 190.011,118.476 190.028 C 118.764 190.044,118.640 190.222,118.200 190.424 C 117.612 190.694,117.940 190.766,119.437 190.696 C 121.298 190.608,121.456 190.669,121.268 191.400 C 121.079 192.133,121.124 192.150,121.807 191.600 C 122.239 191.253,122.427 191.211,122.253 191.500 C 122.075 191.796,122.166 192.011,122.476 192.028 C 122.764 192.044,122.640 192.222,122.200 192.424 C 121.612 192.694,121.940 192.766,123.437 192.696 C 125.298 192.608,125.456 192.669,125.268 193.400 C 125.079 194.133,125.124 194.150,125.807 193.600 C 126.239 193.253,126.427 193.211,126.253 193.500 C 126.075 193.796,126.166 194.011,126.476 194.028 C 126.764 194.044,126.640 194.222,126.200 194.424 C 125.612 194.694,125.940 194.766,127.437 194.696 C 129.298 194.608,129.456 194.669,129.268 195.400 C 129.079 196.133,129.124 196.150,129.807 195.600 C 130.239 195.253,130.427 195.211,130.253 195.500 C 130.075 195.796,130.166 196.011,130.476 196.028 C 130.764 196.044,130.640 196.211,130.200 196.400 C 129.598 196.659,129.870 196.751,131.300 196.772 C 132.439 196.789,133.200 196.983,133.200 197.256 C 133.200 198.021,134.528 198.774,135.900 198.787 C 136.615 198.794,137.200 199.005,137.200 199.256 C 137.200 200.021,138.528 200.774,139.900 200.787 C 140.615 200.794,141.200 201.005,141.200 201.256 C 141.200 202.021,142.528 202.774,143.900 202.787 C 144.615 202.794,145.200 203.005,145.200 203.256 C 145.200 204.021,146.528 204.774,147.900 204.787 C 148.615 204.794,149.200 205.005,149.200 205.256 C 149.200 206.021,150.528 206.774,151.900 206.787 C 152.615 206.794,153.200 207.005,153.200 207.256 C 153.200 208.021,154.528 208.774,155.900 208.787 C 156.615 208.794,157.200 209.005,157.200 209.256 C 157.200 210.021,158.528 210.774,159.900 210.787 C 160.615 210.794,161.200 211.005,161.200 211.256 C 161.200 212.021,162.528 212.774,163.900 212.787 C 164.615 212.794,165.200 213.005,165.200 213.256 C 165.200 214.021,166.528 214.774,167.900 214.787 C 168.615 214.794,169.200 215.005,169.200 215.256 C 169.200 216.021,170.528 216.774,171.900 216.787 C 172.709 216.795,173.200 217.001,173.200 217.332 C 173.200 217.999,174.624 218.736,176.200 218.886 C 177.360 218.996,177.454 219.168,177.250 220.800 C 177.222 221.020,176.660 221.200,176.000 221.200 C 174.806 221.200,172.991 222.538,173.364 223.142 C 173.471 223.314,173.014 223.375,172.350 223.278 C 171.484 223.151,171.164 223.256,171.218 223.650 C 171.391 224.894,171.147 225.200,169.981 225.200 C 169.167 225.200,168.420 225.566,167.733 226.300 C 167.167 226.905,166.532 227.351,166.322 227.290 C 166.112 227.230,166.055 227.366,166.196 227.593 C 166.336 227.820,166.159 228.118,165.802 228.254 C 165.446 228.391,165.236 228.716,165.336 228.976 C 165.457 229.292,165.145 229.395,164.397 229.285 C 163.555 229.161,162.955 229.427,161.987 230.352 C 161.278 231.030,160.513 231.470,160.287 231.330 C 160.050 231.184,159.998 231.273,160.164 231.541 C 160.326 231.803,160.168 232.114,159.802 232.254 C 159.446 232.391,159.236 232.716,159.336 232.976 C 159.457 233.293,159.143 233.394,158.382 233.283 C 157.579 233.165,156.961 233.392,156.267 234.058 C 153.713 236.510,152.882 237.134,152.002 237.262 C 151.479 237.338,150.663 237.760,150.187 238.200 C 147.577 240.616,146.866 241.136,146.002 241.262 C 145.479 241.338,144.663 241.760,144.187 242.200 C 141.577 244.616,140.866 245.136,140.002 245.262 C 139.479 245.338,138.663 245.760,138.187 246.200 C 135.510 248.679,134.813 249.171,133.789 249.308 C 133.143 249.395,132.531 249.789,132.358 250.230 C 132.149 250.762,132.043 250.815,132.014 250.400 C 131.987 250.021,131.761 250.168,131.400 250.800 C 130.974 251.545,130.825 251.625,130.814 251.113 C 130.805 250.657,130.590 250.506,130.176 250.665 C 129.760 250.824,129.478 250.622,129.331 250.056 C 129.199 249.551,128.925 249.324,128.655 249.493 C 127.938 249.941,127.200 249.966,127.200 249.541 C 127.200 249.327,127.037 249.254,126.837 249.377 C 126.638 249.500,126.550 249.196,126.642 248.701 C 126.734 248.205,126.702 248.025,126.571 248.300 C 126.184 249.114,125.489 248.870,125.716 248.000 C 125.899 247.301,125.728 247.200,124.363 247.200 C 123.240 247.200,122.800 247.031,122.800 246.600 C 122.800 246.246,122.431 245.997,121.900 245.994 C 121.172 245.989,121.115 245.914,121.600 245.600 C 122.113 245.269,122.098 245.211,121.500 245.206 C 121.040 245.202,120.800 244.888,120.800 244.287 C 120.800 243.538,120.602 243.388,119.700 243.454 C 119.095 243.499,118.600 243.563,118.600 243.598 C 118.600 243.633,118.285 243.722,117.900 243.795 C 117.515 243.869,117.200 243.755,117.200 243.541 C 117.200 243.327,117.037 243.254,116.837 243.377 C 116.638 243.500,116.550 243.196,116.642 242.701 C 116.734 242.205,116.702 242.025,116.571 242.300 C 116.184 243.114,115.489 242.870,115.716 242.000 C 115.899 241.301,115.728 241.200,114.363 241.200 C 113.240 241.200,112.800 241.031,112.800 240.600 C 112.800 240.246,112.431 239.997,111.900 239.994 C 111.172 239.989,111.115 239.914,111.600 239.600 C 112.113 239.269,112.098 239.211,111.500 239.206 C 111.040 239.202,110.800 238.888,110.800 238.287 C 110.800 237.538,110.602 237.388,109.700 237.454 C 109.095 237.499,108.600 237.563,108.600 237.598 C 108.600 237.633,108.285 237.722,107.900 237.795 C 107.515 237.869,107.200 237.755,107.200 237.541 C 107.200 237.327,107.037 237.254,106.837 237.377 C 106.638 237.500,106.550 237.196,106.642 236.701 C 106.734 236.205,106.702 236.025,106.571 236.300 C 106.184 237.114,105.489 236.870,105.716 236.000 C 105.899 235.301,105.728 235.200,104.363 235.200 C 103.240 235.200,102.800 235.031,102.800 234.600 C 102.800 234.246,102.431 233.997,101.900 233.994 C 101.172 233.989,101.115 233.914,101.600 233.600 C 102.113 233.269,102.098 233.211,101.500 233.206 C 101.040 233.202,100.800 232.888,100.800 232.287 C 100.800 231.538,100.602 231.388,99.700 231.454 C 99.095 231.499,98.600 231.563,98.600 231.598 C 98.600 231.633,98.285 231.722,97.900 231.795 C 97.515 231.869,97.200 231.755,97.200 231.541 C 97.200 231.327,97.037 231.254,96.837 231.377 C 96.638 231.500,96.550 231.196,96.642 230.701 C 96.734 230.205,96.702 230.025,96.571 230.300 C 96.184 231.114,95.489 230.870,95.716 230.000 C 95.899 229.301,95.728 229.200,94.363 229.200 C 93.240 229.200,92.800 229.031,92.800 228.600 C 92.800 228.246,92.431 227.997,91.900 227.994 C 91.172 227.989,91.115 227.914,91.600 227.600 C 92.113 227.269,92.098 227.211,91.500 227.206 C 91.040 227.202,90.800 226.888,90.800 226.287 C 90.800 225.538,90.602 225.388,89.700 225.454 C 89.095 225.499,88.600 225.563,88.600 225.598 C 88.600 225.633,88.285 225.722,87.900 225.795 C 87.515 225.869,87.200 225.755,87.200 225.541 C 87.200 225.327,87.037 225.254,86.837 225.377 C 86.638 225.500,86.550 225.196,86.642 224.701 C 86.734 224.205,86.702 224.025,86.571 224.300 C 86.184 225.114,85.489 224.870,85.716 224.000 C 85.899 223.301,85.728 223.200,84.363 223.200 C 83.240 223.200,82.800 223.031,82.800 222.600 C 82.800 222.246,82.431 221.997,81.900 221.994 C 81.172 221.989,81.115 221.914,81.600 221.600 C 82.113 221.269,82.098 221.211,81.500 221.206 C 81.040 221.202,80.800 220.888,80.800 220.287 C 80.800 219.538,80.602 219.388,79.700 219.454 C 79.095 219.499,78.600 219.563,78.600 219.598 C 78.600 219.633,78.285 219.722,77.900 219.795 C 77.515 219.869,77.200 219.755,77.200 219.541 C 77.200 219.327,77.037 219.254,76.837 219.377 C 76.638 219.500,76.550 219.196,76.642 218.701 C 76.734 218.205,76.702 218.025,76.571 218.300 C 76.184 219.114,75.489 218.870,75.716 218.000 C 75.899 217.301,75.728 217.200,74.363 217.200 C 73.240 217.200,72.800 217.031,72.800 216.600 C 72.800 216.246,72.431 215.997,71.900 215.994 C 71.172 215.989,71.115 215.914,71.600 215.600 C 72.113 215.269,72.098 215.211,71.500 215.206 C 71.040 215.202,70.800 214.888,70.800 214.287 C 70.800 213.538,70.602 213.388,69.700 213.454 C 69.095 213.499,68.600 213.563,68.600 213.598 C 68.600 213.633,68.285 213.722,67.900 213.795 C 67.515 213.869,67.200 213.755,67.200 213.541 C 67.200 213.327,67.037 213.254,66.837 213.377 C 66.638 213.500,66.550 213.196,66.642 212.701 C 66.734 212.205,66.702 212.025,66.571 212.300 C 66.184 213.114,65.489 212.870,65.716 212.000 C 65.899 211.301,65.728 211.200,64.363 211.200 C 63.240 211.200,62.800 211.031,62.800 210.600 C 62.800 210.246,62.431 209.997,61.900 209.994 C 61.172 209.989,61.115 209.914,61.600 209.600 C 62.113 209.269,62.098 209.211,61.500 209.206 C 61.040 209.202,60.800 208.888,60.800 208.287 C 60.800 207.538,60.602 207.388,59.700 207.454 C 59.095 207.499,58.600 207.563,58.600 207.598 C 58.600 207.633,58.285 207.722,57.900 207.795 C 57.515 207.869,57.200 207.755,57.200 207.541 C 57.200 207.327,57.037 207.254,56.837 207.377 C 56.638 207.500,56.550 207.196,56.642 206.701 C 56.734 206.205,56.702 206.025,56.571 206.300 C 56.184 207.114,55.489 206.870,55.716 206.000 C 55.899 205.301,55.728 205.200,54.363 205.200 C 53.240 205.200,52.800 205.031,52.800 204.600 C 52.800 204.246,52.431 203.997,51.900 203.994 C 51.172 203.989,51.115 203.914,51.600 203.600 C 52.113 203.269,52.098 203.211,51.500 203.206 C 51.040 203.202,50.800 202.888,50.800 202.287 C 50.800 201.538,50.602 201.388,49.700 201.454 C 49.095 201.499,48.600 201.563,48.600 201.598 C 48.600 201.633,48.285 201.722,47.900 201.795 C 47.515 201.869,47.200 201.755,47.200 201.541 C 47.200 201.327,47.037 201.254,46.837 201.377 C 46.638 201.500,46.550 201.196,46.642 200.701 C 46.734 200.205,46.702 200.025,46.571 200.300 C 46.184 201.114,45.489 200.870,45.716 200.000 C 45.899 199.301,45.728 199.200,44.363 199.200 C 43.240 199.200,42.800 199.031,42.800 198.600 C 42.800 198.246,42.431 197.997,41.900 197.994 C 41.172 197.989,41.115 197.914,41.600 197.600 C 42.108 197.271,42.089 197.211,41.475 197.206 C 40.898 197.201,40.775 196.933,40.875 195.900 C 40.979 194.813,41.146 194.620,41.894 194.724 C 42.442 194.800,43.185 194.452,43.812 193.824 C 44.524 193.113,45.267 192.800,46.247 192.800 C 47.741 192.800,49.005 191.911,48.688 191.084 C 48.551 190.728,48.932 190.630,50.036 190.735 C 51.594 190.883,52.405 190.433,52.891 189.149 C 53.059 188.704,53.455 188.560,54.148 188.692 C 54.882 188.832,55.424 188.600,56.125 187.843 C 56.704 187.218,57.522 186.800,58.165 186.800 C 58.812 186.800,59.628 186.379,60.221 185.739 C 60.890 185.018,61.590 184.689,62.409 184.713 C 63.072 184.731,63.511 184.579,63.384 184.373 C 63.175 184.036,63.722 183.830,64.500 183.953 C 64.665 183.979,64.800 183.648,64.800 183.219 C 64.800 182.517,65.002 182.462,66.800 182.675 L 68.800 182.911 68.800 181.675 L 68.800 180.438 70.800 180.675 C 72.793 180.911,72.800 180.908,72.799 179.756 L 72.798 178.600 75.799 178.732 C 78.792 178.863,78.800 178.860,78.800 177.832 C 78.800 176.860,78.917 176.800,80.800 176.800 C 82.629 176.800,82.800 176.720,82.800 175.867 C 82.800 174.573,82.777 174.581,86.312 174.591 C 89.273 174.599,89.460 174.651,89.267 175.400 M317.400 175.800 C 317.400 176.467,317.733 176.633,319.400 176.800 C 321.190 176.979,321.396 177.099,321.364 177.940 C 321.329 178.858,321.398 178.877,324.264 178.733 C 327.238 178.583,327.373 178.648,327.211 180.160 C 327.137 180.845,327.330 180.896,329.165 180.679 C 331.269 180.430,331.387 180.515,331.211 182.160 C 331.137 182.845,331.330 182.896,333.165 182.679 C 335.254 182.431,335.382 182.520,335.221 184.100 C 335.162 184.684,335.486 184.800,337.175 184.800 C 338.424 184.800,339.200 184.975,339.200 185.256 C 339.200 186.021,340.528 186.774,341.900 186.787 C 342.615 186.794,343.200 187.005,343.200 187.256 C 343.200 188.021,344.528 188.774,345.900 188.787 C 346.827 188.796,347.200 188.986,347.200 189.449 C 347.200 190.008,347.294 190.022,347.877 189.549 C 348.337 189.176,348.457 189.160,348.253 189.500 C 348.075 189.796,348.166 190.011,348.476 190.028 C 348.764 190.044,348.640 190.222,348.200 190.424 C 347.612 190.694,347.940 190.766,349.437 190.696 C 351.298 190.608,351.456 190.669,351.268 191.400 C 351.079 192.133,351.124 192.150,351.807 191.600 C 352.239 191.253,352.427 191.211,352.253 191.500 C 352.075 191.796,352.166 192.011,352.476 192.028 C 352.764 192.044,352.640 192.211,352.200 192.400 C 351.588 192.663,351.824 192.752,353.200 192.778 C 355.275 192.817,356.244 193.281,355.789 194.017 C 355.586 194.347,355.638 194.424,355.938 194.238 C 356.192 194.081,356.400 194.164,356.400 194.423 C 356.400 194.704,356.738 194.805,357.239 194.674 C 358.550 194.331,359.200 194.784,359.200 196.043 C 359.200 197.002,359.033 197.200,358.227 197.200 C 357.462 197.200,357.226 197.436,357.127 198.300 C 357.055 198.919,356.781 199.356,356.500 199.300 C 356.225 199.245,355.997 199.425,355.994 199.700 C 355.989 200.073,355.901 200.063,355.648 199.664 C 355.382 199.244,355.089 199.347,354.297 200.140 C 353.740 200.696,353.349 201.215,353.427 201.294 C 353.505 201.372,352.955 201.364,352.204 201.276 C 351.126 201.151,350.636 201.336,349.873 202.158 C 349.343 202.731,348.536 203.200,348.081 203.200 C 347.475 203.200,347.219 203.495,347.127 204.300 C 347.055 204.919,346.781 205.356,346.500 205.300 C 346.225 205.245,345.997 205.425,345.994 205.700 C 345.989 206.073,345.901 206.063,345.648 205.664 C 345.382 205.244,345.089 205.347,344.297 206.140 C 343.740 206.696,343.349 207.215,343.427 207.294 C 343.505 207.372,342.955 207.364,342.204 207.276 C 341.126 207.151,340.636 207.336,339.873 208.158 C 339.343 208.731,338.536 209.200,338.081 209.200 C 337.475 209.200,337.219 209.495,337.127 210.300 C 337.055 210.919,336.781 211.356,336.500 211.300 C 336.225 211.245,335.997 211.425,335.994 211.700 C 335.989 212.073,335.901 212.063,335.648 211.664 C 335.382 211.244,335.089 211.347,334.297 212.140 C 333.740 212.696,333.349 213.215,333.427 213.294 C 333.505 213.372,332.955 213.364,332.204 213.276 C 331.126 213.151,330.636 213.336,329.873 214.158 C 329.343 214.731,328.536 215.200,328.081 215.200 C 327.475 215.200,327.219 215.495,327.127 216.300 C 327.055 216.919,326.781 217.356,326.500 217.300 C 326.225 217.245,325.997 217.425,325.994 217.700 C 325.989 218.073,325.901 218.063,325.648 217.664 C 325.382 217.244,325.089 217.347,324.297 218.140 C 323.740 218.696,323.349 219.215,323.427 219.294 C 323.505 219.372,322.955 219.364,322.204 219.276 C 321.126 219.151,320.636 219.336,319.873 220.158 C 319.343 220.731,318.536 221.200,318.081 221.200 C 317.475 221.200,317.219 221.495,317.127 222.300 C 317.055 222.919,316.781 223.356,316.500 223.300 C 316.225 223.245,315.997 223.425,315.994 223.700 C 315.989 224.073,315.901 224.063,315.648 223.664 C 315.382 223.244,315.089 223.347,314.297 224.140 C 313.740 224.696,313.349 225.215,313.427 225.294 C 313.505 225.372,312.955 225.364,312.204 225.276 C 311.126 225.151,310.636 225.336,309.873 226.158 C 309.343 226.731,308.536 227.200,308.081 227.200 C 307.475 227.200,307.219 227.495,307.127 228.300 C 307.055 228.919,306.781 229.356,306.500 229.300 C 306.225 229.245,305.997 229.425,305.994 229.700 C 305.989 230.073,305.901 230.063,305.648 229.664 C 305.382 229.244,305.089 229.347,304.297 230.140 C 303.740 230.696,303.362 231.229,303.456 231.323 C 303.551 231.417,303.152 231.403,302.571 231.292 C 301.918 231.167,301.381 231.302,301.164 231.645 C 300.892 232.074,300.811 232.082,300.806 231.679 C 300.803 231.389,300.381 231.611,299.854 232.179 C 299.334 232.741,298.524 233.200,298.054 233.200 C 297.365 233.200,297.200 233.440,297.200 234.443 C 297.200 235.383,297.054 235.630,296.600 235.455 C 296.270 235.329,295.997 235.444,295.994 235.713 C 295.990 236.021,295.845 235.979,295.600 235.600 C 295.387 235.270,295.209 235.195,295.206 235.432 C 295.203 235.670,294.756 236.102,294.214 236.393 C 293.671 236.683,293.306 237.047,293.402 237.203 C 293.497 237.358,293.112 237.396,292.545 237.287 C 291.917 237.167,291.378 237.307,291.164 237.645 C 290.892 238.074,290.811 238.082,290.806 237.679 C 290.803 237.389,290.381 237.611,289.854 238.179 C 289.334 238.741,288.524 239.200,288.054 239.200 C 287.365 239.200,287.200 239.440,287.200 240.443 C 287.200 241.383,287.054 241.630,286.600 241.455 C 286.270 241.329,285.997 241.444,285.994 241.713 C 285.990 242.021,285.845 241.979,285.600 241.600 C 285.387 241.270,285.209 241.195,285.206 241.432 C 285.203 241.670,284.756 242.102,284.214 242.393 C 283.671 242.683,283.306 243.047,283.402 243.203 C 283.497 243.358,283.112 243.396,282.545 243.287 C 281.917 243.167,281.378 243.307,281.164 243.645 C 280.892 244.074,280.811 244.082,280.806 243.679 C 280.803 243.389,280.381 243.611,279.854 244.179 C 279.334 244.741,278.524 245.200,278.054 245.200 C 277.365 245.200,277.200 245.440,277.200 246.443 C 277.200 247.383,277.054 247.630,276.600 247.455 C 276.270 247.329,275.997 247.444,275.994 247.713 C 275.990 248.021,275.845 247.979,275.600 247.600 C 275.387 247.270,275.209 247.195,275.206 247.432 C 275.203 247.670,274.756 248.102,274.214 248.393 C 273.671 248.683,273.320 249.071,273.434 249.254 C 273.547 249.438,273.091 249.478,272.420 249.344 C 271.416 249.143,271.192 249.233,271.154 249.850 C 271.110 250.558,271.097 250.559,270.919 249.871 C 270.750 249.217,270.683 249.207,270.265 249.776 C 269.797 250.414,267.983 250.988,268.056 250.475 C 268.180 249.604,267.871 249.318,266.772 249.287 C 265.469 249.250,264.274 248.528,264.611 247.982 C 264.722 247.802,264.643 247.550,264.434 247.421 C 264.226 247.292,263.927 247.395,263.770 247.648 C 263.590 247.939,263.296 247.683,262.975 246.955 C 262.694 246.320,262.450 246.025,262.432 246.300 C 262.415 246.575,262.199 246.800,261.953 246.800 C 261.704 246.800,261.599 246.447,261.716 246.000 C 261.954 245.090,261.265 244.934,260.387 245.700 C 260.071 245.975,259.944 246.036,260.104 245.836 C 260.264 245.635,259.991 245.270,259.498 245.024 C 259.004 244.778,258.578 244.357,258.550 244.088 C 258.454 243.149,258.396 243.105,257.846 243.562 C 257.403 243.930,257.233 243.800,256.997 242.911 C 256.834 242.300,256.619 242.025,256.517 242.300 C 256.212 243.130,255.491 242.861,255.716 242.000 C 255.953 241.092,255.251 240.929,254.421 241.700 C 253.990 242.100,253.939 242.100,254.165 241.700 C 254.351 241.370,254.166 241.200,253.624 241.200 C 253.171 241.200,252.778 241.020,252.750 240.800 C 252.722 240.580,252.655 240.220,252.600 240.000 C 252.545 239.780,252.478 239.488,252.450 239.351 C 252.423 239.214,252.130 239.326,251.800 239.600 C 251.292 240.022,251.159 239.894,250.934 238.768 C 250.708 237.641,250.621 237.557,250.362 238.219 C 250.194 238.648,250.044 238.764,250.028 238.476 C 250.011 238.166,249.796 238.075,249.500 238.253 C 249.150 238.463,249.162 238.354,249.540 237.887 C 250.026 237.288,249.936 237.227,248.638 237.276 C 247.036 237.336,246.788 237.197,246.635 236.158 C 246.577 235.765,246.296 235.365,246.009 235.270 C 245.701 235.167,245.603 235.281,245.768 235.548 C 245.922 235.797,245.869 236.000,245.651 236.000 C 245.432 236.000,245.140 235.640,245.000 235.200 C 244.860 234.760,244.568 234.400,244.349 234.400 C 244.131 234.400,244.063 234.222,244.197 234.005 C 244.337 233.778,244.177 233.711,243.821 233.847 C 243.479 233.978,243.200 233.898,243.200 233.669 C 243.200 233.440,242.757 233.333,242.217 233.431 C 241.282 233.601,240.495 232.871,240.469 231.810 C 240.464 231.596,240.241 231.347,239.974 231.258 C 239.696 231.165,239.608 231.289,239.768 231.548 C 239.922 231.797,239.869 232.000,239.651 232.000 C 239.432 232.000,239.140 231.640,239.000 231.200 C 238.860 230.760,238.568 230.400,238.349 230.400 C 238.131 230.400,238.063 230.222,238.197 230.005 C 238.337 229.778,238.177 229.711,237.821 229.847 C 237.479 229.978,237.200 229.912,237.200 229.700 C 237.200 229.487,236.709 229.333,236.108 229.357 C 235.247 229.391,234.972 229.187,234.808 228.395 C 234.669 227.725,234.334 227.392,233.804 227.395 C 233.274 227.398,232.940 227.066,232.804 226.400 C 232.623 225.512,232.399 225.400,230.804 225.400 C 229.206 225.400,228.985 225.289,228.804 224.395 C 228.668 223.724,228.335 223.392,227.804 223.395 C 227.274 223.398,226.940 223.066,226.804 222.400 C 226.623 221.510,226.406 221.403,224.844 221.429 C 223.471 221.451,223.046 221.299,222.898 220.733 C 222.794 220.335,222.532 220.119,222.315 220.253 C 222.098 220.387,222.124 220.115,222.374 219.648 C 222.683 219.072,223.215 218.800,224.033 218.800 C 224.805 218.800,225.572 218.440,226.165 217.800 C 226.710 217.212,227.534 216.800,228.165 216.800 C 228.796 216.800,229.620 216.388,230.165 215.800 C 230.710 215.212,231.534 214.800,232.165 214.800 C 232.796 214.800,233.620 214.388,234.165 213.800 C 234.710 213.212,235.534 212.800,236.165 212.800 C 236.796 212.800,237.620 212.388,238.165 211.800 C 238.710 211.212,239.534 210.800,240.165 210.800 C 240.796 210.800,241.620 210.388,242.165 209.800 C 242.710 209.212,243.534 208.800,244.165 208.800 C 244.796 208.800,245.620 208.388,246.165 207.800 C 246.710 207.212,247.534 206.800,248.165 206.800 C 248.796 206.800,249.620 206.388,250.165 205.800 C 250.789 205.126,251.518 204.800,252.399 204.800 C 253.883 204.800,255.600 203.294,254.729 202.756 C 254.461 202.591,255.000 202.557,255.927 202.681 C 257.749 202.925,259.875 201.464,258.729 200.756 C 258.461 200.591,259.000 200.557,259.927 200.681 C 261.749 200.925,263.875 199.464,262.729 198.756 C 262.461 198.591,263.000 198.557,263.927 198.681 C 265.749 198.925,267.875 197.464,266.729 196.756 C 266.461 196.591,267.000 196.557,267.927 196.681 C 269.749 196.925,271.875 195.464,270.729 194.756 C 270.461 194.591,271.000 194.557,271.927 194.681 C 273.749 194.925,275.875 193.464,274.729 192.756 C 274.461 192.591,275.000 192.557,275.927 192.681 C 277.749 192.925,279.875 191.464,278.729 190.756 C 278.461 190.591,279.000 190.557,279.927 190.681 C 281.749 190.925,283.875 189.464,282.729 188.756 C 282.461 188.591,283.000 188.557,283.927 188.681 C 285.749 188.925,287.875 187.464,286.729 186.756 C 286.461 186.591,287.000 186.557,287.927 186.681 C 289.749 186.925,291.875 185.464,290.729 184.756 C 290.461 184.591,291.000 184.557,291.927 184.681 C 293.749 184.925,295.875 183.464,294.729 182.756 C 294.461 182.591,295.000 182.557,295.927 182.681 C 297.749 182.925,299.875 181.464,298.729 180.756 C 298.461 180.591,299.000 180.557,299.927 180.681 C 301.749 180.925,303.875 179.464,302.729 178.756 C 302.461 178.591,302.988 178.555,303.900 178.677 C 305.651 178.912,307.077 178.098,306.688 177.084 C 306.551 176.728,306.932 176.630,308.036 176.735 C 309.661 176.890,311.051 176.028,310.689 175.090 C 310.545 174.717,311.327 174.648,313.950 174.800 C 317.067 174.981,317.400 175.077,317.400 175.800 M211.500 238.900 C 211.445 239.175,211.625 239.355,211.900 239.300 C 212.496 239.181,212.556 239.684,212.010 240.230 C 211.757 240.483,212.179 240.641,213.211 240.682 C 214.727 240.742,216.239 241.628,215.716 242.151 C 215.581 242.286,216.050 242.599,216.760 242.846 C 217.620 243.146,217.976 243.486,217.829 243.868 C 217.708 244.184,217.772 244.341,217.970 244.218 C 218.169 244.095,218.423 244.221,218.535 244.498 C 218.690 244.878,218.842 244.854,219.163 244.400 C 219.451 243.993,219.590 243.961,219.594 244.300 C 219.597 244.575,219.883 244.800,220.229 244.800 C 220.574 244.800,221.127 245.070,221.457 245.400 C 221.816 245.759,221.876 246.000,221.605 246.000 C 220.702 246.000,221.615 246.703,222.835 246.947 C 223.753 247.131,224.023 247.363,223.848 247.819 C 223.711 248.176,223.778 248.337,224.005 248.197 C 224.222 248.063,224.400 248.133,224.400 248.352 C 224.400 248.572,225.075 248.808,225.900 248.876 C 227.094 248.975,227.399 249.163,227.395 249.800 C 227.392 250.334,227.724 250.670,228.395 250.811 C 229.118 250.963,229.391 251.271,229.368 251.911 C 229.344 252.584,229.562 252.800,230.268 252.800 C 230.781 252.800,231.200 252.634,231.200 252.431 C 231.200 252.228,231.723 252.322,232.363 252.642 C 233.077 252.998,233.485 253.488,233.421 253.911 C 233.350 254.374,233.658 254.669,234.358 254.811 C 235.129 254.967,235.391 255.259,235.366 255.935 C 235.336 256.712,235.515 256.835,236.566 256.766 C 238.857 256.614,239.200 256.748,239.200 257.800 C 239.200 258.587,239.403 258.800,240.154 258.800 C 240.725 258.800,241.366 259.194,241.751 259.781 C 242.140 260.375,242.751 260.748,243.297 260.725 C 244.955 260.655,245.200 260.794,245.200 261.800 C 245.200 262.587,245.403 262.800,246.154 262.800 C 246.725 262.800,247.366 263.194,247.751 263.781 C 248.140 264.375,248.751 264.748,249.297 264.725 C 250.955 264.655,251.200 264.794,251.200 265.800 C 251.200 266.587,251.403 266.800,252.154 266.800 C 252.743 266.800,253.372 267.203,253.798 267.853 C 254.287 268.600,254.576 268.762,254.794 268.410 C 254.997 268.081,255.187 268.055,255.358 268.333 C 255.501 268.563,255.973 268.682,256.408 268.598 C 257.052 268.474,257.200 268.665,257.200 269.623 C 257.200 270.597,257.365 270.800,258.154 270.800 C 258.752 270.800,259.375 271.208,259.823 271.892 C 260.246 272.536,260.606 272.782,260.703 272.492 C 260.793 272.221,261.167 272.003,261.533 272.006 C 262.110 272.011,262.119 272.065,261.600 272.401 C 261.168 272.681,261.505 272.774,262.800 272.733 C 265.243 272.656,266.105 273.056,265.586 274.027 C 265.148 274.844,269.105 275.009,270.362 274.226 C 270.755 273.981,270.834 274.021,270.625 274.359 C 270.403 274.719,270.881 274.811,272.499 274.721 C 274.191 274.627,274.638 274.468,274.522 274.000 C 274.369 273.384,276.383 272.000,277.432 272.000 C 277.745 272.000,278.000 271.820,278.000 271.600 C 278.000 271.380,278.289 271.200,278.643 271.200 C 279.050 271.200,279.201 270.980,279.055 270.600 C 278.851 270.066,279.220 269.894,280.264 270.036 C 280.409 270.056,280.688 269.786,280.884 269.436 C 281.080 269.086,281.608 268.800,282.057 268.800 C 282.538 268.800,282.961 268.471,283.084 268.000 C 283.218 267.489,283.630 267.200,284.223 267.200 C 284.734 267.200,285.239 267.060,285.345 266.889 C 285.451 266.718,286.244 266.587,287.108 266.599 C 288.420 266.616,288.647 266.503,288.492 265.910 C 288.390 265.519,288.518 265.200,288.777 265.200 C 289.036 265.200,289.156 265.053,289.045 264.872 C 288.933 264.692,289.351 264.619,289.972 264.711 C 290.948 264.854,291.095 264.749,291.051 263.938 C 291.008 263.147,291.218 262.979,292.390 262.868 C 293.321 262.780,294.087 262.366,294.706 261.619 C 295.531 260.624,295.827 260.524,297.424 260.704 C 298.966 260.878,299.180 260.814,298.964 260.249 C 298.801 259.825,299.146 259.149,299.942 258.335 C 300.618 257.643,301.097 256.958,301.007 256.811 C 300.916 256.665,301.373 256.623,302.021 256.718 L 303.200 256.891 303.252 267.145 C 303.281 272.785,303.307 278.255,303.310 279.300 C 303.314 280.345,303.466 281.200,303.648 281.200 C 303.831 281.200,303.809 281.650,303.600 282.200 C 303.323 282.929,303.353 283.202,303.710 283.206 C 304.079 283.211,304.084 283.286,303.730 283.511 C 303.125 283.896,303.080 292.773,303.679 293.495 C 303.914 293.778,303.933 294.000,303.723 294.000 C 303.516 294.000,303.328 294.926,303.303 296.058 C 303.257 298.205,302.631 299.090,301.702 298.319 C 301.282 297.970,301.213 298.168,301.356 299.317 C 301.501 300.492,301.323 300.972,300.367 301.972 C 299.535 302.842,299.200 303.593,299.200 304.584 C 299.200 305.623,299.056 305.920,298.631 305.756 C 298.133 305.565,296.942 307.024,297.129 307.596 C 297.164 307.703,296.933 307.793,296.615 307.796 C 296.297 307.798,295.799 308.125,295.508 308.522 C 295.216 308.920,294.623 309.304,294.189 309.375 C 293.755 309.447,293.448 309.752,293.506 310.053 C 293.580 310.439,293.463 310.412,293.106 309.961 C 292.651 309.387,292.519 309.416,291.800 310.257 C 291.360 310.771,290.595 311.194,290.100 311.196 C 289.377 311.199,289.200 311.425,289.200 312.345 C 289.200 313.329,289.059 313.475,288.200 313.380 C 287.650 313.320,287.200 313.457,287.200 313.684 C 287.200 313.967,287.041 313.968,286.700 313.689 C 286.350 313.403,286.045 313.449,285.684 313.840 C 285.401 314.148,285.288 314.400,285.433 314.400 C 285.579 314.400,285.482 314.660,285.219 314.977 C 284.926 315.330,284.259 315.494,283.505 315.398 C 282.825 315.312,281.939 315.419,281.535 315.635 C 281.031 315.904,280.800 315.891,280.800 315.593 C 280.800 315.354,280.374 315.618,279.854 316.179 C 279.301 316.776,278.470 317.200,277.854 317.200 C 277.137 317.200,276.800 317.413,276.800 317.867 C 276.800 318.233,276.680 318.413,276.532 318.266 C 276.385 318.119,275.979 318.257,275.629 318.574 C 275.279 318.890,274.484 319.242,273.862 319.354 C 273.240 319.467,272.476 319.771,272.165 320.029 C 271.854 320.287,271.587 320.341,271.572 320.149 C 271.556 319.957,271.403 320.160,271.231 320.600 C 270.986 321.228,270.548 321.400,269.198 321.400 C 267.832 321.400,267.454 321.552,267.368 322.137 C 267.222 323.135,267.177 323.161,265.374 323.306 C 264.505 323.376,263.571 323.571,263.297 323.740 C 263.020 323.911,262.800 323.859,262.800 323.624 C 262.800 323.391,262.440 323.560,262.000 324.000 C 261.560 324.440,261.200 324.964,261.200 325.165 C 261.200 325.365,260.885 325.478,260.500 325.416 C 260.115 325.354,259.575 325.482,259.300 325.700 C 258.961 325.970,258.800 325.954,258.800 325.649 C 258.800 325.402,258.440 325.560,258.000 326.000 C 257.560 326.440,257.200 326.964,257.200 327.165 C 257.200 327.365,256.885 327.478,256.500 327.416 C 256.115 327.354,255.575 327.482,255.300 327.700 C 254.963 327.969,254.800 327.956,254.800 327.662 C 254.800 327.423,254.264 327.751,253.608 328.392 C 252.841 329.142,252.116 329.499,251.574 329.395 C 251.043 329.293,250.394 329.597,249.820 330.216 C 249.318 330.757,248.524 331.200,248.054 331.200 C 247.379 331.200,247.200 331.442,247.200 332.354 C 247.200 333.471,247.140 333.506,245.302 333.454 C 244.046 333.418,243.387 333.569,243.352 333.900 C 243.324 334.175,243.278 334.662,243.250 334.981 C 243.211 335.440,242.779 335.512,241.200 335.325 C 239.245 335.094,239.200 335.113,239.200 336.144 C 239.200 336.725,238.975 337.215,238.700 337.233 C 236.819 337.359,236.223 337.574,235.649 338.333 C 235.277 338.826,234.425 339.260,233.652 339.350 C 232.778 339.451,231.976 339.909,231.367 340.653 C 230.851 341.284,230.422 341.643,230.414 341.451 C 230.406 341.259,230.130 341.326,229.800 341.600 C 229.385 341.944,229.200 341.959,229.200 341.649 C 229.200 341.402,228.908 341.200,228.551 341.200 C 228.053 341.200,228.006 341.325,228.348 341.737 C 228.956 342.470,228.419 342.912,227.667 342.297 C 227.156 341.878,227.094 341.926,227.267 342.600 C 227.455 343.328,227.308 343.387,225.648 343.253 C 224.085 343.126,223.893 343.189,224.308 343.690 C 224.946 344.458,224.445 344.933,223.667 344.297 C 223.154 343.876,223.094 343.929,223.277 344.639 C 223.469 345.384,223.345 345.462,222.168 345.332 C 221.123 345.217,220.585 345.437,219.629 346.371 C 218.845 347.138,218.119 347.500,217.574 347.395 C 217.034 347.291,216.384 347.608,215.762 348.278 C 215.229 348.853,214.300 349.368,213.697 349.422 C 213.094 349.476,212.471 349.539,212.313 349.560 C 212.155 349.582,211.757 350.095,211.429 350.700 C 211.101 351.305,210.825 351.710,210.815 351.600 C 210.531 348.175,210.710 238.754,211.000 238.632 C 211.220 238.539,211.445 238.449,211.500 238.432 C 211.555 238.414,211.555 238.625,211.500 238.900 M189.206 294.039 C 189.189 348.318,189.179 348.998,188.395 349.783 C 187.668 350.509,187.600 350.517,187.600 349.871 C 187.600 349.483,187.375 349.194,187.100 349.230 C 185.482 349.440,184.800 349.164,184.800 348.300 C 184.800 347.493,184.604 347.400,182.904 347.400 C 181.202 347.400,180.987 347.297,180.804 346.400 C 180.623 345.515,180.393 345.398,178.801 345.385 C 177.217 345.371,176.979 345.252,176.801 344.385 C 176.624 343.517,176.386 343.398,174.801 343.385 C 173.217 343.371,172.979 343.252,172.801 342.385 C 172.624 341.519,172.385 341.398,170.815 341.385 C 169.264 341.372,168.993 341.241,168.754 340.385 C 168.522 339.553,168.469 339.524,168.408 340.200 C 168.368 340.651,168.248 340.781,168.134 340.498 C 168.023 340.221,167.722 340.121,167.466 340.274 C 167.210 340.428,167.254 340.241,167.564 339.858 C 168.087 339.214,167.997 339.175,166.330 339.329 C 164.586 339.491,164.535 339.464,164.671 338.448 C 164.794 337.529,164.765 337.499,164.434 338.200 C 164.226 338.640,164.044 338.764,164.028 338.476 C 164.011 338.166,163.796 338.075,163.500 338.253 C 163.177 338.447,163.200 338.307,163.564 337.858 C 164.087 337.214,163.997 337.175,162.330 337.329 C 160.586 337.491,160.535 337.464,160.671 336.448 C 160.794 335.529,160.765 335.499,160.434 336.200 C 160.226 336.640,160.044 336.764,160.028 336.476 C 160.011 336.166,159.796 336.075,159.500 336.253 C 159.177 336.447,159.200 336.307,159.564 335.858 C 160.087 335.214,159.997 335.175,158.330 335.329 C 156.586 335.491,156.535 335.464,156.671 334.448 C 156.794 333.529,156.765 333.499,156.434 334.200 C 156.226 334.640,156.044 334.764,156.028 334.476 C 156.011 334.166,155.796 334.075,155.500 334.253 C 155.177 334.447,155.200 334.307,155.564 333.858 C 156.087 333.214,155.997 333.175,154.330 333.329 C 152.586 333.491,152.535 333.464,152.671 332.448 C 152.794 331.529,152.765 331.499,152.434 332.200 C 152.226 332.640,152.044 332.764,152.028 332.476 C 152.011 332.166,151.796 332.075,151.500 332.253 C 151.177 332.447,151.200 332.307,151.564 331.858 C 152.087 331.214,151.997 331.175,150.330 331.329 C 148.586 331.491,148.535 331.464,148.671 330.448 C 148.794 329.529,148.765 329.499,148.434 330.200 C 148.226 330.640,148.044 330.764,148.028 330.476 C 148.011 330.166,147.796 330.075,147.500 330.253 C 147.177 330.447,147.200 330.307,147.564 329.858 C 148.087 329.214,147.997 329.175,146.330 329.329 C 144.586 329.491,144.535 329.464,144.671 328.448 C 144.794 327.529,144.765 327.499,144.434 328.200 C 144.226 328.640,144.044 328.764,144.028 328.476 C 144.011 328.166,143.796 328.075,143.500 328.253 C 143.177 328.447,143.200 328.307,143.564 327.858 C 144.087 327.214,143.997 327.175,142.330 327.329 C 140.586 327.491,140.535 327.464,140.671 326.448 C 140.794 325.529,140.765 325.499,140.434 326.200 C 140.226 326.640,140.044 326.764,140.028 326.476 C 140.011 326.166,139.796 326.075,139.500 326.253 C 139.177 326.447,139.200 326.307,139.564 325.858 C 140.087 325.214,139.997 325.175,138.330 325.329 C 136.586 325.491,136.535 325.464,136.671 324.448 C 136.794 323.529,136.765 323.499,136.434 324.200 C 136.226 324.640,136.044 324.764,136.028 324.476 C 136.011 324.166,135.796 324.075,135.500 324.253 C 135.177 324.447,135.200 324.307,135.564 323.858 C 136.087 323.214,135.997 323.175,134.330 323.329 C 132.586 323.491,132.535 323.464,132.671 322.448 C 132.794 321.529,132.765 321.499,132.434 322.200 C 132.226 322.640,132.044 322.764,132.028 322.476 C 132.011 322.166,131.796 322.075,131.500 322.253 C 131.177 322.447,131.200 322.307,131.564 321.858 C 132.087 321.214,131.997 321.175,130.330 321.329 C 128.586 321.491,128.535 321.464,128.671 320.448 C 128.794 319.529,128.765 319.499,128.434 320.200 C 128.226 320.640,128.044 320.764,128.028 320.476 C 128.011 320.166,127.796 320.075,127.500 320.253 C 127.177 320.447,127.200 320.307,127.564 319.858 C 128.087 319.214,127.997 319.175,126.330 319.329 C 124.586 319.491,124.535 319.464,124.671 318.448 C 124.794 317.529,124.765 317.499,124.434 318.200 C 124.226 318.640,124.044 318.764,124.028 318.476 C 124.011 318.166,123.796 318.075,123.500 318.253 C 123.177 318.447,123.200 318.307,123.564 317.858 C 124.087 317.214,123.997 317.175,122.330 317.329 C 120.586 317.491,120.535 317.464,120.671 316.448 C 120.794 315.529,120.765 315.499,120.434 316.200 C 120.226 316.640,120.044 316.764,120.028 316.476 C 120.011 316.166,119.796 316.075,119.500 316.253 C 119.177 316.447,119.200 316.307,119.564 315.858 C 120.087 315.214,119.997 315.175,118.330 315.329 C 116.586 315.491,116.535 315.464,116.671 314.448 C 116.794 313.529,116.765 313.499,116.434 314.200 C 116.226 314.640,116.044 314.764,116.028 314.476 C 116.011 314.166,115.796 314.075,115.500 314.253 C 115.177 314.447,115.200 314.307,115.564 313.858 C 116.087 313.214,115.997 313.175,114.330 313.329 C 112.586 313.491,112.535 313.464,112.671 312.448 C 112.794 311.529,112.765 311.499,112.434 312.200 C 112.226 312.640,112.044 312.764,112.028 312.476 C 112.011 312.166,111.796 312.075,111.500 312.253 C 111.177 312.447,111.200 312.307,111.564 311.858 C 112.087 311.214,111.997 311.175,110.330 311.329 C 108.586 311.491,108.535 311.464,108.671 310.448 C 108.794 309.529,108.765 309.499,108.434 310.200 C 108.226 310.640,108.044 310.764,108.028 310.476 C 108.011 310.166,107.796 310.075,107.500 310.253 C 107.177 310.447,107.200 310.307,107.564 309.858 C 108.087 309.214,107.997 309.175,106.330 309.329 C 104.586 309.491,104.535 309.464,104.671 308.448 C 104.794 307.529,104.765 307.499,104.434 308.200 C 104.226 308.640,104.044 308.764,104.028 308.476 C 104.011 308.166,103.796 308.075,103.500 308.253 C 103.160 308.457,103.176 308.337,103.549 307.877 C 104.048 307.262,103.948 307.200,102.449 307.200 C 101.250 307.200,100.800 307.036,100.800 306.600 C 100.800 306.246,100.431 305.997,99.900 305.994 C 99.172 305.989,99.115 305.914,99.600 305.600 C 100.122 305.263,100.115 305.211,99.547 305.206 C 99.187 305.203,98.794 304.822,98.674 304.360 C 98.553 303.897,98.262 303.638,98.027 303.783 C 97.792 303.928,97.600 303.857,97.600 303.624 C 97.600 303.391,97.375 303.200,97.100 303.200 C 96.706 303.200,96.621 299.127,96.700 283.900 C 96.755 273.285,96.800 262.834,96.800 260.675 L 96.800 256.749 98.100 256.875 C 99.190 256.980,99.380 257.145,99.275 257.900 C 99.174 258.622,99.343 258.800,100.129 258.800 C 100.732 258.800,101.360 259.184,101.763 259.800 C 102.236 260.522,102.778 260.802,103.709 260.806 C 105.308 260.814,106.209 261.338,105.789 262.017 C 105.595 262.332,105.638 262.424,105.904 262.259 C 106.139 262.114,106.437 262.221,106.566 262.498 C 106.733 262.857,106.862 262.870,107.018 262.546 C 107.399 261.753,109.193 262.868,109.197 263.900 C 109.200 264.697,109.402 264.800,110.967 264.800 C 113.355 264.800,114.160 265.125,113.561 265.847 C 113.309 266.151,113.214 266.423,113.351 266.450 C 113.488 266.478,113.780 266.545,114.000 266.600 C 114.220 266.655,114.580 266.723,114.800 266.750 C 115.020 266.778,115.200 267.053,115.200 267.363 C 115.200 267.728,115.480 267.852,116.000 267.716 C 116.864 267.490,117.125 268.202,116.300 268.535 C 115.983 268.663,116.039 268.748,116.454 268.768 C 116.814 268.786,117.397 269.242,117.751 269.781 C 118.140 270.375,118.751 270.748,119.297 270.725 C 120.872 270.659,121.200 270.784,121.200 271.449 C 121.200 272.008,121.294 272.022,121.877 271.549 C 122.337 271.176,122.457 271.160,122.253 271.500 C 122.075 271.796,122.166 272.011,122.476 272.028 C 122.764 272.044,122.640 272.222,122.200 272.425 C 121.647 272.681,122.271 272.756,124.222 272.669 C 127.161 272.537,127.955 272.866,127.768 274.137 C 127.680 274.740,127.760 274.767,128.309 274.322 C 128.787 273.935,128.876 273.929,128.653 274.300 C 128.423 274.683,129.104 274.800,131.576 274.800 C 134.748 274.800,134.800 274.784,134.800 273.800 C 134.800 272.759,135.192 272.622,137.700 272.788 C 138.667 272.851,138.800 272.718,138.800 271.687 C 138.800 270.524,138.819 270.514,140.800 270.671 C 142.662 270.817,142.800 270.765,142.803 269.914 C 142.805 269.332,143.168 268.832,143.804 268.537 C 144.352 268.283,144.700 268.238,144.577 268.437 C 144.454 268.637,144.903 268.800,145.576 268.800 C 146.615 268.800,146.800 268.649,146.800 267.800 C 146.800 267.000,147.000 266.800,147.800 266.800 C 148.600 266.800,148.800 266.600,148.800 265.800 C 148.800 264.777,148.875 264.743,151.321 264.650 C 152.366 264.610,152.638 264.433,152.621 263.800 C 152.606 263.218,152.900 262.966,153.700 262.873 C 154.564 262.774,154.800 262.538,154.800 261.773 C 154.800 260.779,154.883 260.742,157.321 260.650 C 158.366 260.610,158.638 260.433,158.621 259.800 C 158.606 259.218,158.900 258.966,159.700 258.873 C 160.564 258.774,160.800 258.538,160.800 257.773 C 160.800 256.779,160.883 256.742,163.321 256.650 C 164.366 256.610,164.638 256.433,164.621 255.800 C 164.606 255.218,164.900 254.966,165.700 254.873 C 166.564 254.774,166.800 254.538,166.800 253.773 C 166.800 252.749,167.063 252.655,169.551 252.794 C 170.825 252.866,170.892 252.805,170.732 251.716 C 170.575 250.650,170.647 250.575,171.681 250.727 C 172.636 250.867,172.800 250.753,172.803 249.945 C 172.805 249.330,173.154 248.839,173.804 248.537 C 174.352 248.283,174.700 248.238,174.577 248.437 C 174.454 248.637,174.924 248.800,175.622 248.800 C 176.804 248.800,176.879 248.718,176.715 247.603 C 176.619 246.945,176.620 246.486,176.717 246.584 C 176.815 246.682,177.158 246.499,177.480 246.177 C 177.801 245.856,178.230 245.695,178.432 245.820 C 178.635 245.945,178.800 245.767,178.800 245.424 C 178.800 245.017,179.166 244.800,179.853 244.800 C 180.432 244.800,181.197 244.468,181.553 244.063 C 182.417 243.078,183.924 242.306,184.404 242.602 C 184.617 242.734,184.705 242.607,184.600 242.321 C 184.269 241.421,184.971 240.841,186.513 240.737 C 187.789 240.651,187.974 240.520,187.805 239.818 C 187.696 239.368,187.711 239.225,187.837 239.500 C 188.083 240.036,188.831 240.199,188.753 239.700 C 188.661 239.119,188.802 238.669,189.011 238.878 C 189.127 238.994,189.215 263.816,189.206 294.039 " stroke="none" fill="#fcbc04" fill-rule="evenodd"></path><path id="path1" d="" stroke="none" fill="#100bc04" fill-rule="evenodd"></path><path id="path2" d="" stroke="none" fill="#100bc04" fill-rule="evenodd"></path><path id="path3" d="" stroke="none" fill="#100bc04" fill-rule="evenodd"></path><path id="path4" d="" stroke="none" fill="#100bc04" fill-rule="evenodd"></path></g></svg>