<?xml version="1.0" encoding="utf-8"?>
<!-- Generator: Adobe Illustrator 24.3.0, SVG Export Plug-In . SVG Version: 6.00 Build 0)  -->
<svg version="1.1" id="Calque_1" xmlns="http://www.w3.org/2000/svg" xmlns:xlink="http://www.w3.org/1999/xlink" x="0px" y="0px"
	 viewBox="0 0 200 200" style="enable-background:new 0 0 200 200;" xml:space="preserve">
<style type="text/css">
	.st0{fill:#2C2E3A;}
	.st1{display:none;}
	.st2{display:inline;fill:#2C2E3A;}
	.st3{display:inline;}
</style>
<g>
	<path class="st0" d="M122.18,146.12c0.41-3.45-0.78-4.52-4.35-4.48c-14.66,0.22-29.32,0.18-43.98,0.02
		c-3.01-0.04-7.2,1.74-8.83-1.15c-1.78-3.25,2.37-5.74,3.76-8.63c1.92-3.95,5.87-6.87,5.74-11.9c-0.16-5.83-0.22-11.67,0.04-17.5
		c0.18-4.03-1.37-3.07-3.46-1.62c-6.89,5.03-14.58,5.09-22.55,3.35c7.4-0.22,14.72-0.82,21.36-4.48c6.46-6.24,5.72-12.1-2.43-15.97
		c-9.08-4.33-18.36-4.17-27.48,0.08c-4.62,2.15-6.97,5.77-6.81,11.14c0.23,7.81-0.02,15.66,0.1,23.47c0.04,2.68-0.72,3.58-3.45,3.01
		c-4.72-0.96-9.32-0.08-13.64,1.78c-6.54,2.82-9.16,8.89-2.39,13.68c3.23,1.31,6.44,2.72,9.96,2.99c4.07-0.33,8.2-0.08,12.23-0.9
		c-4.89,2.37-9.85,3.93-15.29,1.96h-0.02c-2.96-0.23-5.72-0.96-7.91-3.11c-1.51-0.84-3.17-2.53-2.98,1.23
		c0.23,4.33,0.18,8.67,0.02,13c-0.12,3.21,1.31,5.46,3.86,7.07c3.27,2.09,6.89,3.15,10.75,3.68c5.72,0.78,10.86-3.33,15.91-2.58
		c5.5,0.78,10.96,3.62,16.56,2.39c11.86-2.6,23.74-0.41,35.6-1.08c4.82-0.27,9.67,0.08,14.48-0.08c4.8-0.18,10.94,2.07,14.01-0.94
		C124.29,157.3,121.63,151.04,122.18,146.12z M26.89,133.77c-2.49-0.22-4.8-0.61-4.91-2.99c-0.12-2.49,2.13-3.03,4.23-3.13
		c2.27-0.1,3.78,0.65,3.93,3.29C30.32,133.91,27.97,133.17,26.89,133.77z M53.43,88.68c2.66-0.02,5.97,0.59,6.07,3.7
		c0.08,2.88-2.99,3.46-5.62,3.52c-2.58-0.06-5.54-0.35-5.75-3.39C47.91,89.34,50.95,88.69,53.43,88.68z"/>
	<path class="st0" d="M84.65,67.67c12.15-5.74,23.45-10.54,34.19-16.36c6.69-3.63,12.13-3.65,18.85,0.03
		c10.74,5.87,22.1,10.61,34.17,16.29c-3.07,1.86-5.38,3.29-7.71,4.67c-10.58,6.28-21.17,12.54-31.74,18.85
		c-1.76,1.05-3.23,1.89-5.45,0.6C113.29,83.85,99.53,76.12,84.65,67.67z"/>
	<path class="st0" d="M174.32,122.54c0.02,1.76-0.86,2.7-2.25,3.52c-13.41,8.03-26.78,16.11-40.2,24.08
		c-3.46,2.06-7.61-0.57-7.97-4.68c-0.2-2.56,1.02-5.32-0.98-7.67c-2.64-4.89-4.87-10.04-8.93-14.05v-0.02
		c-0.53-2.13-7.09,1.82-3.99-3.95c0.14-0.67,0.18-1.27,0.1-1.82c0.63-0.78,1.35-1.45,2.37-1.84c0.18,0.02,0.33,0.02,0.49,0.02
		c0.51,0.02,1-0.02,1.49-0.12c1.66-0.27,3.13-1.1,4.44-2.27c3.35-5.38,6.67-10.77,10.33-16.68c2.11,3.62,3.9,6.67,5.68,9.75
		c0.43,2.02,1.33,3.8,2.82,5.25c3.52,7.59,3.52,7.59,10.53,3.31c8.44-5.19,16.89-10.35,26.05-15.95
		C174.3,107.68,174.26,115.12,174.32,122.54z"/>
	<path class="st0" d="M188.42,87.05c-14.64,8.89-29.26,17.81-43.73,26.99c-4.78,3.03-3.8-2.23-5.68-3.33
		c-0.49-2.25-1.49-4.25-3.05-5.95c-4.29-9.49-4.29-9.49,4.66-14.8c10.73-6.36,21.51-12.63,32.16-19.12
		c2.43-1.47,3.93-1.55,5.85,0.76c3.19,3.84,6.64,7.46,10.12,11.04C190.45,84.41,191.06,85.45,188.42,87.05z"/>
	<path class="st0" d="M125.25,98.5c-2.7,4.56-4.97,9.38-7.44,14.07c-1.19,1.62-2.35,2.33-4.46,0.94c-3.29-2.17-6.87-3.93-10.33-5.87
		c-6.13-3.68-12.27-7.3-18.32-11.08c-3.97-2.47-8.95-4.01-9.85-9.69c-0.04-0.29-0.39-0.53-0.53-0.82c-1.04-2.23-5.7-2.99-4.52-4.97
		c2.58-4.35,6.48-7.93,10.04-11.63c0.9-0.92,2.13,0.39,3.11,0.94c13.58,7.71,27.15,15.48,40.77,23.12
		C126.07,94.82,126.78,95.92,125.25,98.5z"/>
	<path class="st0" d="M66.01,58.96c4.82-2.26,8.97-4.22,13.13-6.15c10.39-4.82,20.87-9.49,31.15-14.54
		c2.61-1.28,4.33-1.33,6.65,0.35c2.77,1.99,5.89,3.5,9.61,5.64c-8.43,4.02-16.03,7.66-23.65,11.26c-6.15,2.91-12.46,5.52-18.43,8.77
		c-3.68,2-6.64,2.07-10.01-0.37C72.07,62.18,69.36,60.89,66.01,58.96z"/>
	<path class="st0" d="M130.31,44.13c4.27-2.54,7.59-4.42,10.81-6.46c1.3-0.82,2.24-0.75,3.63-0.09
		c14.47,6.81,28.99,13.52,43.49,20.27c0.56,0.26,1.02,0.76,1.81,1.38c-3.88,2.22-7.5,4.25-11.08,6.36
		c-1.27,0.74-2.38,0.79-3.74,0.14C160.55,58.62,145.84,51.58,130.31,44.13z"/>
	<path class="st0" d="M121.26,138.43c-0.06,0.16-0.2,0.27-0.37,0.37c-17.87,0-34.74,0.02-51.6-0.04c-0.53,0-1.06-0.63-1.59-0.98
		c1.92-3.09,3.93-6.15,5.74-9.32c1.31-2.31,2.88-4.62,5.72-3.27c2.33,1.1,3.48,4.35,2.58,6.34c-1.61,3.54,0.35,3.23,2.45,3.25
		c6.97,0.02,13.94,0.02,20.9,0c2.06-0.02,3.52,0.1,1.92-3.01c-1.49-2.92,1.94-6.56,5.72-6.87
		C115.42,129.19,118.14,133.52,121.26,138.43z"/>
	<path class="st0" d="M106.71,116.41c-3.01-2.13-6.73-2.68-9.4-0.72c-5.42,4.01-10.67,3.72-16.32,1.21
		c-0.12,5.3,1.96,10.22,4.64,14.29c1.62,2.43,6.3,0.18,9.43,0.94c8.18,2,10-3.6,11.86-9.38
		C106.56,120.66,109.59,118.45,106.71,116.41z M98.47,117.21c1.86-2.13,3.41-2.23,5.15,0.1
		C101.82,117.84,100.27,117.96,98.47,117.21z"/>
	<path class="st0" d="M113.25,116.61c-1.7,0.39-2.02,2.25-3.25,3.15c0.14-0.67,0.18-1.27,0.1-1.82c-0.14-1.06-0.7-1.94-1.94-2.74
		c-4.35-2.9-8.71-3.8-13.23-0.76c-4.35,2.92-8.55,3.11-12.9,0.14c0-4.17,0.18-8.36-0.08-12.51c-0.25-4.01,1.23-3.64,3.88-2.06
		c5.01,2.99,10.1,5.81,15.15,8.71c3.84,2.45,7.65,4.93,11.49,7.38c0.18,0.02,0.33,0.02,0.49,0.02
		C113.08,116.27,113.15,116.43,113.25,116.61z"/>
	<path class="st0" d="M112.96,116.12c0.51,0.02,1-0.02,1.49-0.12l-1.19,0.61c-0.25-0.18-0.53-0.33-0.78-0.51
		C112.64,116.12,112.8,116.12,112.96,116.12z"/>
	<path class="st0" d="M115.7,115.35l1.29-0.67C116.7,115.1,116.25,115.33,115.7,115.35z"/>
</g>
<g class="st1">
	<path class="st2" d="M313.06,45.7c13.21,1.31,26.43,2.61,39.64,3.93c2.52,0.25,5.03,0.66,7.56,0.78c2.93,0.15,4.33,1.46,4.62,4.46
		c1.49,15.53,3.08,31.06,4.71,46.58c0.25,2.43-0.43,4.2-2.18,5.94c-18.84,18.75-37.6,37.58-56.42,56.35
		c-9.27,9.25-14.15,9.23-23.5-0.09c-11.94-11.88-23.85-23.79-35.71-35.74c-1.92-1.93-3.67-4.07-5.23-6.3
		c-2.61-3.72-2.53-7.65,0.06-11.34c1.56-2.23,3.35-4.34,5.27-6.27c18.62-18.69,37.27-37.34,55.98-55.94
		c1.31-1.31,3.17-2.07,4.77-3.08C312.77,45.23,312.91,45.46,313.06,45.7z M362.41,99.68c-0.23-0.13-0.46-0.26-0.69-0.39
		c-1.27-13.11-2.57-26.22-3.78-39.34c-0.16-1.77-0.89-2.43-2.61-2.59c-13.22-1.23-26.42-2.59-39.65-3.7
		c-1.43-0.12-3.37,0.66-4.41,1.69c-14.07,13.9-28.03,27.91-42.01,41.9c-4.88,4.88-9.79,9.72-14.57,14.69
		c-3.29,3.43-3.21,4.66,0.02,8.2c0.89,0.98,1.82,1.9,2.76,2.84c11.62,11.62,23.23,23.25,34.86,34.86c6.77,6.76,7.18,6.76,13.92,0.02
		c17.94-17.92,35.89-35.84,53.76-53.83C361.12,102.9,361.62,101.14,362.41,99.68z"/>
	<path class="st2" d="M334.83,95.6c-8.62-0.08-15.62-7.18-15.59-15.8c0.03-8.6,7.13-15.7,15.71-15.73
		c8.63-0.03,15.92,7.37,15.77,16.01C350.58,88.68,343.42,95.68,334.83,95.6z M326.87,79.72c-0.07,4.52,3.39,8.18,7.89,8.34
		c4.47,0.15,8.41-3.69,8.42-8.21c0.01-4.4-3.7-8.12-8.14-8.15C330.54,71.66,326.95,75.19,326.87,79.72z"/>
	<path class="st2" d="M262.85,115.67c1.15-1.9,1.85-3.75,3.12-5.06c5.83-6.05,11.77-11.99,17.8-17.84c0.69-0.67,2.2-0.51,3.33-0.73
		c-0.3,1.14-0.24,2.61-0.95,3.35c-5.54,5.76-11.21,11.41-16.89,17.04c-1.98,1.97-2.99,3.77-0.47,6.13c0.56,0.52,0.32,1.88,0.45,2.86
		c-1.06-0.16-2.55,0.07-3.1-0.55C264.86,119.43,264.02,117.59,262.85,115.67z"/>
	<path class="st2" d="M293.7,88.12c-1.65,1.25-2.8,2.24-4.1,2.97c-0.15,0.09-1.69-1.69-1.58-1.83c0.92-1.2,2.02-2.3,3.24-3.19
		C291.42,85.96,292.53,87.13,293.7,88.12z"/>
</g>
<g class="st1">
	<path class="st2" d="M534.18,144.44c-0.39,1.63-0.67,3.29-1.19,4.87c-3.02,9.33-11.44,15.92-21.19,16.63
		c-9.57,0.7-18.82-4.57-23.14-13.31c-0.95-1.92-2.43-0.67-3.93-1.21c1.54,3.12,1.78,5.99,0.47,8.88c-0.91,2.01-2.36,3.53-4.29,4.57
		c-3.83,2.06-8.55,1.21-11.55-2.04c-2.47-2.67-3.99-7.58-0.38-12.52c-0.67-0.47-1.38-0.9-2.01-1.43c-2.15-1.78-3.2-4.21-3.86-6.82
		c-3.03-12.06-6.03-24.14-9.03-36.21c-3.54-14.26-7.07-28.53-10.61-42.79c-0.05-0.21-0.1-0.43-0.16-0.64
		c-1.73-5.76-3.54-7.1-9.55-7.1c-3.36,0-6.73,0-10.13,0c-0.12,0.51-0.19,0.93-0.31,1.35c-0.71,2.39-2.98,3.8-5.45,3.41
		c-2.26-0.36-3.99-2.47-3.96-4.82c0.04-2.39,1.84-4.63,4.25-4.66c6.29-0.09,12.59-0.12,18.87,0.16c4.86,0.21,8.19,3,9.83,7.52
		c1.1,3.03,1.85,6.18,2.66,9.31c1.13,4.37,2.17,8.76,3.26,13.15c0.08,0.34,0.21,0.67,0.35,1.11c1.29,0,2.57,0.08,3.84-0.04
		c0.49-0.05,1.02-0.46,1.4-0.84c6.35-6.32,12.68-12.66,19.01-18.99c1.83-1.83,2.86-1.84,4.69,0c2.38,2.38,4.74,4.78,7.18,7.24
		c0.35-0.31,0.65-0.54,0.92-0.8c2.23-2.22,4.45-4.46,6.68-6.67c1.53-1.51,2.7-1.52,4.22,0c6.4,6.39,12.8,12.78,19.18,19.2
		c0.64,0.64,1.27,0.98,2.2,0.93c1.24-0.08,2.48-0.02,3.72-0.02c2.75,0.01,3.7,1.36,2.74,3.91c-2.9,7.7-5.82,15.4-8.73,23.1
		c-1.08,2.86-2.17,5.71-3.24,8.57c-0.15,0.41-0.26,0.83-0.42,1.33c3.32,1.01,6.31,2.52,8.91,4.72c4.76,4.03,7.66,9.1,8.52,15.31
		c0.03,0.21,0.15,0.4,0.22,0.6C534.18,141.07,534.18,142.76,534.18,144.44z M523.46,86.7c-23.17,0-46.11,0-69.11,0
		c0.05,0.35,0.06,0.62,0.13,0.87c3.19,12.89,6.4,25.78,9.54,38.68c0.26,1.07,0.73,1.27,1.72,1.27c7.98-0.04,15.96-0.04,23.94,0
		c0.95,0,1.51-0.33,2.11-1.03c4.91-5.71,11.15-8.59,18.68-8.58c0.92,0,1.3-0.26,1.62-1.1c2.39-6.43,4.83-12.84,7.25-19.26
		C520.7,93.99,522.05,90.44,523.46,86.7z M510.19,161.19c10.52-0.03,19.19-8.72,19.18-19.25c0-10.58-8.75-19.31-19.31-19.26
		c-10.52,0.04-19.19,8.74-19.2,19.26C490.87,152.51,499.6,161.22,510.19,161.19z M465.41,132.38c1.11,3.75,2.1,7.36,3.27,10.92
		c0.64,1.93,2.23,3.13,4.21,3.2c4.51,0.15,9.02,0.05,13.62,0.05c-0.96-4.75-0.36-9.46,1.52-14.16
		C480.47,132.38,473.11,132.38,465.41,132.38z M479.9,67.06c-4.85,4.85-9.89,9.89-14.71,14.71c9.58,0,19.57,0,29.4,0
		C489.62,76.79,484.6,71.76,479.9,67.06z M492.97,72.81c2.81,2.83,5.7,5.75,8.64,8.63c0.29,0.29,0.87,0.38,1.32,0.39
		c2.39,0.04,4.78,0.02,7.17,0.02c1.3,0,2.6,0,3.9,0c-5.12-5.12-10.15-10.15-15.03-15.03C497.06,68.72,495.03,70.75,492.97,72.81z
		 M476.44,151.59c-2.71,0-4.79,2.1-4.79,4.79c0.01,2.67,2.15,4.81,4.81,4.8c2.67-0.01,4.78-2.14,4.78-4.82
		C481.24,153.66,479.15,151.59,476.44,151.59z"/>
	<path class="st2" d="M507.73,127.56c1.65,0,3.14,0,4.69,0c0.05,0.34,0.12,0.64,0.12,0.93c0.01,4.56,0.02,9.13-0.01,13.69
		c0,0.43-0.16,1.03-0.46,1.27c-3.3,2.54-6.63,5.02-10.12,7.63c-0.96-1.27-1.88-2.49-2.88-3.84c2.33-1.75,4.55-3.56,6.91-5.15
		c1.37-0.92,1.87-1.95,1.79-3.6c-0.14-3.14-0.04-6.29-0.04-9.44C507.73,128.58,507.73,128.11,507.73,127.56z"/>
</g>
<g class="st1">
	<path class="st2" d="M141.44,332.01c0,1.5,0.58,3.57-0.17,4.34c-0.74,0.75-2.83,0.17-4.33,0.17c-35.08,0-70.17-0.04-105.25,0.07
		c-2.57,0.01-3.54-0.52-3.01-3.09c0.1-0.48,0.01-1,0.01-1.5c1.07-1.98,2.72-2.74,4.95-2.53c1.32,0.13,2.67-0.03,4,0.04
		c1.12,0.06,1.63-0.24,1.63-1.5c-0.04-14.49-0.02-28.99-0.03-43.48c0-0.63,0.17-1.35-0.72-1.64c-5.4-1.76-8.27-5.8-9.82-11.01
		c0-1.84,0-3.67,0-5.51c0.82-0.08,1.65-0.22,2.47-0.22c35.93-0.01,71.86-0.01,107.8,0c0.82,0,1.65,0.14,2.47,0.22
		c0,1.84,0,3.67,0,5.51c-1.45,4.7-3.84,8.68-8.67,10.52c-1.51,0.57-1.93,1.31-1.92,2.88c0.07,13.33,0.04,26.66,0.04,39.98
		c0,4.24,0,4.28,4.36,4.22C137.69,329.46,140.14,329.28,141.44,332.01z M85.09,271.82c-0.05,0.05-0.13,0.09-0.16,0.15
		c-0.11,0.31-0.2,0.63-0.3,0.95c-1.83,6.11-5.8,9.81-12.22,10.55c-1.62,0.19-1.56,1.08-1.56,2.22c0.01,13.93,0.04,27.87-0.03,41.8
		c-0.01,1.7,0.57,2.06,2.15,2.05c16.27-0.05,32.54-0.06,48.81,0.01c1.88,0.01,2.13-0.69,2.12-2.31c-0.06-14.02-0.05-28.03,0-42.05
		c0.01-1.45-0.37-2.17-1.81-2.73c-4.31-1.66-7.08-4.83-8.29-9.31c-0.13-0.48-0.21-0.98-0.68-1.28c-2.05,7.35-6.77,11.47-13.37,11.67
		C92.55,283.77,88.04,280.17,85.09,271.82z M57.03,271.53c-3,7.03-2.98,7.06-10.04,11.36c-0.89,0.54-0.72,1.22-0.72,1.92
		c-0.02,14.27,0.02,28.54-0.05,42.81c-0.01,1.6,0.53,1.94,2.01,1.92c5.76-0.07,11.52-0.07,17.27,0c1.46,0.02,2.06-0.3,2.05-1.91
		c-0.05-14.27-0.03-28.54-0.03-42.81c0-0.97-0.1-1.7-1.24-2.11C61.1,280.82,58.12,277.01,57.03,271.53z"/>
	<path class="st2" d="M28.7,262.36c0-0.17,0-0.33,0-0.5c0.94-0.43,1.06-1.42,1.45-2.2c3.94-7.81,7.87-15.62,11.71-23.48
		c0.68-1.39,1.46-1.89,3.02-1.88c26.79,0.05,53.58,0.05,80.37,0c1.57,0,2.34,0.5,3.02,1.88c3.84,7.86,7.78,15.67,11.71,23.48
		c0.39,0.77,0.5,1.77,1.45,2.2c0,0.17,0,0.33,0,0.5c-1.17,0.02-2.33,0.07-3.5,0.07c-31,0-62,0.01-92.99,0
		C39.53,262.43,34.12,262.39,28.7,262.36z M107.92,255.26c-0.04-0.15-0.04-0.42-0.16-0.63c-2.55-4.68-5.09-9.37-7.68-14.03
		c-0.52-0.93-1.43-1.18-2.38-0.7c-0.99,0.5-1.16,1.45-0.72,2.36c0.8,1.65,1.73,3.23,2.61,4.84c1.64,3,3.26,6.01,4.94,8.98
		c0.46,0.81,1.14,1.5,2.25,1.04C107.55,256.81,107.95,256.21,107.92,255.26z M58.7,241.53c-0.14-0.94-0.53-1.53-1.36-1.74
		c-1.22-0.31-1.86,0.43-2.34,1.38c-2.12,4.24-4.22,8.49-6.35,12.72c-0.61,1.22-0.99,2.46,0.55,3.18c1.46,0.67,2.07-0.48,2.62-1.57
		c2.08-4.16,4.17-8.31,6.25-12.47C58.34,242.51,58.52,241.96,58.7,241.53z M112.99,239.68c-1.06,0.43-1.99,1.08-1.19,2.68
		c2.25,4.54,4.48,9.08,6.77,13.6c0.47,0.93,1.23,1.69,2.42,1.1c1.24-0.62,1.27-1.67,0.73-2.76c-2.22-4.47-4.46-8.92-6.7-13.38
		C114.64,240.21,114.12,239.72,112.99,239.68z M72.77,241.51c-0.14-0.95-0.52-1.55-1.36-1.74c-1.22-0.28-1.84,0.47-2.32,1.43
		c-2.12,4.24-4.23,8.48-6.36,12.71c-0.62,1.23-0.97,2.46,0.59,3.17c1.49,0.68,2.08-0.54,2.61-1.59c2.1-4.15,4.18-8.31,6.25-12.48
		C72.44,242.49,72.6,241.93,72.77,241.51z M83.32,248.34c0,2.25,0.02,4.5-0.01,6.75c-0.01,1.17,0.49,2.05,1.64,2.11
		c1.31,0.07,1.87-0.84,1.87-2.12c-0.01-4.42-0.01-8.84,0-13.26c0-1.15-0.41-2.04-1.64-2.1c-1.37-0.07-1.88,0.84-1.87,2.11
		C83.33,244,83.32,246.17,83.32,248.34z"/>
	<path class="st2" d="M124.9,223.78c1.58,1.08,2.92,2.29,2.24,4.48c-0.71,2.27-2.51,2.55-4.58,2.55c-24.99-0.02-49.99-0.02-74.98,0
		c-2.06,0-3.86-0.29-4.58-2.55c-0.69-2.19,0.68-3.39,2.24-4.48C71.79,223.78,98.35,223.78,124.9,223.78z"/>
	<path class="st2" d="M108.43,290.42c0.37,0.44,1,1.1,1.51,1.84c0.51,0.74-0.33,1.01-0.67,1.36c-5.88,5.92-11.8,11.79-17.65,17.73
		c-0.96,0.98-1.5,0.85-2.35-0.06c-0.75-0.82-1.3-1.33-0.22-2.4c5.95-5.85,11.82-11.77,17.73-17.66
		C107.11,290.9,107.37,290.4,108.43,290.42z"/>
	<path class="st2" d="M98.2,290.09c0.62,0.76,1.24,1.43,1.76,2.16c0.53,0.75-0.3,1.01-0.64,1.35c-2.61,2.67-5.31,5.25-7.88,7.96
		c-0.99,1.04-1.5,0.47-2.15-0.24c-0.58-0.64-1.53-1.13-0.44-2.19c2.74-2.66,5.41-5.39,8.11-8.08
		C97.25,290.78,97.6,290.57,98.2,290.09z"/>
	<path class="st2" d="M100.56,312.18c-0.97-0.24-1.47-1.06-2.06-1.72c-0.57-0.63,0.09-1.05,0.47-1.44c2.63-2.65,5.3-5.27,7.91-7.95
		c0.77-0.79,1.4-0.84,2,0.04c0.43,0.63,1.87,1,0.74,2.15c-2.81,2.83-5.63,5.65-8.46,8.46C100.98,311.88,100.76,312.02,100.56,312.18
		z"/>
	<path class="st2" d="M63.84,297.87c-0.04,0.27,0.03,0.82-0.2,1.06c-2.24,2.29-1.28,5.14-1.48,7.79c-0.09,1.2,0.2,2.17,1,3.19
		c1.25,1.6,0.96,3.33-0.63,4.64c-1.41,1.16-3.01,1.09-4.34-0.08c-1.53-1.34-1.63-3-0.48-4.7c1.48-2.19,1.47-7.77-0.04-10
		c-0.96-1.41-0.96-2.8,0.06-4.16c0.98-1.3,2.38-1.56,3.82-1.11C63.03,294.97,63.81,296.13,63.84,297.87z"/>
</g>
<g class="st1">
	<g class="st3">
		<path class="st0" d="M434.25,293.23c0,11.74,0,23.49,0.01,35.23c0,0.24-0.05,0.29-0.29,0.29c-20.64-0.01-41.28-0.01-61.91,0
			c-0.24,0-0.29-0.05-0.29-0.29c0.01-12.13,0.01-24.25,0.01-36.38c0.11-0.07,0.22-0.13,0.32-0.2c1.48-1.04,2.96-2.08,4.43-3.11
			c4.34-3.05,8.67-6.1,13.02-9.14c0.22-0.15,0.3-0.31,0.29-0.57c-0.02-0.99-0.01-1.98-0.01-2.96c0-1.18,0.83-2.01,2-2.02
			c0.69-0.01,1.38-0.01,2.07,0c0.24,0,0.33-0.06,0.32-0.32c-0.01-1.16-0.01-2.32-0.01-3.47c0-0.64,0.28-0.98,0.92-1.1
			c4.3-0.81,8.6-1.61,12.9-2.42c0.83-0.16,1.67-0.27,2.49-0.5c0.19,0,0.38,0,0.57,0c0.56,0.27,0.71,0.74,0.7,1.33
			c-0.02,2.03,0,4.06-0.02,6.09c0,0.34,0.1,0.41,0.41,0.39c0.64-0.02,1.27-0.01,1.91-0.01c1.28,0.01,2.08,0.82,2.08,2.11
			c0,5.02,0,10.03,0,15.05c0,0.06,0.01,0.13,0,0.19c-0.02,0.19,0.07,0.24,0.24,0.23c0.44-0.01,0.87-0.02,1.31,0
			c0.32,0.02,0.41-0.07,0.41-0.4c-0.01-4.36-0.01-8.71-0.01-13.07c0-0.11,0-0.21,0.01-0.32c0.06-0.5,0.47-0.86,0.95-0.87
			c0.35,0,0.62,0.17,0.85,0.43c1.61,1.79,3.22,3.56,4.82,5.35c0.16,0.17,0.24,0.2,0.41,0.01c0.9-1.02,1.82-2.02,2.73-3.03
			c0.73-0.8,1.45-1.61,2.18-2.41c0.31-0.34,0.72-0.43,1.1-0.28c0.42,0.17,0.61,0.5,0.62,0.95c0,0.1,0,0.19,0,0.29
			c0,4.33,0,8.65-0.01,12.98c0,0.29,0.08,0.38,0.37,0.37c0.72-0.03,1.3,0.25,1.73,0.84C434.07,292.71,434.13,292.98,434.25,293.23z
			 M389.77,281.86c-0.11,0.07-0.21,0.14-0.31,0.21c-5.15,3.62-10.31,7.25-15.47,10.86c-0.21,0.15-0.28,0.3-0.28,0.55
			c0.01,10.97,0,21.93,0.01,32.9c0,0.41,0,0.41,0.41,0.41c5.07,0,10.14,0,15.21,0c0.56,0,0.48,0.06,0.48-0.47
			c0-14.7,0-29.39,0-44.09C389.82,282.12,389.85,282,389.77,281.86z M432.29,310.19c0-5.39,0-10.77,0-16.16c0-0.43,0-0.43-0.42-0.43
			c-5.11,0-10.22,0-15.33-0.01c-0.28,0-0.35,0.07-0.35,0.35c0.01,10.82,0.01,21.63,0,32.45c0,0.32,0.07,0.41,0.4,0.41
			c5.1-0.01,10.2-0.01,15.3-0.01c0.41,0,0.41,0,0.41-0.41C432.29,320.98,432.29,315.58,432.29,310.19z M403.02,305.31
			C403.02,305.31,403.02,305.31,403.02,305.31c-3.63,0-7.27,0-10.9,0c-0.25,0-0.36,0.04-0.34,0.32c0.03,0.37,0.01,0.74,0.01,1.12
			c0,6.57,0,13.13-0.01,19.7c0,0.25,0.05,0.36,0.33,0.35c0.76-0.02,1.53-0.02,2.29,0c0.25,0.01,0.32-0.07,0.32-0.32
			c-0.01-4.35-0.01-8.69,0-13.04c0-0.22-0.06-0.31-0.28-0.36c-0.4-0.1-0.63-0.38-0.69-0.78c-0.06-0.41,0.09-0.73,0.43-0.96
			c0.22-0.15,0.48-0.16,0.73-0.16c5.4,0,10.8,0,16.19,0c0.08,0,0.17,0,0.25,0c0.5,0.04,0.86,0.39,0.91,0.87
			c0.05,0.49-0.23,0.93-0.73,1.05c-0.21,0.05-0.24,0.14-0.24,0.32c0,4.37,0,8.73,0,13.1c0,0.23,0.07,0.29,0.29,0.29
			c0.76-0.01,1.53-0.02,2.29,0c0.27,0.01,0.36-0.06,0.36-0.35c-0.01-6.91-0.01-13.81-0.01-20.72c0-0.41,0-0.41-0.41-0.41
			C410.22,305.31,406.62,305.31,403.02,305.31z M396.66,319.95c0,2.17,0,4.33-0.01,6.5c0,0.26,0.06,0.36,0.33,0.34
			c0.4-0.02,0.81,0,1.21-0.01c0.41,0,0.41,0,0.41-0.41c0-3.1,0-6.2,0-9.31c0-1.12,0.81-1.98,1.89-1.99c1.67-0.02,3.34-0.02,5,0
			c1.06,0.01,1.87,0.86,1.89,1.93c0.01,0.45,0,0.89,0,1.34c0,2.7,0,5.4-0.01,8.1c0,0.26,0.06,0.36,0.33,0.34
			c0.41-0.02,0.83-0.03,1.24,0c0.3,0.02,0.39-0.07,0.39-0.38c-0.01-4.3-0.01-8.61,0-12.91c0-0.3-0.07-0.39-0.38-0.39
			c-3.98,0.01-7.97,0.01-11.95,0c-0.29,0-0.38,0.06-0.37,0.36C396.67,315.64,396.66,317.79,396.66,319.95z M403,274.07
			c2.17,0,4.33,0,6.5,0c0.16,0,0.34,0.06,0.34-0.23c-0.01-1.73-0.01-3.46,0-5.19c0-0.2-0.07-0.23-0.25-0.18
			c-0.29,0.07-0.58,0.11-0.88,0.16c-4.08,0.76-8.16,1.53-12.24,2.29c-0.23,0.04-0.32,0.12-0.31,0.37c0.02,0.81,0.02,1.61,0,2.42
			c-0.01,0.29,0.07,0.37,0.37,0.37C398.69,274.06,400.85,274.06,403,274.07z M400.57,321.91c0,1.51,0.01,3.02-0.01,4.52
			c0,0.3,0.09,0.37,0.38,0.36c1.4-0.01,2.8-0.01,4.21,0c0.23,0,0.31-0.05,0.31-0.3c-0.01-3.06-0.01-6.12,0-9.17
			c0-0.24-0.07-0.3-0.31-0.3c-1.4,0.01-2.8,0.01-4.21,0c-0.28,0-0.38,0.06-0.38,0.36C400.58,318.89,400.57,320.4,400.57,321.91z
			 M403.03,278.95c1.18,0,2.36-0.01,3.54,0.01c0.29,0,0.35-0.09,0.35-0.36c-0.02-0.74-0.02-1.49,0-2.23c0-0.25-0.05-0.35-0.33-0.35
			c-2.39,0.01-4.78,0.01-7.17,0c-0.27,0-0.32,0.09-0.31,0.33c0.01,0.75,0.02,1.51,0,2.26c-0.01,0.29,0.1,0.35,0.36,0.35
			C400.65,278.94,401.84,278.95,403.03,278.95z M403,280.91c-1.2,0-2.4,0-3.6,0c-0.21,0-0.3,0.03-0.3,0.27
			c0.01,0.8,0.01,1.59,0,2.39c0,0.22,0.08,0.27,0.28,0.27c2.42,0,4.85-0.01,7.27,0c0.22,0,0.27-0.08,0.27-0.28
			c-0.01-0.79-0.01-1.57,0-2.36c0.01-0.25-0.08-0.3-0.31-0.3C405.4,280.91,404.2,280.91,403,280.91z M403.01,288.71
			C403.01,288.71,403.01,288.71,403.01,288.71c1.21,0,2.42-0.01,3.63,0c0.21,0,0.27-0.06,0.27-0.27c-0.01-0.8-0.01-1.59,0-2.39
			c0-0.2-0.04-0.28-0.26-0.28c-2.42,0.01-4.84,0.01-7.26,0c-0.22,0-0.29,0.06-0.29,0.29c0.01,0.77,0.02,1.55,0,2.32
			c-0.01,0.28,0.09,0.33,0.35,0.33C400.63,288.7,401.82,288.71,403.01,288.71z M403.01,300.43c-1.21,0-2.42,0-3.63,0
			c-0.2,0-0.28,0.04-0.28,0.26c0.01,0.8,0.01,1.59,0,2.39c0,0.22,0.07,0.29,0.29,0.29c2.41-0.01,4.82-0.01,7.23,0
			c0.22,0,0.3-0.05,0.29-0.28c-0.01-0.79-0.01-1.57,0-2.36c0-0.24-0.07-0.3-0.31-0.3C405.41,300.44,404.21,300.43,403.01,300.43z
			 M403.04,290.67c-1.22,0-2.44,0-3.66,0c-0.2,0-0.28,0.05-0.28,0.27c0.01,0.8,0.01,1.59,0,2.39c0,0.23,0.07,0.28,0.29,0.28
			c2.41-0.01,4.82-0.01,7.23,0c0.22,0,0.3-0.05,0.29-0.28c-0.01-0.79-0.01-1.57,0-2.36c0-0.24-0.07-0.3-0.31-0.3
			C405.42,290.67,404.23,290.67,403.04,290.67z M402.99,298.47c1.21,0,2.42,0,3.63,0c0.22,0,0.29-0.06,0.29-0.28
			c-0.01-0.8-0.01-1.59,0-2.39c0-0.22-0.08-0.27-0.28-0.27c-2.42,0.01-4.84,0-7.26,0c-0.2,0-0.28,0.06-0.27,0.27
			c0.01,0.79,0.02,1.57,0,2.36c-0.01,0.27,0.09,0.31,0.33,0.31C400.62,298.47,401.8,298.47,402.99,298.47z M420.14,280.56
			c-0.03,0.08-0.04,0.1-0.04,0.12c0,3.58,0,7.16-0.01,10.74c0,0.2,0.09,0.23,0.25,0.22c0.46-0.01,0.91-0.02,1.37,0
			c0.26,0.01,0.35-0.06,0.34-0.33c-0.01-1.5,0-3-0.01-4.49c0-0.41,0.12-0.74,0.4-1.03c0.36-0.37,0.69-0.78,1.05-1.15
			c0.14-0.14,0.13-0.22,0-0.36c-0.65-0.7-1.29-1.41-1.93-2.12C421.1,281.63,420.63,281.11,420.14,280.56z M429.86,280.58
			c-0.08,0.05-0.11,0.06-0.13,0.08c-1.1,1.21-2.19,2.43-3.29,3.63c-0.12,0.14-0.1,0.22,0.02,0.35c0.36,0.39,0.7,0.8,1.07,1.18
			c0.28,0.29,0.38,0.61,0.38,1.01c-0.01,1.51,0,3.02-0.01,4.52c0,0.24,0.06,0.31,0.3,0.3c0.42-0.02,0.85-0.03,1.27,0
			c0.31,0.02,0.39-0.07,0.39-0.38c-0.01-3.44-0.01-6.88-0.01-10.32C429.86,280.84,429.86,280.73,429.86,280.58z M394.46,278.95
			c0.81,0,1.61,0,2.42,0c0.2,0,0.28-0.05,0.27-0.27c-0.01-0.81-0.01-1.61,0-2.42c0-0.2-0.07-0.25-0.26-0.25
			c-1.61,0.01-3.23,0.01-4.84,0c-0.24,0-0.28,0.09-0.27,0.3c0.01,0.77,0.02,1.55,0,2.32c-0.01,0.27,0.09,0.32,0.33,0.31
			C392.89,278.94,393.67,278.95,394.46,278.95z M411.55,278.95c0.8,0,1.59-0.01,2.39,0c0.21,0,0.3-0.04,0.3-0.28
			c-0.01-0.8-0.01-1.59,0-2.39c0-0.21-0.07-0.27-0.27-0.27c-1.61,0.01-3.22,0.01-4.84,0c-0.21,0-0.27,0.08-0.27,0.28
			c0.01,0.8,0.01,1.59,0,2.39c0,0.21,0.07,0.27,0.27,0.27C409.94,278.94,410.75,278.95,411.55,278.95z M394.43,283.83
			c0.81,0,1.61-0.01,2.42,0c0.21,0,0.3-0.04,0.3-0.28c-0.01-0.8-0.01-1.59,0-2.39c0-0.21-0.06-0.27-0.27-0.27
			c-1.61,0.01-3.23,0.01-4.84,0c-0.21,0-0.27,0.07-0.27,0.28c0.01,0.8,0.01,1.59,0,2.39c0,0.21,0.07,0.27,0.27,0.27
			C392.84,283.83,393.64,283.83,394.43,283.83z M411.55,280.91c-0.81,0-1.61,0-2.42,0c-0.18,0-0.27,0.03-0.27,0.24
			c0.01,0.82,0.01,1.63,0,2.45c0,0.18,0.06,0.24,0.24,0.24c1.63,0,3.27,0,4.9,0c0.18,0,0.24-0.07,0.23-0.24
			c-0.01-0.81-0.01-1.61,0-2.42c0-0.21-0.06-0.27-0.27-0.27C413.16,280.91,412.35,280.91,411.55,280.91z M394.46,288.71
			c0.81,0,1.61-0.01,2.42,0c0.21,0,0.27-0.06,0.27-0.27c-0.01-0.8-0.01-1.59,0-2.39c0-0.2-0.05-0.28-0.26-0.28
			c-1.61,0.01-3.23,0.01-4.84,0c-0.21,0-0.27,0.07-0.27,0.27c0.01,0.8,0.01,1.59,0,2.39c0,0.24,0.09,0.28,0.3,0.27
			C392.87,288.7,393.66,288.71,394.46,288.71z M411.55,288.71c0.79,0,1.57-0.01,2.36,0.01c0.28,0.01,0.33-0.09,0.33-0.34
			c-0.02-0.76-0.02-1.53,0-2.29c0-0.24-0.06-0.31-0.3-0.31c-1.59,0.01-3.19,0.01-4.78,0c-0.21,0-0.3,0.04-0.3,0.28
			c0.01,0.8,0.01,1.59,0,2.39c0,0.21,0.06,0.27,0.27,0.27C409.94,288.7,410.75,288.71,411.55,288.71z M394.47,290.67
			c-0.81,0-1.61,0.01-2.42,0c-0.21,0-0.28,0.06-0.27,0.27c0.01,0.8,0.01,1.59,0,2.39c0,0.23,0.08,0.28,0.3,0.28
			c1.6-0.01,3.21-0.01,4.81,0c0.21,0,0.28-0.06,0.27-0.27c-0.01-0.8-0.01-1.59,0-2.39c0-0.23-0.08-0.28-0.29-0.28
			C396.06,290.67,395.27,290.67,394.47,290.67z M411.52,298.47c0.81,0,1.61-0.01,2.42,0c0.21,0,0.3-0.04,0.3-0.27
			c-0.01-0.8-0.01-1.59,0-2.39c0-0.21-0.07-0.27-0.27-0.27c-1.61,0.01-3.23,0.01-4.84,0c-0.21,0-0.27,0.07-0.27,0.28
			c0.01,0.8,0.01,1.59,0,2.39c0,0.21,0.06,0.27,0.27,0.27C409.93,298.46,410.72,298.47,411.52,298.47z M394.49,300.43
			c-0.82,0-1.64,0-2.45,0c-0.19,0-0.26,0.05-0.26,0.25c0.01,0.81,0.01,1.61,0,2.42c0,0.21,0.07,0.27,0.27,0.27
			c1.61-0.01,3.23-0.01,4.84,0c0.19,0,0.26-0.05,0.26-0.25c-0.01-0.81-0.01-1.61,0-2.42c0-0.22-0.08-0.27-0.28-0.26
			C396.08,300.44,395.28,300.43,394.49,300.43z M411.55,300.43c-0.81,0-1.61,0-2.42,0c-0.18,0-0.27,0.03-0.27,0.24
			c0.01,0.82,0.01,1.64,0,2.45c0,0.18,0.05,0.24,0.23,0.24c1.64-0.01,3.27-0.01,4.91,0c0.22,0,0.23-0.11,0.23-0.28
			c-0.01-0.79-0.01-1.57,0-2.36c0-0.23-0.06-0.31-0.3-0.31C413.14,300.44,412.35,300.43,411.55,300.43z M394.47,295.54
			c-0.81,0-1.61,0.01-2.42,0c-0.21,0-0.27,0.06-0.27,0.27c0.01,0.8,0.01,1.59,0,2.39c0,0.2,0.05,0.28,0.26,0.28
			c1.61-0.01,3.23-0.01,4.84,0c0.21,0,0.27-0.06,0.27-0.27c-0.01-0.8-0.01-1.59,0-2.39c0-0.23-0.09-0.28-0.3-0.28
			C396.06,295.55,395.26,295.54,394.47,295.54z M411.55,290.67c-0.8,0-1.59,0.01-2.39-0.01c-0.24,0-0.3,0.07-0.3,0.31
			c0.01,0.79,0.01,1.57,0,2.36c0,0.2,0.06,0.28,0.27,0.28c1.61-0.01,3.23-0.01,4.84,0c0.21,0,0.27-0.07,0.27-0.28
			c-0.01-0.79-0.01-1.57,0-2.36c0-0.23-0.06-0.31-0.3-0.31C413.14,290.68,412.35,290.67,411.55,290.67z M425.95,289.27
			c0-0.68,0-1.36,0-2.04c0-0.16-0.03-0.29-0.15-0.4c-0.23-0.24-0.45-0.48-0.66-0.73c-0.12-0.15-0.2-0.18-0.34-0.01
			c-0.21,0.26-0.45,0.51-0.68,0.76c-0.09,0.1-0.14,0.2-0.14,0.34c0,1.4,0.01,2.8,0,4.2c0,0.2,0.07,0.25,0.26,0.25
			c0.48-0.01,0.95-0.01,1.43,0c0.21,0.01,0.28-0.06,0.27-0.27C425.95,290.67,425.95,289.97,425.95,289.27z"/>
		<path class="st0" d="M381.74,303.36c-1.27,0-2.55,0.01-3.82,0c-0.71,0-1.17-0.58-0.99-1.23c0.11-0.42,0.47-0.72,0.94-0.72
			c2.6-0.01,5.2-0.01,7.8,0c0.58,0,0.99,0.45,0.98,1c-0.01,0.53-0.43,0.95-0.99,0.95C384.35,303.36,383.05,303.36,381.74,303.36z"/>
		<path class="st0" d="M381.76,313.12c-1.28,0-2.57,0-3.85,0c-0.45,0-0.81-0.24-0.95-0.62c-0.15-0.39-0.04-0.82,0.28-1.1
			c0.19-0.17,0.42-0.24,0.68-0.24c2.57,0,5.14,0,7.71,0c0.61,0,1.04,0.42,1.04,0.98c0,0.57-0.44,0.98-1.07,0.98
			C384.31,313.12,383.04,313.12,381.76,313.12z"/>
		<path class="st0" d="M381.78,316.05c1.28,0,2.57,0,3.85,0c0.49,0,0.86,0.28,0.98,0.71c0.12,0.43-0.06,0.87-0.44,1.1
			c-0.18,0.11-0.38,0.14-0.58,0.14c-2.56,0-5.12,0-7.68,0c-0.61,0-1.03-0.42-1.03-0.98c0-0.55,0.44-0.97,1.04-0.97
			C379.21,316.05,380.5,316.05,381.78,316.05C381.78,316.05,381.78,316.05,381.78,316.05z"/>
		<path class="st0" d="M381.75,298.47c-1.28,0-2.57,0-3.85,0c-0.47,0-0.82-0.25-0.95-0.66c-0.13-0.38-0.01-0.81,0.3-1.07
			c0.19-0.16,0.4-0.22,0.65-0.22c2.58,0,5.16,0,7.74,0c0.59,0,1.01,0.41,1.02,0.96c0.01,0.56-0.42,0.98-1.02,0.99
			C384.34,298.48,383.04,298.47,381.75,298.47z"/>
		<path class="st0" d="M381.76,306.29c1.26,0,2.53,0,3.79,0c0.66,0,1.1,0.39,1.1,0.97c0,0.58-0.45,0.97-1.1,0.97
			c-2.53,0-5.05,0-7.58,0c-0.63,0-1.07-0.39-1.08-0.96c-0.01-0.58,0.44-0.99,1.09-0.99C379.24,306.29,380.5,306.29,381.76,306.29z"
			/>
		<path class="st0" d="M424.21,303.36c-1.25,0-2.51,0-3.76,0c-0.65,0-1.09-0.4-1.08-0.99c0-0.56,0.45-0.96,1.08-0.97
			c2.54,0,5.08,0,7.61,0c0.63,0,1.07,0.41,1.07,0.98c0,0.56-0.44,0.98-1.07,0.98C426.78,303.36,425.49,303.36,424.21,303.36z"/>
		<path class="st0" d="M424.24,313.12c-1.26,0-2.53,0-3.79,0c-0.64,0-1.08-0.39-1.09-0.95c-0.01-0.58,0.43-1,1.08-1
			c2.54,0,5.08,0,7.61,0c0.65,0,1.09,0.42,1.07,1c-0.01,0.56-0.45,0.95-1.09,0.95C426.77,313.12,425.51,313.12,424.24,313.12z"/>
		<path class="st0" d="M424.27,316.05c1.25,0,2.51,0,3.76,0c0.65,0,1.08,0.38,1.09,0.95c0.01,0.58-0.43,1-1.08,1
			c-2.55,0-5.1,0.01-7.65,0c-0.62,0-1.06-0.43-1.04-1c0.01-0.56,0.45-0.95,1.06-0.95C421.7,316.05,422.99,316.05,424.27,316.05z"/>
		<path class="st0" d="M424.24,308.24c-1.26,0-2.53,0-3.79,0c-0.65,0-1.11-0.41-1.09-0.98c0.01-0.57,0.44-0.96,1.08-0.96
			c2.54,0,5.08,0,7.61,0c0.64,0,1.07,0.39,1.08,0.97c0.01,0.57-0.43,0.98-1.06,0.98C426.79,308.24,425.52,308.24,424.24,308.24z"/>
		<path class="st0" d="M424.21,298.47c-1.25,0-2.51,0-3.76,0c-0.64,0-1.08-0.39-1.09-0.95c-0.01-0.58,0.43-0.99,1.08-0.99
			c2.54,0,5.08,0,7.61,0c0.64,0,1.07,0.4,1.07,0.97c0,0.57-0.43,0.97-1.07,0.97C426.78,298.47,425.49,298.47,424.21,298.47z"/>
	</g>
	<g class="st3">
		<path class="st0" d="M536.95,293.51c0,11.74,0,23.49,0.01,35.23c0,0.24-0.05,0.29-0.29,0.29c-20.64-0.01-41.28-0.01-61.91,0
			c-0.24,0-0.29-0.05-0.29-0.29c0.01-12.13,0.01-24.25,0.01-36.38c0.11-0.07,0.22-0.13,0.32-0.2c1.48-1.04,2.96-2.08,4.43-3.11
			c4.34-3.05,8.67-6.1,13.02-9.14c0.22-0.15,0.3-0.31,0.29-0.57c-0.02-0.99-0.01-1.98-0.01-2.96c0-1.18,0.83-2.01,2-2.02
			c0.69-0.01,1.38-0.01,2.07,0c0.24,0,0.33-0.06,0.32-0.32c-0.01-1.16-0.01-2.32-0.01-3.47c0-0.64,0.28-0.98,0.92-1.1
			c4.3-0.81,8.6-1.61,12.9-2.42c0.83-0.16,1.67-0.27,2.49-0.5c0.19,0,0.38,0,0.57,0c0.56,0.27,0.71,0.74,0.7,1.33
			c-0.02,2.03,0,4.06-0.02,6.09c0,0.34,0.1,0.41,0.41,0.39c0.64-0.02,1.28-0.01,1.91-0.01c1.28,0.01,2.08,0.82,2.08,2.11
			c0,5.02,0,10.03,0,15.05c0,0.06,0.01,0.13,0,0.19c-0.02,0.19,0.07,0.24,0.24,0.23c0.44-0.01,0.87-0.02,1.31,0
			c0.32,0.02,0.41-0.07,0.41-0.4c-0.01-4.36-0.01-8.71-0.01-13.07c0-0.11,0-0.21,0.01-0.32c0.06-0.5,0.47-0.86,0.95-0.87
			c0.35,0,0.62,0.17,0.85,0.43c1.61,1.79,3.22,3.56,4.82,5.35c0.16,0.17,0.24,0.2,0.41,0.01c0.9-1.02,1.82-2.02,2.73-3.03
			c0.73-0.8,1.45-1.61,2.18-2.41c0.31-0.34,0.72-0.43,1.1-0.28c0.42,0.17,0.61,0.5,0.62,0.95c0,0.1,0,0.19,0,0.29
			c0,4.33,0,8.65-0.01,12.98c0,0.29,0.08,0.38,0.37,0.37c0.72-0.03,1.3,0.25,1.73,0.84C536.77,292.99,536.83,293.26,536.95,293.51z
			 M492.46,282.14c-0.11,0.07-0.21,0.14-0.31,0.21c-5.15,3.62-10.31,7.25-15.47,10.86c-0.21,0.15-0.28,0.3-0.28,0.55
			c0.01,10.97,0,21.93,0.01,32.9c0,0.41,0,0.41,0.41,0.41c5.07,0,10.14,0,15.21,0c0.56,0,0.48,0.06,0.48-0.47
			c0-14.7,0-29.39,0-44.09C492.52,282.4,492.54,282.28,492.46,282.14z M534.99,310.47c0-5.39,0-10.77,0-16.16
			c0-0.43,0-0.43-0.42-0.43c-5.11,0-10.22,0-15.33-0.01c-0.28,0-0.35,0.07-0.35,0.35c0.01,10.82,0.01,21.63,0,32.45
			c0,0.32,0.07,0.41,0.4,0.41c5.1-0.01,10.2-0.01,15.3-0.01c0.41,0,0.41,0,0.41-0.41C534.99,321.26,534.99,315.87,534.99,310.47z
			 M505.71,305.59C505.71,305.59,505.71,305.59,505.71,305.59c-3.63,0-7.27,0-10.9,0c-0.25,0-0.36,0.04-0.34,0.32
			c0.03,0.37,0.01,0.74,0.01,1.12c0,6.57,0,13.13-0.01,19.7c0,0.25,0.05,0.36,0.33,0.35c0.76-0.02,1.53-0.02,2.29,0
			c0.25,0.01,0.32-0.07,0.32-0.32c-0.01-4.35-0.01-8.69,0-13.04c0-0.22-0.06-0.31-0.28-0.36c-0.4-0.1-0.63-0.38-0.69-0.78
			c-0.06-0.41,0.09-0.73,0.43-0.96c0.22-0.15,0.48-0.16,0.73-0.16c5.4,0,10.8,0,16.19,0c0.08,0,0.17,0,0.25,0
			c0.5,0.04,0.86,0.39,0.91,0.87c0.05,0.49-0.23,0.93-0.73,1.05c-0.21,0.05-0.24,0.14-0.24,0.32c0,4.37,0,8.73,0,13.1
			c0,0.23,0.07,0.29,0.29,0.29c0.76-0.01,1.53-0.02,2.29,0c0.27,0.01,0.36-0.06,0.36-0.35c-0.01-6.91-0.01-13.81-0.01-20.72
			c0-0.41,0-0.41-0.41-0.41C512.92,305.59,509.32,305.59,505.71,305.59z M499.35,320.23c0,2.17,0,4.33-0.01,6.5
			c0,0.26,0.06,0.36,0.33,0.34c0.4-0.02,0.81,0,1.21-0.01c0.41,0,0.41,0,0.41-0.41c0-3.1,0-6.2,0-9.31c0-1.12,0.81-1.98,1.89-1.99
			c1.67-0.02,3.34-0.02,5,0c1.06,0.01,1.87,0.86,1.89,1.93c0.01,0.45,0,0.89,0,1.34c0,2.7,0,5.4-0.01,8.1
			c0,0.26,0.06,0.36,0.33,0.34c0.41-0.02,0.83-0.03,1.24,0c0.3,0.02,0.39-0.07,0.39-0.38c-0.01-4.3-0.01-8.61,0-12.91
			c0-0.3-0.07-0.39-0.38-0.39c-3.98,0.01-7.97,0.01-11.95,0c-0.29,0-0.38,0.06-0.37,0.36C499.36,315.92,499.35,318.07,499.35,320.23
			z M505.7,274.35c2.17,0,4.33,0,6.5,0c0.16,0,0.34,0.06,0.34-0.23c-0.01-1.73-0.01-3.46,0-5.19c0-0.2-0.07-0.23-0.25-0.18
			c-0.29,0.07-0.58,0.11-0.88,0.16c-4.08,0.76-8.16,1.53-12.24,2.29c-0.23,0.04-0.32,0.12-0.31,0.37c0.02,0.81,0.02,1.61,0,2.42
			c-0.01,0.29,0.07,0.37,0.37,0.37C501.39,274.34,503.54,274.35,505.7,274.35z M503.26,322.19c0,1.51,0.01,3.02-0.01,4.52
			c0,0.3,0.09,0.37,0.38,0.36c1.4-0.01,2.8-0.01,4.21,0c0.23,0,0.31-0.05,0.31-0.3c-0.01-3.06-0.01-6.12,0-9.17
			c0-0.24-0.07-0.3-0.31-0.3c-1.4,0.01-2.8,0.01-4.21,0c-0.28,0-0.38,0.06-0.38,0.36C503.27,319.17,503.26,320.68,503.26,322.19z
			 M505.72,279.23c1.18,0,2.36-0.01,3.54,0.01c0.29,0,0.35-0.09,0.35-0.36c-0.02-0.74-0.02-1.49,0-2.23c0-0.25-0.05-0.35-0.33-0.35
			c-2.39,0.01-4.78,0.01-7.17,0c-0.27,0-0.32,0.09-0.31,0.33c0.01,0.75,0.02,1.51,0,2.26c-0.01,0.29,0.1,0.35,0.36,0.35
			C503.34,279.22,504.53,279.23,505.72,279.23z M505.7,281.19c-1.2,0-2.4,0-3.6,0c-0.21,0-0.3,0.03-0.3,0.27
			c0.01,0.8,0.01,1.59,0,2.39c0,0.22,0.08,0.27,0.28,0.27c2.42,0,4.85-0.01,7.27,0c0.22,0,0.27-0.08,0.27-0.28
			c-0.01-0.79-0.01-1.57,0-2.36c0.01-0.25-0.08-0.3-0.31-0.3C508.1,281.19,506.9,281.19,505.7,281.19z M505.71,288.99
			C505.71,288.99,505.71,288.99,505.71,288.99c1.21,0,2.42-0.01,3.63,0c0.21,0,0.27-0.06,0.27-0.27c-0.01-0.8-0.01-1.59,0-2.39
			c0-0.2-0.04-0.28-0.26-0.28c-2.42,0.01-4.84,0.01-7.26,0c-0.22,0-0.29,0.06-0.29,0.29c0.01,0.77,0.02,1.55,0,2.32
			c-0.01,0.28,0.09,0.33,0.35,0.33C503.33,288.99,504.52,288.99,505.71,288.99z M505.7,300.71c-1.21,0-2.42,0-3.63,0
			c-0.2,0-0.28,0.04-0.28,0.26c0.01,0.8,0.01,1.59,0,2.39c0,0.22,0.07,0.29,0.29,0.29c2.41-0.01,4.82-0.01,7.23,0
			c0.22,0,0.3-0.05,0.29-0.28c-0.01-0.79-0.01-1.57,0-2.36c0-0.24-0.07-0.3-0.31-0.3C508.1,300.72,506.9,300.71,505.7,300.71z
			 M505.73,290.95c-1.22,0-2.44,0-3.66,0c-0.2,0-0.28,0.05-0.28,0.27c0.01,0.8,0.01,1.59,0,2.39c0,0.23,0.07,0.28,0.29,0.28
			c2.41-0.01,4.82-0.01,7.23,0c0.22,0,0.3-0.05,0.29-0.28c-0.01-0.79-0.01-1.57,0-2.36c0-0.24-0.07-0.3-0.31-0.3
			C508.11,290.96,506.92,290.95,505.73,290.95z M505.69,298.75c1.21,0,2.42,0,3.63,0c0.22,0,0.29-0.06,0.29-0.28
			c-0.01-0.8-0.01-1.59,0-2.39c0-0.22-0.08-0.27-0.28-0.27c-2.42,0.01-4.84,0-7.26,0c-0.2,0-0.28,0.06-0.27,0.27
			c0.01,0.79,0.02,1.57,0,2.36c-0.01,0.27,0.09,0.31,0.33,0.31C503.31,298.75,504.5,298.75,505.69,298.75z M522.83,280.84
			c-0.03,0.08-0.04,0.1-0.04,0.12c0,3.58,0,7.16-0.01,10.74c0,0.2,0.09,0.23,0.25,0.22c0.46-0.01,0.91-0.02,1.37,0
			c0.26,0.01,0.35-0.06,0.34-0.33c-0.01-1.5,0-3-0.01-4.49c0-0.41,0.12-0.74,0.4-1.03c0.36-0.37,0.69-0.78,1.05-1.15
			c0.14-0.14,0.13-0.22,0-0.36c-0.65-0.7-1.29-1.41-1.93-2.12C523.8,281.91,523.33,281.39,522.83,280.84z M532.55,280.86
			c-0.08,0.05-0.11,0.06-0.13,0.08c-1.1,1.21-2.19,2.43-3.29,3.63c-0.12,0.14-0.1,0.22,0.02,0.35c0.36,0.39,0.7,0.8,1.07,1.18
			c0.28,0.29,0.38,0.61,0.38,1.01c-0.01,1.51,0,3.02-0.01,4.52c0,0.24,0.06,0.31,0.3,0.3c0.42-0.02,0.85-0.03,1.27,0
			c0.31,0.02,0.39-0.07,0.39-0.38c-0.01-3.44-0.01-6.88-0.01-10.32C532.55,281.12,532.55,281.01,532.55,280.86z M497.15,279.23
			c0.81,0,1.61,0,2.42,0c0.2,0,0.28-0.05,0.27-0.27c-0.01-0.81-0.01-1.61,0-2.42c0-0.2-0.07-0.25-0.26-0.25
			c-1.61,0.01-3.23,0.01-4.84,0c-0.24,0-0.28,0.09-0.27,0.3c0.01,0.77,0.02,1.55,0,2.32c-0.01,0.27,0.09,0.32,0.33,0.31
			C495.58,279.22,496.37,279.23,497.15,279.23z M514.25,279.23c0.8,0,1.59-0.01,2.39,0c0.21,0,0.3-0.04,0.3-0.28
			c-0.01-0.8-0.01-1.59,0-2.39c0-0.21-0.07-0.27-0.27-0.27c-1.61,0.01-3.22,0.01-4.84,0c-0.21,0-0.27,0.08-0.27,0.28
			c0.01,0.8,0.01,1.59,0,2.39c0,0.21,0.07,0.27,0.27,0.27C512.64,279.22,513.44,279.23,514.25,279.23z M497.13,284.12
			c0.81,0,1.61-0.01,2.42,0c0.21,0,0.3-0.04,0.3-0.28c-0.01-0.8-0.01-1.59,0-2.39c0-0.21-0.06-0.27-0.27-0.27
			c-1.61,0.01-3.23,0.01-4.84,0c-0.21,0-0.27,0.07-0.27,0.28c0.01,0.8,0.01,1.59,0,2.39c0,0.21,0.07,0.27,0.27,0.27
			C495.54,284.11,496.33,284.12,497.13,284.12z M514.24,281.19c-0.81,0-1.61,0-2.42,0c-0.18,0-0.27,0.03-0.27,0.24
			c0.01,0.82,0.01,1.63,0,2.45c0,0.18,0.06,0.24,0.24,0.24c1.63,0,3.27,0,4.9,0c0.18,0,0.24-0.07,0.23-0.24
			c-0.01-0.81-0.01-1.61,0-2.42c0-0.21-0.06-0.27-0.27-0.27C515.85,281.2,515.05,281.19,514.24,281.19z M497.16,288.99
			c0.81,0,1.61-0.01,2.42,0c0.21,0,0.27-0.06,0.27-0.27c-0.01-0.8-0.01-1.59,0-2.39c0-0.2-0.05-0.28-0.26-0.28
			c-1.61,0.01-3.23,0.01-4.84,0c-0.21,0-0.27,0.07-0.27,0.27c0.01,0.8,0.01,1.59,0,2.39c0,0.24,0.09,0.28,0.3,0.27
			C495.56,288.99,496.36,288.99,497.16,288.99z M514.25,288.99c0.79,0,1.57-0.01,2.36,0.01c0.28,0.01,0.33-0.09,0.33-0.34
			c-0.02-0.76-0.02-1.53,0-2.29c0-0.24-0.06-0.31-0.3-0.31c-1.59,0.01-3.18,0.01-4.78,0c-0.21,0-0.3,0.04-0.3,0.28
			c0.01,0.8,0.01,1.59,0,2.39c0,0.21,0.06,0.27,0.27,0.27C512.63,288.99,513.44,288.99,514.25,288.99z M497.16,290.95
			c-0.81,0-1.61,0.01-2.42,0c-0.21,0-0.28,0.06-0.27,0.27c0.01,0.8,0.01,1.59,0,2.39c0,0.23,0.08,0.28,0.3,0.28
			c1.6-0.01,3.21-0.01,4.81,0c0.21,0,0.28-0.06,0.27-0.27c-0.01-0.8-0.01-1.59,0-2.39c0-0.23-0.08-0.28-0.29-0.28
			C498.76,290.96,497.96,290.95,497.16,290.95z M514.21,298.75c0.81,0,1.61-0.01,2.42,0c0.21,0,0.3-0.04,0.3-0.27
			c-0.01-0.8-0.01-1.59,0-2.39c0-0.21-0.07-0.27-0.27-0.27c-1.61,0.01-3.23,0.01-4.84,0c-0.21,0-0.27,0.07-0.27,0.28
			c0.01,0.8,0.01,1.59,0,2.39c0,0.21,0.06,0.27,0.27,0.27C512.62,298.75,513.42,298.75,514.21,298.75z M497.18,300.71
			c-0.82,0-1.64,0-2.45,0c-0.19,0-0.26,0.05-0.26,0.25c0.01,0.81,0.01,1.61,0,2.42c0,0.21,0.07,0.27,0.27,0.27
			c1.61-0.01,3.23-0.01,4.84,0c0.19,0,0.26-0.05,0.26-0.25c-0.01-0.81-0.01-1.61,0-2.42c0-0.22-0.08-0.27-0.28-0.26
			C498.77,300.72,497.98,300.71,497.18,300.71z M514.24,300.71c-0.81,0-1.61,0-2.42,0c-0.18,0-0.27,0.03-0.27,0.24
			c0.01,0.82,0.01,1.64,0,2.45c0,0.18,0.05,0.24,0.23,0.24c1.64-0.01,3.27-0.01,4.91,0c0.22,0,0.23-0.11,0.23-0.28
			c-0.01-0.79-0.01-1.57,0-2.36c0-0.23-0.06-0.31-0.3-0.31C515.84,300.72,515.04,300.71,514.24,300.71z M497.16,295.83
			c-0.81,0-1.61,0.01-2.42,0c-0.21,0-0.27,0.06-0.27,0.27c0.01,0.8,0.01,1.59,0,2.39c0,0.2,0.05,0.28,0.26,0.28
			c1.61-0.01,3.23-0.01,4.84,0c0.21,0,0.27-0.06,0.27-0.27c-0.01-0.8-0.01-1.59,0-2.39c0-0.23-0.09-0.28-0.3-0.28
			C498.75,295.83,497.96,295.83,497.16,295.83z M514.24,290.95c-0.8,0-1.59,0.01-2.39-0.01c-0.24,0-0.3,0.07-0.3,0.31
			c0.01,0.79,0.01,1.57,0,2.36c0,0.2,0.06,0.28,0.27,0.28c1.61-0.01,3.23-0.01,4.84,0c0.21,0,0.27-0.07,0.27-0.28
			c-0.01-0.79-0.01-1.57,0-2.36c0-0.23-0.06-0.31-0.3-0.31C515.84,290.96,515.04,290.95,514.24,290.95z M528.65,289.56
			c0-0.68,0-1.36,0-2.04c0-0.16-0.03-0.29-0.15-0.4c-0.23-0.24-0.45-0.48-0.66-0.73c-0.12-0.15-0.2-0.18-0.34-0.01
			c-0.21,0.26-0.45,0.51-0.68,0.76c-0.09,0.1-0.14,0.2-0.14,0.34c0,1.4,0.01,2.8,0,4.2c0,0.2,0.07,0.25,0.26,0.25
			c0.48-0.01,0.95-0.01,1.43,0c0.21,0.01,0.28-0.06,0.27-0.27C528.64,290.96,528.65,290.26,528.65,289.56z"/>
		<path class="st0" d="M484.44,303.64c-1.27,0-2.55,0.01-3.82,0c-0.71,0-1.17-0.58-0.99-1.23c0.11-0.42,0.47-0.72,0.94-0.72
			c2.6-0.01,5.2-0.01,7.8,0c0.58,0,0.99,0.45,0.98,1c-0.01,0.53-0.43,0.95-0.99,0.95C487.05,303.65,485.74,303.64,484.44,303.64z"/>
		<path class="st0" d="M484.46,313.4c-1.28,0-2.57,0-3.85,0c-0.45,0-0.81-0.24-0.95-0.62c-0.15-0.39-0.04-0.82,0.28-1.1
			c0.19-0.17,0.42-0.24,0.68-0.24c2.57,0,5.14,0,7.71,0c0.61,0,1.04,0.42,1.04,0.98c0,0.57-0.44,0.98-1.07,0.98
			C487,313.41,485.73,313.4,484.46,313.4z"/>
		<path class="st0" d="M484.48,316.33c1.28,0,2.57,0,3.85,0c0.49,0,0.86,0.28,0.98,0.71c0.12,0.43-0.06,0.87-0.44,1.1
			c-0.18,0.11-0.38,0.14-0.58,0.14c-2.56,0-5.12,0-7.68,0c-0.61,0-1.03-0.42-1.03-0.98c0-0.55,0.44-0.97,1.04-0.97
			C481.91,316.33,483.19,316.33,484.48,316.33C484.48,316.33,484.48,316.33,484.48,316.33z"/>
		<path class="st0" d="M484.44,298.75c-1.28,0-2.57,0-3.85,0c-0.47,0-0.82-0.25-0.95-0.66c-0.13-0.38-0.01-0.81,0.3-1.07
			c0.19-0.16,0.4-0.22,0.65-0.22c2.58,0,5.16,0,7.74,0c0.59,0,1.01,0.41,1.02,0.96c0.01,0.56-0.42,0.98-1.02,0.99
			C487.03,298.76,485.74,298.75,484.44,298.75z"/>
		<path class="st0" d="M484.46,306.57c1.26,0,2.53,0,3.79,0c0.66,0,1.1,0.39,1.1,0.97c0,0.58-0.45,0.97-1.1,0.97
			c-2.53,0-5.05,0-7.58,0c-0.63,0-1.07-0.39-1.08-0.96c-0.01-0.58,0.44-0.99,1.09-0.99C481.93,306.57,483.19,306.57,484.46,306.57z"
			/>
		<path class="st0" d="M526.9,303.64c-1.25,0-2.51,0-3.76,0c-0.65,0-1.09-0.4-1.08-0.99c0-0.56,0.45-0.96,1.08-0.97
			c2.54,0,5.08,0,7.61,0c0.63,0,1.07,0.41,1.07,0.98c0,0.56-0.44,0.98-1.07,0.98C529.47,303.64,528.19,303.64,526.9,303.64z"/>
		<path class="st0" d="M526.94,313.4c-1.26,0-2.53,0-3.79,0c-0.64,0-1.08-0.39-1.09-0.95c-0.01-0.58,0.43-1,1.08-1
			c2.54,0,5.08,0,7.61,0c0.65,0,1.09,0.42,1.07,1c-0.01,0.56-0.45,0.95-1.09,0.95C529.47,313.4,528.2,313.4,526.94,313.4z"/>
		<path class="st0" d="M526.97,316.33c1.25,0,2.51,0,3.76,0c0.65,0,1.08,0.38,1.09,0.95c0.01,0.58-0.43,1-1.08,1
			c-2.55,0-5.1,0.01-7.65,0c-0.62,0-1.06-0.43-1.04-1c0.01-0.56,0.45-0.95,1.06-0.95C524.4,316.33,525.68,316.33,526.97,316.33z"/>
		<path class="st0" d="M526.94,308.52c-1.26,0-2.53,0-3.79,0c-0.65,0-1.11-0.41-1.09-0.98c0.01-0.57,0.44-0.96,1.08-0.96
			c2.54,0,5.08,0,7.61,0c0.64,0,1.07,0.39,1.08,0.97c0.01,0.57-0.43,0.98-1.06,0.98C529.49,308.52,528.21,308.52,526.94,308.52z"/>
		<path class="st0" d="M526.9,298.75c-1.25,0-2.51,0-3.76,0c-0.64,0-1.08-0.39-1.09-0.95c-0.01-0.58,0.43-0.99,1.08-0.99
			c2.54,0,5.08,0,7.61,0c0.64,0,1.07,0.4,1.07,0.97c0,0.57-0.43,0.97-1.07,0.97C529.47,298.76,528.18,298.75,526.9,298.75z"/>
	</g>
	<g class="st3">
		<path class="st0" d="M493.34,227.61c0,11.74,0,23.49,0.01,35.23c0,0.24-0.05,0.29-0.29,0.29c-20.64-0.01-41.28-0.01-61.91,0
			c-0.24,0-0.29-0.05-0.29-0.29c0.01-12.13,0.01-24.25,0.01-36.38c0.11-0.07,0.22-0.13,0.32-0.2c1.48-1.04,2.96-2.08,4.43-3.11
			c4.34-3.05,8.67-6.1,13.02-9.14c0.22-0.15,0.3-0.31,0.29-0.57c-0.02-0.99-0.01-1.98-0.01-2.96c0-1.18,0.83-2.01,2-2.02
			c0.69-0.01,1.38-0.01,2.07,0c0.24,0,0.33-0.06,0.32-0.32c-0.01-1.16-0.01-2.32-0.01-3.47c0-0.64,0.28-0.98,0.92-1.1
			c4.3-0.81,8.6-1.61,12.9-2.42c0.83-0.16,1.67-0.27,2.49-0.5c0.19,0,0.38,0,0.57,0c0.56,0.27,0.71,0.74,0.7,1.33
			c-0.02,2.03,0,4.06-0.02,6.09c0,0.34,0.1,0.41,0.41,0.39c0.64-0.02,1.27-0.01,1.91-0.01c1.28,0.01,2.08,0.82,2.08,2.11
			c0,5.02,0,10.03,0,15.05c0,0.06,0.01,0.13,0,0.19c-0.02,0.19,0.07,0.24,0.24,0.23c0.44-0.01,0.87-0.02,1.31,0
			c0.32,0.02,0.41-0.07,0.41-0.4c-0.01-4.36-0.01-8.71-0.01-13.07c0-0.11,0-0.21,0.01-0.32c0.06-0.5,0.47-0.86,0.95-0.87
			c0.35,0,0.62,0.17,0.85,0.43c1.61,1.79,3.22,3.56,4.82,5.35c0.16,0.17,0.24,0.2,0.41,0.01c0.9-1.02,1.82-2.02,2.73-3.03
			c0.73-0.8,1.45-1.61,2.18-2.41c0.31-0.34,0.72-0.43,1.1-0.28c0.42,0.17,0.61,0.5,0.62,0.95c0,0.1,0,0.19,0,0.29
			c0,4.33,0,8.65-0.01,12.98c0,0.29,0.08,0.38,0.37,0.37c0.72-0.03,1.3,0.25,1.73,0.84C493.16,227.09,493.22,227.36,493.34,227.61z
			 M448.86,216.24c-0.11,0.07-0.21,0.14-0.31,0.21c-5.15,3.62-10.31,7.25-15.47,10.86c-0.21,0.15-0.28,0.3-0.28,0.55
			c0.01,10.97,0,21.93,0.01,32.9c0,0.41,0,0.41,0.41,0.41c5.07,0,10.14,0,15.21,0c0.56,0,0.48,0.06,0.48-0.47
			c0-14.7,0-29.39,0-44.09C448.91,216.5,448.94,216.38,448.86,216.24z M491.38,244.57c0-5.39,0-10.77,0-16.16
			c0-0.43,0-0.43-0.42-0.43c-5.11,0-10.22,0-15.33-0.01c-0.28,0-0.35,0.07-0.35,0.35c0.01,10.82,0.01,21.63,0,32.45
			c0,0.32,0.07,0.41,0.4,0.41c5.1-0.01,10.2-0.01,15.3-0.01c0.41,0,0.41,0,0.41-0.41C491.38,255.36,491.38,249.97,491.38,244.57z
			 M462.11,239.69C462.11,239.69,462.11,239.69,462.11,239.69c-3.63,0-7.27,0-10.9,0c-0.25,0-0.36,0.04-0.34,0.32
			c0.03,0.37,0.01,0.74,0.01,1.12c0,6.57,0,13.13-0.01,19.7c0,0.25,0.05,0.36,0.33,0.35c0.76-0.02,1.53-0.02,2.29,0
			c0.25,0.01,0.32-0.07,0.32-0.32c-0.01-4.35-0.01-8.69,0-13.04c0-0.22-0.06-0.31-0.28-0.36c-0.4-0.1-0.63-0.38-0.69-0.78
			c-0.06-0.41,0.09-0.73,0.43-0.96c0.22-0.15,0.48-0.16,0.73-0.16c5.4,0,10.8,0,16.19,0c0.08,0,0.17,0,0.25,0
			c0.5,0.04,0.86,0.39,0.91,0.87c0.05,0.49-0.23,0.93-0.73,1.05c-0.21,0.05-0.24,0.14-0.24,0.32c0,4.37,0,8.73,0,13.1
			c0,0.23,0.07,0.29,0.29,0.29c0.76-0.01,1.53-0.02,2.29,0c0.27,0.01,0.36-0.06,0.36-0.35c-0.01-6.91-0.01-13.81-0.01-20.72
			c0-0.41,0-0.41-0.41-0.41C469.31,239.69,465.71,239.69,462.11,239.69z M455.75,254.33c0,2.17,0,4.33-0.01,6.5
			c0,0.26,0.06,0.36,0.33,0.34c0.4-0.02,0.81,0,1.21-0.01c0.41,0,0.41,0,0.41-0.41c0-3.1,0-6.2,0-9.31c0-1.12,0.81-1.98,1.89-1.99
			c1.67-0.02,3.34-0.02,5,0c1.06,0.01,1.87,0.86,1.89,1.93c0.01,0.45,0,0.89,0,1.34c0,2.7,0,5.4-0.01,8.1
			c0,0.26,0.06,0.36,0.33,0.34c0.41-0.02,0.83-0.03,1.24,0c0.3,0.02,0.39-0.07,0.39-0.38c-0.01-4.3-0.01-8.61,0-12.91
			c0-0.3-0.07-0.39-0.38-0.39c-3.98,0.01-7.97,0.01-11.95,0c-0.29,0-0.38,0.06-0.37,0.36C455.75,250.02,455.75,252.18,455.75,254.33
			z M462.09,208.45c2.17,0,4.33,0,6.5,0c0.16,0,0.34,0.06,0.34-0.23c-0.01-1.73-0.01-3.46,0-5.19c0-0.2-0.07-0.23-0.25-0.18
			c-0.29,0.07-0.58,0.11-0.88,0.16c-4.08,0.76-8.16,1.53-12.24,2.29c-0.23,0.04-0.32,0.12-0.31,0.37c0.02,0.81,0.02,1.61,0,2.42
			c-0.01,0.29,0.07,0.37,0.37,0.37C457.78,208.44,459.94,208.45,462.09,208.45z M459.66,256.29c0,1.51,0.01,3.02-0.01,4.52
			c0,0.3,0.09,0.37,0.38,0.36c1.4-0.01,2.8-0.01,4.21,0c0.23,0,0.31-0.05,0.31-0.3c-0.01-3.06-0.01-6.12,0-9.17
			c0-0.24-0.07-0.3-0.31-0.3c-1.4,0.01-2.8,0.01-4.21,0c-0.28,0-0.38,0.06-0.38,0.36C459.67,253.27,459.66,254.78,459.66,256.29z
			 M462.12,213.33c1.18,0,2.36-0.01,3.54,0.01c0.29,0,0.35-0.09,0.35-0.36c-0.02-0.74-0.02-1.49,0-2.23c0-0.25-0.05-0.35-0.33-0.35
			c-2.39,0.01-4.78,0.01-7.17,0c-0.27,0-0.32,0.09-0.31,0.33c0.01,0.75,0.02,1.51,0,2.26c-0.01,0.29,0.1,0.35,0.36,0.35
			C459.74,213.32,460.93,213.33,462.12,213.33z M462.09,215.29c-1.2,0-2.4,0-3.6,0c-0.21,0-0.3,0.03-0.3,0.27
			c0.01,0.8,0.01,1.59,0,2.39c0,0.22,0.08,0.27,0.28,0.27c2.42,0,4.85-0.01,7.27,0c0.22,0,0.27-0.08,0.27-0.28
			c-0.01-0.79-0.01-1.57,0-2.36c0.01-0.25-0.08-0.3-0.31-0.3C464.49,215.3,463.29,215.29,462.09,215.29z M462.1,223.09
			C462.1,223.09,462.1,223.09,462.1,223.09c1.21,0,2.42-0.01,3.63,0c0.21,0,0.27-0.06,0.27-0.27c-0.01-0.8-0.01-1.59,0-2.39
			c0-0.2-0.04-0.28-0.26-0.28c-2.42,0.01-4.84,0.01-7.26,0c-0.22,0-0.29,0.06-0.29,0.29c0.01,0.77,0.02,1.55,0,2.32
			c-0.01,0.28,0.09,0.33,0.35,0.33C459.72,223.09,460.91,223.09,462.1,223.09z M462.1,234.81c-1.21,0-2.42,0-3.63,0
			c-0.2,0-0.28,0.04-0.28,0.26c0.01,0.8,0.01,1.59,0,2.39c0,0.22,0.07,0.29,0.29,0.29c2.41-0.01,4.82-0.01,7.23,0
			c0.22,0,0.3-0.05,0.29-0.28c-0.01-0.79-0.01-1.57,0-2.36c0-0.24-0.07-0.3-0.31-0.3C464.5,234.82,463.3,234.81,462.1,234.81z
			 M462.13,225.05c-1.22,0-2.44,0-3.66,0c-0.2,0-0.28,0.05-0.28,0.27c0.01,0.8,0.01,1.59,0,2.39c0,0.23,0.07,0.28,0.29,0.28
			c2.41-0.01,4.82-0.01,7.23,0c0.22,0,0.3-0.05,0.29-0.28c-0.01-0.79-0.01-1.57,0-2.36c0-0.24-0.07-0.3-0.31-0.3
			C464.51,225.06,463.32,225.05,462.13,225.05z M462.08,232.85c1.21,0,2.42,0,3.63,0c0.22,0,0.29-0.06,0.29-0.28
			c-0.01-0.8-0.01-1.59,0-2.39c0-0.22-0.08-0.27-0.28-0.27c-2.42,0.01-4.84,0-7.26,0c-0.2,0-0.28,0.06-0.27,0.27
			c0.01,0.79,0.02,1.57,0,2.36c-0.01,0.27,0.09,0.31,0.33,0.31C459.7,232.85,460.89,232.85,462.08,232.85z M479.23,214.95
			c-0.03,0.08-0.04,0.1-0.04,0.12c0,3.58,0,7.16-0.01,10.74c0,0.2,0.09,0.23,0.25,0.22c0.46-0.01,0.91-0.02,1.37,0
			c0.26,0.01,0.35-0.06,0.34-0.33c-0.01-1.5,0-3-0.01-4.49c0-0.41,0.12-0.74,0.4-1.03c0.36-0.37,0.69-0.78,1.05-1.15
			c0.14-0.14,0.13-0.22,0-0.36c-0.65-0.7-1.29-1.41-1.93-2.12C480.19,216.01,479.72,215.5,479.23,214.95z M488.94,214.96
			c-0.08,0.05-0.11,0.06-0.13,0.08c-1.1,1.21-2.19,2.43-3.29,3.63c-0.12,0.14-0.1,0.22,0.02,0.35c0.36,0.39,0.7,0.8,1.07,1.18
			c0.28,0.29,0.38,0.61,0.38,1.01c-0.01,1.51,0,3.02-0.01,4.52c0,0.24,0.06,0.31,0.3,0.3c0.42-0.02,0.85-0.03,1.27,0
			c0.31,0.02,0.39-0.07,0.39-0.38c-0.01-3.44-0.01-6.88-0.01-10.32C488.94,215.22,488.94,215.12,488.94,214.96z M453.55,213.33
			c0.81,0,1.61,0,2.42,0c0.2,0,0.28-0.05,0.27-0.27c-0.01-0.81-0.01-1.61,0-2.42c0-0.2-0.07-0.25-0.26-0.25
			c-1.61,0.01-3.23,0.01-4.84,0c-0.24,0-0.28,0.09-0.27,0.3c0.01,0.77,0.02,1.55,0,2.32c-0.01,0.27,0.09,0.32,0.33,0.31
			C451.97,213.32,452.76,213.33,453.55,213.33z M470.64,213.33c0.8,0,1.59-0.01,2.39,0c0.21,0,0.3-0.04,0.3-0.28
			c-0.01-0.8-0.01-1.59,0-2.39c0-0.21-0.07-0.27-0.27-0.27c-1.61,0.01-3.22,0.01-4.84,0c-0.21,0-0.27,0.08-0.27,0.28
			c0.01,0.8,0.01,1.59,0,2.39c0,0.21,0.07,0.27,0.27,0.27C469.03,213.32,469.84,213.33,470.64,213.33z M453.52,218.22
			c0.81,0,1.61-0.01,2.42,0c0.21,0,0.3-0.04,0.3-0.28c-0.01-0.8-0.01-1.59,0-2.39c0-0.21-0.06-0.27-0.27-0.27
			c-1.61,0.01-3.23,0.01-4.84,0c-0.21,0-0.27,0.07-0.27,0.28c0.01,0.8,0.01,1.59,0,2.39c0,0.21,0.07,0.27,0.27,0.27
			C451.93,218.21,452.73,218.22,453.52,218.22z M470.64,215.29c-0.81,0-1.61,0-2.42,0c-0.18,0-0.27,0.03-0.27,0.24
			c0.01,0.82,0.01,1.63,0,2.45c0,0.18,0.06,0.24,0.24,0.24c1.63,0,3.27,0,4.9,0c0.18,0,0.24-0.07,0.23-0.24
			c-0.01-0.81-0.01-1.61,0-2.42c0-0.21-0.06-0.27-0.27-0.27C472.25,215.3,471.44,215.29,470.64,215.29z M453.55,223.09
			c0.81,0,1.61-0.01,2.42,0c0.21,0,0.27-0.06,0.27-0.27c-0.01-0.8-0.01-1.59,0-2.39c0-0.2-0.05-0.28-0.26-0.28
			c-1.61,0.01-3.23,0.01-4.84,0c-0.21,0-0.27,0.07-0.27,0.27c0.01,0.8,0.01,1.59,0,2.39c0,0.24,0.09,0.28,0.3,0.27
			C451.96,223.09,452.75,223.09,453.55,223.09z M470.64,223.09c0.79,0,1.57-0.01,2.36,0.01c0.28,0.01,0.33-0.09,0.33-0.34
			c-0.02-0.76-0.02-1.53,0-2.29c0-0.24-0.06-0.31-0.3-0.31c-1.59,0.01-3.19,0.01-4.78,0c-0.21,0-0.3,0.04-0.3,0.28
			c0.01,0.8,0.01,1.59,0,2.39c0,0.21,0.06,0.27,0.27,0.27C469.03,223.09,469.84,223.09,470.64,223.09z M453.56,225.05
			c-0.81,0-1.61,0.01-2.42,0c-0.21,0-0.28,0.06-0.27,0.27c0.01,0.8,0.01,1.59,0,2.39c0,0.23,0.08,0.28,0.3,0.28
			c1.6-0.01,3.21-0.01,4.81,0c0.21,0,0.28-0.06,0.27-0.27c-0.01-0.8-0.01-1.59,0-2.39c0-0.23-0.08-0.28-0.29-0.28
			C455.15,225.06,454.35,225.05,453.56,225.05z M470.61,232.85c0.81,0,1.61-0.01,2.42,0c0.21,0,0.3-0.04,0.3-0.27
			c-0.01-0.8-0.01-1.59,0-2.39c0-0.21-0.07-0.27-0.27-0.27c-1.61,0.01-3.23,0.01-4.84,0c-0.21,0-0.27,0.07-0.27,0.28
			c0.01,0.8,0.01,1.59,0,2.39c0,0.21,0.06,0.27,0.27,0.27C469.02,232.85,469.81,232.85,470.61,232.85z M453.57,234.81
			c-0.82,0-1.64,0-2.45,0c-0.19,0-0.26,0.05-0.26,0.25c0.01,0.81,0.01,1.61,0,2.42c0,0.21,0.07,0.27,0.27,0.27
			c1.61-0.01,3.23-0.01,4.84,0c0.19,0,0.26-0.05,0.26-0.25c-0.01-0.81-0.01-1.61,0-2.42c0-0.22-0.08-0.27-0.28-0.26
			C455.17,234.82,454.37,234.81,453.57,234.81z M470.64,234.81c-0.81,0-1.61,0-2.42,0c-0.18,0-0.27,0.03-0.27,0.24
			c0.01,0.82,0.01,1.64,0,2.45c0,0.18,0.05,0.24,0.23,0.24c1.64-0.01,3.27-0.01,4.91,0c0.22,0,0.23-0.11,0.23-0.28
			c-0.01-0.79-0.01-1.57,0-2.36c0-0.23-0.06-0.31-0.3-0.31C472.23,234.82,471.44,234.81,470.64,234.81z M453.56,229.93
			c-0.81,0-1.61,0.01-2.42,0c-0.21,0-0.27,0.06-0.27,0.27c0.01,0.8,0.01,1.59,0,2.39c0,0.2,0.05,0.28,0.26,0.28
			c1.61-0.01,3.23-0.01,4.84,0c0.21,0,0.27-0.06,0.27-0.27c-0.01-0.8-0.01-1.59,0-2.39c0-0.23-0.09-0.28-0.3-0.28
			C455.15,229.93,454.35,229.93,453.56,229.93z M470.64,225.05c-0.8,0-1.59,0.01-2.39-0.01c-0.24,0-0.3,0.07-0.3,0.31
			c0.01,0.78,0.01,1.57,0,2.36c0,0.2,0.06,0.28,0.27,0.28c1.61-0.01,3.23-0.01,4.84,0c0.21,0,0.27-0.07,0.27-0.28
			c-0.01-0.79-0.01-1.57,0-2.36c0-0.23-0.06-0.31-0.3-0.31C472.23,225.06,471.43,225.05,470.64,225.05z M485.04,223.66
			c0-0.68,0-1.36,0-2.04c0-0.16-0.03-0.29-0.15-0.4c-0.23-0.24-0.45-0.48-0.66-0.73c-0.12-0.15-0.2-0.18-0.34-0.01
			c-0.21,0.26-0.45,0.51-0.68,0.76c-0.09,0.1-0.14,0.2-0.14,0.34c0,1.4,0.01,2.8,0,4.2c0,0.2,0.07,0.25,0.26,0.25
			c0.48-0.01,0.95-0.01,1.43,0c0.21,0.01,0.28-0.06,0.27-0.27C485.04,225.06,485.04,224.36,485.04,223.66z"/>
		<path class="st0" d="M440.83,237.74c-1.27,0-2.55,0.01-3.82,0c-0.71,0-1.17-0.58-0.99-1.23c0.11-0.42,0.47-0.72,0.94-0.72
			c2.6-0.01,5.2-0.01,7.8,0c0.58,0,0.99,0.45,0.98,1c-0.01,0.53-0.43,0.95-0.99,0.95C443.44,237.75,442.14,237.74,440.83,237.74z"/>
		<path class="st0" d="M440.85,247.5c-1.28,0-2.57,0-3.85,0c-0.45,0-0.81-0.24-0.95-0.62c-0.15-0.39-0.04-0.82,0.28-1.1
			c0.19-0.17,0.42-0.24,0.68-0.24c2.57,0,5.14,0,7.71,0c0.61,0,1.04,0.42,1.04,0.98c0,0.57-0.44,0.98-1.07,0.98
			C443.4,247.51,442.12,247.5,440.85,247.5z"/>
		<path class="st0" d="M440.87,250.43c1.28,0,2.57,0,3.85,0c0.49,0,0.86,0.28,0.98,0.71c0.12,0.43-0.06,0.87-0.44,1.1
			c-0.18,0.11-0.38,0.14-0.58,0.14c-2.56,0-5.12,0-7.68,0c-0.61,0-1.03-0.42-1.03-0.98c0-0.55,0.44-0.97,1.04-0.97
			C438.3,250.43,439.58,250.43,440.87,250.43C440.87,250.43,440.87,250.43,440.87,250.43z"/>
		<path class="st0" d="M440.84,232.85c-1.28,0-2.57,0-3.85,0c-0.47,0-0.82-0.25-0.95-0.66c-0.13-0.38-0.01-0.81,0.3-1.07
			c0.19-0.16,0.4-0.22,0.65-0.22c2.58,0,5.16,0,7.74,0c0.59,0,1.01,0.41,1.02,0.96c0.01,0.56-0.42,0.98-1.02,0.99
			C443.43,232.86,442.13,232.86,440.84,232.85z"/>
		<path class="st0" d="M440.85,240.67c1.26,0,2.53,0,3.79,0c0.66,0,1.1,0.39,1.1,0.97c0,0.58-0.45,0.97-1.1,0.97
			c-2.53,0-5.05,0-7.58,0c-0.63,0-1.07-0.39-1.08-0.96c-0.01-0.58,0.44-0.99,1.09-0.99C438.33,240.67,439.59,240.67,440.85,240.67z"
			/>
		<path class="st0" d="M483.29,237.74c-1.25,0-2.51,0-3.76,0c-0.65,0-1.09-0.4-1.08-0.99c0-0.56,0.45-0.96,1.08-0.97
			c2.54,0,5.08,0,7.61,0c0.63,0,1.07,0.41,1.07,0.98c0,0.56-0.44,0.98-1.07,0.98C485.86,237.74,484.58,237.74,483.29,237.74z"/>
		<path class="st0" d="M483.33,247.5c-1.26,0-2.53,0-3.79,0c-0.64,0-1.08-0.39-1.09-0.95c-0.01-0.58,0.43-1,1.08-1
			c2.54,0,5.08,0,7.61,0c0.65,0,1.09,0.42,1.07,1c-0.01,0.56-0.45,0.95-1.09,0.95C485.86,247.51,484.6,247.5,483.33,247.5z"/>
		<path class="st0" d="M483.36,250.43c1.25,0,2.51,0,3.76,0c0.65,0,1.08,0.38,1.09,0.95c0.01,0.58-0.43,1-1.08,1
			c-2.55,0-5.1,0.01-7.65,0c-0.62,0-1.06-0.43-1.04-1c0.01-0.56,0.45-0.95,1.06-0.95C480.79,250.43,482.08,250.43,483.36,250.43z"/>
		<path class="st0" d="M483.33,242.62c-1.26,0-2.53,0-3.79,0c-0.65,0-1.11-0.41-1.09-0.98c0.01-0.57,0.44-0.96,1.08-0.96
			c2.54,0,5.08,0,7.61,0c0.64,0,1.07,0.39,1.08,0.97c0.01,0.57-0.43,0.98-1.06,0.98C485.88,242.62,484.61,242.62,483.33,242.62z"/>
		<path class="st0" d="M483.29,232.85c-1.25,0-2.51,0-3.76,0c-0.64,0-1.08-0.39-1.09-0.95c-0.01-0.58,0.43-0.99,1.08-0.99
			c2.54,0,5.08,0,7.61,0c0.64,0,1.07,0.4,1.07,0.97c0,0.57-0.43,0.97-1.07,0.97C485.86,232.86,484.58,232.85,483.29,232.85z"/>
	</g>
</g>
<g class="st1">
	<path class="st2" d="M297.33,241.15c0,19.81,0,39.62,0.01,59.44c0,0.4-0.09,0.49-0.49,0.49c-34.82-0.01-69.64-0.01-104.46,0
		c-0.4,0-0.49-0.09-0.49-0.49c0.01-20.46,0.01-40.92,0.01-61.37c0.18-0.11,0.37-0.21,0.54-0.34c2.49-1.75,4.99-3.5,7.48-5.26
		c7.32-5.14,14.63-10.29,21.96-15.42c0.36-0.25,0.5-0.52,0.5-0.96c-0.03-1.67-0.02-3.33-0.01-5c0.01-1.99,1.4-3.39,3.38-3.41
		c1.17-0.01,2.33-0.02,3.5,0c0.41,0.01,0.55-0.1,0.55-0.54c-0.02-1.95-0.01-3.91-0.01-5.86c0-1.08,0.48-1.65,1.55-1.86
		c7.26-1.36,14.51-2.72,21.77-4.09c1.4-0.27,2.83-0.45,4.2-0.84c0.32,0,0.65,0,0.97,0c0.94,0.46,1.19,1.24,1.18,2.25
		c-0.04,3.42,0,6.85-0.03,10.27c-0.01,0.57,0.17,0.68,0.69,0.66c1.07-0.04,2.15-0.02,3.23-0.01c2.16,0.02,3.51,1.38,3.51,3.55
		c0,8.46,0,16.93,0,25.39c0,0.11,0.01,0.22,0,0.32c-0.04,0.31,0.11,0.4,0.41,0.39c0.73-0.02,1.47-0.04,2.2,0.01
		c0.54,0.03,0.69-0.11,0.69-0.67c-0.02-7.35-0.01-14.7-0.01-22.05c0-0.18-0.01-0.36,0.02-0.54c0.11-0.84,0.78-1.45,1.6-1.46
		c0.6-0.01,1.04,0.29,1.44,0.72c2.71,3.01,5.43,6.01,8.14,9.03c0.26,0.29,0.4,0.34,0.69,0.01c1.52-1.72,3.07-3.41,4.61-5.11
		c1.23-1.36,2.45-2.72,3.68-4.07c0.52-0.57,1.21-0.73,1.86-0.47c0.71,0.29,1.04,0.85,1.05,1.6c0,0.16,0,0.32,0,0.48
		c0,7.3,0.01,14.59-0.01,21.89c0,0.5,0.13,0.65,0.62,0.62c1.21-0.06,2.19,0.42,2.92,1.41C297.03,240.28,297.13,240.74,297.33,241.15
		z M222.29,221.97c-0.18,0.12-0.36,0.23-0.53,0.35c-8.7,6.11-17.39,12.22-26.1,18.33c-0.36,0.25-0.47,0.51-0.47,0.93
		c0.01,18.5,0.01,37.01,0.01,55.51c0,0.69,0,0.69,0.7,0.69c8.55,0,17.1,0,25.66,0c0.94,0,0.81,0.11,0.81-0.79
		c0-24.8,0-49.59,0-74.39C222.38,222.41,222.42,222.21,222.29,221.97z M294.03,269.77c0-9.09,0-18.18,0-27.26
		c0-0.72,0-0.72-0.72-0.72c-8.62,0-17.24,0-25.87-0.01c-0.47,0-0.6,0.11-0.6,0.59c0.01,18.25,0.01,36.5,0,54.74
		c0,0.53,0.12,0.69,0.67,0.69c8.6-0.02,17.21-0.01,25.81-0.01c0.69,0,0.7,0,0.7-0.69C294.03,287.98,294.03,278.87,294.03,269.77z
		 M244.64,261.54C244.64,261.54,244.64,261.54,244.64,261.54c-6.13,0-12.26,0.01-18.39-0.01c-0.43,0-0.61,0.07-0.58,0.55
		c0.04,0.62,0.01,1.25,0.01,1.88c0,11.08,0,22.16-0.01,33.24c0,0.42,0.08,0.6,0.55,0.59c1.29-0.03,2.58-0.03,3.87,0
		c0.43,0.01,0.54-0.12,0.54-0.54c-0.01-7.33-0.01-14.66,0-22c0-0.37-0.09-0.52-0.47-0.61c-0.67-0.16-1.07-0.64-1.17-1.32
		c-0.1-0.69,0.16-1.23,0.72-1.62c0.37-0.26,0.8-0.27,1.24-0.27c9.11,0,18.21,0,27.32,0c0.14,0,0.29-0.01,0.43,0.01
		c0.84,0.08,1.45,0.66,1.54,1.46c0.09,0.84-0.39,1.57-1.23,1.77c-0.35,0.08-0.41,0.23-0.41,0.54c0.01,7.37,0.01,14.74,0,22.1
		c0,0.38,0.12,0.49,0.49,0.48c1.29-0.02,2.58-0.03,3.87,0c0.46,0.01,0.6-0.1,0.6-0.59c-0.02-11.65-0.01-23.3-0.01-34.96
		c0-0.7,0-0.7-0.69-0.7C256.8,261.54,250.72,261.54,244.64,261.54z M233.91,286.24c0,3.66,0.01,7.31-0.01,10.97
		c0,0.44,0.1,0.6,0.56,0.58c0.68-0.04,1.36-0.01,2.04-0.01c0.7,0,0.7,0,0.7-0.69c0-5.23,0-10.47,0-15.7c0-1.89,1.37-3.34,3.2-3.36
		c2.81-0.03,5.63-0.03,8.44,0c1.79,0.02,3.16,1.46,3.19,3.26c0.01,0.75,0,1.51,0,2.26c0,4.55,0.01,9.11-0.01,13.66
		c0,0.44,0.1,0.6,0.56,0.58c0.7-0.04,1.4-0.04,2.1,0c0.51,0.03,0.66-0.11,0.66-0.65c-0.02-7.26-0.02-14.52,0-21.78
		c0-0.51-0.12-0.66-0.65-0.66c-6.72,0.02-13.44,0.02-20.17,0c-0.48,0-0.63,0.11-0.63,0.61C233.92,278.96,233.91,282.6,233.91,286.24
		z M244.61,208.83c3.66,0,7.31,0,10.97,0c0.27,0,0.58,0.1,0.57-0.39c-0.01-2.92-0.01-5.84,0-8.76c0-0.34-0.12-0.38-0.42-0.31
		c-0.49,0.11-0.99,0.18-1.48,0.28c-6.88,1.29-13.76,2.58-20.65,3.86c-0.38,0.07-0.53,0.21-0.53,0.62c0.03,1.36,0.03,2.72,0,4.08
		c-0.01,0.49,0.12,0.63,0.62,0.63C237.34,208.82,240.98,208.82,244.61,208.83z M240.51,289.54c0,2.54,0.02,5.09-0.01,7.63
		c-0.01,0.51,0.16,0.62,0.63,0.62c2.36-0.02,4.73-0.02,7.09,0c0.39,0,0.52-0.09,0.52-0.5c-0.01-5.16-0.01-10.32,0-15.48
		c0-0.41-0.12-0.51-0.52-0.51c-2.36,0.02-4.73,0.02-7.09,0c-0.48,0-0.64,0.11-0.63,0.61C240.52,284.45,240.51,286.99,240.51,289.54z
		 M244.66,217.06c1.99,0,3.98-0.02,5.97,0.01c0.49,0.01,0.6-0.15,0.59-0.61c-0.03-1.25-0.03-2.51,0-3.76
		c0.01-0.42-0.08-0.59-0.55-0.59c-4.03,0.02-8.07,0.02-12.1,0c-0.45,0-0.53,0.16-0.53,0.56c0.02,1.27,0.03,2.55-0.01,3.82
		c-0.01,0.5,0.16,0.59,0.61,0.58C240.64,217.05,242.65,217.06,244.66,217.06z M244.61,220.37c-2.03,0-4.05,0.01-6.08-0.01
		c-0.35,0-0.51,0.05-0.51,0.46c0.02,1.34,0.02,2.69,0,4.03c-0.01,0.37,0.14,0.45,0.47,0.45c4.09-0.01,8.17-0.01,12.26,0
		c0.37,0,0.45-0.13,0.45-0.47c-0.02-1.33-0.02-2.65,0-3.98c0.01-0.42-0.14-0.5-0.52-0.5C248.66,220.38,246.64,220.37,244.61,220.37z
		 M244.63,233.53C244.63,233.53,244.63,233.53,244.63,233.53c2.04,0,4.08-0.01,6.12,0.01c0.35,0,0.46-0.1,0.46-0.45
		c-0.02-1.34-0.02-2.69,0-4.03c0-0.33-0.06-0.48-0.44-0.47c-4.08,0.01-8.17,0.01-12.25,0c-0.37,0-0.49,0.11-0.49,0.49
		c0.02,1.31,0.03,2.62,0,3.92c-0.01,0.47,0.16,0.56,0.58,0.55C240.62,233.52,242.62,233.53,244.63,233.53z M244.62,253.31
		c-2.04,0-4.08,0.01-6.13-0.01c-0.34,0-0.47,0.07-0.47,0.44c0.02,1.34,0.02,2.69,0,4.03c-0.01,0.38,0.12,0.48,0.49,0.48
		c4.07-0.01,8.13-0.01,12.2,0c0.37,0,0.5-0.09,0.49-0.48c-0.02-1.33-0.02-2.65,0-3.98c0.01-0.41-0.12-0.51-0.52-0.51
		C248.67,253.32,246.65,253.31,244.62,253.31z M244.68,236.84c-2.06,0-4.12,0.01-6.18-0.01c-0.34,0-0.47,0.08-0.47,0.45
		c0.02,1.34,0.02,2.69,0,4.03c-0.01,0.38,0.12,0.48,0.49,0.48c4.07-0.01,8.13-0.01,12.2,0c0.37,0,0.5-0.09,0.49-0.48
		c-0.02-1.32-0.02-2.65,0-3.98c0.01-0.41-0.12-0.51-0.52-0.51C248.69,236.85,246.68,236.83,244.68,236.84z M244.6,250
		c2.04,0,4.08-0.01,6.12,0.01c0.37,0,0.5-0.09,0.49-0.48c-0.02-1.34-0.02-2.69,0-4.03c0.01-0.37-0.13-0.45-0.47-0.45
		c-4.08,0.01-8.17,0.01-12.25,0c-0.34,0-0.47,0.09-0.46,0.46c0.02,1.32,0.03,2.65,0,3.97c-0.01,0.45,0.15,0.53,0.55,0.52
		C240.59,249.99,242.59,250,244.6,250z M273.52,219.79c-0.05,0.13-0.07,0.17-0.07,0.2c0,6.04,0,12.08-0.01,18.12
		c0,0.33,0.15,0.38,0.42,0.38c0.77-0.01,1.54-0.03,2.31,0.01c0.44,0.02,0.58-0.1,0.58-0.56c-0.02-2.53,0.01-5.05-0.02-7.58
		c-0.01-0.69,0.2-1.24,0.68-1.74c0.61-0.63,1.17-1.31,1.78-1.94c0.23-0.24,0.22-0.38,0-0.61c-1.09-1.19-2.17-2.39-3.25-3.58
		C275.15,221.59,274.36,220.72,273.52,219.79z M289.92,219.81c-0.13,0.08-0.18,0.1-0.21,0.14c-1.85,2.04-3.7,4.09-5.56,6.13
		c-0.21,0.23-0.16,0.38,0.03,0.58c0.61,0.65,1.18,1.34,1.81,1.98c0.47,0.48,0.65,1.03,0.64,1.7c-0.02,2.54,0,5.09-0.01,7.63
		c0,0.4,0.11,0.53,0.51,0.51c0.72-0.03,1.44-0.05,2.15,0c0.52,0.03,0.66-0.12,0.65-0.64c-0.02-5.8-0.01-11.61-0.01-17.41
		C289.92,220.25,289.92,220.07,289.92,219.81z M230.2,217.06c1.36,0,2.72-0.01,4.08,0.01c0.34,0,0.47-0.08,0.46-0.45
		c-0.02-1.36-0.02-2.72,0-4.08c0-0.34-0.12-0.42-0.44-0.42c-2.72,0.01-5.44,0.01-8.16,0c-0.4,0-0.47,0.16-0.46,0.51
		c0.02,1.31,0.03,2.61-0.01,3.92c-0.01,0.45,0.16,0.53,0.55,0.53C227.55,217.05,228.87,217.06,230.2,217.06z M259.04,217.06
		c1.34,0,2.68-0.01,4.03,0.01c0.35,0,0.51-0.06,0.5-0.47c-0.02-1.34-0.02-2.68,0-4.03c0-0.36-0.11-0.46-0.46-0.46
		c-2.72,0.01-5.44,0.01-8.16,0c-0.36,0-0.45,0.13-0.45,0.47c0.02,1.34,0.02,2.68,0,4.03c0,0.36,0.11,0.46,0.46,0.45
		C256.32,217.05,257.68,217.06,259.04,217.06z M230.16,225.31c1.36,0,2.72-0.01,4.08,0.01c0.35,0,0.51-0.07,0.5-0.47
		c-0.02-1.34-0.02-2.68,0-4.03c0-0.35-0.11-0.46-0.46-0.46c-2.72,0.01-5.44,0.01-8.16,0c-0.36,0-0.45,0.12-0.45,0.47
		c0.02,1.34,0.02,2.68,0,4.03c-0.01,0.36,0.11,0.46,0.46,0.46C227.47,225.3,228.82,225.3,230.16,225.31z M259.03,220.37
		c-1.36,0-2.72,0.01-4.08-0.01c-0.3,0-0.45,0.05-0.45,0.41c0.02,1.38,0.01,2.76,0,4.13c0,0.3,0.1,0.4,0.4,0.4
		c2.76-0.01,5.51-0.01,8.27,0c0.31,0,0.4-0.11,0.39-0.41c-0.01-1.36-0.02-2.72,0-4.08c0-0.35-0.11-0.46-0.46-0.45
		C261.75,220.38,260.39,220.37,259.03,220.37z M230.2,233.53c1.36,0,2.72-0.01,4.08,0.01c0.35,0,0.46-0.11,0.45-0.46
		c-0.02-1.34-0.02-2.69,0-4.03c0-0.34-0.08-0.47-0.45-0.47c-2.72,0.01-5.44,0.01-8.17,0c-0.35,0-0.46,0.11-0.45,0.46
		c0.02,1.34,0.02,2.69,0,4.03c-0.01,0.4,0.15,0.47,0.5,0.46C227.52,233.52,228.86,233.53,230.2,233.53z M259.04,233.53
		c1.33,0,2.65-0.02,3.98,0.01c0.46,0.01,0.56-0.15,0.55-0.58c-0.03-1.29-0.03-2.58,0-3.87c0.01-0.4-0.11-0.52-0.51-0.52
		c-2.69,0.02-5.37,0.01-8.06,0c-0.36,0-0.51,0.08-0.5,0.47c0.02,1.34,0.02,2.69,0,4.03c0,0.35,0.1,0.46,0.46,0.46
		C256.32,233.52,257.68,233.53,259.04,233.53z M230.22,236.84c-1.36,0-2.72,0.01-4.08-0.01c-0.35,0-0.47,0.1-0.46,0.45
		c0.02,1.34,0.02,2.69,0,4.03c-0.01,0.39,0.14,0.48,0.5,0.47c2.7-0.01,5.41-0.01,8.11,0c0.35,0,0.47-0.1,0.46-0.46
		c-0.02-1.34-0.02-2.69,0-4.03c0.01-0.39-0.13-0.48-0.5-0.47C232.9,236.85,231.56,236.84,230.22,236.84z M258.98,250
		c1.36,0,2.72-0.01,4.08,0.01c0.35,0,0.51-0.06,0.5-0.46c-0.02-1.34-0.02-2.69,0-4.03c0.01-0.36-0.11-0.46-0.46-0.46
		c-2.72,0.01-5.44,0.01-8.16,0c-0.36,0-0.45,0.12-0.45,0.47c0.02,1.34,0.02,2.69,0,4.03c0,0.35,0.1,0.46,0.45,0.46
		C256.3,249.99,257.64,250,258.98,250z M230.24,253.31c-1.38,0-2.76,0.01-4.14-0.01c-0.32,0-0.44,0.08-0.43,0.42
		c0.02,1.36,0.02,2.72,0,4.08c0,0.36,0.12,0.45,0.46,0.45c2.72-0.01,5.45-0.01,8.17,0c0.33,0,0.44-0.09,0.43-0.42
		c-0.02-1.36-0.02-2.72,0-4.08c0.01-0.37-0.13-0.45-0.47-0.45C232.93,253.32,231.59,253.31,230.24,253.31z M259.04,253.31
		c-1.36,0-2.72,0.01-4.08,0c-0.3,0-0.45,0.05-0.45,0.41c0.02,1.38,0.01,2.76,0,4.14c0,0.3,0.08,0.41,0.39,0.41
		c2.76-0.01,5.52-0.01,8.28,0c0.37,0,0.39-0.18,0.39-0.47c-0.01-1.33-0.02-2.65,0.01-3.98c0.01-0.4-0.1-0.52-0.51-0.52
		C261.72,253.32,260.38,253.31,259.04,253.31z M230.21,245.06c-1.36,0-2.72,0.01-4.08-0.01c-0.35,0-0.46,0.1-0.46,0.46
		c0.02,1.34,0.02,2.69,0,4.03c0,0.34,0.08,0.47,0.44,0.47c2.72-0.01,5.44-0.01,8.17,0c0.35,0,0.46-0.11,0.46-0.46
		c-0.02-1.34-0.02-2.69,0-4.03c0.01-0.4-0.14-0.47-0.5-0.47C232.9,245.07,231.56,245.06,230.21,245.06z M259.04,236.84
		c-1.34,0-2.69,0.02-4.03-0.01c-0.41-0.01-0.51,0.12-0.51,0.52c0.02,1.32,0.02,2.65,0,3.97c0,0.34,0.09,0.47,0.45,0.47
		c2.72-0.01,5.44-0.01,8.16,0c0.36,0,0.46-0.12,0.45-0.47c-0.02-1.32-0.02-2.65,0-3.97c0.01-0.4-0.1-0.52-0.51-0.52
		C261.72,236.85,260.38,236.84,259.04,236.84z M283.34,234.49c0-1.15-0.01-2.29,0-3.44c0-0.27-0.06-0.48-0.25-0.68
		c-0.38-0.4-0.76-0.81-1.11-1.23c-0.21-0.25-0.34-0.3-0.57-0.01c-0.36,0.44-0.76,0.86-1.15,1.27c-0.16,0.17-0.23,0.34-0.23,0.57
		c0.01,2.36,0.01,4.72,0,7.09c0,0.34,0.12,0.43,0.44,0.42c0.8-0.02,1.61-0.02,2.42,0c0.35,0.01,0.47-0.1,0.46-0.45
		C283.33,236.85,283.34,235.67,283.34,234.49z"/>
	<path class="st2" d="M208.74,258.25c-2.15,0-4.3,0.01-6.45,0c-1.19-0.01-1.97-0.98-1.68-2.08c0.19-0.71,0.8-1.21,1.59-1.21
		c4.39-0.01,8.78-0.01,13.17,0c0.97,0,1.67,0.76,1.66,1.68c-0.02,0.9-0.72,1.6-1.67,1.61C213.15,258.26,210.95,258.25,208.74,258.25
		z"/>
	<path class="st2" d="M208.78,274.72c-2.17,0-4.34,0-6.5,0c-0.76,0-1.37-0.41-1.61-1.04c-0.25-0.66-0.07-1.39,0.47-1.86
		c0.33-0.28,0.71-0.4,1.14-0.4c4.34,0,8.67-0.01,13.01,0c1.02,0,1.75,0.71,1.75,1.65c0,0.96-0.75,1.65-1.8,1.65
		C213.08,274.72,210.93,274.72,208.78,274.72z"/>
	<path class="st2" d="M208.81,279.66c2.17,0,4.34,0,6.5,0c0.83,0,1.46,0.47,1.66,1.2c0.2,0.72-0.1,1.47-0.74,1.86
		c-0.3,0.19-0.63,0.24-0.98,0.24c-4.32,0-8.64,0-12.95,0c-1.02,0-1.74-0.71-1.74-1.65c0-0.94,0.74-1.64,1.75-1.64
		C204.48,279.66,206.64,279.66,208.81,279.66C208.81,279.66,208.81,279.66,208.81,279.66z"/>
	<path class="st2" d="M208.75,250c-2.17,0-4.34,0-6.5,0c-0.79,0-1.39-0.43-1.61-1.11c-0.21-0.65-0.01-1.37,0.51-1.8
		c0.32-0.26,0.68-0.37,1.09-0.37c4.35,0,8.71,0,13.06,0c0.99,0,1.71,0.69,1.72,1.61c0.02,0.95-0.7,1.66-1.72,1.67
		C213.12,250.01,210.94,250,208.75,250z"/>
	<path class="st2" d="M208.78,263.19c2.13,0,4.26,0,6.4,0c1.11,0,1.86,0.66,1.86,1.64c0,0.98-0.76,1.64-1.86,1.64
		c-4.26,0-8.53,0-12.79,0c-1.06,0-1.81-0.66-1.83-1.62c-0.02-0.98,0.74-1.67,1.83-1.67C204.52,263.19,206.65,263.19,208.78,263.19z"
		/>
	<path class="st2" d="M280.39,258.25c-2.11,0-4.23,0-6.34,0c-1.09,0-1.84-0.68-1.83-1.67c0.01-0.95,0.76-1.63,1.82-1.63
		c4.28,0,8.56,0,12.84,0c1.06,0,1.81,0.68,1.81,1.65c0,0.95-0.75,1.65-1.8,1.65C284.72,258.25,282.55,258.25,280.39,258.25z"/>
	<path class="st2" d="M280.45,274.72c-2.13,0-4.26,0-6.4,0c-1.08,0-1.82-0.65-1.84-1.61c-0.02-0.98,0.73-1.69,1.81-1.69
		c4.28,0,8.56,0,12.85,0c1.1,0,1.83,0.7,1.81,1.69c-0.02,0.95-0.76,1.6-1.84,1.6C284.71,274.72,282.58,274.72,280.45,274.72z"/>
	<path class="st2" d="M280.5,279.66c2.11,0,4.23,0,6.34,0c1.1,0,1.82,0.64,1.84,1.6c0.02,0.98-0.72,1.68-1.82,1.69
		c-4.3,0.01-8.6,0.01-12.9,0c-1.04,0-1.78-0.73-1.76-1.69c0.02-0.94,0.76-1.6,1.79-1.6C276.17,279.66,278.34,279.66,280.5,279.66z"
		/>
	<path class="st2" d="M280.45,266.48c-2.13,0-4.26,0-6.39,0c-1.1,0-1.86-0.69-1.85-1.66c0.02-0.97,0.75-1.63,1.82-1.63
		c4.28,0,8.56,0,12.84,0c1.07,0,1.81,0.67,1.82,1.63c0.01,0.96-0.72,1.65-1.79,1.65C284.75,266.48,282.6,266.48,280.45,266.48z"/>
	<path class="st2" d="M280.39,250c-2.11,0-4.23,0-6.34,0c-1.08,0-1.82-0.65-1.83-1.61c-0.01-0.98,0.73-1.67,1.83-1.67
		c4.28,0,8.56,0,12.84,0c1.08,0,1.81,0.67,1.8,1.63c0,0.97-0.73,1.64-1.8,1.64C284.72,250.01,282.55,250,280.39,250z"/>
</g>
</svg>
