<svg id="svg" version="1.1" xmlns="http://www.w3.org/2000/svg" xmlns:xlink="http://www.w3.org/1999/xlink" width="400" height="400" viewBox="0, 0, 400,400"><g id="svgg"><path id="path0" d="M199.600 35.821 C 199.600 36.385,199.444 36.751,199.253 36.633 C 199.063 36.515,198.586 36.774,198.193 37.208 C 197.607 37.855,197.368 37.908,196.862 37.499 C 196.435 37.153,196.333 37.145,196.530 37.472 C 196.686 37.732,196.630 38.058,196.407 38.196 C 196.146 38.357,196.000 42.807,196.000 50.624 L 196.000 62.800 159.700 62.873 C 139.735 62.914,122.860 62.937,122.200 62.925 C 120.348 62.893,120.419 60.678,120.407 118.969 C 120.400 149.313,120.345 174.188,120.285 174.249 C 120.224 174.309,116.660 174.388,112.364 174.424 C 104.660 174.490,103.135 174.727,102.900 175.900 C 102.845 176.175,103.002 176.400,103.249 176.400 C 103.569 176.400,103.575 176.548,103.273 176.912 C 103.039 177.194,102.826 179.309,102.800 181.612 C 102.726 188.098,102.716 188.007,103.434 187.732 C 103.944 187.536,103.963 187.423,103.534 187.150 C 103.116 186.886,103.112 186.811,103.513 186.806 C 103.794 186.803,104.128 187.069,104.254 187.397 C 104.457 187.925,114.737 187.995,191.864 187.995 C 250.138 187.995,279.161 187.861,278.996 187.594 C 278.538 186.853,279.234 185.516,279.976 185.710 C 281.083 185.999,281.600 184.655,281.595 181.505 C 281.588 178.124,281.293 176.718,280.655 177.034 C 280.405 177.158,280.549 176.976,280.976 176.630 C 281.670 176.067,281.567 175.816,280.700 175.953 C 280.535 175.979,280.445 175.775,280.500 175.500 C 280.555 175.225,280.299 175.050,279.930 175.111 C 279.562 175.171,279.146 175.036,279.007 174.811 C 278.847 174.553,275.926 174.400,271.176 174.400 L 263.600 174.400 263.593 106.500 L 263.586 38.600 262.593 37.658 C 262.047 37.140,261.600 36.555,261.600 36.358 C 261.600 36.161,261.240 36.000,260.800 36.000 C 260.360 36.000,260.045 35.775,260.100 35.500 C 260.179 35.104,253.883 34.979,229.900 34.897 L 199.600 34.795 199.600 35.821 M258.000 107.605 L 258.000 174.400 229.751 174.400 L 201.501 174.400 201.651 107.500 L 201.800 40.600 229.900 40.705 L 258.000 40.811 258.000 107.605 M212.000 92.642 C 212.000 124.178,212.103 132.401,212.500 132.406 C 212.814 132.410,212.849 132.522,212.595 132.706 C 212.026 133.120,212.099 135.403,212.700 135.964 C 212.975 136.221,213.200 136.260,213.200 136.051 C 213.200 135.623,213.947 135.665,214.700 136.135 C 214.994 136.319,215.200 136.253,215.200 135.975 C 215.200 135.615,215.334 135.613,215.760 135.966 C 216.413 136.509,247.508 136.551,248.382 136.011 C 248.668 135.834,248.776 135.444,248.622 135.145 C 248.467 134.845,248.616 134.938,248.952 135.351 C 249.501 136.027,249.565 131.927,249.582 94.900 C 249.599 56.668,249.551 53.658,248.923 53.149 C 248.463 52.776,248.343 52.760,248.547 53.100 C 248.712 53.375,248.657 53.600,248.424 53.600 C 248.191 53.600,248.000 53.440,248.000 53.244 C 248.000 52.771,246.679 52.893,246.306 53.400 C 246.126 53.645,246.010 53.600,246.006 53.283 C 246.001 52.867,242.666 52.777,229.000 52.825 L 212.000 52.884 212.000 92.642 M244.000 93.400 L 244.000 130.400 231.080 130.400 C 221.564 130.400,218.034 130.526,217.680 130.880 C 217.307 131.253,217.200 131.253,217.200 130.880 C 217.200 130.616,217.382 130.400,217.604 130.400 C 217.874 130.400,217.974 118.120,217.904 93.400 L 217.800 56.400 230.900 56.400 L 244.000 56.400 244.000 93.400 M196.097 120.400 L 195.994 174.400 161.197 174.400 L 126.400 174.400 126.400 120.633 C 126.400 77.994,126.297 66.825,125.900 66.665 C 125.625 66.554,141.330 66.449,160.800 66.432 L 196.200 66.400 196.097 120.400 M133.311 75.620 C 133.200 76.044,132.952 76.294,132.759 76.175 C 132.567 76.056,132.507 76.213,132.627 76.525 C 132.776 76.915,132.433 77.182,131.522 77.383 C 130.795 77.543,130.433 77.765,130.717 77.876 C 131.088 78.021,131.114 78.221,130.810 78.588 C 130.075 79.473,130.449 99.000,131.200 99.000 C 132.063 99.000,132.619 99.655,132.694 100.760 C 132.743 101.482,132.646 101.606,132.300 101.260 C 132.047 101.007,131.666 100.800,131.453 100.800 C 131.241 100.800,131.178 100.911,131.314 101.048 C 131.450 101.184,131.300 101.557,130.981 101.876 C 130.104 102.753,130.122 122.979,131.000 123.857 C 131.330 124.187,131.600 124.284,131.600 124.071 C 131.600 123.859,131.843 123.592,132.140 123.478 C 132.515 123.335,132.668 123.597,132.640 124.336 C 132.618 124.921,132.780 125.611,133.000 125.869 C 133.602 126.574,154.648 126.615,154.931 125.911 C 155.091 125.514,155.144 125.512,155.168 125.900 C 155.186 126.175,155.391 126.400,155.624 126.400 C 155.857 126.400,155.936 126.220,155.800 126.000 C 155.664 125.780,155.788 125.597,156.076 125.594 C 156.459 125.589,156.438 125.479,156.000 125.186 C 155.158 124.623,156.528 123.600,158.125 123.600 C 159.176 123.600,159.241 123.670,158.749 124.277 C 158.436 124.662,158.403 124.832,158.672 124.670 C 158.932 124.514,159.258 124.570,159.396 124.793 C 159.534 125.017,159.322 125.214,158.924 125.232 C 158.361 125.256,158.333 125.314,158.800 125.492 C 159.130 125.617,159.521 125.906,159.670 126.134 C 159.850 126.412,160.135 126.386,160.534 126.055 C 160.937 125.720,161.212 125.696,161.388 125.981 C 161.559 126.257,165.436 126.400,172.747 126.400 L 183.846 126.400 183.955 114.180 C 184.036 105.109,183.940 101.810,183.583 101.380 C 183.253 100.982,183.240 100.800,183.543 100.800 C 183.855 100.800,183.973 97.185,183.949 88.400 C 183.923 79.395,183.789 75.998,183.457 75.994 C 183.200 75.990,183.254 75.827,183.579 75.621 C 184.685 74.922,182.350 74.773,172.038 74.887 C 162.520 74.993,161.869 75.047,161.768 75.737 C 161.709 76.142,161.528 76.592,161.366 76.737 C 161.205 76.881,161.183 76.691,161.319 76.313 C 161.454 75.935,161.393 75.519,161.183 75.389 C 160.972 75.259,160.800 75.523,160.800 75.976 C 160.800 76.769,160.416 76.979,159.260 76.821 C 158.963 76.780,158.838 76.939,158.983 77.173 C 159.129 77.408,159.062 77.600,158.836 77.600 C 158.610 77.600,158.529 77.870,158.655 78.200 C 158.805 78.590,158.645 78.800,158.196 78.800 C 157.429 78.800,154.400 75.956,154.400 75.236 C 154.400 74.310,133.554 74.691,133.311 75.620 M152.400 88.600 L 152.400 96.769 144.200 96.884 L 135.999 97.000 135.999 88.600 L 135.999 80.200 144.200 80.316 L 152.400 80.431 152.400 88.600 M180.484 88.572 L 180.600 96.743 172.300 96.785 L 164.000 96.827 164.000 88.613 L 164.000 80.400 172.184 80.400 L 180.369 80.400 180.484 88.572 M157.500 99.500 C 157.775 99.555,158.000 99.420,158.000 99.200 C 158.000 98.980,158.191 98.800,158.424 98.800 C 158.657 98.800,158.765 98.935,158.666 99.100 C 158.474 99.416,159.412 100.447,159.825 100.375 C 159.958 100.352,160.172 100.438,160.300 100.567 C 160.531 100.798,159.739 100.959,159.032 100.825 C 158.830 100.786,158.880 101.014,159.143 101.331 C 159.522 101.788,159.487 101.958,158.974 102.155 C 158.148 102.472,157.488 102.070,157.743 101.405 C 157.875 101.060,157.686 100.957,157.170 101.092 C 156.522 101.261,156.401 101.080,156.406 99.947 C 156.409 99.206,156.544 98.780,156.706 99.000 C 156.868 99.220,157.225 99.445,157.500 99.500 M180.400 112.200 L 180.400 120.400 172.200 120.400 L 164.000 120.400 164.000 112.408 L 164.000 104.417 172.100 104.300 C 176.555 104.235,180.245 104.141,180.300 104.091 C 180.355 104.041,180.400 107.690,180.400 112.200 M152.400 112.400 L 152.400 120.400 144.433 120.400 C 138.434 120.400,136.417 120.523,136.265 120.900 C 136.154 121.175,136.049 117.575,136.032 112.900 L 136.000 104.400 144.200 104.400 L 152.400 104.400 152.400 112.400 M123.416 178.774 C 123.646 178.402,123.819 178.499,124.053 179.132 L 124.374 180.000 160.354 180.000 C 188.746 180.000,196.383 179.895,196.567 179.500 C 196.747 179.113,196.856 179.123,197.048 179.545 C 197.250 179.988,197.357 179.993,197.618 179.571 C 197.859 179.182,198.075 179.164,198.481 179.501 C 199.615 180.442,261.897 180.155,262.198 179.207 C 262.400 178.570,262.554 178.511,262.983 178.907 C 263.276 179.178,263.434 179.535,263.334 179.700 C 263.235 179.865,265.938 180.000,269.343 180.000 C 272.748 180.000,275.609 179.865,275.701 179.700 C 275.793 179.535,275.808 179.640,275.734 179.933 C 275.660 180.226,275.600 180.901,275.600 181.433 L 275.600 182.400 192.044 182.400 L 108.488 182.400 108.335 181.100 L 108.183 179.800 114.527 179.919 C 118.625 179.997,120.785 179.899,120.627 179.644 C 120.482 179.409,120.791 179.324,121.392 179.433 C 122.157 179.572,122.401 179.445,122.406 178.908 C 122.411 178.358,122.489 178.321,122.756 178.743 C 123.032 179.178,123.162 179.184,123.416 178.774 M110.599 213.100 C 110.641 213.719,110.884 214.154,111.154 214.094 C 111.493 214.020,111.523 214.196,111.257 214.694 C 110.759 215.624,110.800 214.431,110.800 228.000 L 110.800 240.000 73.280 240.000 C 44.631 240.000,35.647 240.113,35.280 240.480 C 34.907 240.853,34.800 240.847,34.800 240.452 C 34.800 240.154,34.428 239.997,33.900 240.072 L 33.000 240.200 33.000 295.900 L 33.000 351.600 26.133 351.600 C 22.356 351.600,18.936 351.707,18.533 351.838 C 17.923 352.035,17.901 352.003,18.400 351.644 C 18.923 351.268,18.913 351.211,18.329 351.206 C 17.960 351.203,17.576 351.515,17.476 351.900 C 17.324 352.480,17.285 352.489,17.246 351.955 C 17.213 351.491,16.921 351.364,16.205 351.501 C 15.657 351.606,15.303 351.843,15.417 352.028 C 15.532 352.214,15.935 352.255,16.313 352.120 C 16.805 351.945,16.744 352.105,16.100 352.685 C 15.055 353.624,14.725 360.565,15.680 361.520 C 16.053 361.893,16.036 362.000,15.602 362.000 C 15.296 362.000,15.594 362.405,16.264 362.900 C 16.935 363.395,17.555 363.980,17.642 364.200 C 17.729 364.420,17.935 364.555,18.100 364.500 C 18.265 364.445,18.400 364.580,18.400 364.800 C 18.400 365.354,190.657 365.354,191.000 364.800 C 191.136 364.580,191.462 364.403,191.724 364.406 C 192.010 364.410,191.961 364.567,191.600 364.800 C 191.115 365.114,191.172 365.189,191.900 365.194 C 192.395 365.197,192.800 365.020,192.800 364.800 C 192.800 364.580,193.070 364.400,193.400 364.400 C 194.231 364.400,194.155 363.699,193.300 363.476 C 192.709 363.321,192.724 363.285,193.400 363.240 C 194.067 363.196,194.100 363.123,193.600 362.800 C 193.265 362.584,193.204 362.410,193.462 362.406 C 193.787 362.402,193.940 360.733,193.977 356.800 C 194.033 350.902,193.987 350.770,192.200 351.612 C 191.980 351.715,188.200 351.745,183.800 351.678 L 175.800 351.555 175.902 283.903 C 175.984 229.977,175.903 216.178,175.502 215.895 C 175.113 215.619,175.110 215.494,175.486 215.341 C 175.866 215.186,175.866 214.974,175.486 214.359 C 175.091 213.722,175.112 213.504,175.600 213.194 C 176.083 212.887,176.025 212.811,175.300 212.806 C 174.805 212.803,174.397 212.575,174.394 212.300 C 174.389 211.931,174.298 211.942,174.045 212.341 C 173.781 212.757,173.510 212.780,172.877 212.441 C 172.297 212.131,162.952 212.000,141.288 212.000 L 110.524 212.000 110.599 213.100 M301.778 215.903 C 301.778 216.946,301.739 222.795,301.689 228.900 L 301.600 240.000 264.424 240.000 C 238.923 240.000,227.166 240.132,226.988 240.419 C 226.812 240.705,226.544 240.686,226.150 240.359 C 225.687 239.974,225.412 240.051,224.766 240.745 C 223.946 241.624,224.065 242.641,224.928 242.138 C 225.187 241.986,225.085 242.223,224.700 242.663 C 224.041 243.416,224.000 246.600,224.000 297.331 L 224.000 351.200 217.033 351.200 L 210.067 351.200 209.665 352.300 L 209.263 353.400 209.228 352.400 C 209.199 351.577,209.018 351.755,208.209 353.400 C 207.668 354.500,207.219 355.153,207.213 354.851 C 207.202 354.408,207.084 354.399,206.600 354.800 C 205.806 355.459,205.714 363.196,206.500 363.206 C 206.853 363.210,206.834 363.317,206.435 363.570 C 205.958 363.872,205.973 364.030,206.535 364.592 C 207.019 365.076,207.202 365.113,207.206 364.729 C 207.210 364.407,207.327 364.356,207.506 364.600 C 207.701 364.865,237.813 365.000,296.452 365.000 L 385.104 365.000 385.030 360.000 C 384.941 353.985,384.808 353.358,383.658 353.525 C 383.108 353.605,382.782 353.426,382.750 353.025 C 382.658 351.876,382.602 351.668,382.300 351.367 C 382.135 351.202,381.989 351.502,381.975 352.033 L 381.949 353.000 381.588 352.100 C 381.232 351.215,381.112 351.200,374.213 351.200 L 367.200 351.200 367.154 284.500 C 367.129 247.815,367.143 217.465,367.186 217.056 C 367.233 216.612,367.091 216.420,366.833 216.580 C 366.595 216.727,366.400 216.657,366.400 216.424 C 366.400 216.191,366.564 216.000,366.765 216.000 C 367.281 216.000,367.054 214.887,366.417 214.296 C 365.991 213.901,365.940 213.902,366.166 214.301 C 366.462 214.826,365.080 214.814,364.553 214.287 C 364.406 214.139,350.221 214.016,333.031 214.012 L 301.776 214.006 301.778 215.903 M170.400 284.805 L 170.400 351.600 142.200 351.600 L 114.000 351.600 114.000 284.700 L 114.000 217.800 142.200 217.905 L 170.400 218.011 170.400 284.805 M333.396 220.000 C 348.652 220.000,361.209 219.865,361.301 219.700 C 361.393 219.535,361.408 219.640,361.334 219.933 C 361.260 220.226,361.200 249.878,361.200 285.827 L 361.200 351.189 333.200 351.295 L 305.200 351.400 305.246 285.000 C 305.272 248.480,305.375 218.915,305.476 219.300 C 305.648 219.958,307.316 220.000,333.396 220.000 M124.898 230.792 C 124.334 231.695,124.157 309.600,124.719 309.600 C 124.899 309.600,125.008 310.140,124.963 310.801 C 124.917 311.462,125.045 312.104,125.246 312.229 C 125.448 312.353,125.500 312.638,125.362 312.862 C 125.204 313.117,125.644 313.223,126.534 313.146 C 127.317 313.079,128.093 313.160,128.260 313.327 C 128.427 313.494,136.080 313.609,145.268 313.582 L 161.973 313.535 161.993 272.643 L 162.013 231.752 161.072 230.868 C 159.999 229.860,127.600 229.471,127.600 230.466 C 127.600 230.743,127.381 230.716,126.990 230.392 C 126.655 230.114,126.255 230.011,126.102 230.165 C 125.949 230.318,126.088 230.611,126.412 230.816 C 126.777 231.047,126.818 231.190,126.520 231.194 C 126.256 231.197,125.891 230.935,125.710 230.610 C 125.432 230.114,125.303 230.143,124.898 230.792 M318.276 230.584 C 317.810 230.931,317.706 231.218,317.983 231.389 C 318.673 231.816,318.008 232.456,317.156 232.186 C 316.729 232.051,316.423 232.088,316.475 232.270 C 316.527 232.451,316.351 232.995,316.083 233.477 C 315.320 234.852,315.582 311.846,316.349 311.684 C 316.694 311.611,316.812 311.791,316.667 312.171 C 316.539 312.503,316.635 312.898,316.879 313.049 C 317.148 313.215,317.211 313.141,317.038 312.862 C 316.573 312.109,317.037 312.329,318.359 313.489 C 319.041 314.088,319.600 314.812,319.600 315.097 C 319.600 315.700,351.169 315.790,352.600 315.191 C 353.282 314.906,353.297 314.852,352.700 314.828 C 352.315 314.813,352.000 314.626,352.000 314.413 C 352.000 314.199,352.270 314.129,352.600 314.255 C 352.930 314.382,353.200 314.301,353.200 314.076 C 353.200 313.851,353.009 313.603,352.775 313.525 C 352.475 313.425,352.475 313.055,352.775 312.266 C 353.337 310.787,353.371 234.502,352.810 233.026 C 352.556 232.359,352.556 232.000,352.810 232.000 C 353.024 232.000,353.200 231.547,353.200 230.992 L 353.200 229.985 336.100 230.015 C 322.419 230.039,318.855 230.153,318.276 230.584 M158.400 270.600 L 158.400 307.600 144.404 307.600 L 130.408 307.600 130.304 270.600 L 130.200 233.600 144.300 233.600 L 158.400 233.600 158.400 270.600 M349.600 272.500 L 349.600 309.800 335.400 309.690 L 321.200 309.580 321.200 272.790 L 321.200 236.000 335.200 236.000 C 344.267 236.000,349.200 235.859,349.200 235.600 C 349.200 235.380,349.290 235.200,349.400 235.200 C 349.510 235.200,349.600 251.985,349.600 272.500 M110.800 297.600 L 110.800 351.600 74.800 351.600 L 38.800 351.600 38.800 297.600 L 38.800 243.600 74.800 243.600 L 110.800 243.600 110.800 297.600 M301.697 298.300 L 301.594 351.200 266.030 351.200 C 246.469 351.200,230.136 351.307,229.733 351.438 C 229.229 351.601,229.157 351.562,229.503 351.312 C 229.903 351.023,229.985 340.194,229.903 298.175 L 229.800 245.400 265.800 245.400 L 301.800 245.400 301.697 298.300 M45.200 252.271 C 45.200 252.474,45.425 252.869,45.700 253.149 C 46.101 253.556,46.081 253.632,45.600 253.529 C 45.079 253.417,44.987 254.922,44.900 264.900 C 44.835 272.362,44.941 276.400,45.200 276.400 C 45.420 276.400,45.600 276.591,45.600 276.824 C 45.600 277.057,45.375 277.112,45.100 276.947 C 44.760 276.743,44.776 276.863,45.149 277.323 C 45.451 277.695,45.516 278.000,45.295 278.000 C 45.035 278.000,44.868 281.981,44.825 289.200 C 44.784 296.168,44.905 300.400,45.145 300.400 C 45.357 300.400,45.448 300.924,45.347 301.565 C 45.142 302.864,45.820 303.561,46.535 302.786 C 46.889 302.403,46.887 302.346,46.528 302.548 C 45.955 302.869,45.423 302.157,45.979 301.813 C 46.194 301.680,46.737 301.937,47.185 302.385 C 47.677 302.877,48.005 303.002,48.012 302.700 C 48.019 302.423,48.206 302.512,48.432 302.900 C 48.920 303.737,66.509 303.995,67.017 303.173 C 67.162 302.938,67.527 302.840,67.828 302.955 C 68.128 303.071,68.481 302.993,68.611 302.783 C 68.741 302.572,68.527 302.400,68.135 302.400 C 67.381 302.400,68.927 301.070,69.799 300.969 C 70.020 300.943,70.560 300.882,71.000 300.833 L 71.800 300.744 71.000 300.415 C 70.243 300.104,70.240 300.070,70.931 299.788 C 71.414 299.592,71.889 299.732,72.331 300.202 C 72.699 300.593,72.775 300.787,72.500 300.633 C 72.225 300.479,72.000 300.522,72.000 300.728 C 72.000 300.934,72.520 301.318,73.155 301.581 C 74.044 301.950,74.266 302.260,74.120 302.930 C 73.967 303.634,74.012 303.686,74.359 303.200 C 74.650 302.793,74.790 302.760,74.794 303.100 C 74.799 303.487,77.070 303.600,84.800 303.600 C 93.718 303.600,94.800 303.530,94.800 302.957 C 94.800 302.526,95.016 302.397,95.457 302.566 C 96.006 302.777,96.030 302.718,95.608 302.209 C 95.115 301.615,95.429 301.384,96.500 301.553 C 96.665 301.579,96.800 301.218,96.800 300.751 C 96.800 300.036,96.896 299.982,97.409 300.408 C 97.918 300.830,97.977 300.806,97.766 300.257 C 97.625 299.888,97.711 299.600,97.964 299.600 C 98.288 299.600,98.384 296.774,98.307 289.500 C 98.218 281.103,98.104 279.400,97.633 279.400 C 96.666 279.400,96.702 278.472,97.677 278.285 L 98.600 278.109 97.700 278.054 C 96.576 277.986,96.547 277.423,97.628 276.665 C 98.231 276.243,98.313 276.028,97.928 275.874 C 97.536 275.717,97.529 275.655,97.900 275.632 C 98.286 275.607,98.400 273.316,98.400 265.600 C 98.400 255.476,98.378 255.320,97.000 255.581 C 96.780 255.623,96.825 255.428,97.100 255.149 C 97.375 254.869,97.597 254.451,97.594 254.220 C 97.591 253.989,97.413 254.070,97.200 254.400 C 96.918 254.836,96.811 254.857,96.806 254.476 C 96.803 254.188,96.616 254.067,96.390 254.206 C 96.165 254.345,96.030 254.311,96.090 254.130 C 96.785 252.046,74.221 250.604,73.424 252.681 C 73.222 253.207,73.284 253.228,73.791 252.808 C 74.259 252.419,74.400 252.415,74.400 252.788 C 74.400 253.056,74.040 253.369,73.600 253.484 C 73.160 253.599,72.800 253.899,72.800 254.150 C 72.800 255.028,71.117 255.774,70.629 255.112 C 70.393 254.792,69.975 254.606,69.700 254.698 C 69.425 254.791,69.091 254.582,68.957 254.233 C 68.824 253.885,68.273 253.600,67.734 253.600 C 67.194 253.600,66.859 253.428,66.989 253.217 C 67.119 253.007,67.490 252.936,67.813 253.060 C 68.136 253.184,68.400 253.076,68.400 252.819 C 68.400 252.563,68.220 252.464,68.000 252.600 C 67.780 252.736,67.600 252.668,67.600 252.450 C 67.600 251.854,48.473 251.841,47.756 252.437 C 47.327 252.792,47.199 252.772,47.194 252.349 C 47.189 251.902,47.120 251.906,46.824 252.374 C 46.523 252.850,46.353 252.859,45.830 252.425 C 45.484 252.138,45.200 252.068,45.200 252.271 M275.813 253.907 C 270.309 253.966,265.658 254.182,265.452 254.388 C 265.219 254.621,264.808 254.618,264.368 254.383 C 263.453 253.893,262.531 254.255,262.284 255.200 C 261.684 257.494,261.973 276.400,262.608 276.400 C 263.198 276.400,263.200 276.457,262.629 277.029 C 261.905 277.752,261.808 278.400,262.424 278.400 C 262.657 278.400,262.737 278.222,262.603 278.005 C 262.462 277.776,262.625 277.712,262.989 277.851 C 263.453 278.029,263.507 278.230,263.194 278.608 C 262.885 278.979,262.910 279.180,263.283 279.331 C 263.690 279.495,263.676 279.625,263.219 279.943 C 262.900 280.165,262.500 280.262,262.332 280.158 C 261.995 279.950,261.677 301.522,262.000 302.681 C 262.228 303.500,264.000 303.740,264.000 302.953 C 264.000 302.563,264.274 302.537,265.159 302.846 C 265.863 303.091,270.405 303.201,276.721 303.125 C 282.443 303.056,287.063 303.100,286.987 303.221 C 286.808 303.511,289.188 303.345,289.486 303.048 C 289.611 302.922,289.463 302.510,289.157 302.133 C 288.788 301.679,288.769 301.548,289.100 301.747 C 289.495 301.984,289.600 299.903,289.600 291.857 C 289.600 284.096,289.481 281.611,289.100 281.433 C 288.700 281.247,288.700 281.153,289.100 280.967 C 289.375 280.838,289.600 280.558,289.600 280.343 C 289.600 280.128,289.434 280.056,289.230 280.181 C 289.027 280.307,288.778 280.093,288.677 279.705 C 288.503 279.039,288.490 279.039,288.446 279.700 C 288.390 280.556,287.865 280.601,287.206 279.807 C 286.798 279.316,286.884 279.148,287.703 278.837 C 288.395 278.574,288.677 278.180,288.639 277.530 C 288.609 277.019,288.823 276.351,289.116 276.048 C 289.881 275.253,289.736 255.926,288.957 254.901 C 288.563 254.381,288.422 254.345,288.413 254.762 C 288.403 255.199,288.227 255.168,287.625 254.623 C 287.199 254.237,286.674 254.030,286.459 254.163 C 286.244 254.296,286.008 254.269,285.934 254.102 C 285.860 253.936,281.306 253.848,275.813 253.907 M236.000 254.434 C 236.000 254.635,236.180 254.800,236.400 254.800 C 236.620 254.800,236.800 254.991,236.800 255.224 C 236.800 255.457,236.620 255.536,236.400 255.400 C 236.180 255.264,236.000 255.333,236.000 255.553 C 236.000 255.773,236.189 256.069,236.419 256.212 C 236.710 256.392,236.705 256.632,236.404 256.995 C 235.819 257.700,235.897 277.600,236.485 277.600 C 236.761 277.600,236.755 277.772,236.469 278.117 C 236.180 278.465,236.066 282.673,236.120 290.996 L 236.200 303.359 237.300 303.418 C 237.905 303.450,238.400 303.369,238.400 303.238 C 238.400 303.107,242.899 303.000,248.399 303.000 C 254.795 303.000,258.402 303.144,258.406 303.400 C 258.409 303.620,258.589 303.530,258.806 303.200 C 259.104 302.747,259.277 302.719,259.514 303.085 C 259.687 303.352,260.212 303.470,260.680 303.347 C 261.732 303.072,262.161 281.206,261.115 281.194 C 260.702 281.189,260.700 281.124,261.107 280.866 C 261.646 280.524,261.606 276.980,261.053 276.086 C 260.886 275.816,260.951 275.600,261.199 275.600 C 261.830 275.600,261.684 255.722,261.050 255.417 C 260.731 255.263,260.746 255.132,261.100 254.967 C 262.843 254.153,260.571 253.979,248.800 254.021 C 241.352 254.048,236.000 254.221,236.000 254.434 M65.000 265.700 L 65.000 274.000 57.915 274.000 L 50.831 274.000 50.715 265.700 L 50.600 257.400 57.800 257.400 L 65.000 257.400 65.000 265.700 M93.000 265.600 L 93.000 274.000 84.900 274.000 L 76.800 274.000 76.800 265.808 L 76.800 257.617 84.900 257.500 C 89.355 257.435,93.000 257.341,93.000 257.291 C 93.000 257.241,93.000 260.980,93.000 265.600 M284.080 259.507 C 283.731 259.623,283.600 261.568,283.600 266.633 L 283.600 273.600 275.600 273.600 L 267.600 273.600 267.600 266.600 L 267.600 259.600 275.600 259.600 C 280.964 259.600,283.600 259.460,283.600 259.176 C 283.600 258.943,283.816 258.886,284.080 259.050 C 284.454 259.281,284.454 259.382,284.080 259.507 M256.083 266.700 L 256.200 273.800 248.900 273.683 L 241.600 273.566 241.600 266.583 L 241.600 259.600 248.783 259.600 L 255.965 259.600 256.083 266.700 M71.600 276.567 C 71.600 276.659,71.709 277.019,71.843 277.367 C 72.023 277.838,71.844 277.993,71.143 277.972 C 70.259 277.946,70.250 277.922,71.000 277.600 C 71.684 277.306,71.699 277.252,71.100 277.228 C 70.249 277.194,70.153 276.400,71.000 276.400 C 71.330 276.400,71.600 276.475,71.600 276.567 M84.412 277.215 C 97.515 277.290,96.452 277.244,96.293 277.722 C 96.093 278.320,75.098 278.079,74.714 277.475 C 74.509 277.152,74.410 277.212,74.406 277.665 C 74.402 278.080,74.138 278.279,73.700 278.195 C 73.315 278.122,72.876 278.047,72.725 278.031 C 72.574 278.014,72.476 277.649,72.508 277.220 C 72.547 276.714,72.718 276.566,72.996 276.797 C 73.232 276.992,78.369 277.181,84.412 277.215 M68.800 277.724 C 68.800 278.081,66.058 278.200,57.867 278.200 C 49.480 278.200,46.933 278.085,46.933 277.708 C 46.933 277.331,49.352 277.220,57.306 277.235 C 63.011 277.246,67.776 277.157,67.895 277.038 C 68.211 276.723,68.800 277.169,68.800 277.724 M72.000 278.800 C 72.000 279.020,71.640 279.200,71.200 279.200 C 70.760 279.200,70.400 279.020,70.400 278.800 C 70.400 278.580,70.760 278.400,71.200 278.400 C 71.640 278.400,72.000 278.580,72.000 278.800 M64.800 289.400 L 64.800 297.600 57.816 297.600 L 50.831 297.600 50.716 289.400 L 50.600 281.199 57.700 281.200 L 64.800 281.200 64.800 289.400 M92.885 289.500 L 93.000 297.800 84.900 297.684 L 76.800 297.569 76.800 289.384 L 76.800 281.200 84.785 281.200 L 92.769 281.200 92.885 289.500 M256.084 291.700 L 256.200 299.800 248.900 299.683 L 241.600 299.566 241.600 291.583 L 241.600 283.600 248.784 283.600 L 255.969 283.600 256.084 291.700 M283.600 291.600 L 283.600 299.600 275.600 299.600 L 267.600 299.600 267.600 291.600 L 267.600 283.600 275.600 283.600 L 283.600 283.600 283.600 291.600 M35.808 356.541 C 36.089 356.434,36.438 356.538,36.583 356.773 C 36.767 357.071,48.112 357.198,74.124 357.194 C 98.338 357.190,111.190 357.052,110.800 356.800 C 110.267 356.455,110.267 356.412,110.800 356.412 C 111.130 356.412,111.655 356.574,111.967 356.771 C 112.298 356.981,112.921 356.982,113.467 356.775 C 114.052 356.552,114.400 356.566,114.400 356.813 C 114.400 357.067,124.657 357.169,143.500 357.103 C 167.399 357.018,172.580 356.905,172.490 356.470 C 172.430 356.179,172.560 356.052,172.781 356.188 C 173.696 356.754,176.137 356.963,182.016 356.981 L 188.232 357.000 188.071 358.100 L 187.909 359.200 104.400 359.200 L 20.891 359.200 20.729 358.100 L 20.567 357.000 26.340 357.121 C 29.515 357.188,32.402 357.113,32.756 356.956 C 33.110 356.798,33.520 356.654,33.667 356.635 C 33.813 356.616,34.071 356.462,34.240 356.293 C 34.409 356.125,34.716 356.156,34.922 356.362 C 35.129 356.569,35.527 356.649,35.808 356.541 M372.900 357.093 L 379.200 357.239 379.200 359.420 L 379.200 361.600 295.500 361.600 L 211.800 361.600 211.800 359.264 L 211.800 356.927 289.200 356.938 C 331.770 356.943,369.435 357.013,372.900 357.093 " stroke="none" fill="#fcbc04" fill-rule="evenodd"></path><path id="path1" d="" stroke="none" fill="#100bc04" fill-rule="evenodd"></path><path id="path2" d="" stroke="none" fill="#100bc04" fill-rule="evenodd"></path><path id="path3" d="" stroke="none" fill="#100bc04" fill-rule="evenodd"></path><path id="path4" d="" stroke="none" fill="#100bc04" fill-rule="evenodd"></path></g></svg>