<svg id="svg" version="1.1" xmlns="http://www.w3.org/2000/svg" xmlns:xlink="http://www.w3.org/1999/xlink" width="400" height="400" viewBox="0, 0, 400,400"><g id="svgg"><path id="path0" d="M212.450 49.340 C 212.157 49.693,212.017 58.124,212.006 76.200 C 211.996 90.689,211.933 102.601,211.864 102.669 C 211.795 102.738,177.078 102.798,134.714 102.803 C 63.124 102.811,57.650 102.859,57.144 103.483 C 56.676 104.059,56.684 104.104,57.200 103.800 C 57.700 103.505,57.716 103.550,57.299 104.066 C 56.899 104.560,56.818 127.484,56.899 217.143 L 57.000 329.600 40.600 329.655 C 20.709 329.723,22.054 329.670,21.592 330.400 C 21.090 331.193,21.094 332.112,21.599 331.801 C 21.852 331.644,21.844 331.958,21.576 332.663 C 21.316 333.347,21.185 337.319,21.234 343.047 L 21.313 352.323 22.272 352.760 C 23.759 353.438,376.398 353.377,376.406 352.699 C 376.410 352.368,376.543 352.402,376.800 352.800 C 377.131 353.313,377.189 353.298,377.194 352.700 C 377.198 352.269,377.507 352.000,378.000 352.000 C 378.440 352.000,378.800 351.809,378.800 351.576 C 378.800 351.343,378.665 351.236,378.500 351.338 C 378.335 351.440,378.200 351.016,378.200 350.395 C 378.200 349.774,378.380 349.297,378.600 349.333 C 379.320 349.453,379.124 332.448,378.400 331.991 C 377.889 331.669,377.905 331.611,378.503 331.606 C 379.087 331.601,379.128 331.474,378.745 330.861 C 378.468 330.417,377.909 330.164,377.342 330.226 C 376.824 330.283,376.400 330.173,376.400 329.982 C 376.400 329.790,368.986 329.623,359.925 329.609 C 350.864 329.595,343.395 329.528,343.326 329.460 C 343.258 329.391,343.198 266.440,343.194 189.568 C 343.188 100.353,343.045 49.583,342.799 49.200 C 342.455 48.667,342.411 48.667,342.400 49.200 C 342.389 49.715,342.336 49.718,342.024 49.226 C 341.723 48.750,341.553 48.741,341.030 49.175 C 340.608 49.526,340.400 49.550,340.400 49.249 C 340.400 48.546,213.033 48.637,212.450 49.340 M335.600 192.404 L 335.600 330.003 276.700 329.901 L 217.800 329.800 217.699 192.200 L 217.599 54.600 276.599 54.703 L 335.600 54.805 335.600 192.404 M245.438 81.262 C 245.639 81.586,245.515 81.653,245.045 81.473 C 244.637 81.316,244.458 81.370,244.603 81.605 C 244.737 81.822,244.656 82.000,244.422 82.000 C 243.861 82.000,243.844 248.321,244.405 249.200 C 244.730 249.710,244.789 249.713,244.794 249.220 C 244.799 248.769,244.907 248.747,245.280 249.120 C 245.995 249.835,314.397 249.815,314.406 249.100 C 314.410 248.767,314.542 248.800,314.800 249.200 C 315.013 249.530,315.204 249.620,315.224 249.400 C 315.245 249.180,315.322 248.685,315.395 248.300 C 315.469 247.915,315.410 247.600,315.265 247.600 C 315.119 247.600,315.047 210.872,315.105 165.982 C 315.177 109.712,315.079 84.122,314.791 83.582 C 314.454 82.954,314.501 82.800,315.029 82.800 C 315.463 82.800,315.603 82.586,315.443 82.167 C 315.309 81.819,315.200 81.375,315.200 81.180 C 315.200 80.977,300.250 80.817,280.173 80.807 C 253.265 80.792,245.213 80.897,245.438 81.262 M309.600 165.200 L 309.600 242.000 279.400 242.000 L 249.200 242.000 249.200 165.200 L 249.200 88.400 279.400 88.400 L 309.600 88.400 309.600 165.200 M212.000 218.800 C 212.000 279.520,212.000 329.335,212.000 329.500 C 212.000 329.665,178.385 329.845,137.300 329.901 L 62.600 330.002 62.701 219.201 L 62.803 108.400 137.401 108.400 L 212.000 108.400 212.000 218.800 M79.801 128.801 C 79.913 128.983,79.779 129.223,79.502 129.334 C 79.226 129.446,79.360 129.557,79.800 129.581 C 80.492 129.619,80.519 129.691,80.000 130.114 C 79.007 130.923,79.003 130.997,78.903 154.882 L 78.806 177.964 101.567 177.990 C 119.612 178.011,124.371 177.911,124.534 177.508 C 124.692 177.117,124.833 177.136,125.148 177.589 C 125.500 178.096,125.593 178.082,125.821 177.489 C 125.967 177.110,126.257 176.800,126.466 176.800 C 126.676 176.800,126.748 176.961,126.626 177.158 C 126.504 177.355,126.634 177.604,126.915 177.712 C 127.195 177.819,127.623 177.486,127.866 176.972 C 128.192 176.282,128.188 175.992,127.854 175.870 C 127.524 175.750,127.538 175.470,127.907 174.847 C 128.600 173.673,128.609 131.790,127.916 131.048 C 127.665 130.779,126.949 130.634,126.324 130.726 C 125.409 130.860,125.238 130.767,125.438 130.246 C 125.574 129.891,125.853 129.600,126.059 129.600 C 126.264 129.600,126.199 129.348,125.916 129.040 C 125.521 128.611,125.265 128.588,124.823 128.940 C 124.378 129.295,124.315 129.286,124.547 128.900 C 124.786 128.502,120.451 128.400,103.400 128.400 C 91.038 128.400,82.046 128.550,82.172 128.755 C 82.292 128.950,82.039 129.201,81.609 129.314 C 81.179 129.426,80.866 129.335,80.914 129.112 C 80.961 128.889,80.684 128.653,80.298 128.588 C 79.912 128.523,79.688 128.619,79.801 128.801 M134.912 129.015 C 134.531 129.425,134.530 129.577,134.907 129.702 C 135.285 129.828,135.285 130.095,134.909 130.921 C 134.309 132.237,134.188 174.261,134.781 175.189 C 135.031 175.580,134.996 175.894,134.679 176.120 C 134.310 176.383,134.315 176.507,134.700 176.664 C 134.975 176.775,135.200 177.113,135.200 177.414 C 135.200 177.871,138.942 177.967,157.744 177.990 C 179.504 178.017,181.854 177.934,181.374 177.158 C 181.252 176.961,181.338 176.800,181.564 176.800 C 182.174 176.800,182.167 132.483,181.557 131.748 C 181.209 131.329,181.232 131.197,181.651 131.188 C 182.023 131.180,181.975 131.044,181.500 130.768 C 181.115 130.544,180.800 130.202,180.800 130.009 C 180.800 129.817,181.115 129.576,181.500 129.476 C 182.167 129.302,182.167 129.291,181.500 129.246 C 181.115 129.221,180.800 129.020,180.800 128.800 C 180.800 128.210,136.538 128.253,136.174 128.843 C 135.997 129.128,135.811 129.144,135.650 128.887 C 135.494 128.638,135.217 128.686,134.912 129.015 M120.492 153.500 L 120.600 170.600 103.629 170.491 C 90.259 170.406,86.580 170.491,86.291 170.891 C 86.036 171.245,85.997 171.177,86.162 170.667 C 86.293 170.264,86.400 162.389,86.400 153.167 L 86.400 136.400 103.392 136.400 L 120.383 136.400 120.492 153.500 M176.400 153.400 L 176.400 170.400 158.200 170.400 L 140.000 170.400 140.000 153.400 L 140.000 136.400 158.200 136.400 L 176.400 136.400 176.400 153.400 M80.052 178.937 C 79.807 179.232,79.740 179.607,79.903 179.770 C 80.067 179.933,80.020 180.030,79.800 179.986 C 78.935 179.811,78.724 180.027,79.200 180.600 C 79.546 181.016,79.560 181.200,79.248 181.200 C 78.341 181.200,78.692 225.745,79.604 226.403 C 80.018 226.701,80.274 227.080,80.172 227.245 C 80.070 227.410,80.170 227.658,80.393 227.796 C 80.617 227.934,80.800 227.873,80.800 227.659 C 80.800 227.225,81.542 227.261,82.297 227.733 C 82.980 228.160,127.370 227.992,128.052 227.559 C 128.516 227.266,128.516 227.211,128.051 227.206 C 127.586 227.201,127.586 227.097,128.051 226.523 C 128.525 225.939,128.518 225.895,128.000 226.200 C 127.506 226.491,127.486 226.447,127.886 225.952 C 128.601 225.069,128.611 181.203,127.896 181.194 C 127.521 181.189,127.527 181.107,127.921 180.857 C 129.058 180.136,127.814 178.265,126.619 178.900 C 126.061 179.196,125.795 179.184,125.686 178.857 C 125.456 178.167,82.767 178.208,82.021 178.900 C 81.590 179.300,81.539 179.300,81.765 178.900 C 82.155 178.209,80.629 178.242,80.052 178.937 M134.430 203.081 L 134.429 227.960 158.081 227.880 L 181.733 227.800 181.885 226.665 C 181.998 225.817,181.906 225.609,181.518 225.842 C 181.101 226.093,181.097 226.034,181.499 225.538 C 182.011 224.905,182.243 180.298,181.740 178.989 C 181.436 178.196,135.204 178.120,135.194 178.913 C 135.190 179.220,135.048 179.179,134.809 178.801 C 134.569 178.421,134.430 187.282,134.430 203.081 M120.400 203.008 L 120.400 220.000 103.408 220.000 L 86.417 220.000 86.308 202.900 L 86.200 185.800 103.300 185.908 L 120.400 186.017 120.400 203.008 M176.492 203.100 L 176.600 220.200 158.300 220.200 L 140.000 220.200 140.000 203.100 L 140.000 186.000 158.192 186.000 L 176.383 186.000 176.492 203.100 M136.366 337.196 C 186.724 337.188,213.553 337.047,213.395 336.792 C 213.262 336.576,213.343 336.400,213.576 336.400 C 213.809 336.400,214.000 336.550,214.000 336.733 C 214.000 336.916,214.405 337.021,214.900 336.966 C 215.395 336.912,215.800 336.838,215.800 336.803 C 215.800 336.768,216.115 336.678,216.500 336.605 C 216.885 336.531,217.203 336.680,217.206 336.935 C 217.210 337.198,217.381 337.139,217.600 336.800 C 217.862 336.394,217.990 336.363,217.994 336.704 C 218.004 337.518,341.432 337.414,341.745 336.599 C 341.872 336.269,342.237 336.116,342.583 336.249 C 342.920 336.378,343.096 336.645,342.974 336.842 C 342.845 337.050,348.697 337.200,356.954 337.200 L 371.156 337.200 371.278 342.401 L 371.400 347.601 199.100 347.601 L 26.800 347.600 26.800 342.400 L 26.800 337.200 42.224 337.200 C 54.456 337.200,57.585 337.097,57.347 336.700 C 57.148 336.369,57.278 336.388,57.732 336.757 C 58.340 337.250,58.391 337.227,58.177 336.557 C 57.948 335.841,57.966 335.839,58.514 336.504 C 59.064 337.172,63.086 337.207,136.366 337.196 " stroke="none" fill="#fcbc04" fill-rule="evenodd"></path><path id="path1" d="" stroke="none" fill="#100bc04" fill-rule="evenodd"></path><path id="path2" d="" stroke="none" fill="#100bc04" fill-rule="evenodd"></path><path id="path3" d="" stroke="none" fill="#100bc04" fill-rule="evenodd"></path><path id="path4" d="" stroke="none" fill="#100bc04" fill-rule="evenodd"></path></g></svg>