<svg id="svg" version="1.1" xmlns="http://www.w3.org/2000/svg" xmlns:xlink="http://www.w3.org/1999/xlink" width="400" height="400" viewBox="0, 0, 400,400"><g id="svgg"><path id="path0" d="M81.495 35.079 C 81.107 35.179,80.895 35.430,81.023 35.637 C 81.151 35.844,81.468 35.900,81.728 35.763 C 81.987 35.625,81.660 35.975,81.000 36.542 C 80.340 37.108,79.948 37.578,80.129 37.586 C 80.659 37.609,79.466 38.642,78.080 39.358 C 76.838 40.001,76.363 40.800,77.224 40.800 C 77.465 40.800,77.511 41.015,77.330 41.300 C 77.017 41.792,76.949 42.005,76.850 42.800 C 76.823 43.020,76.665 43.179,76.500 43.153 C 75.244 42.954,74.970 43.285,74.891 45.099 C 74.795 47.323,75.094 48.513,75.662 48.162 C 75.884 48.024,75.770 48.517,75.409 49.256 L 74.752 50.600 75.581 49.600 C 76.204 48.849,76.342 48.791,76.137 49.366 C 75.927 49.954,75.996 50.055,76.432 49.801 C 76.744 49.620,76.872 49.613,76.716 49.787 C 76.560 49.960,76.699 50.619,77.026 51.251 C 77.370 51.916,77.448 52.400,77.210 52.400 C 76.985 52.400,76.800 52.580,76.800 52.800 C 76.800 53.020,77.070 53.200,77.400 53.200 C 77.730 53.200,78.000 53.391,78.000 53.624 C 78.000 53.857,77.792 53.919,77.538 53.762 C 77.245 53.581,77.185 53.653,77.374 53.958 C 77.602 54.326,77.803 54.329,78.236 53.970 C 78.683 53.599,78.800 53.641,78.800 54.175 C 78.800 54.545,78.980 54.736,79.200 54.600 C 79.760 54.254,79.700 54.940,79.120 55.520 C 78.747 55.893,78.836 56.000,79.520 56.000 C 80.004 56.000,80.400 56.216,80.400 56.480 C 80.400 56.825,80.522 56.838,80.834 56.526 C 81.313 56.047,82.800 56.289,82.800 56.847 C 82.800 57.041,83.115 57.203,83.500 57.206 C 84.098 57.211,84.113 57.269,83.600 57.600 C 83.060 57.949,83.310 58.172,84.100 58.047 C 84.265 58.021,84.400 58.216,84.400 58.480 C 84.400 58.843,84.513 58.847,84.861 58.499 C 85.171 58.189,85.557 58.163,86.037 58.420 C 86.500 58.668,86.839 58.661,87.000 58.400 C 87.166 58.131,87.500 58.133,88.009 58.405 C 88.783 58.819,313.214 58.770,315.889 58.356 C 317.308 58.135,318.132 57.600,317.051 57.600 C 316.487 57.600,316.458 57.503,316.884 57.042 C 317.168 56.735,317.555 56.578,317.745 56.693 C 317.934 56.808,318.247 56.654,318.439 56.351 C 318.713 55.919,318.789 55.913,318.794 56.324 C 318.798 56.642,318.996 56.725,319.300 56.534 C 319.575 56.362,320.070 56.216,320.400 56.211 C 320.747 56.204,320.950 55.905,320.882 55.500 C 320.792 54.961,321.045 54.800,321.982 54.800 C 323.173 54.800,323.200 54.756,323.200 52.849 C 323.200 50.702,324.127 49.315,324.819 50.426 C 325.043 50.784,325.162 49.463,325.136 46.909 C 325.114 44.658,324.937 42.915,324.744 43.035 C 323.658 43.706,323.002 42.788,323.139 40.792 C 323.216 39.682,323.126 38.801,322.939 38.834 C 321.451 39.100,320.757 38.763,321.014 37.900 C 321.247 37.120,321.211 37.080,320.741 37.605 C 320.444 37.937,320.243 38.134,320.297 38.042 C 320.520 37.652,319.498 36.864,319.011 37.051 C 318.720 37.163,318.362 37.062,318.217 36.827 C 318.072 36.592,318.154 36.400,318.400 36.400 C 318.646 36.400,318.734 36.217,318.596 35.993 C 318.458 35.770,318.198 35.678,318.018 35.789 C 317.838 35.900,317.461 35.715,317.181 35.377 C 316.771 34.883,316.599 34.864,316.305 35.281 C 316.015 35.693,315.897 35.696,315.735 35.297 C 315.537 34.808,83.391 34.592,81.495 35.079 M80.400 65.267 C 80.400 65.450,80.018 65.600,79.551 65.600 C 78.842 65.600,78.784 65.699,79.200 66.200 C 79.655 66.748,78.005 67.117,76.300 66.847 C 75.797 66.768,75.966 67.520,76.500 67.735 C 76.775 67.846,76.550 67.954,76.000 67.975 C 75.203 68.005,75.122 68.091,75.600 68.400 C 76.209 68.793,76.192 68.800,74.600 68.800 C 73.865 68.800,72.800 70.588,72.800 71.824 C 72.800 72.607,72.665 73.175,72.500 73.087 C 72.335 72.999,71.896 73.247,71.525 73.639 C 70.891 74.307,70.891 74.362,71.525 74.529 C 72.138 74.691,72.135 74.711,71.500 74.754 C 71.084 74.781,70.800 75.122,70.800 75.595 C 70.800 76.711,69.537 78.141,69.124 77.492 C 68.903 77.142,68.810 77.193,68.806 77.667 C 68.803 78.033,69.025 78.424,69.300 78.535 C 69.700 78.696,69.700 78.743,69.300 78.768 C 69.025 78.786,68.800 79.231,68.800 79.757 C 68.800 80.577,67.913 81.414,67.177 81.289 C 67.054 81.268,66.912 81.958,66.861 82.822 C 66.800 83.843,66.424 84.765,65.784 85.455 C 64.738 86.584,64.458 88.595,65.300 88.935 C 65.685 89.090,65.679 89.144,65.276 89.168 C 64.988 89.186,64.864 89.380,65.000 89.600 C 65.136 89.820,65.037 90.000,64.781 90.000 C 64.524 90.000,64.418 89.730,64.545 89.400 C 64.672 89.068,64.557 88.801,64.287 88.803 C 63.648 88.807,62.800 90.667,62.800 92.067 C 62.800 92.787,62.625 93.109,62.300 92.987 C 61.677 92.754,60.800 94.576,60.800 96.103 C 60.800 96.796,60.635 97.145,60.382 96.989 C 59.613 96.514,58.800 97.674,58.800 99.249 C 58.800 100.667,58.705 100.803,57.700 100.832 C 57.095 100.849,56.825 100.954,57.100 101.065 C 57.375 101.176,57.600 101.442,57.600 101.657 C 57.600 101.872,57.416 101.933,57.190 101.794 C 56.965 101.655,56.806 101.689,56.837 101.870 C 57.162 103.741,56.752 104.800,55.700 104.806 C 54.885 104.811,54.749 104.906,55.174 105.176 C 55.649 105.476,55.658 105.648,55.227 106.167 C 54.940 106.513,54.795 107.262,54.904 107.832 C 55.065 108.673,54.969 108.833,54.395 108.683 C 54.007 108.581,53.444 108.653,53.144 108.843 C 52.745 109.096,52.733 109.189,53.100 109.194 C 53.375 109.197,53.587 109.605,53.572 110.100 C 53.545 110.964,53.529 110.968,53.173 110.200 C 52.891 109.592,52.829 109.814,52.914 111.124 C 53.008 112.568,52.917 112.819,52.357 112.673 C 51.989 112.577,51.444 112.653,51.144 112.843 C 50.745 113.096,50.733 113.189,51.100 113.194 C 51.375 113.197,51.600 113.391,51.600 113.624 C 51.600 113.857,51.420 113.936,51.200 113.800 C 50.962 113.653,50.800 114.121,50.800 114.953 C 50.800 115.723,50.983 116.466,51.207 116.604 C 51.703 116.911,51.333 117.602,50.676 117.594 C 50.358 117.590,50.380 117.474,50.743 117.244 C 51.322 116.877,50.929 116.498,50.100 116.624 C 49.825 116.666,49.375 116.725,49.100 116.756 C 48.752 116.795,48.734 116.902,49.039 117.106 C 49.605 117.485,49.601 118.798,49.033 118.806 C 48.795 118.809,48.844 118.967,49.143 119.156 C 49.539 119.407,49.561 119.577,49.223 119.786 C 48.880 119.998,48.894 120.242,49.281 120.736 C 49.725 121.304,49.714 121.335,49.200 120.951 C 48.579 120.487,47.324 120.527,46.863 121.025 C 46.719 121.181,46.825 121.390,47.100 121.488 C 47.375 121.586,47.600 121.932,47.600 122.257 C 47.600 122.582,47.419 122.736,47.199 122.599 C 46.946 122.443,46.856 122.954,46.955 123.975 C 47.130 125.774,47.094 125.837,46.317 125.060 C 45.864 124.607,45.696 124.607,45.273 125.060 C 44.977 125.377,44.940 125.600,45.184 125.600 C 45.413 125.600,45.600 125.960,45.600 126.400 C 45.600 126.840,45.436 127.200,45.235 127.200 C 45.034 127.200,44.955 127.740,45.059 128.400 C 45.275 129.768,45.123 129.866,44.210 128.952 C 43.372 128.115,43.085 128.442,43.006 130.322 C 42.970 131.161,42.792 132.090,42.609 132.386 C 42.394 132.734,42.430 132.829,42.711 132.655 C 42.949 132.508,43.258 132.570,43.396 132.793 C 43.534 133.017,43.292 133.200,42.857 133.200 C 42.422 133.200,41.986 132.975,41.888 132.700 C 41.790 132.425,41.563 132.337,41.384 132.504 C 40.928 132.930,40.843 135.266,41.256 136.073 C 41.699 136.942,40.085 137.578,39.556 136.743 C 39.176 136.142,39.159 136.209,39.049 138.800 C 39.017 139.570,38.774 140.581,38.509 141.047 C 38.245 141.513,38.157 142.037,38.314 142.212 C 38.471 142.386,38.363 142.391,38.073 142.224 C 37.783 142.056,37.646 141.658,37.768 141.339 C 37.902 140.991,37.820 140.864,37.563 141.023 C 37.328 141.168,37.240 141.707,37.369 142.219 C 37.498 142.732,37.418 143.266,37.191 143.406 C 36.964 143.546,36.829 143.962,36.889 144.330 C 36.950 144.699,36.792 144.961,36.538 144.913 C 35.905 144.793,35.071 145.868,35.393 146.389 C 35.537 146.622,35.821 146.711,36.023 146.586 C 36.225 146.461,36.278 146.653,36.140 147.013 C 35.945 147.521,35.817 147.552,35.569 147.149 C 35.366 146.821,35.257 147.066,35.271 147.816 C 35.283 148.467,35.227 149.270,35.146 149.600 C 34.984 150.264,45.013 150.626,45.418 149.971 C 45.527 149.794,46.018 149.727,46.508 149.822 C 47.907 150.094,364.022 150.033,364.462 149.762 C 364.678 149.628,364.766 149.289,364.659 149.008 C 364.551 148.727,364.649 148.311,364.876 148.084 C 365.112 147.848,365.147 147.440,364.956 147.135 C 364.618 146.592,364.388 145.802,364.310 144.906 C 364.282 144.587,364.108 144.545,363.817 144.786 C 363.510 145.040,363.347 144.897,363.305 144.335 C 363.271 143.881,362.987 143.216,362.674 142.855 C 362.076 142.168,362.204 141.031,362.834 141.421 C 363.458 141.807,363.236 141.327,362.523 140.749 C 361.949 140.283,361.897 140.284,362.179 140.752 C 362.409 141.133,362.340 141.247,361.956 141.121 C 361.650 141.021,361.339 140.412,361.265 139.769 C 361.190 139.126,360.943 138.375,360.716 138.100 C 360.425 137.748,360.444 137.600,360.780 137.600 C 361.095 137.600,361.054 137.397,360.657 137.000 C 359.982 136.325,359.424 136.192,359.797 136.795 C 359.932 137.013,359.789 137.094,359.480 136.975 C 359.129 136.841,358.989 136.392,359.106 135.778 C 359.210 135.237,359.085 134.544,358.830 134.237 C 358.475 133.809,358.488 133.629,358.883 133.470 C 359.167 133.356,359.006 133.249,358.524 133.232 C 357.412 133.192,357.212 132.849,357.134 130.855 C 357.082 129.546,356.912 129.216,356.235 129.119 C 355.639 129.034,355.361 128.657,355.265 127.800 C 355.190 127.140,354.920 126.340,354.665 126.023 C 354.305 125.576,354.313 125.514,354.700 125.747 C 354.975 125.912,355.200 125.857,355.200 125.624 C 355.200 125.391,354.930 125.200,354.600 125.200 C 354.270 125.200,354.000 125.009,354.000 124.776 C 354.000 124.543,353.820 124.464,353.600 124.600 C 353.368 124.744,353.200 124.349,353.200 123.657 C 353.200 123.002,352.975 122.362,352.700 122.233 C 352.300 122.047,352.300 121.953,352.700 121.767 C 353.593 121.350,353.229 120.836,352.100 120.919 C 351.114 120.992,351.014 120.883,351.132 119.875 C 351.252 118.852,350.071 117.200,349.220 117.200 C 349.079 117.200,348.982 116.705,349.006 116.100 C 349.031 115.477,348.663 114.566,348.158 114.000 C 347.668 113.450,347.176 112.407,347.065 111.683 C 346.948 110.913,346.435 110.028,345.830 109.552 C 345.098 108.976,344.846 108.462,344.967 107.793 C 345.062 107.271,344.883 106.635,344.569 106.374 C 343.807 105.742,343.852 105.297,344.700 105.076 C 345.131 104.963,344.977 104.875,344.300 104.846 C 343.482 104.812,343.200 104.595,343.200 104.000 C 343.200 103.560,342.975 103.197,342.700 103.194 C 342.332 103.189,342.343 103.097,342.743 102.844 C 343.127 102.600,343.154 102.419,342.836 102.222 C 342.589 102.070,342.514 101.732,342.670 101.472 C 342.826 101.213,342.614 101.270,342.200 101.600 C 341.647 102.040,341.534 102.055,341.774 101.655 C 341.966 101.337,341.916 100.995,341.653 100.833 C 341.406 100.680,341.163 100.059,341.113 99.452 C 341.062 98.846,340.757 98.136,340.434 97.875 C 339.961 97.493,339.913 97.510,340.185 97.962 C 340.417 98.346,340.376 98.432,340.055 98.234 C 339.798 98.075,339.683 97.790,339.800 97.600 C 339.917 97.410,339.830 97.142,339.607 97.004 C 339.383 96.866,339.200 96.248,339.200 95.631 C 339.200 94.988,338.797 94.102,338.255 93.555 C 337.658 92.951,337.204 91.877,337.021 90.632 C 336.842 89.417,336.610 88.860,336.415 89.175 C 336.189 89.541,336.022 89.559,335.822 89.236 C 335.670 88.989,335.403 88.874,335.230 88.981 C 335.057 89.088,334.945 88.596,334.982 87.888 C 335.027 87.019,334.748 86.289,334.125 85.645 C 333.191 84.681,333.140 84.570,333.050 83.291 C 333.022 82.900,332.595 82.147,332.100 81.615 C 331.605 81.084,331.200 80.334,331.200 79.948 C 331.200 79.563,331.017 79.134,330.793 78.996 C 330.570 78.858,330.491 78.577,330.617 78.372 C 330.744 78.168,330.646 78.000,330.400 78.000 C 330.154 78.000,330.064 77.820,330.200 77.600 C 330.413 77.256,329.960 77.048,329.173 77.128 C 329.048 77.141,329.020 76.645,329.111 76.025 C 329.234 75.185,329.041 74.734,328.349 74.249 C 327.741 73.823,327.624 73.596,328.011 73.588 C 328.461 73.579,328.435 73.479,327.900 73.168 C 327.494 72.932,327.200 72.284,327.200 71.629 C 327.200 71.007,326.885 70.251,326.500 69.949 C 325.853 69.441,325.845 69.458,326.400 70.165 C 326.933 70.845,326.933 70.908,326.400 70.734 C 326.070 70.626,325.742 70.146,325.672 69.669 C 325.590 69.111,325.259 68.800,324.749 68.800 C 324.311 68.800,324.066 68.617,324.204 68.393 C 324.342 68.170,324.651 68.108,324.889 68.255 C 325.151 68.417,325.208 68.337,325.034 68.055 C 324.875 67.798,324.576 67.691,324.370 67.819 C 324.163 67.946,323.881 67.754,323.742 67.392 C 323.539 66.865,323.421 66.840,323.150 67.266 C 322.875 67.700,322.811 67.702,322.806 67.275 C 322.802 66.961,322.438 66.800,321.900 66.875 C 321.291 66.960,321.040 66.817,321.123 66.432 C 321.225 65.960,321.139 65.952,320.613 66.389 C 320.079 66.832,320.019 66.816,320.222 66.287 C 320.523 65.502,318.978 64.526,318.664 65.303 C 318.514 65.673,318.455 65.677,318.432 65.319 C 318.384 64.598,289.358 64.571,289.068 65.291 C 288.908 65.689,288.856 65.691,288.832 65.300 C 288.784 64.541,114.906 64.593,113.906 65.352 C 113.525 65.642,113.332 65.999,113.478 66.145 C 113.624 66.291,113.126 66.093,112.372 65.705 C 110.239 64.609,82.716 64.413,81.454 65.485 C 80.862 65.989,80.758 66.013,81.101 65.567 C 81.494 65.055,81.474 64.933,80.994 64.933 C 80.667 64.933,80.400 65.083,80.400 65.267 M120.400 84.709 C 120.400 85.033,120.599 85.128,120.900 84.947 C 121.191 84.772,121.150 84.961,120.800 85.400 C 120.450 85.839,120.409 86.028,120.700 85.853 C 120.975 85.688,121.200 85.743,121.200 85.976 C 121.200 86.209,121.020 86.400,120.800 86.400 C 120.580 86.400,120.400 86.940,120.400 87.600 C 120.400 88.260,120.586 88.800,120.814 88.800 C 121.087 88.800,121.072 89.091,120.773 89.651 C 120.427 90.297,120.434 90.574,120.801 90.801 C 121.180 91.035,121.180 91.165,120.800 91.400 C 120.427 91.631,120.437 91.776,120.846 92.028 C 121.547 92.461,121.246 92.713,119.793 92.909 C 118.574 93.073,118.092 94.259,118.986 94.894 C 119.260 95.088,119.244 95.190,118.937 95.194 C 118.673 95.197,118.564 95.542,118.684 96.000 C 118.830 96.556,118.696 96.800,118.247 96.800 C 117.891 96.800,117.597 97.025,117.594 97.300 C 117.590 97.633,117.458 97.600,117.200 97.200 C 116.930 96.782,116.795 96.752,116.756 97.100 C 116.725 97.375,116.671 97.825,116.637 98.100 C 116.602 98.375,116.698 98.690,116.850 98.801 C 117.661 99.390,116.707 101.048,115.648 100.892 C 114.704 100.754,114.560 100.869,114.560 101.766 C 114.560 102.335,114.674 102.800,114.813 102.800 C 114.953 102.800,115.067 103.070,115.067 103.400 C 115.067 103.730,114.872 104.003,114.633 104.006 C 114.395 104.009,114.470 104.187,114.800 104.400 C 115.248 104.689,115.028 104.789,113.935 104.794 C 112.532 104.800,112.096 105.429,112.922 106.255 C 113.556 106.889,113.197 108.400,112.400 108.450 C 111.960 108.478,111.393 108.522,111.140 108.550 C 110.631 108.605,110.219 110.400,110.715 110.400 C 111.486 110.400,111.174 112.401,110.396 112.450 C 109.958 112.478,109.393 112.522,109.140 112.550 C 108.592 112.610,108.239 114.400,108.775 114.400 C 108.979 114.400,109.080 114.895,109.000 115.500 C 108.920 116.105,108.843 116.757,108.828 116.949 C 108.812 117.141,108.575 117.130,108.300 116.924 C 107.452 116.291,106.670 116.556,106.600 117.500 C 106.564 117.995,106.679 118.400,106.857 118.400 C 107.035 118.400,107.030 118.805,106.848 119.300 C 106.665 119.795,106.602 120.450,106.709 120.756 C 106.846 121.145,106.739 121.208,106.352 120.967 C 105.205 120.251,104.800 120.470,104.750 121.835 C 104.722 122.586,104.678 123.387,104.650 123.615 C 104.582 124.179,103.521 124.798,103.084 124.528 C 102.890 124.408,102.784 124.825,102.850 125.455 C 102.916 126.085,102.832 126.825,102.662 127.100 C 102.481 127.392,102.549 127.600,102.825 127.600 C 103.179 127.600,103.174 127.750,102.804 128.196 C 102.532 128.523,102.150 128.693,101.955 128.572 C 101.760 128.451,101.597 128.588,101.594 128.876 C 101.589 129.257,101.482 129.236,101.200 128.800 C 100.898 128.333,100.811 128.446,100.806 129.310 C 100.802 130.123,100.532 130.522,99.800 130.800 C 99.250 131.009,98.800 131.375,98.800 131.614 C 98.800 131.852,99.025 131.920,99.300 131.765 C 99.673 131.554,99.687 131.606,99.354 131.968 C 98.276 133.139,96.404 132.931,95.936 131.587 C 95.655 130.782,95.388 130.496,95.200 130.800 C 94.773 131.491,94.159 129.290,94.323 127.655 C 94.413 126.752,94.702 126.246,95.201 126.116 C 95.610 126.009,96.045 125.660,96.168 125.340 C 96.309 124.972,96.223 124.862,95.934 125.041 C 95.622 125.233,95.588 125.144,95.827 124.762 C 96.019 124.453,96.231 123.854,96.296 123.431 C 96.486 122.210,97.256 121.447,97.659 122.081 C 97.885 122.438,98.004 122.288,98.041 121.600 C 98.071 121.050,98.119 120.150,98.148 119.600 C 98.199 118.619,99.138 117.515,99.652 117.832 C 99.987 118.039,100.509 115.299,100.222 114.835 C 100.001 114.478,101.129 113.813,101.730 113.946 C 101.911 113.987,101.945 113.835,101.806 113.610 C 101.667 113.384,101.725 113.200,101.935 113.200 C 102.146 113.200,102.288 112.569,102.252 111.797 C 102.204 110.770,102.375 110.335,102.893 110.170 C 103.282 110.047,103.600 109.768,103.600 109.549 C 103.600 109.331,103.735 109.236,103.900 109.337 C 104.065 109.439,104.247 108.880,104.305 108.096 C 104.416 106.590,104.992 105.600,105.758 105.600 C 106.019 105.600,106.246 104.897,106.283 103.979 C 106.331 102.750,106.601 102.157,107.396 101.532 C 108.011 101.048,108.417 100.354,108.378 99.853 C 108.273 98.508,108.378 97.845,108.653 98.120 C 109.101 98.568,110.380 96.536,110.209 95.648 C 110.118 95.176,110.310 94.568,110.636 94.295 C 112.173 93.009,112.430 92.656,112.223 92.117 C 111.932 91.357,112.392 89.548,112.810 89.806 C 113.487 90.225,114.411 88.727,114.269 87.441 C 114.148 86.347,114.254 86.154,114.963 86.175 C 115.524 86.192,115.782 85.968,115.744 85.497 C 115.691 84.829,116.085 84.637,118.200 84.306 C 119.760 84.061,120.400 84.178,120.400 84.709 M240.179 84.511 C 240.071 84.793,240.266 85.378,240.613 85.811 C 241.216 86.565,241.224 86.555,240.801 85.600 C 240.398 84.691,240.451 84.710,241.377 85.800 C 241.937 86.460,242.397 87.219,242.398 87.487 C 242.399 87.778,242.670 87.871,243.066 87.719 C 243.513 87.548,243.636 87.617,243.442 87.932 C 243.283 88.189,243.343 88.400,243.576 88.400 C 243.809 88.400,244.000 88.940,244.000 89.600 C 244.000 90.290,244.212 90.803,244.500 90.806 C 244.868 90.811,244.857 90.903,244.457 91.156 C 243.882 91.521,244.516 92.220,245.100 91.865 C 245.265 91.765,245.723 92.114,246.119 92.641 C 246.521 93.178,246.642 93.600,246.394 93.600 C 245.873 93.600,246.019 95.194,246.600 95.856 C 246.899 96.197,247.074 96.197,247.294 95.856 C 247.502 95.533,247.590 95.553,247.594 95.924 C 247.597 96.212,247.755 96.351,247.945 96.234 C 248.134 96.117,248.269 96.511,248.245 97.110 C 248.216 97.815,248.411 98.212,248.800 98.238 C 250.153 98.328,250.285 98.444,250.175 99.447 C 250.040 100.675,250.737 102.400,251.368 102.400 C 252.174 102.400,252.957 104.055,252.337 104.447 C 251.923 104.710,251.961 104.789,252.500 104.794 C 252.921 104.798,253.200 105.106,253.200 105.567 C 253.200 105.988,253.390 106.397,253.622 106.474 C 253.854 106.551,254.084 106.881,254.133 107.207 C 254.182 107.533,254.363 108.025,254.535 108.300 C 254.725 108.604,254.642 108.802,254.324 108.806 C 253.932 108.811,253.947 108.905,254.381 109.180 C 254.700 109.382,255.150 109.440,255.381 109.309 C 255.611 109.179,255.664 109.221,255.499 109.404 C 255.333 109.587,255.430 110.111,255.715 110.568 C 256.000 111.026,256.205 111.805,256.171 112.300 C 256.136 112.813,256.338 113.200,256.641 113.200 C 257.178 113.200,258.242 114.747,258.085 115.300 C 258.010 115.564,258.201 115.624,259.008 115.592 C 259.764 115.561,260.220 116.747,260.102 118.439 C 259.974 120.264,260.016 120.349,261.084 120.472 C 261.867 120.562,262.167 120.800,262.089 121.270 C 262.029 121.638,262.164 122.054,262.389 122.193 C 262.615 122.333,262.797 122.662,262.794 122.924 C 262.790 123.210,262.633 123.161,262.400 122.800 C 262.069 122.287,262.011 122.302,262.006 122.900 C 262.003 123.285,262.264 123.600,262.586 123.600 C 263.273 123.600,264.075 124.935,263.976 125.916 C 263.798 127.699,264.003 128.613,264.444 128.000 C 264.789 127.520,264.817 127.559,264.583 128.200 C 264.422 128.640,264.279 129.393,264.265 129.874 C 264.251 130.355,264.108 130.667,263.948 130.568 C 263.787 130.468,263.537 130.579,263.392 130.813 C 263.207 131.112,262.969 131.106,262.593 130.794 C 262.171 130.444,262.031 130.586,261.929 131.469 C 261.758 132.947,259.809 133.253,259.340 131.875 C 259.176 131.394,259.077 130.865,259.121 130.700 C 259.164 130.535,258.998 130.400,258.751 130.400 C 258.431 130.400,258.439 130.236,258.777 129.828 C 259.156 129.371,259.092 129.170,258.458 128.831 C 257.871 128.517,257.607 128.536,257.444 128.903 C 257.322 129.176,257.292 128.814,257.377 128.098 C 257.462 127.375,257.368 126.896,257.165 127.021 C 256.964 127.146,256.800 127.057,256.800 126.824 C 256.800 126.591,256.665 126.421,256.500 126.447 C 255.598 126.590,255.295 126.322,255.495 125.559 C 255.623 125.067,255.483 124.569,255.157 124.359 C 254.686 124.055,254.693 123.939,255.200 123.606 C 255.681 123.290,255.608 123.211,254.833 123.206 C 254.302 123.203,253.978 123.089,254.114 122.952 C 254.250 122.816,254.099 122.442,253.777 122.120 C 253.456 121.799,253.295 121.370,253.420 121.168 C 253.545 120.965,253.435 120.800,253.175 120.800 C 252.841 120.800,252.864 120.601,253.251 120.123 C 253.720 119.546,253.717 119.497,253.232 119.789 C 252.799 120.050,252.729 119.963,252.937 119.421 C 253.139 118.893,253.054 118.771,252.605 118.943 C 252.272 119.071,252.000 118.981,252.000 118.745 C 252.000 118.508,251.766 118.404,251.480 118.514 C 250.959 118.714,250.910 117.705,251.347 115.741 C 251.495 115.076,251.319 114.840,250.569 114.696 C 250.025 114.592,249.582 114.706,249.559 114.955 C 249.537 115.200,249.370 114.772,249.190 114.004 C 248.992 113.162,249.019 112.419,249.257 112.132 C 249.639 111.671,248.219 110.512,247.514 110.710 C 247.357 110.754,247.332 110.523,247.457 110.195 C 247.590 109.850,247.458 109.597,247.143 109.594 C 246.724 109.589,246.737 109.499,247.200 109.200 C 247.618 108.930,247.648 108.795,247.300 108.756 C 247.025 108.725,246.613 108.678,246.385 108.650 C 245.676 108.564,245.284 107.554,245.414 106.151 C 245.525 104.956,245.457 104.848,244.810 105.195 C 243.898 105.683,243.600 105.035,243.600 102.567 C 243.600 100.949,243.516 100.800,242.600 100.800 C 241.622 100.800,241.294 99.810,241.572 97.694 C 241.608 97.415,241.494 97.212,241.319 97.241 C 240.134 97.440,239.744 97.113,239.721 95.900 C 239.676 93.593,239.541 92.589,239.343 93.078 C 239.236 93.340,238.906 93.462,238.609 93.348 C 238.307 93.232,237.985 93.462,237.876 93.871 C 237.769 94.272,237.725 93.700,237.778 92.600 C 237.831 91.500,237.741 90.150,237.577 89.600 C 237.384 88.952,237.266 88.846,237.240 89.300 C 237.196 90.074,236.879 90.164,236.049 89.639 C 235.746 89.447,235.621 89.089,235.772 88.845 C 235.924 88.600,235.861 88.400,235.634 88.400 C 235.362 88.400,235.345 88.070,235.584 87.441 C 235.785 86.914,235.840 86.374,235.708 86.241 C 235.575 86.109,235.739 86.000,236.071 86.000 C 236.404 86.000,236.993 85.650,237.380 85.223 C 237.767 84.795,238.559 84.372,239.142 84.282 C 239.724 84.193,240.239 84.093,240.287 84.060 C 240.336 84.027,240.287 84.230,240.179 84.511 M284.285 84.800 C 284.334 84.800,284.272 85.067,284.147 85.394 C 283.997 85.786,284.282 86.127,284.983 86.394 C 285.569 86.616,285.944 86.966,285.818 87.172 C 285.691 87.377,285.789 87.670,286.036 87.822 C 286.354 88.019,286.327 88.200,285.943 88.444 C 285.486 88.733,285.486 88.789,285.943 88.794 C 286.255 88.797,286.390 89.050,286.260 89.387 C 286.136 89.710,286.192 90.071,286.383 90.190 C 286.575 90.308,286.812 90.179,286.911 89.902 C 287.219 89.041,287.691 89.893,287.731 91.380 C 287.752 92.161,287.911 92.800,288.084 92.800 C 288.258 92.800,288.403 93.205,288.406 93.700 C 288.411 94.371,288.501 94.459,288.763 94.046 C 289.043 93.604,289.207 93.666,289.576 94.354 C 289.829 94.828,289.928 95.393,289.795 95.608 C 289.662 95.824,289.788 96.003,290.076 96.006 C 290.457 96.011,290.436 96.118,290.000 96.400 C 289.600 96.658,289.567 96.790,289.900 96.794 C 290.175 96.797,290.403 97.205,290.406 97.700 C 290.409 98.195,290.544 98.420,290.706 98.200 C 291.430 97.215,291.793 97.787,291.680 99.733 C 291.592 101.250,291.670 101.640,291.974 101.200 C 292.310 100.712,292.395 100.787,292.425 101.600 C 292.446 102.150,292.554 102.375,292.665 102.100 C 293.175 100.836,293.799 101.685,293.659 103.451 C 293.556 104.737,293.647 105.218,293.956 105.027 C 294.232 104.857,294.402 105.102,294.406 105.676 C 294.409 106.184,294.544 106.420,294.706 106.200 C 295.372 105.294,295.826 105.712,295.666 107.082 C 295.534 108.214,295.614 108.441,296.050 108.178 C 296.487 107.915,296.504 107.965,296.133 108.424 C 295.773 108.870,295.796 109.179,296.233 109.778 C 296.545 110.204,296.800 110.369,296.800 110.143 C 296.800 109.918,297.037 109.733,297.327 109.733 C 297.697 109.733,297.825 110.251,297.756 111.472 C 297.700 112.464,297.817 113.113,298.029 112.982 C 298.233 112.856,298.400 113.158,298.400 113.653 C 298.400 114.534,298.413 114.537,299.030 113.776 C 299.376 113.349,299.545 113.225,299.406 113.500 C 299.267 113.775,299.303 114.000,299.487 114.000 C 299.671 114.000,299.750 114.744,299.664 115.653 C 299.554 116.800,299.643 117.221,299.953 117.029 C 300.227 116.860,300.400 117.071,300.400 117.576 C 300.400 118.029,300.574 118.400,300.787 118.400 C 301.001 118.400,301.056 118.091,300.911 117.713 C 300.687 117.127,300.733 117.106,301.229 117.569 C 301.603 117.919,301.758 118.659,301.664 119.644 C 301.520 121.156,302.200 122.400,303.171 122.400 C 303.407 122.400,303.627 122.850,303.660 123.400 C 303.693 123.950,303.738 124.625,303.760 124.900 C 303.825 125.716,304.696 126.415,305.340 126.168 C 305.819 125.984,305.899 126.196,305.737 127.225 C 305.607 128.052,305.725 128.633,306.067 128.850 C 306.503 129.127,306.504 129.189,306.073 129.194 C 305.733 129.198,305.634 129.477,305.794 129.981 C 305.993 130.607,305.880 130.731,305.229 130.606 C 304.751 130.514,304.454 130.645,304.508 130.925 C 304.559 131.186,304.375 131.355,304.100 131.300 C 303.825 131.245,303.600 131.365,303.600 131.567 C 303.600 131.768,303.825 132.031,304.100 132.151 C 304.375 132.270,303.880 132.330,303.000 132.284 C 301.693 132.215,301.401 132.054,301.405 131.400 C 301.408 130.869,301.072 130.525,300.405 130.378 C 299.852 130.256,299.445 129.941,299.500 129.678 C 299.555 129.415,299.420 129.200,299.200 129.200 C 298.980 129.200,298.800 128.840,298.800 128.400 C 298.800 127.960,298.987 127.600,299.216 127.600 C 299.456 127.600,299.414 127.363,299.116 127.039 C 298.832 126.731,298.540 126.641,298.467 126.839 C 298.170 127.642,297.209 127.177,297.352 126.300 C 297.432 125.805,297.322 125.062,297.108 124.649 C 296.827 124.110,296.870 123.800,297.259 123.549 C 298.110 123.000,296.852 122.344,295.913 122.847 C 295.263 123.194,295.206 123.103,295.397 122.019 C 295.520 121.320,295.438 120.800,295.206 120.800 C 294.983 120.800,294.800 120.440,294.800 120.000 C 294.800 119.560,295.025 119.197,295.300 119.194 C 295.654 119.190,295.635 119.083,295.236 118.831 C 294.510 118.371,293.521 118.744,293.879 119.342 C 294.030 119.594,293.829 119.537,293.433 119.215 C 293.002 118.864,292.891 118.570,293.156 118.481 C 293.400 118.400,293.597 117.763,293.594 117.067 C 293.589 116.102,293.495 115.943,293.200 116.400 C 292.886 116.885,292.811 116.828,292.806 116.100 C 292.803 115.605,293.025 115.197,293.300 115.194 C 293.654 115.190,293.635 115.083,293.236 114.831 C 292.573 114.411,291.505 114.723,291.826 115.242 C 291.948 115.439,291.867 115.600,291.647 115.600 C 291.032 115.600,290.597 114.668,291.129 114.490 C 291.388 114.404,291.597 113.673,291.594 112.867 C 291.589 111.772,291.489 111.552,291.200 112.000 C 290.865 112.519,290.811 112.510,290.806 111.933 C 290.803 111.567,291.016 111.195,291.280 111.107 C 291.583 111.006,291.514 110.852,291.091 110.690 C 290.721 110.548,290.162 110.695,289.837 111.020 C 289.507 111.350,289.150 111.442,289.019 111.231 C 288.891 111.024,288.970 110.742,289.193 110.604 C 289.417 110.466,289.600 109.903,289.600 109.353 C 289.600 108.659,289.447 108.445,289.100 108.653 C 288.809 108.828,288.850 108.639,289.200 108.200 C 289.550 107.761,289.591 107.572,289.300 107.747 C 289.025 107.912,288.800 107.857,288.800 107.624 C 288.800 107.391,289.025 107.197,289.300 107.194 C 289.645 107.190,289.620 107.074,289.222 106.822 C 288.869 106.599,288.365 106.605,287.930 106.838 C 287.299 107.175,287.244 107.079,287.458 106.011 C 287.606 105.269,287.497 104.558,287.176 104.171 C 286.741 103.647,286.749 103.471,287.226 103.141 C 287.650 102.847,287.487 102.781,286.600 102.888 C 285.423 103.030,285.401 103.000,285.460 101.318 C 285.493 100.374,285.358 99.702,285.160 99.825 C 284.962 99.947,284.800 99.763,284.800 99.416 C 284.800 98.936,284.537 98.842,283.700 99.025 C 282.979 99.182,282.778 99.138,283.117 98.898 C 283.668 98.507,283.671 95.509,283.120 95.849 C 282.944 95.958,282.800 95.767,282.800 95.424 C 282.800 94.676,282.340 94.620,281.673 95.288 C 281.289 95.671,281.239 95.505,281.437 94.513 C 281.724 93.079,280.890 90.800,280.079 90.800 C 279.789 90.800,279.656 90.968,279.783 91.172 C 279.909 91.377,279.840 91.652,279.627 91.783 C 279.413 91.915,279.311 91.665,279.396 91.219 C 279.481 90.778,279.381 90.312,279.174 90.184 C 278.942 90.040,278.951 89.665,279.199 89.202 C 279.420 88.790,279.600 87.841,279.600 87.093 C 279.600 85.443,279.926 85.045,280.740 85.703 C 281.229 86.100,281.293 86.099,281.053 85.700 C 280.888 85.425,280.943 85.200,281.176 85.200 C 281.409 85.200,281.600 84.943,281.600 84.628 C 281.600 84.173,281.866 84.132,282.897 84.428 C 283.611 84.633,284.235 84.800,284.285 84.800 M160.490 85.130 C 160.430 85.421,160.550 85.554,160.758 85.426 C 161.194 85.157,162.387 86.231,162.427 86.929 C 162.632 90.506,162.606 90.811,162.115 90.623 C 161.832 90.514,161.600 90.619,161.600 90.855 C 161.600 91.092,161.351 91.190,161.047 91.074 C 160.627 90.912,160.499 91.284,160.514 92.630 C 160.525 93.603,160.413 94.399,160.267 94.399 C 159.429 94.402,158.334 96.170,158.495 97.263 C 158.672 98.471,157.504 99.835,156.712 99.346 C 156.514 99.223,156.439 99.855,156.544 100.767 C 156.720 102.299,155.824 103.589,154.778 103.311 C 154.655 103.278,154.565 104.170,154.578 105.292 C 154.594 106.780,154.438 107.377,154.000 107.497 C 153.498 107.634,153.492 107.597,153.961 107.269 C 154.390 106.970,154.293 106.891,153.552 106.937 C 152.696 106.991,152.584 107.183,152.602 108.566 C 152.622 110.057,151.652 111.600,150.694 111.600 C 150.499 111.600,150.395 112.129,150.463 112.775 C 150.545 113.556,150.295 114.260,149.717 114.875 C 149.239 115.384,148.833 115.933,148.813 116.096 C 148.780 116.374,148.698 116.660,148.197 118.242 C 148.079 118.614,147.743 118.787,147.397 118.654 C 147.068 118.528,146.800 118.599,146.800 118.813 C 146.800 119.026,147.025 119.203,147.300 119.206 C 147.633 119.210,147.600 119.342,147.200 119.600 C 146.870 119.813,146.757 119.991,146.949 119.994 C 147.141 119.997,147.085 120.257,146.825 120.570 C 146.564 120.884,146.407 121.465,146.476 121.861 C 146.544 122.258,146.420 122.602,146.200 122.626 C 145.049 122.751,144.393 123.310,144.809 123.811 C 145.108 124.171,145.111 124.408,144.819 124.588 C 144.589 124.731,144.400 125.287,144.400 125.824 C 144.400 126.361,144.265 126.771,144.100 126.736 C 143.202 126.546,142.431 127.310,142.808 128.016 C 143.068 128.502,143.066 128.836,142.801 128.999 C 142.580 129.136,142.400 129.616,142.400 130.066 C 142.400 130.612,142.209 130.812,141.829 130.667 C 141.148 130.405,140.222 131.388,140.589 131.982 C 140.731 132.212,140.702 132.415,140.524 132.434 C 138.038 132.698,137.659 132.638,137.982 132.028 C 138.426 131.191,137.548 130.374,136.708 130.843 C 135.962 131.261,135.300 130.033,136.029 129.582 C 136.339 129.390,136.351 129.217,136.067 129.042 C 135.837 128.899,135.743 128.382,135.857 127.892 C 135.972 127.401,136.122 126.370,136.191 125.600 C 136.260 124.830,136.335 124.043,136.358 123.851 C 136.381 123.659,136.705 123.749,137.077 124.051 C 137.449 124.353,137.628 124.390,137.474 124.134 C 137.321 123.878,137.384 123.605,137.614 123.529 C 137.845 123.452,138.098 122.671,138.176 121.794 C 138.255 120.917,138.337 120.043,138.359 119.851 C 138.382 119.659,138.715 119.743,139.100 120.038 C 139.485 120.333,139.665 120.414,139.499 120.219 C 139.334 120.024,139.514 119.504,139.899 119.064 C 140.285 118.623,140.374 118.394,140.099 118.556 C 139.583 118.857,139.609 118.372,140.208 116.492 C 140.452 115.725,140.596 115.663,141.126 116.092 C 141.553 116.438,141.662 116.448,141.468 116.125 C 141.312 115.863,141.428 115.503,141.727 115.325 C 142.033 115.142,142.256 114.388,142.236 113.600 C 142.208 112.500,142.350 112.212,142.900 112.256 C 143.285 112.286,143.600 112.061,143.600 111.756 C 143.600 111.450,143.756 111.200,143.948 111.200 C 144.139 111.200,144.212 110.480,144.110 109.600 C 143.963 108.325,144.055 108.000,144.563 108.000 C 144.913 108.000,145.200 107.809,145.200 107.576 C 145.200 107.343,145.380 107.264,145.600 107.400 C 146.008 107.652,146.029 107.570,146.138 105.299 C 146.172 104.583,146.380 103.985,146.600 103.970 C 147.445 103.913,148.445 102.614,148.241 101.837 C 148.127 101.399,148.251 100.773,148.517 100.444 C 148.908 99.960,148.893 99.911,148.438 100.185 C 148.057 100.415,147.968 100.375,148.162 100.062 C 148.319 99.808,148.717 99.600,149.047 99.600 C 149.377 99.600,149.536 99.420,149.400 99.200 C 149.264 98.980,149.418 98.800,149.743 98.800 C 150.173 98.800,150.303 98.417,150.222 97.390 C 150.160 96.614,150.293 95.866,150.517 95.728 C 150.764 95.575,150.799 95.678,150.606 95.990 C 150.394 96.333,150.474 96.442,150.844 96.319 C 151.150 96.217,151.400 95.917,151.400 95.652 C 151.400 95.387,151.597 95.042,151.837 94.885 C 152.077 94.728,152.230 94.015,152.177 93.299 C 152.123 92.583,152.269 91.881,152.502 91.737 C 152.749 91.584,152.805 91.668,152.638 91.938 C 152.481 92.192,152.543 92.400,152.776 92.400 C 153.009 92.400,153.200 92.139,153.200 91.820 C 153.200 91.501,153.433 91.096,153.719 90.920 C 154.004 90.744,154.229 89.985,154.219 89.234 C 154.207 88.410,154.421 87.794,154.756 87.682 C 155.061 87.580,155.204 87.670,155.073 87.881 C 154.942 88.093,155.080 88.267,155.379 88.267 C 155.681 88.267,155.828 88.018,155.709 87.708 C 155.591 87.400,155.897 86.867,156.388 86.523 C 157.100 86.024,157.172 85.822,156.741 85.523 C 156.372 85.267,156.503 85.233,157.150 85.417 C 157.755 85.588,158.008 85.537,157.848 85.277 C 157.528 84.759,158.308 84.423,159.600 84.523 C 160.192 84.569,160.555 84.816,160.490 85.130 M202.400 84.837 C 202.852 85.156,202.876 85.311,202.500 85.464 C 201.372 85.921,202.705 88.276,203.844 87.838 C 204.295 87.665,204.385 91.141,204.385 108.615 C 204.385 120.157,204.312 129.600,204.221 129.600 C 204.131 129.600,203.758 129.301,203.392 128.935 C 202.564 128.107,201.837 128.948,202.428 130.052 C 202.919 130.970,202.897 131.568,202.400 130.800 C 202.058 130.271,202.012 130.274,202.006 130.820 C 202.003 131.161,202.216 131.656,202.480 131.920 C 202.744 132.184,202.789 132.413,202.580 132.430 C 202.371 132.446,201.771 132.539,201.248 132.635 C 200.724 132.732,200.077 132.630,199.811 132.409 C 199.544 132.188,199.251 132.050,199.158 132.103 C 199.066 132.157,199.263 131.954,199.595 131.654 C 200.119 131.181,200.055 131.133,199.112 131.296 C 198.514 131.400,198.119 131.330,198.236 131.142 C 198.352 130.954,198.158 130.800,197.804 130.800 C 197.314 130.800,197.252 130.636,197.543 130.117 C 197.820 129.620,197.744 129.292,197.263 128.917 C 196.648 128.438,196.651 128.360,197.306 127.851 C 197.955 127.348,197.908 127.282,196.746 127.049 C 195.483 126.797,195.482 126.793,196.240 125.930 C 196.989 125.077,196.989 125.069,196.200 125.356 C 195.546 125.594,195.494 125.553,195.915 125.128 C 196.199 124.843,196.739 124.607,197.115 124.605 C 197.750 124.600,197.808 123.274,197.904 106.500 C 197.992 91.242,197.921 88.400,197.451 88.400 C 197.144 88.400,196.791 87.995,196.667 87.500 C 196.448 86.631,196.460 86.627,197.020 87.376 C 197.443 87.943,197.608 87.997,197.630 87.576 C 197.646 87.259,197.737 86.584,197.831 86.076 C 197.954 85.414,197.860 85.237,197.501 85.452 C 197.158 85.658,197.173 85.540,197.549 85.077 C 198.178 84.301,201.416 84.141,202.400 84.837 M35.170 158.503 C 34.887 159.424,34.886 160.400,35.167 160.400 C 35.367 160.400,35.474 160.895,35.406 161.500 C 34.924 165.797,35.076 178.990,35.605 178.870 C 36.007 178.779,35.949 178.993,35.411 179.588 C 34.654 180.424,34.655 180.437,35.489 180.655 C 36.398 180.893,36.903 182.166,36.975 184.400 C 37.005 185.340,37.194 185.763,37.552 185.686 C 37.845 185.623,38.307 185.757,38.579 185.982 C 38.851 186.208,39.164 186.302,39.275 186.191 C 39.539 185.928,39.440 187.681,39.162 188.200 C 38.790 188.895,39.016 189.804,39.534 189.695 C 40.181 189.558,41.674 190.356,41.451 190.720 C 40.549 192.190,40.854 194.000,42.002 194.000 C 42.661 194.000,43.200 194.184,43.200 194.409 C 43.200 194.633,43.650 195.022,44.200 195.273 C 45.014 195.644,45.200 196.014,45.200 197.264 C 45.200 198.109,45.391 198.800,45.624 198.800 C 45.857 198.800,45.936 198.620,45.800 198.400 C 45.664 198.180,45.700 198.000,45.880 198.000 C 46.060 198.000,46.444 198.379,46.733 198.842 C 47.086 199.406,47.104 199.588,46.788 199.393 C 46.529 199.232,46.626 199.574,47.005 200.151 C 47.759 201.302,48.218 201.544,47.855 200.600 C 47.729 200.270,47.799 200.000,48.013 200.000 C 48.226 200.000,48.400 200.379,48.400 200.843 C 48.400 201.428,48.584 201.615,49.000 201.455 C 49.330 201.329,49.600 201.379,49.600 201.568 C 49.600 201.757,49.915 201.886,50.300 201.856 C 50.685 201.825,51.005 202.070,51.011 202.400 C 51.028 203.362,51.635 204.072,52.240 203.840 C 52.645 203.685,52.800 203.965,52.800 204.850 L 52.800 206.074 54.917 205.937 C 57.025 205.801,57.033 205.804,56.871 206.900 C 56.694 208.103,57.690 208.408,59.184 207.608 C 59.715 207.324,60.050 207.378,60.403 207.804 C 60.671 208.127,61.095 208.269,61.345 208.119 C 61.595 207.969,61.545 208.161,61.232 208.546 C 60.742 209.150,60.742 209.228,61.232 209.123 C 61.545 209.055,61.759 209.214,61.708 209.475 C 61.646 209.800,62.173 209.904,63.384 209.805 C 64.793 209.691,65.107 209.778,64.931 210.236 C 64.810 210.552,64.956 211.112,65.255 211.482 C 65.631 211.945,65.645 212.060,65.300 211.853 C 64.901 211.613,64.800 224.509,64.800 275.800 C 64.800 324.262,64.913 339.977,65.262 339.762 C 65.579 339.566,65.612 339.652,65.368 340.038 C 65.172 340.347,65.009 340.780,65.006 341.000 C 65.002 341.246,62.389 341.442,58.200 341.509 C 51.116 341.623,50.186 341.731,50.595 342.393 C 50.738 342.622,50.579 342.690,50.221 342.553 C 49.852 342.411,49.600 342.530,49.600 342.846 C 49.600 343.139,49.322 342.981,48.982 342.495 C 48.589 341.934,48.005 341.642,47.382 341.693 C 46.415 341.773,45.958 342.400,46.867 342.400 C 47.123 342.400,47.239 342.494,47.124 342.609 C 46.786 342.948,45.584 342.350,45.823 341.963 C 46.182 341.382,44.637 342.101,44.161 342.736 C 43.919 343.059,43.533 343.206,43.303 343.063 C 43.072 342.921,42.781 343.072,42.656 343.398 C 42.478 343.862,42.201 343.904,41.383 343.593 C 40.059 343.090,39.020 343.558,39.820 344.296 C 40.159 344.608,40.448 344.645,40.602 344.396 C 40.737 344.178,40.627 344.000,40.357 344.000 C 40.087 344.000,39.975 343.892,40.107 343.760 C 40.239 343.628,40.531 343.634,40.756 343.773 C 41.430 344.190,40.780 345.200,39.837 345.200 C 38.773 345.200,38.000 345.907,38.000 346.880 C 38.000 347.587,37.596 347.773,36.400 347.616 C 35.985 347.562,36.045 347.721,36.592 348.131 C 37.348 348.697,37.334 348.715,36.282 348.514 C 35.270 348.320,35.187 348.398,35.268 349.463 C 35.317 350.101,35.221 350.843,35.055 351.111 C 34.889 351.380,34.938 351.600,35.164 351.600 C 35.390 351.600,35.471 351.872,35.343 352.204 C 35.216 352.536,35.086 353.931,35.056 355.304 C 35.004 357.619,34.935 357.798,34.100 357.768 C 32.957 357.728,32.957 357.928,34.100 358.388 L 35.000 358.749 34.087 358.775 C 32.998 358.805,32.571 359.674,33.154 360.676 C 33.386 361.074,33.581 361.175,33.588 360.900 C 33.595 360.625,33.940 360.400,34.357 360.400 C 35.105 360.400,35.838 361.967,35.638 363.140 C 35.582 363.473,35.734 363.564,36.035 363.378 C 36.350 363.184,36.421 363.243,36.234 363.545 C 36.075 363.802,35.790 363.917,35.600 363.800 C 35.410 363.683,35.142 363.770,35.004 363.993 C 34.866 364.217,34.954 364.400,35.200 364.400 C 35.446 364.400,35.560 364.540,35.454 364.712 C 35.237 365.063,37.069 365.064,37.420 364.713 C 37.869 364.265,39.232 364.917,39.170 365.551 C 39.029 367.015,39.179 367.451,39.600 366.800 C 39.860 366.398,39.990 366.366,39.994 366.701 C 39.999 367.101,71.502 367.201,197.000 367.199 C 283.350 367.197,354.000 367.055,354.000 366.883 C 354.000 366.711,354.360 366.543,354.800 366.510 C 355.240 366.477,355.600 366.641,355.600 366.874 C 355.600 367.152,355.795 367.136,356.164 366.830 C 356.550 366.509,356.811 366.494,356.988 366.781 C 357.351 367.368,360.926 367.306,361.579 366.700 C 362.010 366.300,362.061 366.300,361.835 366.700 C 361.680 366.975,361.743 367.200,361.976 367.200 C 362.209 367.200,362.400 367.009,362.400 366.776 C 362.400 366.543,362.592 366.471,362.827 366.617 C 363.061 366.762,363.220 366.637,363.179 366.340 C 363.006 365.080,363.242 364.492,363.900 364.544 C 364.339 364.579,364.579 364.339,364.544 363.900 C 364.514 363.515,364.668 363.200,364.887 363.200 C 365.106 363.200,365.169 362.895,365.026 362.522 C 364.786 361.899,364.823 361.896,365.483 362.485 C 366.086 363.024,366.279 363.039,366.700 362.579 C 367.299 361.926,367.360 361.454,366.800 361.800 C 366.580 361.936,366.400 361.857,366.400 361.624 C 366.400 361.391,366.580 361.200,366.800 361.200 C 367.481 361.200,367.299 355.380,366.600 354.800 C 366.116 354.399,365.998 354.408,365.988 354.851 C 365.980 355.212,365.832 355.153,365.555 354.677 C 365.187 354.044,365.009 352.750,364.682 348.335 C 364.623 347.539,364.458 347.352,364.029 347.592 C 363.688 347.782,363.241 347.699,362.928 347.385 C 362.343 346.801,362.210 346.236,362.733 346.559 C 362.917 346.672,363.067 346.510,363.067 346.200 C 363.067 345.463,362.032 345.076,361.420 345.583 C 361.061 345.881,360.987 345.671,361.124 344.739 L 361.306 343.498 358.282 343.683 C 355.529 343.851,355.240 343.798,355.053 343.081 C 354.903 342.509,354.616 342.355,354.001 342.516 C 353.323 342.693,353.244 342.629,353.604 342.195 C 353.979 341.743,352.976 341.666,347.527 341.727 C 342.863 341.779,341.001 341.933,341.000 342.267 C 341.000 342.523,340.836 342.883,340.636 343.067 C 340.424 343.260,340.392 343.190,340.559 342.900 C 340.737 342.591,340.609 342.400,340.224 342.400 C 339.881 342.400,339.600 342.239,339.600 342.043 C 339.600 341.476,338.454 341.189,338.151 341.679 C 337.973 341.967,338.061 342.010,338.400 341.800 C 338.754 341.581,338.827 341.632,338.626 341.958 C 338.397 342.329,338.187 342.321,337.709 341.924 C 337.368 341.641,336.664 341.465,336.144 341.533 C 335.567 341.609,335.199 341.452,335.197 341.129 C 335.195 340.838,335.196 320.575,335.200 296.100 C 335.205 266.202,335.073 251.600,334.800 251.600 C 334.550 251.600,334.577 251.305,334.873 250.832 C 335.250 250.228,335.240 249.930,334.827 249.432 C 334.476 249.010,334.451 248.800,334.751 248.800 C 335.076 248.800,335.200 244.149,335.200 231.976 C 335.200 218.624,335.097 215.215,334.700 215.453 C 334.327 215.677,334.306 215.607,334.617 215.177 C 334.846 214.860,335.008 213.934,334.975 213.119 C 334.943 212.305,335.025 211.649,335.158 211.663 C 335.935 211.739,337.214 211.056,336.787 210.792 C 336.433 210.573,336.421 210.299,336.741 209.748 C 336.980 209.336,337.181 209.208,337.188 209.462 C 337.202 210.005,339.192 209.227,339.197 208.676 C 339.199 208.498,339.020 208.464,338.800 208.600 C 338.580 208.736,338.400 208.700,338.400 208.520 C 338.400 208.340,338.760 207.968,339.200 207.693 C 339.640 207.418,340.000 207.330,340.001 207.497 C 340.001 207.663,340.706 207.848,341.567 207.907 C 343.116 208.013,343.130 208.001,342.933 206.752 C 342.771 205.718,342.850 205.533,343.371 205.733 C 343.721 205.868,344.466 205.803,345.026 205.590 C 345.700 205.334,345.962 205.338,345.799 205.601 C 345.664 205.821,345.666 206.000,345.805 206.000 C 346.216 206.000,347.200 204.892,347.200 204.429 C 347.200 204.193,347.470 204.000,347.800 204.000 C 348.130 204.000,348.400 203.826,348.400 203.613 C 348.400 203.399,348.672 203.329,349.005 203.457 C 349.451 203.628,349.548 203.494,349.374 202.945 C 349.161 202.268,349.180 202.262,349.580 202.883 C 349.834 203.277,350.285 203.465,350.644 203.328 C 351.103 203.152,351.139 203.010,350.782 202.789 C 350.130 202.386,350.728 201.487,351.461 201.768 C 351.785 201.893,351.934 201.816,351.797 201.595 C 351.663 201.378,351.923 201.200,352.376 201.200 C 352.829 201.200,353.200 201.020,353.200 200.800 C 353.200 200.580,353.020 200.400,352.800 200.400 C 352.580 200.400,352.400 200.199,352.400 199.953 C 352.400 199.699,352.755 199.600,353.223 199.722 C 353.919 199.904,353.969 199.844,353.544 199.333 C 353.136 198.841,353.150 198.744,353.622 198.812 C 354.653 198.960,355.200 198.809,355.200 198.376 C 355.200 198.143,354.992 198.081,354.738 198.238 C 354.452 198.415,354.385 198.348,354.562 198.062 C 354.719 197.808,355.085 197.600,355.375 197.600 C 356.177 197.600,356.776 196.675,356.951 195.163 C 357.049 194.313,357.318 193.815,357.665 193.841 C 357.971 193.863,358.449 193.638,358.726 193.341 C 359.043 193.002,359.071 192.800,358.802 192.800 C 358.510 192.800,358.527 192.510,358.853 191.901 C 359.149 191.347,359.398 191.194,359.500 191.501 C 359.733 192.200,360.400 192.125,360.400 191.400 C 360.400 191.070,360.580 190.800,360.800 190.800 C 361.349 190.800,361.308 188.103,360.756 187.919 C 360.482 187.827,360.567 187.559,360.979 187.218 C 361.496 186.788,361.618 186.780,361.523 187.182 C 361.455 187.467,361.625 187.782,361.900 187.883 C 362.175 187.984,362.400 187.782,362.400 187.433 C 362.400 187.085,362.625 186.797,362.900 186.794 C 363.268 186.789,363.257 186.697,362.857 186.444 C 362.514 186.227,362.465 186.007,362.723 185.847 C 362.948 185.708,363.123 184.921,363.111 184.097 C 363.092 182.736,363.915 179.900,363.975 181.124 C 363.989 181.412,364.183 181.534,364.407 181.396 C 364.630 181.258,364.709 180.977,364.583 180.772 C 364.456 180.568,364.550 180.400,364.790 180.400 C 365.094 180.400,365.105 180.171,364.828 179.653 C 364.608 179.242,364.539 178.795,364.674 178.659 C 365.106 178.228,365.034 160.015,364.600 159.832 C 364.380 159.739,364.459 159.649,364.776 159.632 C 365.198 159.608,365.145 159.443,364.576 159.014 C 363.903 158.506,35.326 157.997,35.170 158.503 M118.630 181.078 C 118.575 181.451,118.335 181.822,118.097 181.901 C 117.754 182.015,117.697 181.390,117.969 180.500 C 118.112 180.034,118.706 180.555,118.630 181.078 M200.540 181.413 C 200.047 182.698,199.601 181.966,199.969 180.476 C 199.986 180.408,200.172 180.459,200.383 180.589 C 200.593 180.719,200.664 181.090,200.540 181.413 M282.070 181.690 C 281.850 181.910,281.455 181.957,281.192 181.795 C 280.829 181.571,280.840 181.422,281.238 181.176 C 281.921 180.755,282.591 181.169,282.070 181.690 M118.165 182.642 C 118.512 182.775,118.696 183.045,118.574 183.242 C 118.452 183.439,118.678 183.613,119.076 183.628 C 119.722 183.653,119.714 183.693,119.000 184.000 C 118.298 184.301,118.303 184.433,119.014 184.386 C 119.939 184.324,120.621 185.953,120.903 188.898 C 120.940 189.282,121.157 189.576,121.385 189.551 C 122.545 189.424,122.727 189.670,122.605 191.200 C 122.534 192.080,122.633 192.800,122.825 192.800 C 123.018 192.800,123.071 193.070,122.945 193.400 C 122.818 193.730,122.914 194.000,123.157 194.000 C 123.401 194.000,123.600 193.820,123.600 193.600 C 123.600 193.380,123.791 193.200,124.024 193.200 C 124.257 193.200,124.336 193.380,124.200 193.600 C 124.064 193.820,124.203 194.000,124.508 194.000 C 124.826 194.000,125.050 194.382,125.032 194.893 C 125.009 195.526,125.232 195.787,125.798 195.793 C 126.238 195.797,126.615 196.070,126.638 196.400 C 126.660 196.730,126.706 197.405,126.739 197.900 C 126.773 198.395,126.991 198.800,127.224 198.800 C 127.457 198.800,127.536 198.620,127.400 198.400 C 127.264 198.180,127.300 198.000,127.480 198.000 C 127.660 198.000,128.044 198.379,128.333 198.842 C 128.769 199.539,128.768 199.630,128.330 199.373 C 127.890 199.115,128.219 199.604,129.559 201.200 C 129.652 201.310,129.614 201.085,129.476 200.700 C 129.338 200.315,129.399 200.000,129.613 200.000 C 129.826 200.000,130.000 200.339,130.000 200.753 C 130.000 201.170,130.357 201.600,130.801 201.716 C 131.241 201.831,131.500 201.762,131.377 201.563 C 130.927 200.835,131.897 201.224,132.638 202.069 C 133.057 202.547,133.175 202.806,132.900 202.645 C 132.625 202.484,132.400 202.466,132.400 202.605 C 132.400 203.102,133.555 204.000,134.195 204.000 C 134.554 204.000,134.735 204.181,134.598 204.403 C 134.461 204.625,134.618 205.075,134.946 205.403 C 135.672 206.129,136.160 206.188,135.747 205.500 C 135.515 205.114,135.578 205.105,136.023 205.462 C 136.340 205.716,137.045 205.986,137.590 206.062 C 138.135 206.138,138.789 206.620,139.045 207.135 C 139.328 207.707,139.614 207.901,139.779 207.634 C 139.969 207.327,140.279 207.321,140.829 207.615 C 141.258 207.845,141.832 208.004,142.105 207.969 C 143.071 207.845,143.600 208.005,143.600 208.424 C 143.600 208.657,143.432 208.744,143.228 208.617 C 142.534 208.188,142.404 209.106,143.081 209.655 C 143.565 210.047,143.668 210.057,143.448 209.691 C 143.223 209.318,143.468 209.208,144.371 209.277 C 145.047 209.328,145.600 209.512,145.600 209.685 C 145.600 209.858,145.735 209.979,145.900 209.953 C 147.018 209.776,147.291 210.009,146.749 210.677 C 146.447 211.049,146.395 211.237,146.633 211.094 C 146.872 210.952,147.067 211.089,147.067 211.400 C 147.067 211.711,146.917 211.872,146.733 211.759 C 145.971 211.288,146.338 339.264,147.100 339.843 C 147.764 340.347,147.763 340.375,147.076 340.387 C 146.678 340.394,146.455 340.566,146.581 340.769 C 146.706 340.971,146.267 341.408,145.604 341.738 C 144.942 342.068,144.400 342.167,144.400 341.957 C 144.400 341.718,134.222 341.590,117.193 341.614 C 96.346 341.643,90.052 341.763,90.269 342.126 C 90.426 342.387,90.221 342.330,89.815 342.000 C 89.409 341.670,89.015 341.445,88.939 341.500 C 88.862 341.555,88.665 341.600,88.500 341.600 C 88.159 341.600,88.269 213.504,88.611 212.064 C 88.754 211.462,89.038 211.206,89.404 211.346 C 89.718 211.467,90.081 211.393,90.211 211.183 C 90.341 210.972,90.257 210.800,90.024 210.800 C 89.791 210.800,89.600 210.620,89.600 210.400 C 89.600 210.180,90.214 210.000,90.965 210.000 C 92.183 210.000,92.318 209.893,92.220 209.000 C 92.126 208.144,92.445 207.744,92.939 208.100 C 93.015 208.155,93.375 207.953,93.739 207.651 C 94.299 207.186,94.405 207.186,94.432 207.651 C 94.458 208.112,94.498 208.113,94.680 207.655 C 94.863 207.194,94.951 207.194,95.242 207.655 C 95.516 208.087,95.589 208.092,95.594 207.676 C 95.597 207.388,95.764 207.254,95.965 207.378 C 96.166 207.502,96.281 207.158,96.221 206.613 C 96.161 206.068,96.267 205.718,96.456 205.835 C 96.645 205.952,96.814 205.812,96.832 205.524 C 96.855 205.136,96.915 205.127,97.061 205.488 C 97.217 205.873,97.371 205.873,97.787 205.488 C 98.078 205.220,98.249 204.889,98.167 204.753 C 98.086 204.618,98.375 204.185,98.809 203.791 C 99.244 203.398,99.600 203.254,99.600 203.471 C 99.600 203.689,99.870 203.867,100.200 203.867 C 100.530 203.867,100.800 203.717,100.800 203.533 C 100.800 203.350,101.050 203.200,101.356 203.200 C 101.661 203.200,101.886 202.885,101.856 202.500 C 101.817 202.014,102.072 201.814,102.691 201.847 C 103.181 201.873,103.485 201.738,103.367 201.547 C 103.249 201.356,103.363 201.200,103.619 201.200 C 103.876 201.200,103.982 200.930,103.855 200.600 C 103.710 200.221,103.878 199.975,104.313 199.932 C 105.260 199.837,106.161 199.699,106.400 199.612 C 106.510 199.572,106.931 199.476,107.337 199.399 C 108.208 199.235,108.737 198.800,108.067 198.800 C 107.093 198.800,107.651 197.652,108.741 197.413 C 109.692 197.204,109.851 196.999,109.694 196.181 C 109.578 195.572,109.692 195.200,109.996 195.200 C 110.267 195.200,110.383 194.932,110.255 194.600 C 110.097 194.188,110.280 194.000,110.836 194.000 C 111.282 194.000,111.548 193.839,111.426 193.642 C 111.304 193.445,111.485 193.176,111.828 193.045 C 112.170 192.913,112.339 192.624,112.202 192.403 C 112.065 192.181,112.076 191.801,112.226 191.557 C 112.417 191.249,112.604 191.279,112.844 191.657 C 113.112 192.080,113.189 192.045,113.194 191.500 C 113.197 191.115,113.433 190.800,113.718 190.800 C 114.033 190.800,114.276 190.210,114.336 189.300 C 114.390 188.475,114.607 187.740,114.818 187.667 C 115.028 187.593,115.200 187.166,115.200 186.718 C 115.200 186.056,115.308 185.991,115.772 186.377 C 116.257 186.779,116.329 186.569,116.241 185.013 C 116.184 184.002,116.264 183.381,116.420 183.633 C 116.623 183.961,116.765 183.936,116.921 183.545 C 117.100 183.098,117.215 183.108,117.563 183.600 C 117.933 184.122,117.989 184.114,117.994 183.533 C 117.997 183.167,117.775 182.776,117.500 182.665 C 117.225 182.554,117.120 182.449,117.267 182.432 C 117.414 182.414,117.818 182.509,118.165 182.642 M200.650 183.105 C 200.753 184.121,200.821 184.186,201.184 183.612 C 201.715 182.772,202.045 183.282,202.233 185.233 C 202.400 186.960,202.580 187.361,203.233 187.450 C 203.435 187.478,203.780 187.523,204.001 187.550 C 204.238 187.580,204.329 188.496,204.224 189.800 C 204.047 191.997,204.048 192.000,205.196 192.000 C 206.269 192.000,206.954 192.811,206.766 193.859 C 206.602 194.774,206.865 195.224,207.500 195.118 C 207.969 195.039,208.205 195.264,208.215 195.800 C 208.223 196.241,208.359 196.810,208.517 197.066 C 208.676 197.322,208.579 197.623,208.302 197.734 C 208.026 197.846,208.415 197.951,209.167 197.968 C 209.918 197.986,210.420 198.114,210.281 198.253 C 209.734 198.799,210.790 199.928,211.640 199.705 C 212.355 199.519,212.449 199.615,212.229 200.308 C 211.957 201.167,212.515 201.770,213.600 201.789 C 213.930 201.795,214.152 202.035,214.093 202.321 C 213.920 203.163,215.003 204.037,215.546 203.494 C 215.885 203.155,216.000 203.173,216.000 203.563 C 216.000 203.863,216.255 203.988,216.600 203.855 C 217.435 203.535,217.354 204.270,216.500 204.768 C 215.839 205.153,215.841 205.176,216.524 205.188 C 216.967 205.195,217.137 205.379,216.962 205.662 C 216.783 205.951,216.852 206.015,217.148 205.832 C 218.163 205.205,220.000 206.006,220.000 207.077 C 220.000 208.049,220.073 208.080,221.765 207.826 C 222.863 207.662,223.628 207.722,223.792 207.987 C 223.937 208.221,224.268 208.286,224.528 208.130 C 224.787 207.974,224.736 208.196,224.413 208.623 C 224.090 209.050,223.986 209.265,224.181 209.099 C 224.376 208.934,224.827 209.063,225.184 209.386 C 225.541 209.709,226.366 209.934,227.017 209.887 C 227.999 209.815,228.178 209.936,228.069 210.600 C 227.954 211.299,228.005 211.324,228.469 210.795 C 228.761 210.463,228.955 210.268,228.899 210.363 C 228.728 210.656,230.098 212.000,230.562 211.994 C 230.803 211.991,230.730 211.813,230.400 211.600 C 230.070 211.387,229.989 211.209,230.220 211.206 C 230.451 211.203,230.856 211.416,231.120 211.680 C 231.451 212.011,231.600 212.022,231.600 211.715 C 231.600 211.251,232.302 211.236,233.019 211.685 C 233.250 211.829,233.685 211.795,233.986 211.609 C 234.289 211.422,234.962 211.433,235.493 211.635 C 236.774 212.122,245.278 212.103,246.574 211.610 C 247.215 211.366,247.600 211.362,247.600 211.600 C 247.600 211.840,247.968 211.840,248.600 211.600 C 249.150 211.391,249.600 211.357,249.600 211.525 C 249.600 211.693,249.964 211.857,250.409 211.891 C 250.853 211.924,251.113 211.782,250.985 211.576 C 250.857 211.369,250.943 211.200,251.176 211.200 C 251.409 211.200,251.600 211.342,251.600 211.515 C 251.600 211.688,251.964 211.857,252.409 211.891 C 252.853 211.924,253.113 211.782,252.985 211.576 C 252.857 211.369,252.988 211.187,253.276 211.172 C 253.564 211.156,253.440 210.989,253.000 210.800 L 252.200 210.456 253.000 210.422 C 253.580 210.397,253.657 210.297,253.279 210.058 C 252.961 209.856,253.350 209.755,254.279 209.799 C 255.116 209.839,255.980 209.770,256.200 209.647 C 256.862 209.275,257.600 209.250,257.600 209.598 C 257.600 209.778,258.036 209.719,258.570 209.467 C 259.193 209.173,259.376 208.909,259.081 208.727 C 258.281 208.232,259.179 207.829,260.817 207.947 C 261.751 208.014,262.400 207.885,262.400 207.631 C 262.400 207.394,262.591 207.200,262.824 207.200 C 263.057 207.200,263.119 207.408,262.962 207.662 C 262.785 207.948,262.852 208.015,263.138 207.838 C 263.808 207.424,263.704 206.800,262.967 206.800 C 262.618 206.800,262.407 206.579,262.497 206.309 C 262.587 206.038,263.228 205.834,263.921 205.854 C 264.613 205.875,265.084 205.736,264.966 205.546 C 264.849 205.356,264.933 205.200,265.153 205.200 C 265.374 205.200,265.489 204.861,265.409 204.446 C 265.298 203.870,265.445 203.739,266.032 203.892 C 266.454 204.003,266.800 203.898,266.800 203.659 C 266.800 203.419,267.097 203.339,267.466 203.481 C 267.965 203.672,268.046 203.594,267.789 203.168 C 267.508 202.701,267.556 202.689,268.060 203.097 C 268.768 203.669,269.243 203.379,268.931 202.564 C 268.813 202.258,269.005 201.896,269.356 201.761 C 269.708 201.627,269.872 201.310,269.721 201.058 C 269.531 200.741,269.628 200.746,270.037 201.077 C 270.419 201.386,270.834 201.423,271.213 201.183 C 271.612 200.931,271.640 200.810,271.300 200.806 C 270.380 200.795,270.787 200.073,272.018 199.534 C 272.865 199.163,273.181 198.787,273.056 198.300 C 272.956 197.916,273.054 197.490,273.272 197.355 C 273.491 197.220,273.581 196.770,273.472 196.355 C 273.316 195.756,273.494 195.599,274.337 195.594 C 275.170 195.589,275.270 195.504,274.800 195.200 C 274.285 194.867,274.297 194.811,274.887 194.806 C 275.311 194.802,275.492 194.585,275.360 194.240 C 275.242 193.933,275.366 193.545,275.635 193.379 C 275.947 193.185,276.021 193.243,275.838 193.538 C 275.681 193.792,275.743 194.000,275.976 194.000 C 276.209 194.000,276.400 193.730,276.400 193.400 C 276.400 193.070,276.652 192.800,276.959 192.800 C 277.355 192.800,277.501 192.332,277.459 191.200 C 277.402 189.664,277.687 189.347,278.930 189.563 C 279.111 189.594,279.153 189.448,279.023 189.238 C 278.893 189.027,278.978 188.737,279.213 188.592 C 279.447 188.448,279.601 188.030,279.556 187.665 C 279.433 186.678,280.030 184.800,280.467 184.800 C 280.676 184.800,280.719 185.008,280.562 185.262 C 280.384 185.550,280.452 185.615,280.745 185.434 C 281.002 185.275,281.109 184.977,280.983 184.772 C 280.856 184.568,280.988 184.397,281.276 184.394 C 281.657 184.389,281.636 184.282,281.200 184.000 C 280.821 183.755,280.779 183.610,281.087 183.606 C 281.356 183.603,281.476 183.343,281.356 183.029 C 280.999 182.098,282.672 182.745,283.367 183.806 C 283.700 184.314,283.922 185.357,283.862 186.124 C 283.762 187.399,283.834 187.505,284.708 187.346 C 285.249 187.248,285.562 187.338,285.430 187.552 C 285.301 187.761,285.360 187.992,285.561 188.066 C 286.063 188.249,286.425 190.800,285.949 190.800 C 285.740 190.800,285.796 191.043,286.074 191.341 C 286.351 191.638,286.852 191.863,287.186 191.841 C 287.572 191.815,287.803 192.164,287.819 192.800 C 287.876 195.071,288.415 196.012,289.502 195.739 C 290.217 195.559,290.435 195.621,290.234 195.945 C 289.722 196.774,290.381 198.114,291.034 197.572 C 291.345 197.314,291.614 197.259,291.631 197.451 C 291.788 199.247,292.134 199.787,293.128 199.795 C 293.498 199.798,293.749 200.044,293.686 200.342 C 293.493 201.262,294.418 202.083,295.053 201.556 C 295.465 201.214,295.600 201.223,295.600 201.594 C 295.600 201.864,295.860 201.986,296.178 201.864 C 296.623 201.693,296.721 201.924,296.602 202.864 C 296.517 203.536,296.572 203.962,296.724 203.810 C 296.876 203.658,297.000 203.368,297.000 203.167 C 297.000 202.965,297.180 202.845,297.400 202.900 C 297.620 202.955,297.752 203.145,297.693 203.322 C 297.491 203.928,298.697 205.291,299.000 204.800 C 299.193 204.488,299.461 204.594,299.839 205.134 C 300.182 205.624,300.684 205.851,301.152 205.728 C 301.973 205.514,302.854 206.449,302.074 206.709 C 301.753 206.816,301.805 207.062,302.240 207.497 C 302.778 208.035,302.926 208.045,303.230 207.565 C 303.522 207.105,303.589 207.101,303.594 207.544 C 303.598 207.929,304.008 208.040,305.000 207.924 C 305.932 207.815,306.266 207.894,306.000 208.160 C 305.262 208.898,305.591 209.332,306.360 208.636 C 306.932 208.119,307.196 208.069,307.422 208.436 C 307.604 208.730,307.557 208.821,307.304 208.664 C 307.073 208.521,306.777 208.683,306.646 209.023 C 306.516 209.363,306.575 209.539,306.777 209.414 C 306.979 209.289,307.258 209.370,307.396 209.593 C 307.534 209.817,308.066 210.000,308.577 210.000 C 309.164 210.000,309.582 210.289,309.712 210.785 C 309.847 211.302,310.182 211.519,310.692 211.421 C 311.656 211.235,311.536 202.479,311.567 275.274 C 311.584 317.630,311.726 338.031,312.003 338.202 C 312.228 338.341,312.280 338.668,312.117 338.928 C 311.810 339.418,311.782 339.545,311.629 341.200 C 311.578 341.750,311.443 341.965,311.328 341.679 C 311.171 341.287,310.973 341.337,310.530 341.879 C 310.206 342.275,310.055 342.375,310.194 342.100 C 310.366 341.760,310.096 341.600,309.347 341.600 C 308.286 341.600,308.274 341.622,309.024 342.222 C 309.778 342.827,309.776 342.833,308.953 342.436 C 308.487 342.212,307.963 342.157,307.788 342.314 C 307.614 342.471,307.602 342.373,307.762 342.096 C 307.995 341.691,293.606 341.594,234.808 341.604 C 185.877 341.612,161.645 341.750,161.811 342.018 C 162.141 342.552,161.157 342.328,160.500 341.719 C 159.799 341.070,159.753 214.579,160.454 213.735 C 160.698 213.441,161.159 213.200,161.478 213.200 C 161.963 213.200,161.955 213.098,161.429 212.571 C 160.722 211.865,160.592 211.424,161.200 211.800 C 161.420 211.936,161.614 211.812,161.632 211.524 C 161.649 211.233,161.742 211.188,161.839 211.423 C 162.034 211.892,164.854 211.861,165.630 211.381 C 165.947 211.185,166.022 211.241,165.838 211.538 C 165.496 212.092,165.974 212.131,166.789 211.615 C 167.175 211.371,167.478 211.402,167.665 211.705 C 168.016 212.274,169.600 210.971,169.600 210.113 C 169.600 209.799,169.910 209.601,170.300 209.665 C 170.685 209.728,171.225 209.639,171.500 209.466 C 171.780 209.291,172.000 209.335,172.000 209.566 C 172.000 209.839,172.331 209.854,172.973 209.610 C 173.656 209.351,174.005 209.383,174.142 209.720 C 174.249 209.984,174.351 209.784,174.368 209.276 C 174.386 208.768,174.565 208.455,174.768 208.580 C 174.970 208.705,175.375 208.568,175.668 208.276 C 176.337 207.608,178.000 207.153,178.000 207.637 C 178.000 207.837,178.434 208.000,178.965 208.000 C 179.800 208.000,179.906 207.847,179.751 206.866 L 179.573 205.732 181.756 205.913 C 183.895 206.090,183.938 206.073,183.829 205.083 C 183.749 204.359,183.989 203.927,184.673 203.561 C 185.198 203.280,185.551 202.850,185.458 202.607 C 185.364 202.363,185.670 202.135,186.138 202.100 C 186.606 202.064,187.047 201.858,187.120 201.640 C 187.192 201.423,187.512 201.345,187.830 201.467 C 188.225 201.618,188.335 201.497,188.177 201.085 C 188.050 200.753,188.117 200.375,188.328 200.245 C 188.538 200.115,188.685 200.232,188.655 200.504 C 188.625 200.777,188.779 201.000,188.997 201.000 C 189.216 201.000,189.342 200.770,189.277 200.489 C 189.213 200.208,189.664 199.758,190.280 199.489 C 191.109 199.127,191.367 198.766,191.272 198.100 C 191.201 197.601,191.356 197.200,191.619 197.200 C 191.904 197.200,192.020 196.817,191.909 196.238 C 191.751 195.411,191.857 195.300,192.663 195.446 C 193.632 195.621,193.739 195.415,193.626 193.600 C 193.591 193.025,193.699 192.782,193.882 193.028 C 194.068 193.278,194.615 193.336,195.200 193.168 C 195.750 193.009,195.956 192.862,195.657 192.840 C 195.298 192.813,195.215 192.563,195.411 192.100 C 195.574 191.715,195.693 191.075,195.677 190.679 C 195.660 190.282,195.906 189.857,196.223 189.736 C 196.540 189.614,196.800 189.184,196.800 188.781 C 196.800 188.377,197.008 187.919,197.262 187.762 C 197.537 187.591,197.615 187.651,197.455 187.911 C 197.308 188.149,197.357 188.450,197.565 188.578 C 197.786 188.715,197.900 188.057,197.840 186.993 C 197.783 185.993,197.861 185.375,198.013 185.621 C 198.183 185.896,198.373 185.747,198.507 185.234 C 198.627 184.775,198.967 184.403,199.263 184.406 C 199.674 184.411,199.660 184.512,199.200 184.837 C 198.667 185.214,198.667 185.243,199.200 185.097 C 199.530 185.007,199.862 184.612,199.938 184.219 C 200.037 183.710,199.922 183.598,199.538 183.829 C 199.094 184.097,199.090 184.042,199.517 183.516 C 199.939 182.994,199.939 182.835,199.517 182.646 C 199.233 182.518,199.360 182.458,199.800 182.513 C 200.240 182.567,200.623 182.833,200.650 183.105 M236.384 228.600 C 236.341 229.040,236.327 229.535,236.353 229.700 C 236.379 229.865,236.265 230.014,236.100 230.031 C 235.935 230.047,235.530 230.123,235.200 230.199 C 234.870 230.275,234.150 230.421,233.600 230.523 C 233.050 230.626,232.638 230.888,232.684 231.107 C 232.780 231.562,231.600 232.729,231.000 232.771 C 230.780 232.787,230.584 232.935,230.565 233.100 C 230.460 234.019,229.827 234.801,229.263 234.707 C 228.908 234.648,228.609 234.780,228.599 235.000 C 228.546 236.073,227.620 237.009,227.213 236.400 C 226.869 235.885,226.811 235.900,226.806 236.500 C 226.803 236.885,226.609 237.200,226.376 237.200 C 226.143 237.200,226.042 237.344,226.150 237.519 C 226.258 237.695,226.165 238.100,225.943 238.419 C 225.599 238.914,225.506 238.916,225.315 238.437 C 225.163 238.055,224.936 238.248,224.608 239.037 C 224.261 239.874,224.248 240.295,224.563 240.538 C 224.830 240.744,224.733 240.790,224.313 240.655 C 223.935 240.534,223.524 240.599,223.400 240.800 C 223.276 241.001,222.940 241.075,222.654 240.965 C 222.016 240.720,221.934 242.067,222.561 242.512 C 222.802 242.684,222.478 242.703,221.840 242.554 C 221.014 242.361,220.763 242.416,220.966 242.744 C 221.125 243.003,220.965 243.315,220.602 243.454 C 220.246 243.591,220.041 243.930,220.147 244.206 C 220.280 244.552,220.068 244.639,219.470 244.485 C 218.667 244.279,218.646 244.319,219.200 245.006 C 219.747 245.684,219.735 245.725,219.063 245.473 C 218.522 245.270,218.269 245.416,218.110 246.021 C 217.971 246.553,217.681 246.763,217.291 246.613 C 216.769 246.413,216.762 246.474,217.243 247.066 C 217.735 247.670,217.716 247.718,217.078 247.479 C 216.521 247.270,216.259 247.485,215.934 248.417 C 215.623 249.309,215.328 249.568,214.808 249.403 C 214.270 249.232,214.047 249.464,213.862 250.390 C 213.729 251.055,213.452 251.600,213.247 251.600 C 213.043 251.600,212.963 251.195,213.071 250.700 C 213.253 249.859,213.229 249.866,212.698 250.800 C 212.323 251.461,212.261 251.970,212.514 252.300 C 212.785 252.652,212.706 252.800,212.249 252.800 C 211.892 252.800,211.600 252.980,211.600 253.200 C 211.600 253.420,211.426 253.600,211.213 253.600 C 210.999 253.600,210.934 253.285,211.066 252.900 C 211.261 252.336,211.187 252.355,210.687 252.999 C 210.246 253.566,210.187 253.943,210.482 254.299 C 210.785 254.663,210.730 254.800,210.282 254.800 C 209.944 254.800,209.576 255.025,209.465 255.300 C 209.354 255.575,209.249 255.451,209.232 255.024 C 209.200 254.255,209.194 254.255,208.633 255.022 C 208.233 255.570,208.189 255.945,208.482 256.299 C 208.771 256.647,208.769 256.800,208.475 256.800 C 208.076 256.800,208.196 258.546,208.644 259.272 C 208.756 259.452,208.612 259.603,208.324 259.606 C 207.943 259.611,207.964 259.718,208.400 260.000 C 208.933 260.345,208.933 260.390,208.400 260.408 C 208.041 260.420,208.199 260.649,208.795 260.979 C 209.342 261.282,209.955 261.428,210.157 261.303 C 210.359 261.178,210.400 261.277,210.248 261.522 C 209.904 262.079,210.818 263.600,211.496 263.600 C 211.773 263.600,212.000 263.793,212.000 264.029 C 212.000 265.146,213.147 265.565,215.880 265.445 C 218.291 265.339,221.379 264.472,219.600 264.400 C 218.994 264.375,220.232 263.434,220.900 263.410 C 221.065 263.405,221.213 263.220,221.229 263.000 C 221.270 262.425,222.431 261.217,222.848 261.316 C 223.042 261.362,223.431 260.950,223.713 260.400 C 223.994 259.850,224.473 259.400,224.778 259.400 C 225.495 259.400,225.838 258.408,225.133 258.375 C 224.588 258.349,226.275 257.500,227.000 257.436 C 227.220 257.416,227.400 257.135,227.400 256.812 C 227.400 256.488,227.828 256.010,228.350 255.750 C 228.873 255.489,229.576 254.708,229.912 254.014 C 230.311 253.190,230.625 252.917,230.818 253.229 C 231.007 253.535,231.360 253.183,231.806 252.245 C 232.545 250.686,234.481 249.034,235.009 249.512 C 235.185 249.670,235.199 249.575,235.041 249.300 C 234.873 249.009,234.971 248.797,235.276 248.794 C 235.657 248.789,235.636 248.682,235.200 248.400 C 234.687 248.069,234.702 248.011,235.300 248.006 C 235.685 248.003,236.000 247.730,236.000 247.400 C 236.000 247.046,236.369 246.797,236.900 246.794 C 237.628 246.789,237.685 246.714,237.200 246.400 C 236.687 246.069,236.702 246.011,237.300 246.006 C 237.685 246.003,238.000 245.730,238.000 245.400 C 238.000 245.061,238.358 244.800,238.824 244.800 C 239.277 244.800,239.536 244.620,239.400 244.400 C 239.264 244.180,239.354 244.000,239.600 244.000 C 239.846 244.000,239.917 243.789,239.758 243.532 C 239.564 243.218,239.686 243.147,240.130 243.318 C 240.537 243.474,240.754 243.385,240.695 243.086 C 240.643 242.819,240.838 242.649,241.130 242.710 C 241.421 242.770,241.558 242.655,241.433 242.454 C 241.309 242.252,241.642 241.802,242.174 241.454 C 242.759 241.071,243.219 240.978,243.340 241.220 C 243.450 241.440,243.490 241.390,243.429 241.110 C 243.368 240.830,243.834 240.005,244.465 239.279 C 246.133 237.359,246.068 234.000,244.363 234.000 C 243.379 234.000,243.275 233.879,243.446 232.935 C 243.618 231.989,243.566 231.930,242.989 232.409 C 242.242 233.029,241.617 232.413,241.606 231.047 C 241.603 230.632,241.105 229.860,240.500 229.332 C 239.652 228.591,239.584 228.433,240.200 228.644 C 240.760 228.835,240.880 228.789,240.600 228.489 C 240.344 228.214,239.595 228.173,238.515 228.374 C 237.383 228.584,236.769 228.541,236.646 228.244 C 236.545 228.000,236.428 228.160,236.384 228.600 M265.700 228.295 C 265.425 228.389,265.200 228.741,265.200 229.076 C 265.200 229.463,264.973 229.598,264.579 229.447 C 264.223 229.311,264.063 229.378,264.203 229.605 C 264.337 229.822,264.167 230.000,263.824 230.000 C 263.481 230.000,263.200 230.202,263.200 230.449 C 263.200 230.753,263.000 230.732,262.580 230.384 C 262.042 229.937,261.986 230.009,262.154 230.935 C 262.327 231.892,262.227 232.000,261.166 232.000 C 260.148 232.000,260.008 232.129,260.153 232.928 C 260.263 233.538,260.060 234.020,259.561 234.332 C 259.051 234.650,258.800 234.666,258.800 234.380 C 258.800 234.145,258.608 234.072,258.373 234.217 C 258.138 234.362,258.036 234.716,258.146 235.003 C 258.256 235.290,257.998 235.840,257.573 236.224 C 257.084 236.667,256.800 236.745,256.800 236.438 C 256.800 236.171,256.617 236.066,256.393 236.204 C 256.170 236.342,256.098 236.634,256.233 236.853 C 256.582 237.418,255.160 238.870,254.504 238.619 C 254.204 238.503,254.068 238.587,254.202 238.804 C 254.472 239.240,253.603 240.680,253.050 240.713 C 252.857 240.725,252.363 241.244,251.952 241.867 C 251.541 242.490,251.204 242.830,251.203 242.622 C 251.201 242.415,250.750 242.855,250.200 243.600 C 249.650 244.345,249.200 244.857,249.200 244.737 C 249.200 244.616,248.165 245.526,246.900 246.759 C 245.635 247.991,244.643 249.073,244.695 249.161 C 244.747 249.250,244.217 249.745,243.517 250.261 C 242.817 250.778,242.415 251.201,242.622 251.203 C 242.830 251.204,242.490 251.541,241.867 251.952 C 241.244 252.363,240.725 252.857,240.713 253.050 C 240.680 253.603,239.240 254.472,238.804 254.202 C 238.587 254.068,238.503 254.204,238.619 254.504 C 238.870 255.160,237.418 256.582,236.853 256.233 C 236.634 256.098,236.342 256.170,236.204 256.393 C 236.066 256.617,236.171 256.800,236.438 256.800 C 236.745 256.800,236.667 257.084,236.224 257.573 C 235.840 257.998,235.290 258.256,235.003 258.146 C 234.716 258.036,234.362 258.138,234.217 258.373 C 234.072 258.608,234.145 258.800,234.380 258.800 C 234.666 258.800,234.650 259.051,234.332 259.561 C 234.020 260.060,233.538 260.263,232.928 260.153 C 232.129 260.008,232.000 260.148,232.000 261.166 C 232.000 262.227,231.892 262.327,230.935 262.154 C 230.009 261.986,229.937 262.042,230.384 262.580 C 230.732 263.000,230.753 263.200,230.449 263.200 C 230.202 263.200,230.000 263.464,230.000 263.787 C 230.000 264.116,229.762 264.284,229.460 264.168 C 229.130 264.041,228.665 264.476,228.269 265.280 C 227.911 266.006,227.614 266.443,227.609 266.251 C 227.604 266.059,227.332 266.124,227.004 266.396 C 226.677 266.668,226.478 267.005,226.562 267.145 C 226.647 267.285,226.465 267.632,226.158 267.916 C 225.851 268.199,225.600 268.312,225.600 268.167 C 225.600 268.021,225.332 268.124,225.004 268.396 C 224.677 268.668,224.507 269.050,224.628 269.245 C 224.844 269.594,224.281 269.757,223.300 269.630 C 222.869 269.574,222.703 270.086,222.836 271.064 C 222.894 271.496,221.626 272.064,221.197 271.798 C 220.979 271.663,220.800 271.754,220.800 272.000 C 220.800 272.246,220.652 272.356,220.470 272.243 C 220.289 272.131,220.154 272.436,220.170 272.920 C 220.191 273.522,219.979 273.782,219.500 273.744 C 219.115 273.714,218.800 273.860,218.800 274.068 C 218.800 274.277,218.652 274.356,218.470 274.243 C 218.289 274.131,218.154 274.436,218.170 274.920 C 218.191 275.522,217.979 275.782,217.500 275.744 C 217.115 275.714,216.800 275.860,216.800 276.068 C 216.800 276.277,216.652 276.356,216.470 276.243 C 216.289 276.131,216.154 276.436,216.170 276.920 C 216.188 277.449,215.961 277.800,215.600 277.800 C 215.270 277.800,214.776 278.314,214.501 278.943 C 214.202 279.629,213.787 280.004,213.465 279.880 C 212.500 279.510,211.769 280.240,212.375 280.970 C 212.753 281.426,212.767 281.600,212.425 281.600 C 212.165 281.600,212.075 281.798,212.225 282.040 C 212.416 282.349,212.244 282.345,211.648 282.026 C 211.044 281.702,210.800 281.698,210.800 282.010 C 210.800 282.250,210.620 282.336,210.400 282.200 C 210.180 282.064,210.000 282.133,210.000 282.353 C 210.000 282.573,210.189 282.869,210.419 283.012 C 210.710 283.192,210.711 283.425,210.423 283.772 C 210.194 284.048,210.140 284.416,210.303 284.591 C 210.467 284.766,210.195 284.698,209.700 284.440 C 209.205 284.183,208.786 284.113,208.769 284.286 C 208.753 284.459,208.658 284.960,208.558 285.400 C 208.139 287.257,208.202 289.540,208.702 290.631 C 209.087 291.469,209.187 291.545,209.057 290.900 C 208.957 290.406,209.038 289.900,209.238 289.777 C 209.437 289.654,209.600 289.934,209.600 290.400 C 209.600 290.939,209.768 291.143,210.062 290.962 C 210.337 290.791,210.415 290.851,210.255 291.111 C 210.108 291.349,210.189 291.670,210.436 291.822 C 210.724 292.000,210.743 292.190,210.487 292.350 C 210.240 292.505,210.300 292.797,210.644 293.116 C 211.098 293.537,211.201 293.537,211.206 293.116 C 211.211 292.746,211.333 292.769,211.641 293.200 C 211.978 293.672,212.024 293.587,211.855 292.800 C 211.650 291.847,211.667 291.836,212.220 292.576 C 212.539 293.004,212.800 293.222,212.800 293.062 C 212.800 292.903,213.165 292.967,213.611 293.206 C 214.057 293.445,214.316 293.812,214.186 294.023 C 214.056 294.234,214.230 294.688,214.574 295.032 C 214.919 295.376,215.200 295.503,215.200 295.314 C 215.200 295.126,215.560 294.971,216.000 294.971 C 216.440 294.971,216.800 295.126,216.800 295.314 C 216.800 295.503,217.073 295.384,217.407 295.050 C 217.741 294.716,217.966 294.208,217.907 293.921 C 217.845 293.619,218.095 293.449,218.500 293.518 C 218.885 293.582,219.200 293.425,219.200 293.169 C 219.200 292.827,219.361 292.836,219.800 293.200 C 220.215 293.544,220.400 293.559,220.400 293.249 C 220.400 293.002,220.659 292.800,220.976 292.800 C 221.293 292.800,221.681 292.592,221.838 292.338 C 222.015 292.052,221.948 291.985,221.662 292.162 C 221.408 292.319,221.200 292.276,221.200 292.066 C 221.200 291.857,221.489 291.575,221.842 291.439 C 222.219 291.294,222.386 290.940,222.246 290.576 C 222.111 290.223,222.178 290.063,222.405 290.203 C 222.622 290.337,222.800 290.276,222.800 290.067 C 222.800 289.858,223.266 289.570,223.835 289.427 C 224.655 289.221,224.776 289.053,224.417 288.621 C 224.055 288.184,224.252 287.979,225.400 287.600 C 226.495 287.239,226.736 287.005,226.413 286.616 C 225.986 286.101,226.216 285.777,227.562 285.000 C 227.975 284.762,228.034 284.825,227.785 285.238 C 227.497 285.717,227.547 285.719,228.123 285.251 C 228.495 284.949,228.800 284.383,228.800 283.994 C 228.800 283.604,229.079 283.178,229.421 283.047 C 229.842 282.886,229.946 282.968,229.744 283.305 C 229.547 283.633,229.675 283.615,230.123 283.251 C 230.495 282.949,230.800 282.345,230.800 281.908 C 230.800 281.375,230.992 281.188,231.387 281.340 C 231.710 281.464,232.112 281.348,232.281 281.083 C 232.583 280.608,232.651 280.393,232.750 279.600 C 232.778 279.380,232.963 279.200,233.163 279.200 C 233.362 279.200,233.447 279.605,233.351 280.100 C 233.193 280.920,233.220 280.911,233.651 280.000 C 233.912 279.450,234.092 278.852,234.053 278.670 C 234.013 278.489,234.128 278.432,234.309 278.544 C 234.714 278.794,235.221 278.447,235.981 277.400 C 236.442 276.765,236.446 276.703,236.001 277.100 C 235.692 277.375,235.262 277.600,235.044 277.600 C 234.825 277.600,234.996 277.336,235.424 277.013 C 235.851 276.690,236.537 276.420,236.949 276.413 C 237.541 276.403,237.602 276.284,237.239 275.847 C 236.884 275.419,236.923 275.238,237.411 275.051 C 237.838 274.887,237.950 274.969,237.757 275.305 C 237.591 275.592,237.625 275.660,237.836 275.467 C 238.036 275.283,238.216 275.013,238.235 274.867 C 238.351 273.964,238.983 273.185,239.452 273.364 C 239.753 273.480,240.000 273.401,240.000 273.187 C 240.000 272.974,240.259 272.800,240.576 272.800 C 240.893 272.800,241.263 272.622,241.397 272.405 C 241.544 272.167,241.354 272.117,240.921 272.279 C 240.299 272.513,240.272 272.461,240.726 271.903 C 241.015 271.547,241.616 271.326,242.061 271.412 C 242.659 271.527,242.766 271.441,242.469 271.083 C 241.852 270.340,242.881 269.185,243.972 269.395 C 244.762 269.547,244.806 269.488,244.336 268.915 C 243.863 268.339,243.907 268.289,244.700 268.493 C 245.701 268.751,245.859 268.421,245.100 267.656 C 244.699 267.252,244.739 267.205,245.300 267.419 C 245.780 267.602,246.000 267.491,246.000 267.066 C 246.000 266.726,246.208 266.319,246.462 266.162 C 246.720 266.002,246.816 266.051,246.679 266.272 C 246.545 266.489,246.697 266.667,247.018 266.667 C 247.732 266.667,247.760 266.321,247.100 265.656 C 246.699 265.252,246.739 265.205,247.300 265.419 C 247.790 265.606,248.000 265.489,248.000 265.030 C 248.000 264.670,248.311 264.256,248.691 264.110 C 249.585 263.767,252.231 261.119,252.097 260.702 C 252.040 260.526,252.445 260.211,252.997 260.001 C 253.549 259.791,254.000 259.362,254.000 259.047 C 254.000 258.662,254.294 258.539,254.900 258.672 C 255.422 258.787,255.623 258.729,255.378 258.535 C 255.095 258.310,255.194 257.969,255.678 257.500 C 256.075 257.115,256.400 256.987,256.400 257.216 C 256.400 257.455,256.635 257.413,256.956 257.116 C 257.261 256.832,257.386 256.510,257.234 256.400 C 257.081 256.290,257.270 255.896,257.653 255.525 C 258.151 255.042,258.415 254.985,258.579 255.325 C 258.706 255.586,258.734 255.395,258.642 254.900 C 258.532 254.308,258.671 254.000,259.047 254.000 C 259.362 254.000,259.791 253.549,260.001 252.997 C 260.211 252.445,260.526 252.040,260.702 252.097 C 261.119 252.231,263.767 249.585,264.110 248.691 C 264.256 248.311,264.670 248.000,265.030 248.000 C 265.489 248.000,265.606 247.790,265.419 247.300 C 265.205 246.739,265.252 246.699,265.656 247.100 C 266.321 247.760,266.667 247.732,266.667 247.018 C 266.667 246.697,266.489 246.545,266.272 246.679 C 266.051 246.816,266.002 246.720,266.162 246.462 C 266.319 246.208,266.726 246.000,267.066 246.000 C 267.491 246.000,267.602 245.780,267.419 245.300 C 267.205 244.739,267.252 244.699,267.656 245.100 C 268.421 245.859,268.751 245.701,268.493 244.700 C 268.289 243.907,268.339 243.863,268.915 244.336 C 269.488 244.806,269.547 244.762,269.395 243.972 C 269.185 242.881,270.340 241.852,271.083 242.469 C 271.441 242.766,271.527 242.659,271.412 242.061 C 271.326 241.616,271.547 241.015,271.903 240.726 C 272.461 240.272,272.513 240.299,272.279 240.921 C 272.117 241.354,272.167 241.544,272.405 241.397 C 272.622 241.263,272.800 240.803,272.800 240.376 C 272.800 239.949,272.935 239.600,273.100 239.600 C 273.265 239.600,273.416 238.332,273.436 236.782 C 273.463 234.616,273.350 234.010,272.948 234.164 C 272.661 234.275,272.302 234.165,272.151 233.921 C 271.990 233.660,272.058 233.588,272.314 233.747 C 272.579 233.911,272.728 233.709,272.693 233.236 C 272.660 232.807,272.457 232.488,272.241 232.528 C 272.024 232.567,271.772 232.240,271.681 231.800 C 271.423 230.562,270.760 229.959,269.944 230.218 C 269.535 230.348,269.200 230.274,269.200 230.054 C 269.200 229.834,268.627 229.247,267.928 228.749 C 267.228 228.250,266.781 228.046,266.934 228.294 C 267.088 228.542,267.044 228.849,266.837 228.977 C 266.630 229.105,266.402 228.965,266.330 228.666 C 266.259 228.367,265.975 228.200,265.700 228.295 M123.156 240.100 C 123.125 240.265,123.075 240.535,123.044 240.700 C 122.903 241.454,122.287 242.000,121.576 242.000 C 120.853 242.000,120.757 242.205,120.639 244.000 C 120.617 244.330,120.406 244.600,120.171 244.600 C 119.528 244.600,118.397 245.859,118.719 246.216 C 118.874 246.387,118.685 246.414,118.300 246.276 C 117.774 246.087,117.590 246.245,117.560 246.913 C 117.522 247.751,117.502 247.744,117.200 246.800 C 117.024 246.250,116.841 245.980,116.794 246.200 C 116.576 247.211,116.628 247.820,116.951 248.055 C 117.144 248.196,117.154 248.551,116.972 248.845 C 116.407 249.760,116.515 254.458,117.115 255.058 C 117.571 255.514,117.542 255.602,116.929 255.612 C 116.237 255.624,116.236 255.645,116.908 256.037 C 117.298 256.264,117.495 256.646,117.347 256.886 C 117.183 257.151,117.262 257.209,117.545 257.034 C 117.802 256.875,117.894 256.532,117.748 256.272 C 117.564 255.945,117.646 255.952,118.016 256.294 C 118.309 256.566,118.560 257.376,118.574 258.094 C 118.589 258.830,118.818 259.422,119.100 259.450 C 119.375 259.478,119.839 259.522,120.130 259.550 C 120.521 259.587,120.646 260.332,120.605 262.377 C 120.574 263.905,120.699 265.062,120.882 264.949 C 121.065 264.836,121.449 265.299,121.734 265.978 C 122.020 266.658,122.339 267.127,122.444 267.022 C 122.549 266.918,122.681 268.836,122.737 271.286 C 122.793 273.735,122.931 275.888,123.043 276.070 C 123.155 276.251,123.087 276.400,122.892 276.400 C 122.696 276.400,122.551 276.805,122.568 277.300 C 122.594 278.019,122.413 278.174,121.670 278.070 C 120.956 277.970,120.768 278.110,120.860 278.670 C 120.926 279.071,120.861 279.590,120.715 279.822 C 120.569 280.054,120.595 280.891,120.773 281.681 C 121.153 283.366,120.856 284.015,119.664 284.105 C 118.767 284.173,118.531 284.587,119.166 284.979 C 119.367 285.103,119.624 285.019,119.736 284.792 C 119.848 284.566,119.894 284.610,119.837 284.890 C 119.780 285.171,119.478 285.400,119.167 285.400 C 118.799 285.400,118.592 285.857,118.576 286.704 C 118.563 287.421,118.312 288.231,118.018 288.504 C 117.594 288.897,117.541 288.897,117.762 288.505 C 117.942 288.186,117.843 288.085,117.487 288.222 C 117.183 288.339,116.912 288.652,116.886 288.917 C 116.583 292.034,116.577 292.800,116.854 292.800 C 117.034 292.800,117.010 293.248,116.801 293.797 C 116.380 294.905,116.642 295.985,117.343 296.028 C 117.594 296.044,117.440 296.208,117.000 296.394 C 116.286 296.696,116.333 296.761,117.443 297.005 C 118.361 297.206,118.689 297.503,118.695 298.139 C 118.711 299.754,118.800 300.047,119.200 299.800 C 119.420 299.664,119.600 299.743,119.600 299.976 C 119.600 300.209,119.319 300.400,118.976 300.400 C 118.633 300.400,118.449 300.555,118.566 300.745 C 118.683 300.935,119.450 301.037,120.270 300.972 C 121.090 300.907,121.589 300.977,121.380 301.127 C 120.198 301.976,120.830 303.115,122.439 303.033 C 124.365 302.935,125.762 303.739,124.800 304.392 C 123.755 305.103,125.016 305.486,128.400 305.486 C 131.649 305.486,133.059 305.097,132.086 304.468 C 131.804 304.285,131.681 303.853,131.814 303.507 C 132.064 302.856,132.639 302.797,133.500 303.335 C 133.775 303.507,134.000 303.500,134.000 303.320 C 134.000 303.140,134.353 302.772,134.785 302.502 C 135.464 302.078,135.540 302.106,135.347 302.706 C 135.165 303.274,135.199 303.294,135.536 302.819 C 135.762 302.500,135.864 302.104,135.762 301.939 C 135.661 301.775,135.943 301.445,136.389 301.206 C 136.964 300.898,137.200 300.897,137.200 301.202 C 137.200 301.467,137.413 301.434,137.756 301.116 C 138.061 300.832,138.190 300.510,138.042 300.400 C 137.894 300.290,137.802 299.975,137.837 299.700 C 137.871 299.425,137.922 298.739,137.950 298.176 C 137.978 297.613,138.165 297.255,138.366 297.379 C 138.567 297.503,138.823 297.379,138.934 297.102 C 139.093 296.708,139.144 296.711,139.168 297.116 C 139.194 297.537,139.302 297.537,139.756 297.116 C 140.158 296.742,140.186 296.519,139.856 296.306 C 139.528 296.094,139.540 296.011,139.900 296.006 C 140.175 296.003,140.400 295.809,140.400 295.576 C 140.400 295.343,140.175 295.280,139.900 295.435 C 139.500 295.661,139.500 295.610,139.900 295.179 C 140.175 294.882,140.400 294.485,140.400 294.296 C 140.400 294.107,140.175 294.080,139.900 294.235 C 139.500 294.461,139.500 294.410,139.900 293.979 C 140.448 293.388,140.588 291.600,140.086 291.600 C 139.913 291.600,139.771 290.970,139.771 290.200 C 139.771 289.430,139.920 288.800,140.101 288.800 C 140.283 288.800,140.199 288.550,139.916 288.244 C 139.632 287.939,139.305 287.839,139.189 288.023 C 139.074 288.207,138.742 288.212,138.453 288.033 C 137.795 287.626,137.575 285.104,138.163 284.700 C 138.739 284.304,137.678 283.595,136.936 283.880 C 136.633 283.996,136.400 283.821,136.400 283.476 C 136.400 283.141,136.175 282.776,135.900 282.665 C 135.500 282.504,135.500 282.457,135.900 282.432 C 136.175 282.414,136.400 282.209,136.400 281.976 C 136.400 281.743,136.250 281.645,136.067 281.759 C 135.883 281.872,135.733 281.703,135.733 281.382 C 135.733 281.062,135.905 280.800,136.116 280.800 C 136.326 280.800,136.274 280.530,136.000 280.200 C 135.656 279.785,135.641 279.600,135.951 279.600 C 136.268 279.600,136.400 277.190,136.400 271.376 C 136.400 265.498,136.275 263.230,135.960 263.425 C 135.657 263.612,135.664 263.428,135.982 262.833 C 136.236 262.358,136.334 261.623,136.200 261.200 C 135.885 260.206,136.683 258.684,137.320 259.066 C 137.608 259.239,137.581 259.084,137.251 258.677 C 136.767 258.080,136.805 258.000,137.575 258.000 C 138.079 258.000,138.338 257.824,138.189 257.582 C 137.833 257.007,138.739 256.002,139.389 256.251 C 139.680 256.363,140.038 256.262,140.183 256.027 C 140.328 255.792,140.287 255.600,140.090 255.600 C 139.894 255.600,139.733 255.330,139.733 255.000 C 139.733 254.670,139.878 254.400,140.054 254.400 C 140.394 254.400,140.160 250.983,139.778 250.364 C 139.654 250.164,139.765 250.000,140.025 250.000 C 140.378 250.000,140.371 249.847,140.000 249.400 C 139.603 248.921,139.603 248.679,140.000 248.200 C 140.344 247.785,140.359 247.600,140.049 247.600 C 139.802 247.600,139.621 247.465,139.647 247.300 C 139.778 246.475,139.547 246.046,139.071 246.228 C 138.769 246.344,138.344 245.995,138.080 245.415 C 137.800 244.802,137.772 244.400,138.009 244.400 C 138.818 244.400,138.360 243.605,137.413 243.368 C 136.871 243.231,136.442 243.003,136.461 242.860 C 136.561 242.092,136.341 241.872,136.000 242.400 C 135.755 242.779,135.610 242.821,135.606 242.513 C 135.603 242.244,135.375 242.112,135.100 242.217 C 134.818 242.325,134.359 241.865,134.048 241.164 C 133.677 240.327,133.398 240.080,133.193 240.411 C 133.004 240.717,132.683 240.772,132.345 240.557 C 131.552 240.054,125.094 240.029,124.470 240.526 C 124.085 240.832,123.839 240.790,123.576 240.374 C 123.376 240.058,123.187 239.935,123.156 240.100 M266.999 258.001 C 266.908 258.148,266.435 258.239,265.948 258.204 C 265.031 258.136,263.605 259.172,263.887 259.700 C 264.027 259.962,262.853 260.131,260.776 260.148 C 260.408 260.151,260.163 260.489,260.176 260.976 C 260.190 261.460,259.829 261.961,259.300 262.194 C 258.436 262.574,258.215 263.106,258.384 264.400 C 258.439 264.825,258.269 264.767,257.801 264.200 C 257.438 263.760,257.274 263.656,257.436 263.968 C 257.652 264.384,257.553 264.467,257.066 264.281 C 256.611 264.106,256.385 264.243,256.354 264.713 C 256.306 265.432,256.198 265.995,256.011 266.500 C 255.846 266.945,255.706 267.543,255.650 268.043 C 255.623 268.286,255.348 268.389,255.039 268.270 C 254.222 267.957,253.930 268.431,254.503 269.140 C 254.813 269.522,254.828 269.651,254.545 269.481 C 254.295 269.331,253.868 269.477,253.596 269.804 C 253.324 270.132,252.832 270.400,252.502 270.400 C 251.989 270.400,251.981 270.498,252.451 271.077 C 252.753 271.449,252.801 271.635,252.558 271.489 C 252.048 271.184,250.257 272.923,250.663 273.330 C 250.812 273.478,250.661 273.600,250.329 273.600 C 249.595 273.600,248.292 274.958,248.666 275.332 C 248.813 275.480,248.633 275.600,248.267 275.600 C 247.900 275.600,247.600 275.799,247.600 276.043 C 247.600 276.286,247.342 276.387,247.027 276.266 C 246.627 276.112,246.500 276.280,246.604 276.823 C 246.697 277.302,246.533 277.600,246.177 277.600 C 245.860 277.600,245.600 277.752,245.600 277.939 C 245.600 278.125,245.195 278.473,244.700 278.712 C 244.139 278.983,244.026 279.157,244.400 279.175 C 244.730 279.192,244.486 279.473,243.858 279.800 C 243.230 280.128,242.571 280.306,242.393 280.196 C 242.216 280.086,242.119 280.312,242.178 280.698 C 242.238 281.093,241.829 281.703,241.243 282.094 C 240.669 282.475,240.192 283.015,240.182 283.294 C 240.172 283.572,239.947 283.755,239.682 283.700 C 239.417 283.645,239.200 283.799,239.200 284.043 C 239.200 284.286,238.921 284.378,238.579 284.247 C 238.154 284.084,238.056 284.165,238.268 284.505 C 238.730 285.244,238.783 286.037,238.353 285.771 C 238.127 285.631,238.028 286.606,238.107 288.208 C 238.223 290.581,239.564 293.176,239.612 291.120 C 239.620 290.805,239.786 290.878,240.034 291.303 C 240.259 291.690,240.333 292.185,240.198 292.403 C 240.063 292.621,240.233 292.800,240.576 292.800 C 240.919 292.800,241.200 292.992,241.200 293.227 C 241.200 293.472,241.541 293.546,242.000 293.400 C 242.477 293.249,242.800 293.328,242.800 293.597 C 242.800 293.844,242.622 293.937,242.405 293.803 C 242.176 293.662,242.112 293.825,242.251 294.189 C 242.443 294.690,242.613 294.721,243.069 294.343 C 243.386 294.080,243.614 294.030,243.575 294.232 C 243.370 295.313,243.605 295.694,244.182 295.215 C 244.513 294.941,244.989 294.871,245.282 295.054 C 246.168 295.607,248.058 294.980,247.533 294.308 C 247.486 294.249,247.617 293.898,247.824 293.528 C 248.189 292.876,248.335 292.800,249.224 292.800 C 249.457 292.800,249.563 292.663,249.459 292.496 C 249.257 292.169,250.312 290.533,250.617 290.700 C 251.075 290.950,251.624 290.763,251.417 290.427 C 251.290 290.222,251.719 289.738,252.371 289.353 C 253.023 288.968,253.473 288.518,253.371 288.353 C 253.269 288.188,253.719 287.738,254.371 287.353 C 255.023 286.968,255.492 286.549,255.414 286.422 C 255.243 286.145,256.226 284.735,256.564 284.773 C 257.364 284.864,257.618 284.752,257.404 284.406 C 257.270 284.190,257.754 283.651,258.480 283.210 C 259.206 282.768,259.740 282.293,259.667 282.153 C 259.594 282.014,260.000 281.593,260.570 281.220 C 261.140 280.846,261.478 280.411,261.321 280.254 C 261.164 280.097,261.432 279.864,261.917 279.737 C 262.403 279.611,262.800 279.298,262.800 279.042 C 262.800 278.435,265.093 276.427,265.417 276.750 C 265.554 276.888,265.630 276.820,265.586 276.600 C 265.421 275.782,265.611 275.160,265.961 275.376 C 266.160 275.499,266.674 275.043,267.104 274.364 C 267.535 273.684,268.025 273.159,268.194 273.197 C 268.362 273.235,268.793 272.846,269.150 272.333 C 269.508 271.820,270.160 271.400,270.600 271.400 C 271.133 271.400,271.400 271.133,271.400 270.600 C 271.400 270.160,271.820 269.508,272.333 269.150 C 272.846 268.793,273.206 268.429,273.133 268.341 C 273.060 268.252,273.270 267.890,273.600 267.534 C 274.026 267.076,274.285 267.021,274.494 267.344 C 274.672 267.621,274.790 267.477,274.794 266.980 C 274.797 266.529,275.016 265.944,275.280 265.680 C 276.027 264.933,275.162 265.116,274.238 265.900 C 273.496 266.530,273.467 266.532,273.941 265.918 C 274.500 265.195,274.212 264.222,273.559 264.626 C 273.333 264.765,273.250 264.436,273.360 263.832 C 273.474 263.200,273.363 262.798,273.074 262.794 C 272.793 262.790,272.845 262.630,273.200 262.400 C 273.667 262.098,273.554 262.011,272.691 262.006 C 271.893 262.002,271.452 261.713,271.115 260.973 C 270.805 260.294,270.413 260.008,269.954 260.128 C 269.456 260.258,269.327 260.134,269.498 259.689 C 269.663 259.259,269.580 259.165,269.228 259.383 C 268.832 259.627,268.815 259.519,269.151 258.892 C 269.575 258.099,267.476 257.230,266.999 258.001 M222.938 290.617 C 222.578 291.555,222.967 291.666,223.519 290.782 C 223.828 290.287,223.854 290.000,223.591 290.000 C 223.362 290.000,223.068 290.278,222.938 290.617 " stroke="none" fill="#fcbc04" fill-rule="evenodd"></path><path id="path1" d="" stroke="none" fill="#100bc04" fill-rule="evenodd"></path><path id="path2" d="" stroke="none" fill="#100bc04" fill-rule="evenodd"></path><path id="path3" d="" stroke="none" fill="#100bc04" fill-rule="evenodd"></path><path id="path4" d="" stroke="none" fill="#100bc04" fill-rule="evenodd"></path></g></svg>