<svg id="svg" version="1.1" xmlns="http://www.w3.org/2000/svg" xmlns:xlink="http://www.w3.org/1999/xlink" width="400" height="402" viewBox="0, 0, 400,402"><g id="svgg"><path id="path0" d="M26.141 28.227 C 25.668 28.733,25.398 29.279,25.541 29.438 C 25.683 29.598,25.579 29.601,25.308 29.446 C 24.500 28.981,23.097 29.964,23.325 30.835 C 23.435 31.256,23.373 31.507,23.186 31.391 C 22.999 31.276,22.296 31.720,21.623 32.378 C 20.850 33.133,20.162 33.484,19.757 33.328 C 19.209 33.118,19.136 33.379,19.257 35.108 C 19.371 36.722,19.255 37.224,18.684 37.580 C 18.291 37.825,18.077 38.200,18.208 38.413 C 18.340 38.626,18.188 38.800,17.872 38.800 C 17.170 38.800,16.934 44.755,17.587 45.976 C 17.877 46.518,17.858 46.781,17.522 46.893 C 17.237 46.988,17.520 47.542,18.236 48.291 C 19.167 49.266,19.418 49.884,19.400 51.166 C 19.381 52.606,19.487 52.800,20.289 52.800 C 20.863 52.800,21.200 53.040,21.200 53.449 C 21.200 54.008,21.294 54.022,21.877 53.549 C 22.337 53.176,22.457 53.160,22.253 53.500 C 22.075 53.796,22.166 54.011,22.476 54.028 C 22.764 54.044,22.640 54.226,22.200 54.434 C 21.511 54.759,21.551 54.791,22.488 54.663 C 23.086 54.582,23.481 54.670,23.364 54.858 C 23.248 55.046,23.363 55.200,23.619 55.200 C 23.876 55.200,23.979 55.478,23.847 55.821 C 23.716 56.162,23.772 56.341,23.970 56.218 C 24.169 56.095,24.437 56.221,24.566 56.498 C 24.729 56.847,24.865 56.865,25.015 56.555 C 25.334 55.896,28.077 57.222,27.814 57.908 C 27.701 58.202,27.787 58.332,28.005 58.197 C 28.222 58.063,28.400 58.143,28.400 58.376 C 28.400 58.609,28.681 58.800,29.024 58.800 C 29.367 58.800,29.536 58.620,29.400 58.400 C 29.264 58.180,29.333 58.000,29.553 58.000 C 29.773 58.000,30.048 58.155,30.165 58.344 C 30.457 58.817,35.143 58.816,35.435 58.343 C 35.579 58.110,35.887 58.140,36.224 58.420 C 36.648 58.772,36.920 58.737,37.385 58.272 C 37.844 57.813,37.871 57.615,37.496 57.464 C 37.223 57.353,37.405 57.249,37.900 57.232 C 38.395 57.214,38.800 57.059,38.800 56.887 C 38.800 56.715,39.292 56.595,39.894 56.621 C 40.496 56.648,41.230 56.427,41.526 56.131 C 41.822 55.835,42.230 55.695,42.432 55.820 C 42.635 55.945,42.800 55.767,42.800 55.424 C 42.800 54.845,43.482 54.680,46.005 54.650 C 46.466 54.645,46.608 54.151,46.605 52.560 C 46.602 51.414,46.735 50.560,46.900 50.662 C 47.065 50.764,47.200 50.477,47.200 50.024 C 47.200 49.465,47.459 49.200,48.004 49.200 C 48.729 49.200,48.795 48.982,48.671 47.000 C 48.560 45.204,48.651 44.799,49.167 44.796 C 49.515 44.793,58.314 44.790,68.719 44.788 C 81.001 44.787,87.553 44.648,87.396 44.393 C 87.087 43.894,87.715 43.878,88.220 44.371 C 88.429 44.576,89.230 44.801,90.000 44.871 C 91.159 44.978,91.395 45.155,91.368 45.900 C 91.332 46.923,92.650 47.162,93.579 46.300 C 94.010 45.900,94.061 45.900,93.835 46.300 C 93.651 46.625,93.824 46.800,94.330 46.800 C 94.758 46.800,95.403 47.250,95.763 47.800 C 96.254 48.549,96.767 48.800,97.809 48.800 C 99.092 48.800,99.200 48.894,99.200 50.018 C 99.200 50.784,99.571 51.608,100.200 52.236 C 100.750 52.786,101.200 53.408,101.200 53.618 C 101.200 53.978,101.794 54.165,102.530 54.037 C 102.711 54.006,102.755 54.149,102.627 54.356 C 102.500 54.563,102.589 54.796,102.827 54.876 C 103.064 54.955,103.293 56.025,103.334 57.254 C 103.409 59.476,104.131 60.988,104.964 60.670 C 105.255 60.558,105.400 61.516,105.400 63.551 C 105.400 66.449,105.448 66.610,106.362 66.800 C 107.294 66.994,107.325 67.121,107.359 70.800 C 107.393 74.482,107.424 74.606,108.359 74.800 C 109.294 74.994,109.325 75.118,109.359 78.800 C 109.393 82.482,109.424 82.606,110.359 82.800 C 111.294 82.994,111.325 83.118,111.359 86.800 C 111.393 90.482,111.424 90.606,112.359 90.800 C 113.294 90.994,113.325 91.118,113.359 94.800 C 113.393 98.482,113.424 98.606,114.359 98.800 C 115.294 98.994,115.325 99.118,115.359 102.800 C 115.393 106.482,115.424 106.606,116.359 106.800 C 117.294 106.994,117.325 107.118,117.359 110.800 C 117.393 114.515,117.416 114.605,118.388 114.802 C 119.312 114.990,119.379 115.163,119.326 117.202 C 119.286 118.701,119.468 119.623,119.896 120.100 C 120.453 120.721,120.455 120.800,119.912 120.800 C 119.526 120.800,119.300 121.169,119.300 121.800 C 119.300 122.627,119.492 122.800,120.413 122.800 L 121.525 122.800 121.377 126.800 L 121.228 130.800 122.377 130.800 L 123.525 130.800 123.377 134.800 L 123.228 138.800 124.377 138.800 L 125.525 138.800 125.377 142.800 L 125.228 146.800 126.377 146.800 L 127.525 146.800 127.377 150.800 L 127.228 154.800 128.377 154.800 L 129.525 154.800 129.377 158.800 L 129.228 162.800 130.377 162.800 L 131.525 162.800 131.377 166.800 L 131.228 170.800 132.377 170.800 L 133.525 170.800 133.377 174.800 L 133.228 178.800 134.317 178.800 L 135.405 178.800 135.331 182.000 C 135.287 183.891,135.418 185.200,135.652 185.200 C 135.869 185.200,135.936 185.380,135.800 185.600 C 135.664 185.820,135.788 186.013,136.076 186.028 C 136.364 186.044,136.240 186.211,135.800 186.400 C 135.117 186.694,135.179 186.748,136.227 186.772 L 137.455 186.800 137.345 190.000 C 137.277 191.971,137.391 193.200,137.641 193.200 C 137.864 193.200,137.936 193.380,137.800 193.600 C 137.664 193.820,137.788 194.013,138.076 194.028 C 138.364 194.044,138.240 194.211,137.800 194.400 C 137.117 194.694,137.179 194.748,138.227 194.772 L 139.455 194.800 139.345 198.000 C 139.277 199.971,139.391 201.200,139.641 201.200 C 139.864 201.200,139.936 201.380,139.800 201.600 C 139.664 201.820,139.788 202.013,140.076 202.028 C 140.364 202.044,140.240 202.211,139.800 202.400 C 139.117 202.694,139.179 202.748,140.227 202.772 L 141.455 202.800 141.345 206.000 C 141.277 207.971,141.391 209.200,141.641 209.200 C 141.864 209.200,141.936 209.380,141.800 209.600 C 141.664 209.820,141.788 210.013,142.076 210.028 C 142.364 210.044,142.240 210.211,141.800 210.400 C 141.117 210.694,141.179 210.748,142.227 210.772 L 143.455 210.800 143.345 214.000 C 143.277 215.971,143.391 217.200,143.641 217.200 C 143.864 217.200,143.936 217.380,143.800 217.600 C 143.664 217.820,143.788 218.013,144.076 218.028 C 144.364 218.044,144.240 218.211,143.800 218.400 C 143.117 218.694,143.179 218.748,144.227 218.772 L 145.455 218.800 145.345 222.000 C 145.277 223.971,145.391 225.200,145.641 225.200 C 145.864 225.200,145.936 225.380,145.800 225.600 C 145.664 225.820,145.788 226.013,146.076 226.028 C 146.364 226.044,146.240 226.211,145.800 226.400 C 145.117 226.694,145.179 226.748,146.227 226.772 L 147.455 226.800 147.345 230.000 C 147.277 231.971,147.391 233.200,147.641 233.200 C 147.864 233.200,147.936 233.380,147.800 233.600 C 147.664 233.820,147.788 234.013,148.076 234.028 C 148.364 234.044,148.240 234.211,147.800 234.400 C 147.117 234.694,147.179 234.748,148.227 234.772 L 149.455 234.800 149.345 238.000 C 149.277 239.971,149.391 241.200,149.641 241.200 C 149.864 241.200,149.936 241.380,149.800 241.600 C 149.664 241.820,149.788 242.013,150.076 242.028 C 150.364 242.044,150.240 242.211,149.800 242.400 C 149.117 242.694,149.179 242.748,150.227 242.772 L 151.455 242.800 151.345 246.000 C 151.277 247.971,151.391 249.200,151.641 249.200 C 151.864 249.200,151.936 249.380,151.800 249.600 C 151.664 249.820,151.788 250.013,152.076 250.028 C 152.364 250.044,152.240 250.211,151.800 250.400 C 151.117 250.694,151.179 250.748,152.227 250.772 L 153.455 250.800 153.345 254.000 C 153.277 255.971,153.391 257.200,153.641 257.200 C 153.864 257.200,153.936 257.380,153.800 257.600 C 153.664 257.820,153.788 258.013,154.076 258.028 C 154.364 258.044,154.240 258.211,153.800 258.400 C 153.117 258.694,153.179 258.748,154.227 258.772 L 155.455 258.800 155.345 262.000 C 155.277 263.971,155.391 265.200,155.641 265.200 C 155.864 265.200,155.936 265.380,155.800 265.600 C 155.664 265.820,155.788 266.013,156.076 266.028 C 156.364 266.044,156.240 266.211,155.800 266.400 C 155.117 266.694,155.179 266.748,156.227 266.772 L 157.455 266.800 157.345 270.000 C 157.277 271.971,157.391 273.200,157.641 273.200 C 157.864 273.200,157.936 273.380,157.800 273.600 C 157.664 273.820,157.788 274.013,158.076 274.028 C 158.364 274.044,158.240 274.211,157.800 274.400 C 157.117 274.694,157.179 274.748,158.227 274.772 L 159.455 274.800 159.345 278.000 C 159.277 279.971,159.391 281.200,159.641 281.200 C 159.864 281.200,159.936 281.380,159.800 281.600 C 159.664 281.820,159.788 282.013,160.076 282.028 C 160.364 282.044,160.240 282.211,159.800 282.400 C 159.117 282.694,159.179 282.748,160.227 282.772 L 161.455 282.800 161.345 286.000 C 161.277 287.971,161.391 289.200,161.641 289.200 C 161.864 289.200,161.936 289.380,161.800 289.600 C 161.664 289.820,161.788 290.013,162.076 290.028 C 162.364 290.044,162.240 290.211,161.800 290.400 C 161.117 290.694,161.179 290.748,162.227 290.772 L 163.455 290.800 163.345 294.000 C 163.277 295.971,163.391 297.200,163.641 297.200 C 163.864 297.200,163.936 297.380,163.800 297.600 C 163.664 297.820,163.788 298.013,164.076 298.028 C 164.364 298.044,164.240 298.211,163.800 298.400 C 163.117 298.694,163.179 298.748,164.227 298.772 L 165.455 298.800 165.345 302.000 C 165.277 303.971,165.391 305.200,165.641 305.200 C 165.864 305.200,165.936 305.380,165.800 305.600 C 165.664 305.820,165.788 306.013,166.076 306.028 C 166.364 306.044,166.240 306.211,165.800 306.400 C 165.122 306.691,165.191 306.748,166.254 306.772 C 167.495 306.800,167.506 306.819,167.341 308.600 C 167.201 310.115,167.288 310.404,167.887 310.428 C 168.511 310.453,168.500 310.499,167.800 310.800 C 167.056 311.120,167.052 311.146,167.749 311.172 C 168.399 311.196,168.427 311.292,167.962 311.900 C 167.667 312.285,167.571 312.480,167.747 312.333 C 168.547 311.666,169.510 313.300,169.331 315.021 C 169.160 316.661,169.205 316.748,170.276 316.871 C 171.257 316.984,171.402 317.172,171.413 318.346 C 171.422 319.242,171.722 319.932,172.313 320.410 C 172.801 320.805,173.200 321.346,173.200 321.613 C 173.200 321.968,173.382 321.950,173.877 321.549 C 174.337 321.176,174.457 321.160,174.253 321.500 C 174.075 321.796,174.166 322.011,174.476 322.028 C 174.764 322.044,174.640 322.211,174.200 322.400 C 173.437 322.728,173.441 322.745,174.300 322.772 C 174.852 322.789,175.200 323.051,175.200 323.449 C 175.200 324.008,175.294 324.022,175.877 323.549 C 176.337 323.176,176.457 323.160,176.253 323.500 C 176.075 323.796,176.166 324.011,176.476 324.028 C 176.764 324.044,176.640 324.226,176.200 324.434 C 175.511 324.759,175.551 324.791,176.488 324.663 C 177.086 324.582,177.481 324.670,177.364 324.858 C 177.248 325.046,177.363 325.200,177.619 325.200 C 177.876 325.200,177.979 325.478,177.847 325.821 C 177.716 326.162,177.772 326.341,177.970 326.218 C 178.169 326.095,178.423 326.221,178.535 326.498 C 178.690 326.878,178.842 326.854,179.163 326.400 C 179.420 326.038,179.590 325.987,179.594 326.272 C 179.597 326.532,180.005 326.802,180.500 326.872 C 181.176 326.968,181.369 327.224,181.275 327.900 C 181.171 328.646,181.339 328.800,182.251 328.800 C 183.328 328.800,183.308 328.843,181.343 330.737 C 179.382 332.627,179.335 332.727,179.367 334.937 C 179.385 336.182,179.265 337.200,179.100 337.200 C 178.935 337.200,178.800 337.481,178.800 337.824 C 178.800 338.167,178.665 338.365,178.500 338.266 C 178.335 338.166,177.968 338.335,177.684 338.642 C 177.366 338.987,177.333 339.200,177.598 339.200 C 177.903 339.200,177.905 339.431,177.604 339.993 C 177.067 340.996,177.118 351.200,177.660 351.200 C 177.873 351.200,177.937 351.379,177.802 351.597 C 177.149 352.654,177.172 355.200,177.834 355.200 C 178.404 355.200,178.422 355.299,177.962 355.900 C 177.667 356.285,177.577 356.474,177.761 356.319 C 178.422 355.763,179.307 357.272,179.348 359.025 C 179.385 360.590,179.497 360.800,180.295 360.800 C 181.081 360.800,181.200 361.006,181.200 362.363 C 181.200 363.728,181.301 363.899,182.000 363.716 C 182.447 363.599,182.800 363.704,182.800 363.953 C 182.800 364.199,182.575 364.411,182.300 364.425 C 182.025 364.439,182.214 364.617,182.719 364.819 C 183.281 365.045,183.592 365.462,183.519 365.894 C 183.430 366.422,183.662 366.595,184.441 366.580 C 185.307 366.563,185.476 366.733,185.441 367.580 C 185.407 368.427,185.576 368.597,186.441 368.580 C 187.307 368.563,187.476 368.733,187.441 369.580 C 187.407 370.435,187.573 370.597,188.475 370.579 C 189.066 370.567,189.461 370.702,189.351 370.879 C 189.242 371.055,189.363 371.200,189.619 371.200 C 189.876 371.200,189.979 371.478,189.847 371.821 C 189.711 372.177,189.778 372.337,190.005 372.197 C 190.222 372.063,190.400 372.162,190.400 372.418 C 190.400 372.719,190.957 372.831,191.969 372.734 C 192.893 372.646,193.510 372.753,193.469 372.992 C 193.431 373.217,193.625 373.355,193.900 373.300 C 194.524 373.175,194.547 373.693,193.945 374.295 C 193.605 374.635,193.871 374.715,194.999 374.610 C 196.253 374.493,196.689 374.667,197.575 375.637 L 198.641 376.805 206.798 376.743 C 214.678 376.683,214.986 376.651,215.853 375.783 C 216.347 375.289,216.684 374.817,216.601 374.734 C 216.518 374.651,217.183 374.654,218.078 374.739 C 219.206 374.846,219.621 374.757,219.429 374.447 C 219.182 374.048,219.671 373.822,220.500 373.953 C 220.665 373.979,220.800 373.730,220.800 373.400 C 220.800 372.947,221.289 372.800,222.800 372.800 C 224.667 372.800,224.800 372.733,224.800 371.800 C 224.800 370.988,224.997 370.800,225.845 370.800 C 226.775 370.800,226.872 370.670,226.718 369.621 C 226.623 368.973,226.686 368.529,226.858 368.636 C 227.346 368.937,228.863 367.225,228.553 366.724 C 228.388 366.457,228.457 366.388,228.724 366.553 C 229.306 366.913,230.913 365.306,230.553 364.724 C 230.388 364.458,230.457 364.388,230.722 364.552 C 231.279 364.896,232.800 363.982,232.800 363.304 C 232.800 363.027,233.267 362.800,233.837 362.800 C 234.842 362.800,234.870 362.733,234.737 360.646 C 234.604 358.562,234.633 358.494,235.603 358.562 C 236.601 358.632,236.606 358.617,236.680 354.915 C 236.761 350.884,236.945 350.241,237.945 350.501 C 238.511 350.648,238.616 350.167,238.716 346.969 C 238.826 343.481,238.788 343.278,238.061 343.468 C 236.963 343.755,236.653 342.996,236.763 340.288 C 236.834 338.554,236.734 337.994,236.390 338.206 C 236.036 338.425,236.028 338.294,236.360 337.675 C 236.965 336.543,236.912 336.271,236.143 336.566 C 235.569 336.787,235.557 336.732,236.043 336.132 C 236.351 335.753,236.389 335.573,236.128 335.730 C 235.868 335.886,235.540 335.827,235.400 335.600 C 235.260 335.373,235.015 335.267,234.856 335.365 C 234.697 335.464,234.640 334.918,234.730 334.153 L 234.892 332.763 237.146 332.881 C 239.094 332.984,239.400 333.109,239.400 333.800 C 239.400 334.330,239.737 334.671,240.400 334.811 C 241.118 334.962,241.391 335.273,241.368 335.911 C 241.345 336.561,241.565 336.800,242.188 336.800 C 243.192 336.800,244.002 337.509,243.994 338.380 C 243.988 338.926,243.942 338.929,243.600 338.400 C 243.273 337.894,243.211 337.916,243.206 338.540 C 243.203 338.946,243.712 339.757,244.338 340.342 C 244.964 340.926,245.429 341.719,245.373 342.102 C 245.300 342.601,245.545 342.800,246.235 342.800 C 247.224 342.800,247.260 342.892,247.355 345.700 C 247.384 346.568,247.584 346.800,248.306 346.800 C 248.913 346.800,249.348 347.136,249.600 347.800 C 249.809 348.350,250.255 348.800,250.590 348.800 C 250.926 348.800,251.200 348.991,251.200 349.224 C 251.200 349.457,251.398 349.525,251.640 349.375 C 251.958 349.179,251.960 349.327,251.647 349.911 C 251.257 350.642,251.327 350.712,252.382 350.638 C 253.024 350.594,253.470 350.687,253.372 350.845 C 253.275 351.003,253.421 351.237,253.698 351.366 C 254.101 351.554,254.101 351.646,253.698 351.834 C 253.001 352.159,253.482 352.800,254.424 352.800 C 254.851 352.800,255.218 352.935,255.240 353.100 C 255.261 353.265,255.323 353.888,255.377 354.484 C 255.507 355.930,256.402 357.039,256.859 356.319 C 257.127 355.895,257.189 355.896,257.194 356.324 C 257.197 356.612,257.375 356.739,257.588 356.607 C 258.049 356.323,260.220 357.378,260.651 358.097 C 260.834 358.401,260.647 358.363,260.177 358.000 C 259.453 357.441,259.439 357.449,259.964 358.118 C 260.274 358.513,260.779 358.740,261.085 358.623 C 261.391 358.505,261.532 358.587,261.397 358.805 C 261.263 359.022,261.388 359.203,261.676 359.206 C 261.996 359.210,262.044 359.327,261.800 359.506 C 260.941 360.137,261.142 360.859,262.043 360.377 C 262.718 360.016,262.831 360.027,262.583 360.428 C 262.368 360.775,262.456 360.864,262.859 360.709 C 263.314 360.535,263.411 360.742,263.284 361.611 C 263.138 362.601,263.257 362.755,264.259 362.869 C 265.149 362.971,265.393 363.198,265.368 363.900 C 265.344 364.585,265.559 364.800,266.268 364.800 C 266.781 364.800,267.200 364.598,267.200 364.351 C 267.200 364.035,267.372 364.045,267.782 364.385 C 268.103 364.651,268.553 364.753,268.782 364.611 C 269.191 364.358,269.312 364.699,269.307 366.095 C 269.306 366.638,269.623 366.778,270.753 366.735 C 272.872 366.654,274.154 367.132,273.602 367.798 C 273.098 368.405,273.483 368.748,274.485 368.586 C 275.208 368.469,275.832 369.701,275.402 370.396 C 275.041 370.980,276.936 370.896,277.579 370.300 C 278.011 369.899,278.059 369.902,277.823 370.319 C 277.594 370.724,277.932 370.790,279.365 370.618 C 281.138 370.405,281.437 370.582,281.237 371.730 C 281.206 371.911,281.366 371.945,281.593 371.804 C 281.820 371.664,282.099 371.793,282.213 372.090 C 282.327 372.388,283.001 372.673,283.710 372.724 C 284.559 372.785,285.259 373.167,285.757 373.841 C 286.338 374.626,286.592 374.740,286.851 374.332 C 287.104 373.932,287.189 373.924,287.194 374.300 C 287.197 374.575,287.650 374.800,288.200 374.800 C 288.750 374.800,289.200 374.650,289.200 374.467 C 289.200 374.283,289.462 374.133,289.782 374.133 C 290.103 374.133,290.278 374.274,290.171 374.447 C 290.064 374.620,290.614 374.699,291.392 374.624 C 292.585 374.508,292.941 374.674,293.657 375.680 C 294.288 376.566,294.591 376.739,294.831 376.350 C 295.209 375.739,297.578 375.578,297.472 376.171 C 297.352 376.840,317.478 376.996,318.296 376.333 C 318.658 376.040,318.841 375.989,318.703 376.219 C 318.541 376.490,319.196 376.631,320.565 376.619 C 321.727 376.609,322.676 376.420,322.676 376.200 C 322.669 374.633,322.778 374.562,324.986 374.704 C 326.188 374.780,327.560 374.636,328.034 374.382 C 328.630 374.063,328.812 374.056,328.625 374.360 C 328.450 374.643,328.789 374.800,329.576 374.800 C 330.651 374.800,330.800 374.663,330.800 373.677 C 330.800 372.660,330.922 372.563,332.089 372.643 C 332.798 372.692,333.720 372.550,334.137 372.326 C 334.678 372.037,334.818 372.047,334.625 372.360 C 334.145 373.136,334.806 372.831,335.836 371.800 C 336.452 371.185,337.291 370.800,338.018 370.800 C 338.975 370.800,339.201 370.629,339.206 369.900 C 339.210 369.274,339.313 369.158,339.541 369.519 C 339.804 369.933,339.974 369.913,340.384 369.419 C 340.667 369.079,341.416 368.800,342.049 368.800 C 342.911 368.800,343.200 368.610,343.200 368.045 C 343.200 367.196,345.204 366.612,347.551 366.776 C 348.828 366.865,348.892 366.808,348.732 365.716 C 348.575 364.650,348.647 364.575,349.681 364.727 C 350.663 364.871,350.800 364.763,350.800 363.845 C 350.800 362.771,350.859 362.743,353.336 362.650 C 354.397 362.610,354.635 362.456,354.491 361.905 C 354.380 361.480,354.599 361.100,355.055 360.927 C 356.213 360.488,356.901 359.640,356.643 358.969 C 356.510 358.621,356.579 358.464,356.805 358.603 C 357.022 358.737,357.200 358.477,357.200 358.024 C 357.200 357.459,357.459 357.200,358.024 357.200 C 358.477 357.200,358.742 357.029,358.613 356.821 C 358.484 356.612,358.698 356.503,359.089 356.577 C 359.952 356.741,360.706 356.005,360.577 355.127 C 360.520 354.733,360.733 354.520,361.127 354.577 C 361.859 354.685,362.809 353.954,362.533 353.497 C 362.432 353.331,362.676 353.071,363.075 352.920 C 364.250 352.474,364.897 351.628,364.618 350.902 C 364.475 350.529,364.473 350.340,364.615 350.481 C 364.756 350.623,365.434 350.201,366.121 349.545 C 366.808 348.888,367.647 348.423,367.985 348.512 C 368.441 348.631,368.613 348.328,368.650 347.336 C 368.742 344.882,368.778 344.800,369.773 344.800 C 370.538 344.800,370.774 344.564,370.873 343.700 C 370.966 342.900,371.218 342.606,371.800 342.621 C 372.463 342.638,372.610 342.364,372.658 341.021 C 372.690 340.129,372.735 339.265,372.758 339.100 C 372.781 338.935,373.264 338.800,373.831 338.800 C 374.741 338.800,374.853 338.649,374.790 337.500 C 374.655 335.038,374.747 334.800,375.832 334.800 C 376.860 334.800,376.863 334.792,376.732 331.799 C 376.659 330.149,376.735 328.799,376.900 328.799 C 377.065 328.800,377.214 328.395,377.232 327.900 C 377.249 327.405,377.353 327.223,377.464 327.496 C 377.949 328.698,378.752 326.883,378.632 324.852 C 378.513 322.822,378.525 322.800,379.685 322.800 L 380.857 322.800 380.709 318.800 C 380.556 314.642,380.555 314.643,382.257 314.685 C 382.587 314.693,382.730 311.463,382.776 302.981 C 382.838 291.574,382.819 291.270,382.065 291.467 C 380.904 291.771,380.705 291.090,380.747 286.954 C 380.782 283.494,380.727 283.211,380.092 283.547 C 379.004 284.125,378.560 283.244,378.657 280.693 C 378.708 279.350,378.589 278.483,378.372 278.617 C 378.168 278.744,378.000 278.477,378.000 278.024 C 378.000 277.495,377.740 277.200,377.275 277.200 C 376.633 277.200,376.560 276.867,376.640 274.300 C 376.699 272.436,376.611 271.686,376.394 272.200 C 376.208 272.640,376.044 272.764,376.028 272.476 C 376.011 272.166,375.796 272.075,375.500 272.253 C 375.211 272.427,375.253 272.239,375.600 271.807 C 376.150 271.124,376.133 271.079,375.400 271.268 C 374.669 271.456,374.608 271.298,374.696 269.437 C 374.766 267.940,374.694 267.612,374.424 268.200 C 374.222 268.640,374.044 268.764,374.028 268.476 C 374.011 268.166,373.796 268.075,373.500 268.253 C 373.160 268.457,373.176 268.337,373.549 267.877 C 374.022 267.294,374.008 267.200,373.449 267.200 C 372.975 267.200,372.800 266.825,372.800 265.809 C 372.800 264.767,372.549 264.254,371.800 263.763 C 371.196 263.367,370.800 262.730,370.800 262.154 C 370.800 261.403,370.587 261.200,369.800 261.200 C 369.250 261.200,368.777 260.975,368.749 260.700 C 368.722 260.425,368.677 259.807,368.649 259.326 C 368.622 258.845,368.016 257.930,367.301 257.292 C 366.587 256.653,366.131 256.002,366.289 255.844 C 366.447 255.687,366.266 255.676,365.888 255.822 C 365.480 255.978,365.200 255.896,365.200 255.619 C 365.200 255.363,365.046 255.248,364.858 255.364 C 364.670 255.481,364.582 255.086,364.663 254.488 C 364.791 253.551,364.759 253.511,364.434 254.200 C 364.226 254.640,364.044 254.764,364.028 254.476 C 364.011 254.166,363.796 254.075,363.500 254.253 C 363.160 254.457,363.176 254.337,363.549 253.877 C 364.022 253.294,364.008 253.200,363.449 253.200 C 363.051 253.200,362.789 252.852,362.772 252.300 C 362.745 251.441,362.728 251.437,362.400 252.200 C 362.211 252.640,362.044 252.764,362.028 252.476 C 362.011 252.166,361.796 252.075,361.500 252.253 C 361.160 252.457,361.176 252.337,361.549 251.877 C 362.022 251.294,362.008 251.200,361.449 251.200 C 361.092 251.200,360.786 250.885,360.768 250.500 C 360.750 250.082,360.656 250.001,360.535 250.300 C 360.202 251.125,359.490 250.864,359.716 250.000 C 359.852 249.480,359.728 249.200,359.363 249.200 C 359.053 249.200,358.787 248.795,358.772 248.300 C 358.745 247.441,358.728 247.437,358.400 248.200 C 358.211 248.640,358.044 248.764,358.028 248.476 C 358.011 248.166,357.796 248.075,357.500 248.253 C 357.160 248.457,357.176 248.337,357.549 247.877 C 358.022 247.294,358.008 247.200,357.449 247.200 C 357.051 247.200,356.789 246.852,356.772 246.300 C 356.745 245.441,356.728 245.437,356.400 246.200 C 356.211 246.640,356.044 246.764,356.028 246.476 C 356.011 246.166,355.796 246.075,355.500 246.253 C 355.211 246.427,355.253 246.239,355.600 245.807 C 356.154 245.119,356.133 245.079,355.330 245.285 C 354.725 245.441,354.520 245.353,354.657 244.996 C 354.877 244.422,353.259 243.116,352.731 243.443 C 352.007 243.890,350.800 243.130,350.800 242.225 C 350.800 241.524,350.586 241.316,349.906 241.352 C 349.256 241.387,348.956 241.128,348.806 240.400 C 348.619 239.492,348.413 239.400,346.575 239.400 C 344.646 239.400,344.556 239.352,344.680 238.400 C 344.798 237.503,344.772 237.483,344.434 238.200 C 344.226 238.640,344.044 238.764,344.028 238.476 C 344.011 238.166,343.796 238.075,343.500 238.253 C 343.177 238.447,343.200 238.307,343.564 237.858 C 344.087 237.214,343.997 237.175,342.330 237.329 C 340.586 237.491,340.535 237.464,340.671 236.448 C 340.794 235.529,340.765 235.499,340.434 236.200 C 340.226 236.640,340.044 236.764,340.028 236.476 C 340.011 236.166,339.796 236.075,339.500 236.253 C 339.178 236.447,339.201 236.305,339.565 235.857 C 340.086 235.215,340.009 235.170,338.572 235.280 C 337.189 235.387,336.991 235.288,336.807 234.400 C 336.586 233.333,333.748 232.918,332.438 233.762 C 332.027 234.027,331.963 233.983,332.201 233.599 C 332.442 233.208,332.305 233.132,331.663 233.300 C 330.894 233.501,330.800 233.364,330.800 232.043 C 330.800 231.227,330.584 230.344,330.320 230.080 C 329.966 229.726,329.962 229.600,330.303 229.600 C 330.587 229.600,330.723 229.057,330.656 228.200 C 330.595 227.430,330.693 226.800,330.873 226.800 C 331.053 226.800,331.214 226.395,331.232 225.900 C 331.249 225.405,331.353 225.223,331.464 225.496 C 331.850 226.453,332.863 224.895,332.666 223.647 C 332.501 222.599,332.586 222.493,333.542 222.559 C 334.648 222.635,335.082 220.945,334.276 219.700 C 334.089 219.411,334.132 219.200,334.376 219.200 C 334.609 219.200,334.800 218.682,334.800 218.049 C 334.800 217.416,335.079 216.667,335.419 216.384 C 335.913 215.974,335.933 215.804,335.519 215.541 C 335.153 215.309,335.250 215.210,335.848 215.206 C 336.615 215.201,336.692 214.989,336.648 213.000 C 336.622 211.790,336.780 210.775,337.000 210.745 C 337.220 210.715,337.689 210.689,338.043 210.688 C 338.397 210.687,338.687 210.397,338.688 210.043 C 338.698 207.055,338.785 206.800,339.804 206.800 C 340.795 206.800,340.806 206.764,340.695 203.839 C 340.598 201.281,340.687 200.813,341.350 200.399 C 341.978 200.007,342.016 199.856,341.559 199.566 C 341.138 199.300,341.223 199.211,341.900 199.206 C 342.891 199.199,343.078 198.459,342.300 197.621 C 341.976 197.272,341.964 197.175,342.267 197.345 C 342.592 197.527,342.700 197.180,342.623 196.203 C 342.532 195.062,342.650 194.800,343.256 194.800 C 343.665 194.800,343.979 194.665,343.953 194.500 C 343.827 193.703,344.040 193.178,344.400 193.400 C 344.638 193.547,344.800 193.077,344.800 192.242 C 344.800 191.276,345.113 190.524,345.800 189.836 C 346.831 188.806,347.136 188.145,346.360 188.625 C 346.047 188.818,346.037 188.678,346.326 188.137 C 346.550 187.720,346.692 186.798,346.643 186.089 C 346.563 184.924,346.810 184.612,347.700 184.753 C 348.199 184.831,348.036 184.083,347.500 183.837 C 347.225 183.711,347.387 183.702,347.860 183.818 C 348.627 184.006,348.712 183.874,348.651 182.587 C 348.581 181.083,349.221 180.169,350.108 180.509 C 350.505 180.662,350.623 179.981,350.613 177.588 C 350.606 175.872,350.664 174.532,350.742 174.610 C 351.421 175.285,352.718 172.704,352.629 170.854 C 352.537 168.950,352.717 168.597,353.700 168.753 C 354.199 168.831,354.036 168.083,353.500 167.837 C 353.225 167.711,353.388 167.703,353.863 167.819 C 354.656 168.013,354.719 167.889,354.645 166.261 C 354.568 164.594,354.623 164.495,355.582 164.561 C 356.648 164.635,357.065 162.918,356.276 161.700 C 356.087 161.407,356.135 161.200,356.394 161.200 C 356.637 161.200,356.806 160.975,356.770 160.700 C 356.628 159.604,356.822 158.800,357.229 158.800 C 358.458 158.800,359.197 156.957,358.320 156.080 C 357.966 155.726,357.962 155.600,358.303 155.600 C 358.587 155.600,358.723 155.057,358.656 154.200 C 358.595 153.430,358.693 152.800,358.873 152.800 C 359.053 152.800,359.214 152.395,359.232 151.900 C 359.249 151.405,359.353 151.223,359.464 151.496 C 359.850 152.453,360.863 150.895,360.666 149.647 C 360.501 148.599,360.586 148.493,361.542 148.559 C 362.648 148.635,363.082 146.945,362.276 145.700 C 362.089 145.411,362.132 145.200,362.376 145.200 C 362.609 145.200,362.800 144.682,362.800 144.049 C 362.800 143.416,363.079 142.667,363.419 142.384 C 363.913 141.974,363.933 141.804,363.519 141.541 C 363.153 141.309,363.250 141.210,363.848 141.206 C 364.615 141.201,364.692 140.989,364.648 139.000 C 364.622 137.790,364.780 136.775,365.000 136.745 C 365.220 136.715,365.687 136.689,366.038 136.688 C 366.567 136.686,366.669 136.184,366.638 133.743 C 366.600 130.764,366.647 130.671,368.200 130.675 C 368.420 130.676,368.618 130.189,368.640 129.593 C 368.668 128.832,368.489 128.523,368.040 128.554 C 367.661 128.581,367.423 128.314,367.456 127.900 C 367.486 127.515,367.306 127.200,367.056 127.200 C 366.779 127.200,366.600 126.455,366.600 125.301 C 366.600 123.684,366.484 123.401,365.819 123.401 C 365.328 123.400,364.935 123.029,364.759 122.400 C 364.526 121.565,364.468 121.532,364.408 122.200 C 364.368 122.651,364.248 122.781,364.134 122.498 C 364.023 122.221,363.722 122.121,363.466 122.274 C 363.169 122.452,363.185 122.325,363.510 121.924 C 363.971 121.354,363.014 121.300,353.410 121.347 C 343.982 121.394,342.800 121.330,342.800 120.768 C 342.800 120.420,342.350 119.894,341.800 119.600 C 341.248 119.305,340.787 118.692,340.772 118.232 C 340.744 117.413,340.738 117.413,340.400 118.200 C 340.211 118.640,340.044 118.764,340.028 118.476 C 340.011 118.166,339.796 118.075,339.500 118.253 C 339.160 118.457,339.176 118.337,339.549 117.877 C 340.022 117.294,340.008 117.200,339.449 117.200 C 339.051 117.200,338.789 116.852,338.772 116.300 C 338.745 115.441,338.728 115.437,338.400 116.200 C 338.211 116.640,338.044 116.764,338.028 116.476 C 338.011 116.166,337.796 116.075,337.500 116.253 C 337.160 116.457,337.176 116.337,337.549 115.877 C 338.022 115.294,338.008 115.200,337.449 115.200 C 337.051 115.200,336.789 114.852,336.772 114.300 C 336.745 113.441,336.728 113.437,336.400 114.200 C 336.211 114.640,336.044 114.764,336.028 114.476 C 336.011 114.166,335.796 114.075,335.500 114.253 C 335.160 114.457,335.176 114.337,335.549 113.877 C 336.022 113.294,336.008 113.200,335.449 113.200 C 335.051 113.200,334.789 112.852,334.772 112.300 C 334.745 111.441,334.728 111.437,334.400 112.200 C 334.211 112.640,334.044 112.764,334.028 112.476 C 334.011 112.166,333.796 112.075,333.500 112.253 C 333.160 112.457,333.176 112.337,333.549 111.877 C 334.022 111.294,334.008 111.200,333.449 111.200 C 333.051 111.200,332.789 110.852,332.772 110.300 C 332.745 109.441,332.728 109.437,332.400 110.200 C 332.211 110.640,332.044 110.764,332.028 110.476 C 332.011 110.166,331.796 110.075,331.500 110.253 C 331.160 110.457,331.176 110.337,331.549 109.877 C 332.022 109.294,332.008 109.200,331.449 109.200 C 331.051 109.200,330.789 108.852,330.772 108.300 C 330.745 107.441,330.728 107.437,330.400 108.200 C 330.211 108.640,330.044 108.764,330.028 108.476 C 330.011 108.166,329.796 108.075,329.500 108.253 C 329.160 108.457,329.176 108.337,329.549 107.877 C 330.022 107.294,330.008 107.200,329.449 107.200 C 329.051 107.200,328.789 106.852,328.772 106.300 C 328.745 105.441,328.728 105.437,328.400 106.200 C 328.211 106.640,328.044 106.764,328.028 106.476 C 328.011 106.166,327.796 106.075,327.500 106.253 C 327.160 106.457,327.176 106.337,327.549 105.877 C 328.022 105.294,328.008 105.200,327.449 105.200 C 327.092 105.200,326.786 104.885,326.768 104.500 C 326.750 104.082,326.656 104.001,326.535 104.300 C 326.202 105.125,325.490 104.864,325.716 104.000 C 325.852 103.480,325.728 103.200,325.363 103.200 C 325.053 103.200,324.778 103.020,324.750 102.800 C 324.723 102.580,324.677 102.175,324.650 101.900 C 324.622 101.625,324.141 101.419,323.580 101.441 C 322.733 101.476,322.563 101.307,322.580 100.441 C 322.597 99.576,322.427 99.407,321.580 99.441 C 320.733 99.476,320.563 99.307,320.580 98.441 C 320.597 97.576,320.427 97.407,319.580 97.441 C 318.733 97.476,318.563 97.307,318.580 96.441 C 318.597 95.576,318.427 95.407,317.580 95.441 C 316.733 95.476,316.563 95.307,316.580 94.441 C 316.597 93.576,316.427 93.407,315.580 93.441 C 314.733 93.476,314.563 93.307,314.580 92.441 C 314.597 91.576,314.427 91.407,313.580 91.441 C 312.733 91.476,312.563 91.307,312.580 90.441 C 312.597 89.576,312.427 89.407,311.580 89.441 C 310.733 89.476,310.563 89.307,310.580 88.441 C 310.597 87.576,310.427 87.407,309.580 87.441 C 308.733 87.476,308.563 87.307,308.580 86.441 C 308.597 85.576,308.427 85.407,307.580 85.441 C 306.733 85.476,306.563 85.307,306.580 84.441 C 306.597 83.576,306.427 83.407,305.580 83.441 C 304.733 83.476,304.563 83.307,304.580 82.441 C 304.594 81.694,304.415 81.430,303.946 81.507 C 303.349 81.605,302.736 80.811,302.626 79.800 C 302.602 79.580,302.292 79.448,301.937 79.507 C 301.348 79.605,300.735 78.807,300.626 77.800 C 300.602 77.580,300.292 77.448,299.937 77.507 C 299.348 77.605,298.735 76.807,298.626 75.800 C 298.602 75.580,298.292 75.448,297.937 75.507 C 297.348 75.605,296.735 74.807,296.626 73.800 C 296.602 73.580,296.292 73.448,295.937 73.507 C 295.348 73.605,294.735 72.807,294.626 71.800 C 294.602 71.580,294.292 71.448,293.937 71.507 C 293.347 71.605,292.727 70.795,292.630 69.800 C 292.609 69.580,292.223 69.450,291.773 69.512 C 291.116 69.602,290.959 69.408,290.977 68.531 C 290.995 67.697,290.772 67.384,290.037 67.210 C 289.507 67.084,288.935 66.626,288.765 66.191 C 288.459 65.407,288.456 65.408,288.422 66.200 C 288.394 66.845,288.316 66.887,288.020 66.419 C 287.818 66.100,287.742 65.695,287.850 65.519 C 287.958 65.344,287.851 65.200,287.611 65.200 C 287.371 65.200,287.011 64.795,286.812 64.300 C 286.480 63.473,286.448 63.464,286.419 64.200 C 286.394 64.844,286.316 64.887,286.020 64.419 C 285.818 64.100,285.742 63.695,285.850 63.519 C 285.958 63.344,285.851 63.200,285.611 63.200 C 285.371 63.200,285.011 62.795,284.812 62.300 C 284.480 61.473,284.448 61.464,284.419 62.200 C 284.394 62.844,284.316 62.887,284.020 62.419 C 283.818 62.100,283.730 61.713,283.824 61.561 C 283.918 61.409,283.726 61.181,283.398 61.054 C 283.069 60.928,282.787 60.504,282.772 60.113 C 282.747 59.489,282.701 59.500,282.400 60.200 C 282.211 60.640,282.044 60.764,282.028 60.476 C 282.011 60.166,281.796 60.075,281.500 60.253 C 281.160 60.457,281.176 60.337,281.549 59.877 C 281.897 59.448,281.936 59.200,281.657 59.200 C 281.414 59.200,281.108 58.772,280.977 58.249 C 280.768 57.418,280.578 57.332,279.469 57.566 C 278.281 57.817,277.330 57.831,277.100 57.600 C 276.402 56.900,270.963 57.400,270.122 58.242 C 269.595 58.769,268.722 59.200,268.182 59.200 C 267.421 59.200,267.200 59.409,267.200 60.130 C 267.200 60.642,266.756 61.478,266.212 61.988 C 265.669 62.499,265.337 63.098,265.474 63.320 C 265.611 63.542,265.542 63.611,265.320 63.474 C 264.801 63.153,263.094 64.950,263.496 65.394 C 263.663 65.578,263.601 65.615,263.358 65.476 C 262.806 65.162,261.082 66.937,261.496 67.394 C 261.663 67.578,261.601 67.615,261.358 67.476 C 260.806 67.162,259.082 68.937,259.496 69.394 C 259.663 69.578,259.601 69.615,259.358 69.476 C 258.792 69.154,257.093 70.937,257.496 71.430 C 257.663 71.633,257.633 71.663,257.430 71.496 C 256.951 71.104,255.145 72.788,255.474 73.320 C 255.611 73.542,255.542 73.611,255.320 73.474 C 254.801 73.153,253.094 74.950,253.496 75.394 C 253.663 75.578,253.601 75.615,253.358 75.476 C 252.806 75.162,251.082 76.937,251.496 77.394 C 251.663 77.578,251.601 77.615,251.358 77.476 C 250.806 77.162,249.082 78.937,249.496 79.394 C 249.663 79.578,249.601 79.615,249.358 79.476 C 248.887 79.208,247.044 80.910,247.409 81.276 C 247.529 81.395,247.170 81.443,246.613 81.382 C 245.903 81.304,245.587 81.469,245.558 81.935 C 245.535 82.301,245.279 81.880,244.989 81.000 C 244.660 80.003,244.438 79.702,244.399 80.200 C 244.364 80.646,244.247 80.778,244.134 80.498 C 244.023 80.221,243.722 80.121,243.466 80.274 C 243.210 80.428,243.270 80.218,243.600 79.807 C 244.153 79.120,244.133 79.079,243.351 79.280 C 242.672 79.455,242.540 79.349,242.695 78.756 C 242.833 78.229,242.587 77.899,241.845 77.617 C 241.270 77.399,240.778 77.035,240.750 76.810 C 240.722 76.584,240.677 76.175,240.650 75.900 C 240.622 75.625,240.141 75.419,239.580 75.441 C 238.733 75.476,238.563 75.307,238.580 74.441 C 238.597 73.576,238.427 73.407,237.580 73.441 C 236.733 73.476,236.563 73.307,236.580 72.441 C 236.597 71.576,236.427 71.407,235.580 71.441 C 234.733 71.476,234.563 71.307,234.580 70.441 C 234.597 69.576,234.427 69.407,233.580 69.441 C 232.733 69.476,232.563 69.307,232.580 68.441 C 232.597 67.576,232.427 67.407,231.580 67.441 C 230.733 67.476,230.563 67.307,230.580 66.441 C 230.597 65.576,230.427 65.407,229.580 65.441 C 228.733 65.476,228.563 65.307,228.580 64.441 C 228.597 63.576,228.427 63.407,227.580 63.441 C 226.733 63.476,226.563 63.307,226.580 62.441 C 226.595 61.664,226.422 61.430,225.897 61.518 C 225.450 61.593,225.053 61.266,224.807 60.618 C 224.594 60.058,224.185 59.600,223.899 59.600 C 223.248 59.600,221.975 58.158,222.321 57.813 C 222.461 57.672,222.266 57.676,221.888 57.822 C 221.510 57.967,221.200 57.918,221.200 57.713 C 221.200 56.789,212.676 57.292,211.770 58.271 C 211.296 58.782,210.682 59.200,210.405 59.200 C 210.030 59.200,210.015 59.336,210.348 59.737 C 210.927 60.435,210.435 60.927,209.737 60.348 C 209.325 60.006,209.200 60.053,209.200 60.551 C 209.200 60.908,208.908 61.200,208.551 61.200 C 208.053 61.200,208.006 61.325,208.348 61.737 C 208.927 62.435,208.435 62.927,207.737 62.348 C 207.325 62.006,207.200 62.053,207.200 62.551 C 207.200 62.908,206.908 63.200,206.551 63.200 C 206.053 63.200,206.006 63.325,206.348 63.737 C 206.927 64.435,206.435 64.927,205.737 64.348 C 205.325 64.006,205.200 64.053,205.200 64.551 C 205.200 64.908,204.908 65.200,204.551 65.200 C 204.053 65.200,204.006 65.325,204.348 65.737 C 204.927 66.435,204.435 66.927,203.737 66.348 C 203.325 66.006,203.200 66.053,203.200 66.551 C 203.200 66.908,202.908 67.200,202.551 67.200 C 202.053 67.200,202.006 67.325,202.348 67.737 C 202.927 68.435,202.435 68.927,201.737 68.348 C 201.325 68.006,201.200 68.053,201.200 68.551 C 201.200 68.908,200.908 69.200,200.551 69.200 C 200.053 69.200,200.006 69.325,200.348 69.737 C 200.927 70.435,200.435 70.927,199.737 70.348 C 199.325 70.006,199.200 70.053,199.200 70.551 C 199.200 70.908,198.908 71.200,198.551 71.200 C 198.053 71.200,198.006 71.325,198.348 71.737 C 198.927 72.435,198.435 72.927,197.737 72.348 C 197.325 72.006,197.200 72.053,197.200 72.551 C 197.200 72.908,196.908 73.200,196.551 73.200 C 196.053 73.200,196.006 73.325,196.348 73.737 C 196.927 74.435,196.435 74.927,195.737 74.348 C 195.325 74.006,195.200 74.053,195.200 74.551 C 195.200 74.908,194.908 75.200,194.551 75.200 C 194.053 75.200,194.006 75.325,194.348 75.737 C 194.927 76.435,194.435 76.927,193.737 76.348 C 193.325 76.006,193.200 76.053,193.200 76.551 C 193.200 76.908,192.908 77.200,192.551 77.200 C 192.053 77.200,192.006 77.325,192.348 77.737 C 192.927 78.435,192.435 78.927,191.737 78.348 C 191.325 78.006,191.200 78.053,191.200 78.551 C 191.200 78.908,190.908 79.200,190.551 79.200 C 190.053 79.200,190.006 79.325,190.348 79.737 C 190.927 80.435,190.435 80.927,189.737 80.348 C 189.325 80.006,189.200 80.053,189.200 80.551 C 189.200 80.908,188.908 81.200,188.551 81.200 C 188.053 81.200,188.006 81.325,188.348 81.737 C 188.927 82.435,188.435 82.927,187.737 82.348 C 187.325 82.006,187.200 82.053,187.200 82.551 C 187.200 82.908,186.908 83.200,186.551 83.200 C 186.053 83.200,186.006 83.325,186.348 83.737 C 186.927 84.435,186.435 84.927,185.737 84.348 C 185.325 84.006,185.200 84.053,185.200 84.551 C 185.200 84.908,184.908 85.200,184.551 85.200 C 184.053 85.200,184.006 85.325,184.348 85.737 C 184.927 86.435,184.435 86.927,183.737 86.348 C 183.325 86.006,183.200 86.053,183.200 86.551 C 183.200 86.908,182.908 87.200,182.551 87.200 C 182.053 87.200,182.006 87.325,182.348 87.737 C 182.927 88.435,182.435 88.927,181.737 88.348 C 181.325 88.006,181.200 88.053,181.200 88.551 C 181.200 88.908,180.908 89.200,180.551 89.200 C 180.053 89.200,180.006 89.325,180.348 89.737 C 180.927 90.435,180.435 90.927,179.737 90.348 C 179.325 90.006,179.200 90.053,179.200 90.551 C 179.200 90.908,178.908 91.200,178.551 91.200 C 178.053 91.200,178.006 91.325,178.348 91.737 C 178.927 92.435,178.435 92.927,177.737 92.348 C 177.325 92.006,177.200 92.053,177.200 92.551 C 177.200 92.908,176.908 93.200,176.551 93.200 C 176.053 93.200,176.006 93.325,176.348 93.737 C 176.927 94.435,176.435 94.927,175.737 94.348 C 175.325 94.006,175.200 94.053,175.200 94.551 C 175.200 94.908,174.908 95.200,174.551 95.200 C 174.053 95.200,174.006 95.325,174.348 95.737 C 174.927 96.435,174.435 96.927,173.737 96.348 C 173.325 96.006,173.200 96.053,173.200 96.551 C 173.200 96.908,172.908 97.200,172.551 97.200 C 172.053 97.200,172.006 97.325,172.348 97.737 C 172.927 98.435,172.435 98.927,171.737 98.348 C 171.325 98.006,171.200 98.053,171.200 98.551 C 171.200 98.908,170.908 99.200,170.551 99.200 C 170.053 99.200,170.006 99.325,170.348 99.737 C 170.927 100.435,170.435 100.927,169.737 100.348 C 169.325 100.006,169.200 100.053,169.200 100.551 C 169.200 100.908,168.908 101.200,168.551 101.200 C 168.053 101.200,168.006 101.325,168.348 101.737 C 168.927 102.435,168.435 102.927,167.737 102.348 C 167.325 102.006,167.200 102.053,167.200 102.551 C 167.200 102.908,166.908 103.200,166.551 103.200 C 166.053 103.200,166.006 103.325,166.348 103.737 C 166.927 104.435,166.435 104.927,165.737 104.348 C 165.325 104.006,165.200 104.053,165.200 104.551 C 165.200 104.908,164.908 105.200,164.551 105.200 C 164.053 105.200,164.006 105.325,164.348 105.737 C 164.927 106.435,164.435 106.927,163.737 106.348 C 163.325 106.006,163.200 106.053,163.200 106.551 C 163.200 106.908,162.908 107.200,162.551 107.200 C 162.053 107.200,162.006 107.325,162.348 107.737 C 162.927 108.435,162.435 108.927,161.737 108.348 C 161.325 108.006,161.200 108.053,161.200 108.551 C 161.200 108.908,160.908 109.200,160.551 109.200 C 160.053 109.200,160.006 109.325,160.348 109.737 C 160.927 110.435,160.435 110.927,159.737 110.348 C 159.325 110.006,159.200 110.053,159.200 110.551 C 159.200 110.908,158.908 111.200,158.551 111.200 C 158.053 111.200,158.006 111.325,158.348 111.737 C 158.927 112.435,158.435 112.927,157.737 112.348 C 157.325 112.006,157.200 112.053,157.200 112.551 C 157.200 112.977,156.856 113.200,156.200 113.200 C 155.420 113.200,155.200 113.405,155.200 114.130 C 155.200 114.642,154.756 115.478,154.212 115.988 C 153.669 116.499,153.337 117.098,153.474 117.320 C 153.611 117.542,153.542 117.611,153.320 117.474 C 153.098 117.337,152.499 117.669,151.988 118.212 C 151.419 118.818,150.616 119.200,149.911 119.200 C 149.199 119.200,148.409 119.580,147.835 120.200 C 146.004 122.176,138.054 121.528,138.019 119.400 C 138.015 119.180,138.187 119.270,138.400 119.600 C 138.714 120.086,138.789 120.031,138.794 119.309 C 138.797 118.796,138.376 118.141,137.800 117.763 C 136.865 117.151,136.800 116.890,136.800 113.763 C 136.800 110.637,136.735 110.376,135.800 109.763 C 134.846 109.138,134.800 108.928,134.800 105.191 C 134.800 101.550,134.747 101.289,134.045 101.472 C 132.877 101.778,132.631 100.917,132.751 96.938 C 132.857 93.450,132.822 93.269,132.077 93.464 C 130.875 93.778,130.630 92.942,130.751 88.938 C 130.857 85.450,130.822 85.269,130.077 85.464 C 128.874 85.779,128.630 84.941,128.752 80.909 C 128.851 77.653,128.787 77.230,128.227 77.445 C 127.155 77.856,126.471 76.924,126.685 75.341 C 126.797 74.508,126.722 74.001,126.506 74.135 C 126.301 74.261,126.133 74.103,126.133 73.782 C 126.133 73.462,126.283 73.200,126.467 73.200 C 127.319 73.200,126.777 70.403,125.800 69.763 C 124.921 69.187,124.800 68.824,124.800 66.754 C 124.800 65.364,124.627 64.400,124.376 64.400 C 124.143 64.400,124.067 64.175,124.206 63.900 C 124.345 63.625,124.176 63.749,123.830 64.176 C 123.212 64.938,123.200 64.936,123.200 64.076 C 123.200 63.594,123.057 63.200,122.883 63.200 C 122.709 63.200,122.616 61.418,122.676 59.239 C 122.779 55.540,122.737 55.291,122.038 55.474 C 121.005 55.744,120.688 55.054,120.674 52.510 C 120.665 50.674,120.515 50.232,119.731 49.718 C 118.987 49.230,118.794 48.736,118.772 47.254 C 118.751 45.850,118.660 45.594,118.400 46.200 C 118.211 46.640,118.044 46.764,118.028 46.476 C 118.011 46.166,117.796 46.075,117.500 46.253 C 117.211 46.427,117.253 46.239,117.600 45.807 C 118.150 45.124,118.133 45.079,117.400 45.268 C 116.663 45.458,116.611 45.307,116.735 43.365 C 116.863 41.377,116.822 41.269,116.012 41.481 C 115.360 41.651,115.097 41.492,114.922 40.822 C 114.795 40.336,114.265 39.777,113.745 39.579 C 113.068 39.322,112.798 38.905,112.794 38.110 C 112.790 37.375,112.677 37.175,112.459 37.518 C 112.213 37.907,111.793 37.706,110.783 36.718 C 110.043 35.993,109.608 35.678,109.818 36.019 C 110.028 36.359,109.885 36.294,109.500 35.875 C 109.115 35.455,108.800 34.861,108.800 34.556 C 108.800 34.248,108.398 33.997,107.900 33.994 C 107.153 33.989,107.102 33.915,107.600 33.559 C 108.086 33.212,108.034 33.167,107.330 33.320 C 106.706 33.456,106.520 33.352,106.673 32.955 C 106.790 32.650,106.676 32.400,106.419 32.400 C 106.163 32.400,106.063 32.222,106.197 32.005 C 106.337 31.778,106.177 31.711,105.821 31.847 C 105.479 31.978,105.200 31.925,105.200 31.728 C 105.200 31.532,104.601 31.391,103.869 31.415 C 102.661 31.455,102.550 31.364,102.674 30.430 C 102.795 29.519,102.767 29.493,102.434 30.200 C 102.226 30.640,102.044 30.764,102.028 30.476 C 102.011 30.166,101.796 30.075,101.500 30.253 C 101.160 30.457,101.176 30.337,101.549 29.877 C 102.020 29.296,102.010 29.200,101.478 29.200 C 101.138 29.200,100.776 29.515,100.676 29.900 C 100.504 30.556,100.490 30.555,100.446 29.887 C 100.407 29.290,100.110 29.202,98.600 29.341 C 96.819 29.506,96.800 29.495,96.772 28.254 C 96.748 27.191,96.691 27.122,96.400 27.800 C 96.211 28.240,96.044 28.364,96.028 28.076 C 96.013 27.788,95.820 27.664,95.600 27.800 C 95.380 27.936,95.200 27.861,95.200 27.634 C 95.200 27.355,94.866 27.347,94.177 27.609 C 93.531 27.854,93.242 27.856,93.392 27.614 C 93.715 27.090,90.284 27.263,89.900 27.789 C 89.700 28.062,89.495 28.037,89.286 27.715 C 89.043 27.341,81.864 27.238,57.986 27.268 L 27.000 27.306 26.141 28.227 M274.819 79.600 C 274.838 79.244,274.995 79.358,275.205 79.881 C 275.424 80.424,275.836 80.712,276.280 80.633 C 276.676 80.562,277.450 80.964,278.000 81.525 C 278.550 82.087,278.722 82.379,278.381 82.173 C 277.791 81.817,278.258 82.254,279.907 83.600 C 280.311 83.930,280.443 84.110,280.200 84.000 C 279.957 83.890,280.089 84.070,280.493 84.400 C 282.144 85.748,282.615 86.190,282.198 86.000 C 281.956 85.890,282.089 86.070,282.493 86.400 C 284.144 87.748,284.615 88.190,284.198 88.000 C 283.956 87.890,284.089 88.070,284.493 88.400 C 286.144 89.748,286.615 90.190,286.198 90.000 C 285.956 89.890,286.089 90.070,286.493 90.400 C 288.144 91.748,288.615 92.190,288.198 92.000 C 287.956 91.890,288.089 92.070,288.493 92.400 C 290.144 93.748,290.615 94.190,290.198 94.000 C 289.956 93.890,290.089 94.070,290.493 94.400 C 292.144 95.748,292.615 96.190,292.198 96.000 C 291.956 95.890,292.089 96.070,292.493 96.400 C 294.144 97.748,294.615 98.190,294.198 98.000 C 293.956 97.890,294.089 98.070,294.493 98.400 C 296.144 99.748,296.615 100.190,296.198 100.000 C 295.956 99.890,296.089 100.070,296.493 100.400 C 298.144 101.748,298.615 102.190,298.198 102.000 C 297.956 101.890,298.089 102.070,298.493 102.400 C 300.144 103.748,300.615 104.190,300.198 104.000 C 299.956 103.890,300.089 104.070,300.493 104.400 C 302.144 105.748,302.615 106.190,302.198 106.000 C 301.956 105.890,302.089 106.070,302.493 106.400 C 304.144 107.748,304.615 108.190,304.198 108.000 C 303.956 107.890,304.089 108.070,304.493 108.400 C 306.144 109.748,306.615 110.190,306.198 110.000 C 305.956 109.890,306.089 110.070,306.493 110.400 C 308.144 111.748,308.615 112.190,308.198 112.000 C 307.956 111.890,308.089 112.070,308.493 112.400 C 310.141 113.745,310.616 114.190,310.200 114.000 C 309.784 113.810,310.259 114.255,311.907 115.600 C 312.311 115.930,312.443 116.110,312.200 116.000 C 311.957 115.890,312.089 116.070,312.493 116.400 C 314.144 117.748,314.615 118.190,314.198 118.000 C 313.956 117.890,314.089 118.070,314.493 118.400 C 316.141 119.745,316.616 120.190,316.200 120.000 C 315.959 119.890,316.086 120.099,316.481 120.464 C 316.877 120.829,317.200 121.189,317.200 121.264 C 317.200 121.339,310.495 121.362,302.300 121.316 L 287.400 121.232 287.040 120.266 C 286.681 119.301,285.040 118.889,284.572 119.646 C 284.311 120.068,282.604 118.543,282.591 117.877 C 282.586 117.615,282.292 117.448,281.937 117.507 C 281.348 117.605,280.735 116.807,280.626 115.800 C 280.602 115.580,280.292 115.448,279.937 115.507 C 279.348 115.605,278.735 114.807,278.626 113.800 C 278.602 113.580,278.292 113.448,277.937 113.507 C 277.348 113.605,276.735 112.807,276.626 111.800 C 276.602 111.580,276.292 111.448,275.937 111.507 C 275.348 111.605,274.735 110.807,274.626 109.800 C 274.602 109.580,274.292 109.448,273.937 109.507 C 273.348 109.605,272.735 108.807,272.626 107.800 C 272.602 107.580,272.292 107.448,271.937 107.507 C 271.348 107.605,270.735 106.807,270.626 105.800 C 270.602 105.580,270.292 105.448,269.937 105.507 C 269.348 105.605,268.735 104.807,268.626 103.800 C 268.602 103.580,268.292 103.448,267.937 103.507 C 267.348 103.605,266.735 102.807,266.626 101.800 C 266.602 101.580,266.292 101.448,265.937 101.507 C 265.348 101.605,264.735 100.807,264.626 99.800 C 264.602 99.580,264.292 99.448,263.937 99.507 C 263.348 99.605,262.735 98.807,262.626 97.800 C 262.602 97.580,262.292 97.448,261.937 97.507 C 261.348 97.605,260.735 96.807,260.626 95.800 C 260.602 95.580,260.292 95.448,259.937 95.507 C 259.582 95.566,259.179 95.321,259.041 94.963 C 258.877 94.534,258.965 94.378,259.298 94.505 C 259.863 94.722,260.889 93.823,260.509 93.443 C 260.376 93.309,260.522 93.197,260.833 93.194 C 261.302 93.189,261.296 93.114,260.800 92.759 C 260.306 92.407,260.344 92.362,261.012 92.505 C 261.835 92.681,262.954 91.888,262.509 91.443 C 262.376 91.309,262.522 91.197,262.833 91.194 C 263.302 91.189,263.296 91.114,262.800 90.759 C 262.306 90.407,262.344 90.362,263.012 90.505 C 263.835 90.681,264.954 89.888,264.509 89.443 C 264.376 89.309,264.522 89.197,264.833 89.194 C 265.302 89.189,265.296 89.114,264.800 88.759 C 264.306 88.407,264.344 88.362,265.012 88.505 C 265.835 88.681,266.954 87.888,266.509 87.443 C 266.376 87.309,266.522 87.197,266.833 87.194 C 267.302 87.189,267.296 87.114,266.800 86.759 C 266.306 86.407,266.344 86.362,267.012 86.505 C 267.835 86.681,268.954 85.888,268.509 85.443 C 268.376 85.309,268.477 85.200,268.733 85.200 C 268.990 85.200,269.200 84.930,269.200 84.600 C 269.200 84.059,269.675 83.822,270.500 83.953 C 270.665 83.979,270.800 83.834,270.800 83.631 C 270.800 83.428,271.354 82.708,272.031 82.031 C 272.736 81.326,273.035 80.788,272.731 80.773 C 272.439 80.758,272.605 80.551,273.100 80.312 C 273.595 80.073,274.003 79.680,274.006 79.439 C 274.009 79.197,274.187 79.270,274.400 79.600 C 274.745 80.133,274.791 80.133,274.819 79.600 M218.159 80.467 C 218.045 80.650,218.213 80.800,218.532 80.800 C 218.851 80.800,219.455 81.115,219.875 81.500 C 220.294 81.885,220.440 82.110,220.198 82.000 C 219.956 81.890,220.089 82.070,220.493 82.400 C 222.144 83.748,222.615 84.190,222.198 84.000 C 221.956 83.890,222.089 84.070,222.493 84.400 C 224.144 85.748,224.615 86.190,224.198 86.000 C 223.956 85.890,224.089 86.070,224.493 86.400 C 226.144 87.748,226.615 88.190,226.198 88.000 C 225.956 87.890,226.089 88.070,226.493 88.400 C 228.144 89.748,228.615 90.190,228.198 90.000 C 227.956 89.890,228.089 90.070,228.493 90.400 C 230.144 91.748,230.615 92.190,230.198 92.000 C 229.956 91.890,230.089 92.070,230.493 92.400 C 232.144 93.748,232.615 94.190,232.198 94.000 C 231.956 93.890,232.089 94.070,232.493 94.400 C 234.141 95.745,234.616 96.190,234.200 96.000 C 233.784 95.810,234.259 96.255,235.907 97.600 C 236.311 97.930,236.443 98.110,236.200 98.000 C 235.957 97.890,236.089 98.070,236.493 98.400 C 238.144 99.748,238.615 100.190,238.198 100.000 C 237.956 99.890,238.089 100.070,238.493 100.400 C 240.144 101.748,240.615 102.190,240.198 102.000 C 239.956 101.890,240.089 102.070,240.493 102.400 C 242.144 103.748,242.615 104.190,242.198 104.000 C 241.956 103.890,242.089 104.070,242.493 104.400 C 244.144 105.748,244.615 106.190,244.198 106.000 C 243.956 105.890,244.089 106.070,244.493 106.400 C 246.144 107.748,246.615 108.190,246.198 108.000 C 245.956 107.890,246.089 108.070,246.493 108.400 C 248.144 109.748,248.615 110.190,248.198 110.000 C 247.956 109.890,248.089 110.070,248.493 110.400 C 250.144 111.748,250.615 112.190,250.198 112.000 C 249.956 111.890,250.089 112.070,250.493 112.400 C 252.141 113.745,252.616 114.190,252.200 114.000 C 251.784 113.810,252.259 114.255,253.907 115.600 C 254.311 115.930,254.443 116.110,254.200 116.000 C 253.957 115.890,254.089 116.070,254.493 116.400 C 256.144 117.748,256.615 118.190,256.198 118.000 C 255.956 117.890,256.089 118.070,256.493 118.400 C 258.141 119.745,258.616 120.190,258.200 120.000 C 257.959 119.890,258.106 120.115,258.525 120.500 C 259.253 121.167,257.343 121.199,217.944 121.168 C 195.205 121.151,176.867 121.032,177.193 120.904 C 177.997 120.589,178.800 119.751,178.800 119.229 C 178.800 118.993,178.993 118.800,179.229 118.800 C 179.464 118.800,179.914 118.543,180.229 118.229 C 180.543 117.914,180.800 117.464,180.800 117.229 C 180.800 116.993,180.993 116.800,181.229 116.800 C 181.464 116.800,181.914 116.543,182.229 116.229 C 182.543 115.914,182.800 115.464,182.800 115.229 C 182.800 114.993,182.993 114.800,183.229 114.800 C 183.464 114.800,183.914 114.543,184.229 114.229 C 184.543 113.914,184.800 113.464,184.800 113.229 C 184.800 112.993,184.993 112.800,185.229 112.800 C 185.464 112.800,185.914 112.543,186.229 112.229 C 186.543 111.914,186.800 111.464,186.800 111.229 C 186.800 110.993,186.993 110.800,187.229 110.800 C 187.464 110.800,187.914 110.543,188.229 110.229 C 188.543 109.914,188.800 109.464,188.800 109.229 C 188.800 108.993,188.993 108.800,189.229 108.800 C 189.782 108.800,190.800 107.782,190.800 107.229 C 190.800 106.993,190.993 106.800,191.229 106.800 C 191.464 106.800,191.914 106.543,192.229 106.229 C 192.543 105.914,192.800 105.464,192.800 105.229 C 192.800 104.993,192.993 104.800,193.229 104.800 C 193.464 104.800,193.914 104.543,194.229 104.229 C 194.543 103.914,194.800 103.464,194.800 103.229 C 194.800 102.993,194.993 102.800,195.229 102.800 C 195.782 102.800,196.800 101.782,196.800 101.229 C 196.800 100.993,196.993 100.800,197.229 100.800 C 197.782 100.800,198.800 99.782,198.800 99.229 C 198.800 98.993,198.993 98.800,199.229 98.800 C 199.782 98.800,200.800 97.782,200.800 97.229 C 200.800 96.993,200.993 96.800,201.229 96.800 C 201.782 96.800,202.800 95.782,202.800 95.229 C 202.800 94.993,202.993 94.800,203.229 94.800 C 203.782 94.800,204.800 93.782,204.800 93.229 C 204.800 92.993,204.993 92.800,205.229 92.800 C 205.782 92.800,206.800 91.782,206.800 91.229 C 206.800 90.993,206.993 90.800,207.229 90.800 C 207.782 90.800,208.800 89.782,208.800 89.229 C 208.800 88.993,208.993 88.800,209.229 88.800 C 209.782 88.800,210.800 87.782,210.800 87.229 C 210.800 86.993,210.993 86.800,211.229 86.800 C 211.782 86.800,212.800 85.782,212.800 85.229 C 212.800 84.993,212.993 84.800,213.229 84.800 C 213.782 84.800,214.800 83.782,214.800 83.229 C 214.800 82.993,214.993 82.800,215.229 82.800 C 215.967 82.800,216.888 81.607,216.643 80.969 C 216.510 80.621,216.579 80.464,216.805 80.603 C 217.022 80.737,217.200 80.687,217.200 80.490 C 217.200 80.294,217.462 80.133,217.782 80.133 C 218.103 80.133,218.272 80.283,218.159 80.467 M345.200 139.224 C 345.200 139.457,345.398 139.525,345.640 139.375 C 345.950 139.184,345.965 139.325,345.690 139.852 C 345.476 140.263,345.323 141.140,345.350 141.800 C 345.380 142.527,345.122 143.208,344.693 143.527 C 344.305 143.817,344.090 144.222,344.217 144.427 C 344.344 144.632,344.122 144.813,343.724 144.828 C 343.027 144.855,343.027 144.867,343.721 145.141 C 344.386 145.403,344.363 145.519,343.422 146.613 C 342.860 147.266,342.401 147.658,342.400 147.484 C 342.400 147.311,342.166 147.387,341.880 147.654 C 341.206 148.284,341.072 149.723,341.724 149.332 C 342.080 149.119,342.089 149.192,341.760 149.623 C 341.518 149.940,341.338 150.948,341.360 151.862 C 341.382 152.776,341.310 153.475,341.200 153.415 C 341.090 153.355,340.589 153.732,340.086 154.253 C 339.583 154.774,339.380 155.200,339.635 155.200 C 339.972 155.200,339.964 155.362,339.605 155.794 C 339.333 156.121,339.185 157.021,339.275 157.793 C 339.406 158.914,339.283 159.247,338.667 159.442 C 338.124 159.615,338.039 159.777,338.381 159.988 C 338.715 160.195,338.605 160.358,338.032 160.507 C 337.489 160.649,337.278 160.938,337.429 161.332 C 337.687 162.005,336.920 163.719,336.480 163.453 C 335.890 163.097,335.401 164.272,335.419 166.000 C 335.445 168.422,335.222 169.200,334.504 169.200 C 334.046 169.200,334.008 169.328,334.348 169.737 C 334.927 170.435,334.435 170.927,333.737 170.348 C 333.069 169.793,333.002 170.483,333.614 171.626 C 333.878 172.119,333.885 172.400,333.635 172.400 C 333.418 172.400,333.303 173.030,333.377 173.800 C 333.452 174.570,333.352 175.200,333.156 175.200 C 332.960 175.200,332.800 175.500,332.800 175.867 C 332.800 176.233,332.691 176.424,332.557 176.291 C 332.145 175.879,331.311 176.938,331.494 177.640 C 331.591 178.008,331.161 178.821,330.529 179.468 C 329.591 180.428,329.380 181.006,329.334 182.742 C 329.300 184.047,329.035 185.120,328.639 185.557 C 328.286 185.947,328.119 186.385,328.266 186.532 C 328.413 186.680,328.272 186.800,327.953 186.800 C 327.514 186.800,327.375 187.337,327.386 189.000 C 327.398 190.874,327.176 191.543,326.690 191.100 C 326.298 190.743,325.338 192.383,325.260 193.543 C 325.203 194.384,324.809 195.271,324.270 195.770 C 323.548 196.439,323.377 197.026,323.388 198.800 C 323.397 200.448,323.223 201.132,322.693 201.527 C 322.305 201.817,322.090 202.222,322.217 202.427 C 322.344 202.632,322.122 202.813,321.724 202.828 C 321.046 202.854,321.047 202.875,321.749 203.151 C 322.418 203.413,322.433 203.509,321.892 204.051 C 321.543 204.400,321.332 205.196,321.394 205.929 C 321.481 206.957,321.354 207.200,320.727 207.200 C 320.301 207.200,320.051 207.360,320.172 207.555 C 320.293 207.750,320.123 208.132,319.796 208.404 C 319.468 208.676,319.200 209.408,319.200 210.031 C 319.200 210.706,318.796 211.568,318.200 212.164 C 317.169 213.194,316.864 213.855,317.640 213.375 C 317.950 213.184,317.965 213.325,317.690 213.852 C 317.476 214.263,317.323 215.140,317.350 215.800 C 317.380 216.527,317.122 217.208,316.693 217.527 C 316.305 217.817,316.090 218.222,316.217 218.427 C 316.344 218.632,316.122 218.813,315.724 218.828 C 315.046 218.854,315.047 218.875,315.749 219.151 C 316.418 219.413,316.433 219.509,315.892 220.051 C 315.543 220.400,315.332 221.196,315.394 221.929 C 315.484 222.989,315.160 223.528,314.690 223.100 C 314.545 222.967,313.274 224.143,313.286 224.400 C 313.369 226.235,313.053 227.383,312.242 228.194 C 311.716 228.721,311.341 229.207,311.410 229.276 C 311.479 229.344,308.554 229.354,304.912 229.297 C 300.436 229.228,298.112 229.341,297.744 229.646 C 297.338 229.983,297.052 229.975,296.618 229.615 C 295.936 229.049,295.060 229.438,295.462 230.128 C 295.614 230.387,295.392 230.302,294.969 229.937 C 294.310 229.370,294.126 229.356,293.684 229.837 C 293.401 230.147,293.302 230.400,293.464 230.400 C 293.627 230.400,293.550 230.610,293.293 230.867 C 293.036 231.124,291.965 231.315,290.913 231.293 C 288.498 231.242,287.501 231.516,287.879 232.129 C 288.038 232.388,287.724 232.309,287.180 231.953 C 286.199 231.312,285.446 231.571,285.297 232.600 C 285.266 232.820,284.692 233.112,284.022 233.249 C 283.353 233.386,282.562 233.699,282.266 233.946 C 281.969 234.192,281.608 234.275,281.463 234.130 C 281.318 233.985,281.200 234.147,281.200 234.491 C 281.200 235.233,280.594 235.494,279.100 235.396 C 278.495 235.356,278.000 235.476,278.000 235.662 C 278.000 235.848,277.730 236.000,277.400 236.000 C 277.070 236.000,276.800 235.811,276.800 235.579 C 276.800 235.348,276.374 235.618,275.854 236.179 C 275.334 236.741,274.524 237.200,274.054 237.200 C 273.584 237.200,273.200 237.402,273.200 237.649 C 273.200 237.960,273.046 237.972,272.700 237.689 C 272.267 237.335,270.737 238.292,271.100 238.690 C 271.511 239.141,271.025 239.456,270.170 239.292 C 269.447 239.154,269.164 239.259,269.218 239.648 C 269.386 240.853,269.158 241.200,268.200 241.200 C 267.650 241.200,267.186 241.425,267.168 241.700 C 267.145 242.068,267.086 242.075,266.943 241.725 C 266.739 241.223,265.200 242.478,265.200 243.148 C 265.200 243.339,264.885 243.474,264.500 243.448 C 264.115 243.422,263.785 243.490,263.768 243.600 C 263.635 244.417,262.678 245.572,262.318 245.349 C 262.051 245.184,261.990 245.260,262.164 245.541 C 262.324 245.801,262.175 246.111,261.825 246.246 C 261.481 246.378,261.200 246.821,261.200 247.230 C 261.200 247.710,260.997 247.897,260.631 247.756 C 260.127 247.563,259.566 248.181,259.139 249.397 C 259.063 249.616,258.784 249.745,258.521 249.685 C 258.089 249.585,257.492 250.333,257.151 251.400 C 257.081 251.620,256.803 251.749,256.533 251.687 C 256.094 251.586,255.534 252.274,255.139 253.397 C 255.063 253.616,254.784 253.745,254.521 253.685 C 253.939 253.551,253.113 254.968,253.514 255.412 C 253.671 255.586,253.575 255.599,253.299 255.440 C 253.000 255.268,252.356 255.614,251.699 256.301 C 251.095 256.933,250.240 257.439,249.800 257.425 C 249.360 257.411,248.868 257.580,248.706 257.800 C 248.533 258.035,248.407 257.953,248.400 257.600 C 248.389 257.067,248.341 257.067,247.963 257.600 C 247.644 258.052,247.489 258.076,247.336 257.700 C 247.003 256.878,174.971 256.977,174.655 257.800 C 174.529 258.130,174.209 258.400,173.946 258.400 C 173.682 258.400,173.576 258.291,173.709 258.158 C 173.842 258.025,173.515 257.512,172.982 257.018 C 172.449 256.524,172.140 255.994,172.294 255.839 C 172.449 255.684,172.289 255.668,171.939 255.802 C 170.964 256.176,170.682 254.994,170.777 250.929 C 170.858 247.456,170.820 247.270,170.077 247.464 C 168.877 247.778,168.630 246.942,168.750 242.974 C 168.859 239.386,168.846 239.331,167.930 239.365 C 167.027 239.399,166.994 239.279,166.778 235.200 C 166.656 232.890,166.521 231.315,166.478 231.700 C 166.435 232.085,166.260 232.400,166.089 232.400 C 165.001 232.400,164.598 230.864,164.672 227.000 C 164.715 224.800,164.657 223.315,164.545 223.700 C 163.775 226.344,162.589 223.367,162.672 219.000 C 162.715 216.800,162.657 215.315,162.545 215.700 C 161.775 218.344,160.589 215.367,160.672 211.000 C 160.715 208.800,160.657 207.315,160.545 207.700 C 159.777 210.336,158.584 207.368,158.689 203.084 C 158.775 199.549,158.721 199.205,158.125 199.538 C 156.876 200.237,156.576 199.278,156.735 195.097 C 156.877 191.374,156.840 191.138,156.176 191.509 C 154.870 192.240,154.574 191.335,154.735 187.097 C 154.877 183.374,154.840 183.138,154.176 183.509 C 152.870 184.240,152.574 183.335,152.735 179.097 C 152.877 175.374,152.840 175.138,152.176 175.509 C 150.870 176.240,150.574 175.335,150.735 171.097 C 150.877 167.374,150.840 167.138,150.176 167.509 C 148.870 168.240,148.574 167.335,148.735 163.097 C 148.877 159.374,148.840 159.138,148.176 159.509 C 146.890 160.229,146.562 159.322,146.707 155.435 C 146.803 152.840,146.723 151.972,146.427 152.400 C 146.199 152.730,145.996 152.910,145.976 152.800 C 145.955 152.690,145.878 152.285,145.805 151.900 C 145.728 151.501,145.913 151.200,146.235 151.200 C 147.117 151.200,146.900 150.484,145.800 149.763 C 144.865 149.151,144.800 148.890,144.800 145.763 C 144.800 142.637,144.735 142.376,143.800 141.763 C 143.116 141.315,142.800 140.744,142.800 139.954 L 142.800 138.800 244.000 138.800 C 314.960 138.800,345.200 138.927,345.200 139.224 M317.733 247.804 C 318.547 248.909,319.200 249.101,319.200 248.235 C 319.200 247.913,319.501 247.728,319.900 247.805 C 320.285 247.878,320.690 247.955,320.800 247.976 C 320.910 247.996,320.730 248.187,320.400 248.400 C 319.979 248.672,320.593 248.790,322.454 248.794 C 324.849 248.799,325.173 248.899,325.771 249.812 C 326.190 250.451,326.760 250.797,327.317 250.750 C 329.309 250.582,331.200 250.828,331.200 251.256 C 331.200 252.021,332.528 252.774,333.900 252.787 C 334.783 252.796,335.200 252.992,335.200 253.400 C 335.200 253.730,335.366 254.000,335.569 254.000 C 335.772 254.000,336.524 254.585,337.240 255.300 C 337.955 256.015,338.914 256.622,339.370 256.649 C 339.827 256.677,340.425 256.722,340.700 256.749 C 340.975 256.777,341.200 257.250,341.200 257.800 C 341.200 258.600,341.400 258.800,342.200 258.800 C 342.856 258.800,343.200 259.023,343.200 259.449 C 343.200 260.008,343.294 260.022,343.877 259.549 C 344.337 259.176,344.457 259.160,344.253 259.500 C 344.075 259.796,344.166 260.011,344.476 260.028 C 344.764 260.044,344.640 260.226,344.200 260.434 C 343.511 260.759,343.551 260.791,344.488 260.663 C 345.086 260.582,345.499 260.640,345.405 260.793 C 345.083 261.313,346.475 262.857,347.062 262.631 C 347.381 262.509,347.550 262.558,347.437 262.739 C 347.092 263.299,348.441 264.870,349.062 264.631 C 349.383 264.508,349.533 264.584,349.399 264.801 C 349.266 265.017,349.617 265.653,350.178 266.215 C 350.740 266.777,351.200 267.430,351.200 267.667 C 351.200 267.928,351.466 267.882,351.877 267.549 C 352.337 267.176,352.457 267.160,352.253 267.500 C 352.075 267.796,352.166 268.011,352.476 268.028 C 352.764 268.044,352.640 268.211,352.200 268.400 C 351.437 268.728,351.441 268.745,352.300 268.772 C 352.877 268.790,353.202 269.051,353.206 269.500 C 353.211 270.098,353.269 270.113,353.600 269.600 C 353.917 269.110,353.989 269.156,353.994 269.853 C 353.997 270.339,354.314 270.789,354.729 270.897 C 355.300 271.047,355.451 271.467,355.429 272.844 C 355.403 274.406,355.511 274.623,356.400 274.806 C 357.128 274.956,357.387 275.256,357.352 275.906 C 357.314 276.618,357.520 276.800,358.363 276.800 C 359.387 276.800,359.419 276.871,359.340 278.952 C 359.253 281.229,360.052 283.019,360.993 282.658 C 361.366 282.515,361.454 282.832,361.319 283.831 C 361.159 285.022,361.246 285.200,361.994 285.200 C 362.672 285.200,362.800 285.369,362.600 286.000 C 362.426 286.548,362.528 286.800,362.924 286.800 C 363.333 286.800,363.469 287.181,363.389 288.100 C 363.327 288.815,363.461 289.625,363.687 289.900 C 363.966 290.239,363.967 290.400,363.689 290.400 C 362.949 290.400,363.199 293.198,363.940 293.213 C 364.522 293.224,364.515 293.290,363.873 293.776 C 362.917 294.502,362.952 294.891,364.012 295.283 C 364.564 295.487,364.799 295.825,364.654 296.203 C 364.528 296.531,364.644 296.800,364.913 296.800 C 365.275 296.799,365.400 298.391,365.400 302.999 C 365.400 307.871,365.287 309.199,364.871 309.199 C 364.118 309.200,362.961 310.389,363.671 310.432 C 364.093 310.457,364.089 310.507,363.655 310.680 C 363.194 310.863,363.194 310.952,363.655 311.248 C 364.108 311.541,364.099 311.666,363.600 311.994 C 363.067 312.344,363.067 312.389,363.600 312.400 C 364.035 312.409,364.066 312.497,363.715 312.720 C 363.385 312.930,363.271 314.011,363.358 316.114 C 363.428 317.811,363.332 319.200,363.143 319.200 C 362.954 319.200,362.800 319.500,362.800 319.867 C 362.800 320.233,362.689 320.422,362.552 320.286 C 362.103 319.837,361.110 321.213,361.316 322.000 C 361.427 322.424,361.266 322.979,360.959 323.234 C 360.651 323.489,360.400 323.579,360.400 323.433 C 360.400 323.288,360.168 323.385,359.885 323.650 C 359.553 323.959,359.394 325.034,359.439 326.665 L 359.508 329.200 358.354 329.200 C 357.442 329.200,357.200 329.379,357.200 330.054 C 357.200 330.524,356.750 331.325,356.200 331.835 C 355.555 332.433,355.200 333.194,355.200 333.981 C 355.200 335.015,355.048 335.200,354.200 335.200 C 353.400 335.200,353.200 335.400,353.200 336.200 C 353.200 336.856,352.977 337.200,352.551 337.200 C 352.053 337.200,352.006 337.325,352.348 337.737 C 352.927 338.435,352.435 338.927,351.737 338.348 C 351.336 338.015,351.200 338.030,351.200 338.405 C 351.200 338.682,350.740 339.335,350.177 339.856 C 349.615 340.377,349.256 340.967,349.379 341.167 C 349.503 341.366,349.295 341.484,348.916 341.429 C 348.190 341.322,347.178 342.024,347.438 342.455 C 347.522 342.595,347.323 342.932,346.996 343.204 C 346.668 343.476,346.400 343.579,346.400 343.433 C 346.400 343.288,346.149 343.401,345.842 343.684 C 345.535 343.968,345.367 344.337,345.468 344.503 C 345.569 344.670,345.249 344.956,344.757 345.138 C 344.158 345.359,344.020 345.565,344.338 345.762 C 344.599 345.923,344.704 346.232,344.571 346.447 C 344.419 346.694,344.120 346.665,343.764 346.370 C 343.318 346.000,343.200 346.038,343.200 346.551 C 343.200 346.977,342.856 347.200,342.200 347.200 C 341.412 347.200,341.200 347.403,341.200 348.157 C 341.200 349.209,340.724 349.503,339.183 349.400 C 338.151 349.331,337.337 349.872,337.378 350.600 C 337.390 350.820,336.891 351.058,336.269 351.130 C 335.553 351.212,335.209 351.446,335.332 351.766 C 335.656 352.611,335.027 353.189,333.604 353.355 C 332.431 353.491,331.200 354.436,331.200 355.199 C 331.200 355.335,330.620 355.406,329.911 355.357 C 329.202 355.308,328.280 355.450,327.863 355.674 C 327.322 355.963,327.182 355.953,327.375 355.640 C 327.847 354.876,327.201 355.162,326.206 356.158 C 325.679 356.684,325.320 357.187,325.408 357.275 C 325.496 357.362,324.558 357.370,323.324 357.291 C 321.773 357.192,320.977 357.310,320.746 357.674 C 320.482 358.090,320.410 358.075,320.400 357.600 C 320.389 357.067,320.344 357.067,319.994 357.600 C 319.659 358.110,319.546 358.116,319.238 357.638 C 318.946 357.184,318.687 357.280,317.892 358.138 L 316.908 359.200 310.454 359.200 C 305.561 359.200,303.999 359.321,303.994 359.700 C 303.990 360.022,303.883 360.053,303.694 359.786 C 303.532 359.559,302.500 359.379,301.400 359.386 C 299.783 359.397,299.257 359.223,298.652 358.476 C 298.240 357.967,297.655 357.647,297.352 357.763 C 297.048 357.880,296.800 357.825,296.800 357.643 C 296.800 357.460,295.462 357.340,293.826 357.375 C 292.190 357.411,290.942 357.294,291.051 357.117 C 291.161 356.940,290.970 356.687,290.628 356.555 C 290.285 356.424,290.121 356.127,290.264 355.896 C 290.417 355.649,290.331 355.595,290.055 355.766 C 289.798 355.925,289.691 356.223,289.817 356.428 C 289.944 356.632,289.840 356.800,289.586 356.800 C 289.333 356.800,289.027 356.424,288.907 355.964 C 288.748 355.356,288.445 355.175,287.799 355.298 C 287.311 355.391,286.914 355.273,286.918 355.034 C 286.945 353.513,286.790 353.394,284.853 353.447 C 283.639 353.481,282.909 353.331,282.916 353.050 C 282.953 351.405,282.809 351.217,281.800 351.600 C 281.149 351.848,280.800 351.841,280.800 351.582 C 280.800 351.363,280.386 351.259,279.879 351.351 C 279.105 351.492,278.962 351.350,278.979 350.459 C 278.997 349.569,278.829 349.402,277.930 349.413 C 277.341 349.421,276.932 349.310,277.020 349.167 C 277.287 348.736,275.683 347.501,275.225 347.784 C 274.991 347.929,274.800 347.857,274.800 347.624 C 274.800 347.391,274.443 347.200,274.008 347.200 C 273.488 347.200,273.125 346.842,272.955 346.162 C 272.786 345.490,272.590 345.293,272.397 345.605 C 272.181 345.955,272.024 345.963,271.822 345.636 C 271.670 345.389,271.373 345.293,271.162 345.423 C 270.952 345.553,270.806 345.511,270.837 345.330 C 270.869 345.148,270.851 344.865,270.797 344.700 C 270.744 344.535,270.673 344.175,270.641 343.900 C 270.609 343.625,270.292 343.448,269.937 343.507 C 269.348 343.605,268.735 342.807,268.626 341.800 C 268.602 341.580,268.290 341.449,267.933 341.508 C 267.512 341.578,267.124 341.157,266.828 340.308 C 266.463 339.263,266.295 339.121,265.992 339.600 C 265.717 340.035,265.611 340.056,265.606 339.676 C 265.603 339.388,265.436 339.254,265.235 339.378 C 265.034 339.502,264.919 339.288,264.978 338.902 C 265.038 338.516,264.887 338.065,264.643 337.900 C 264.327 337.686,264.346 337.505,264.709 337.271 C 265.098 337.019,265.022 336.763,264.385 336.186 C 263.668 335.538,263.494 335.514,263.141 336.016 C 262.818 336.476,262.770 336.419,262.916 335.744 C 263.018 335.274,262.947 334.644,262.757 334.344 C 262.504 333.945,262.411 333.933,262.406 334.300 C 262.403 334.575,262.199 334.800,261.953 334.800 C 261.708 334.800,261.593 334.468,261.700 334.063 C 261.816 333.616,261.592 333.138,261.131 332.850 C 260.712 332.588,260.469 332.212,260.591 332.015 C 260.713 331.817,260.643 331.550,260.434 331.421 C 260.226 331.292,259.941 331.371,259.802 331.597 C 259.265 332.466,258.262 330.822,258.718 329.820 C 259.396 328.332,259.071 327.406,257.855 327.360 C 256.428 327.306,256.186 326.988,256.705 325.848 C 257.047 325.098,257.003 324.697,256.501 323.980 C 256.149 323.478,256.060 323.190,256.303 323.340 C 256.546 323.490,256.859 323.429,256.998 323.204 C 257.137 322.979,256.970 322.687,256.628 322.555 C 256.285 322.424,256.094 322.172,256.203 321.995 C 256.312 321.819,256.059 321.764,255.640 321.874 C 254.974 322.048,254.890 321.867,254.964 320.417 C 255.012 319.471,254.794 318.399,254.455 317.915 C 254.129 317.449,254.060 317.190,254.303 317.340 C 254.968 317.751,255.250 316.995,254.826 315.937 C 254.548 315.244,254.444 315.182,254.425 315.700 C 254.411 316.085,254.260 316.400,254.089 316.400 C 253.190 316.400,252.607 314.882,252.723 312.843 C 252.790 311.656,252.655 310.495,252.423 310.263 C 251.888 309.728,251.868 309.071,252.396 309.398 C 252.654 309.557,252.759 306.362,252.696 300.221 L 252.600 290.800 253.813 290.800 C 254.885 290.800,255.019 290.672,254.963 289.700 C 254.928 289.095,254.704 288.643,254.464 288.695 C 254.225 288.748,254.132 288.523,254.257 288.195 C 254.383 287.868,254.633 287.600,254.814 287.600 C 254.995 287.600,255.089 286.790,255.023 285.800 C 254.935 284.483,255.049 284.000,255.451 284.000 C 255.753 284.000,256.000 283.820,256.000 283.600 C 256.000 283.380,256.281 283.200,256.624 283.200 C 256.967 283.200,257.134 283.017,256.996 282.793 C 256.858 282.570,256.577 282.491,256.372 282.617 C 255.791 282.976,255.935 282.522,256.619 281.838 C 257.108 281.349,257.144 281.042,256.788 280.378 C 256.121 279.131,256.540 278.500,257.903 278.700 C 259.167 278.886,259.359 278.216,258.648 276.099 C 258.442 275.487,258.547 274.996,258.973 274.570 C 259.323 274.220,259.600 274.139,259.600 274.387 C 259.600 274.679,259.792 274.654,260.158 274.316 C 260.465 274.032,260.634 273.665,260.534 273.500 C 260.435 273.335,260.551 273.200,260.794 273.200 C 261.037 273.200,261.206 272.975,261.170 272.700 C 261.021 271.550,261.252 271.200,262.163 271.200 C 262.950 271.200,263.084 271.044,262.900 270.340 C 262.752 269.774,262.927 269.296,263.414 268.940 C 263.840 268.629,263.939 268.400,263.648 268.400 C 262.912 268.400,263.998 267.381,265.111 267.028 C 265.591 266.876,265.966 266.627,265.945 266.476 C 265.827 265.653,266.069 265.200,266.624 265.200 C 266.998 265.200,267.132 265.013,266.958 264.732 C 266.774 264.434,266.874 264.343,267.236 264.482 C 267.846 264.716,268.912 263.845,268.509 263.443 C 268.376 263.309,268.522 263.197,268.833 263.194 C 269.302 263.189,269.296 263.114,268.800 262.759 C 268.306 262.407,268.344 262.362,269.012 262.505 C 269.458 262.601,270.050 262.436,270.328 262.139 C 270.605 261.843,270.694 261.600,270.527 261.600 C 270.359 261.600,270.622 261.320,271.112 260.977 C 271.601 260.634,272.172 260.459,272.380 260.588 C 272.588 260.716,272.688 260.457,272.602 260.011 C 272.516 259.564,272.660 259.197,272.923 259.194 C 273.266 259.189,273.257 259.097,272.890 258.864 C 272.598 258.679,273.307 258.560,274.546 258.587 C 276.244 258.623,276.665 258.513,276.497 258.076 C 276.243 257.413,277.068 256.815,278.251 256.806 C 278.942 256.801,279.084 256.585,279.005 255.656 C 278.907 254.511,278.908 254.511,280.979 254.686 C 283.041 254.861,283.050 254.856,282.971 253.731 C 282.892 252.605,282.901 252.601,285.048 252.737 C 286.894 252.855,287.168 252.782,286.957 252.232 C 286.821 251.879,286.936 251.318,287.212 250.986 C 287.635 250.476,287.595 250.420,286.957 250.629 C 286.351 250.826,286.317 250.793,286.787 250.461 C 287.189 250.176,287.529 250.175,287.869 250.457 C 288.489 250.972,289.190 250.570,289.232 249.676 C 289.250 249.277,289.344 249.200,289.461 249.490 C 289.609 249.854,289.921 249.808,290.679 249.311 C 291.431 248.819,292.431 248.668,294.484 248.739 C 296.332 248.802,297.182 248.694,297.011 248.418 C 296.835 248.133,297.082 248.127,297.800 248.400 C 298.443 248.644,298.755 248.650,298.609 248.415 C 297.634 246.837,298.970 246.597,308.133 246.704 L 317.000 246.808 317.733 247.804 M302.535 257.591 C 302.060 257.787,301.548 258.333,301.399 258.803 C 301.250 259.273,300.918 259.577,300.662 259.479 C 299.284 258.950,299.207 260.038,299.223 279.576 L 299.239 298.793 298.241 299.869 C 297.692 300.461,297.314 301.060,297.400 301.200 C 297.487 301.341,297.027 301.377,296.379 301.282 C 295.616 301.170,295.200 301.284,295.200 301.604 C 295.200 301.950,295.051 301.976,294.700 301.689 C 294.034 301.144,293.314 301.932,293.401 303.111 C 293.437 303.600,293.260 304.000,293.009 304.000 C 292.757 304.000,292.197 304.330,291.765 304.732 C 291.332 305.135,290.595 305.436,290.126 305.402 C 289.500 305.356,289.310 305.533,289.413 306.068 C 289.540 306.729,288.841 307.394,287.800 307.601 C 287.580 307.644,287.442 307.887,287.494 308.140 C 287.545 308.393,287.383 308.312,287.134 307.960 C 286.669 307.305,285.200 308.207,285.200 309.148 C 285.200 309.339,284.795 309.474,284.300 309.448 C 283.572 309.409,283.404 309.607,283.422 310.483 C 283.440 311.425,283.304 311.550,282.376 311.442 C 281.430 311.332,281.319 311.443,281.401 312.416 C 281.487 313.426,281.399 313.499,280.292 313.324 C 279.268 313.163,279.130 313.240,279.362 313.845 C 279.614 314.501,279.580 314.506,278.917 313.915 C 278.065 313.154,277.299 313.723,277.396 315.045 C 277.436 315.591,277.086 316.032,276.355 316.356 C 275.613 316.684,275.301 317.084,275.397 317.583 C 275.563 318.445,274.300 318.940,273.634 318.274 C 273.322 317.962,273.200 318.158,273.200 318.969 C 273.200 319.979,273.271 320.040,273.877 319.549 C 274.259 319.239,274.431 319.205,274.271 319.471 C 274.104 319.750,274.306 320.043,274.768 320.190 C 275.274 320.350,275.494 320.711,275.396 321.219 C 275.260 321.927,275.629 322.194,276.530 322.037 C 276.711 322.006,276.757 322.146,276.632 322.348 C 276.507 322.551,276.663 322.815,276.980 322.937 C 277.348 323.078,277.488 323.525,277.370 324.179 C 277.261 324.779,277.370 325.200,277.635 325.200 C 277.883 325.200,277.978 325.479,277.847 325.821 C 277.716 326.162,277.772 326.341,277.970 326.218 C 278.169 326.095,278.423 326.221,278.534 326.498 C 278.647 326.778,278.764 326.646,278.799 326.200 C 278.836 325.724,279.057 326.048,279.344 327.000 C 279.621 327.921,280.075 328.600,280.413 328.600 C 281.201 328.600,282.001 330.096,281.425 330.491 C 281.191 330.651,282.395 330.769,284.101 330.754 C 285.847 330.738,287.103 330.567,286.977 330.363 C 286.854 330.163,287.033 330.000,287.376 330.000 C 287.719 330.000,288.001 329.865,288.003 329.700 C 288.008 329.232,290.064 328.393,290.518 328.673 C 290.749 328.816,290.801 328.725,290.639 328.463 C 290.313 327.936,291.334 326.267,291.736 326.669 C 291.881 326.814,292.003 326.678,292.006 326.367 C 292.011 325.898,292.087 325.904,292.444 326.400 C 292.797 326.892,292.830 326.861,292.624 326.232 C 292.335 325.349,292.972 324.815,294.324 324.806 C 294.836 324.803,295.137 324.622,295.000 324.400 C 294.864 324.180,295.033 324.000,295.376 324.000 C 295.719 324.000,296.001 323.865,296.003 323.700 C 296.008 323.232,298.064 322.393,298.518 322.673 C 298.749 322.816,298.801 322.725,298.639 322.463 C 298.313 321.936,299.334 320.267,299.736 320.669 C 299.881 320.814,300.003 320.678,300.006 320.367 C 300.011 319.898,300.087 319.904,300.444 320.400 C 300.797 320.892,300.830 320.861,300.624 320.232 C 300.335 319.349,300.972 318.815,302.324 318.806 C 302.836 318.803,303.137 318.622,303.000 318.400 C 302.864 318.180,303.033 318.000,303.376 318.000 C 303.719 318.000,304.000 317.849,304.000 317.664 C 304.000 317.232,305.964 316.330,306.365 316.578 C 306.532 316.682,306.640 316.270,306.604 315.663 C 306.545 314.667,306.649 314.575,307.669 314.725 C 308.664 314.871,308.800 314.765,308.800 313.845 C 308.800 312.746,309.032 312.655,311.500 312.790 C 312.649 312.853,312.800 312.741,312.800 311.831 C 312.800 310.986,312.989 310.800,313.845 310.800 C 314.775 310.800,314.872 310.670,314.718 309.621 C 314.623 308.973,314.692 308.533,314.872 308.645 C 315.053 308.756,315.200 308.477,315.200 308.024 C 315.200 307.475,315.459 307.200,315.977 307.200 C 316.965 307.200,317.289 261.686,316.310 260.477 C 316.022 260.121,315.996 259.964,316.250 260.116 C 317.091 260.620,316.729 258.396,315.872 257.796 C 315.131 257.276,314.968 257.298,314.307 258.008 C 313.374 259.009,313.052 259.024,313.578 258.040 C 314.031 257.196,304.437 256.805,302.535 257.591 M239.404 277.700 C 239.402 278.474,239.114 279.214,238.693 279.527 C 238.305 279.817,238.090 280.222,238.217 280.427 C 238.344 280.632,238.122 280.813,237.724 280.828 C 237.078 280.853,237.086 280.893,237.800 281.200 C 238.429 281.470,238.459 281.550,237.940 281.572 C 237.384 281.596,237.293 282.040,237.365 284.400 C 237.411 285.940,237.303 287.200,237.125 287.200 C 235.382 287.200,235.249 288.201,235.269 301.178 C 235.280 308.066,235.448 313.706,235.647 313.829 C 237.485 314.965,234.633 315.154,213.852 315.276 L 192.800 315.400 192.768 314.400 C 192.751 313.850,192.639 313.646,192.520 313.946 C 192.369 314.326,191.833 313.979,190.767 312.813 C 189.922 311.889,189.046 311.248,188.820 311.387 C 188.589 311.530,188.500 311.405,188.616 311.102 C 188.734 310.795,188.133 309.983,187.225 309.221 C 186.346 308.484,185.724 307.723,185.843 307.530 C 185.962 307.338,185.911 307.206,185.730 307.237 C 184.684 307.419,184.447 307.118,184.613 305.820 C 184.710 305.062,184.612 304.331,184.395 304.197 C 184.178 304.063,184.003 303.738,184.006 303.476 C 184.010 303.190,184.167 303.239,184.400 303.600 C 184.714 304.085,184.789 304.028,184.794 303.300 C 184.797 302.805,184.609 302.400,184.376 302.400 C 184.143 302.400,184.067 302.175,184.206 301.900 C 184.345 301.625,184.176 301.749,183.830 302.176 C 183.212 302.938,183.200 302.936,183.200 302.076 C 183.200 301.594,183.042 301.200,182.849 301.200 C 182.655 301.200,182.582 300.141,182.685 298.846 C 182.803 297.379,182.709 296.391,182.437 296.223 C 182.197 296.074,182.003 295.738,182.006 295.476 C 182.010 295.190,182.167 295.239,182.400 295.600 C 182.716 296.089,182.789 296.040,182.794 295.333 C 182.797 294.857,182.339 294.131,181.776 293.721 C 181.032 293.179,180.744 292.595,180.723 291.587 C 180.707 290.824,180.493 289.940,180.247 289.623 C 179.906 289.183,179.918 289.117,180.300 289.347 C 180.663 289.565,180.787 289.284,180.754 288.324 C 180.728 287.596,180.625 287.315,180.524 287.700 C 180.058 289.485,178.480 287.493,178.721 285.424 C 178.829 284.504,178.747 283.986,178.517 284.128 C 178.306 284.258,178.133 284.103,178.133 283.782 C 178.133 283.462,178.283 283.200,178.467 283.200 C 179.283 283.200,178.778 280.450,177.829 279.733 C 177.295 279.330,176.800 278.550,176.729 278.000 L 176.600 277.000 208.000 276.796 C 225.270 276.684,239.402 276.549,239.404 276.496 C 239.406 276.443,239.406 276.985,239.404 277.700 M210.599 334.401 C 210.453 334.638,210.730 334.744,211.276 334.659 C 212.614 334.450,214.082 335.208,213.794 335.959 C 213.664 336.298,213.687 336.447,213.844 336.289 C 214.002 336.131,214.712 336.655,215.421 337.452 C 216.131 338.250,216.894 338.789,217.118 338.651 C 217.371 338.494,217.437 338.741,217.293 339.299 C 217.079 340.133,217.117 340.155,217.807 339.600 C 218.239 339.253,218.427 339.211,218.253 339.500 C 218.075 339.796,218.166 340.011,218.476 340.028 C 218.764 340.044,218.640 340.226,218.200 340.434 C 217.483 340.772,217.503 340.797,218.400 340.680 C 219.384 340.550,219.398 340.590,219.308 343.093 C 219.256 344.544,219.373 345.540,219.581 345.412 C 219.781 345.288,220.075 345.398,220.234 345.655 C 220.428 345.969,220.349 346.016,219.994 345.796 C 219.606 345.556,219.535 345.653,219.727 346.155 C 219.884 346.563,219.830 346.742,219.595 346.597 C 219.378 346.463,219.200 346.644,219.200 347.000 C 219.200 347.411,219.382 347.538,219.700 347.347 C 220.085 347.115,220.095 347.179,219.741 347.623 C 219.483 347.948,219.319 349.288,219.366 350.686 C 219.451 353.196,218.992 354.001,217.864 353.325 C 217.609 353.172,217.650 353.355,217.957 353.732 C 218.445 354.334,218.430 354.387,217.840 354.160 C 217.391 353.988,217.206 354.084,217.284 354.451 C 217.355 354.788,216.985 355.048,216.324 355.124 C 215.523 355.217,215.217 355.501,215.124 356.237 C 215.056 356.780,214.893 357.174,214.761 357.112 C 214.630 357.051,214.225 357.247,213.861 357.549 C 213.432 357.906,213.200 357.941,213.200 357.649 C 213.200 357.402,212.908 357.200,212.551 357.200 C 212.038 357.200,212.000 357.318,212.370 357.764 C 212.665 358.120,212.694 358.419,212.447 358.571 C 212.232 358.704,211.922 358.597,211.759 358.333 C 211.548 357.992,211.392 358.052,211.220 358.543 C 210.903 359.446,202.799 359.766,202.800 358.876 C 202.800 358.588,202.616 358.467,202.390 358.606 C 202.165 358.745,202.006 358.711,202.037 358.530 C 202.221 357.473,201.885 357.200,200.400 357.200 C 199.083 357.200,198.800 357.063,198.800 356.424 C 198.800 355.493,198.152 354.990,197.865 355.698 C 197.485 356.634,196.814 355.091,196.778 353.200 C 196.752 351.824,196.663 351.588,196.400 352.200 C 196.211 352.640,196.044 352.764,196.028 352.476 C 196.011 352.166,195.796 352.075,195.500 352.253 C 195.160 352.457,195.176 352.337,195.549 351.877 C 196.022 351.294,196.008 351.200,195.449 351.200 C 194.968 351.200,194.796 350.811,194.785 349.700 C 194.778 348.875,194.733 346.535,194.685 344.500 L 194.600 340.799 195.745 340.800 C 196.781 340.800,196.875 340.689,196.721 339.641 C 196.599 338.814,196.698 338.539,197.065 338.680 C 197.780 338.955,198.928 337.711,198.643 336.969 C 198.510 336.621,198.579 336.464,198.805 336.603 C 199.022 336.737,199.200 336.477,199.200 336.024 C 199.200 335.492,199.460 335.200,199.933 335.200 C 200.337 335.200,200.793 335.074,200.947 334.920 C 201.100 334.766,203.198 334.663,205.607 334.692 C 208.017 334.720,210.091 334.576,210.218 334.371 C 210.344 334.167,210.537 334.000,210.647 334.000 C 210.757 334.000,210.736 334.181,210.599 334.401 " stroke="none" fill="#fcbc04" fill-rule="evenodd"></path><path id="path1" d="" stroke="none" fill="#100bc04" fill-rule="evenodd"></path><path id="path2" d="" stroke="none" fill="#100bc04" fill-rule="evenodd"></path><path id="path3" d="" stroke="none" fill="#100bc04" fill-rule="evenodd"></path><path id="path4" d="" stroke="none" fill="#100bc04" fill-rule="evenodd"></path></g></svg>