<?xml version="1.0" encoding="utf-8"?>
<!-- Generator: Adobe Illustrator 24.3.0, SVG Export Plug-In . SVG Version: 6.00 Build 0)  -->
<svg version="1.1" id="Calque_1" xmlns="http://www.w3.org/2000/svg" xmlns:xlink="http://www.w3.org/1999/xlink" x="0px" y="0px"
	 viewBox="0 0 200 200" style="enable-background:new 0 0 200 200;" xml:space="preserve">
<style type="text/css">
	.st0{display:none;}
	.st1{display:inline;fill:#2C2E3A;}
	.st2{fill:#2C2E3A;}
	.st3{display:inline;}
</style>
<g class="st0">
	<path class="st1" d="M122.18,146.12c0.41-3.45-0.78-4.52-4.35-4.48c-14.66,0.22-29.32,0.18-43.98,0.02
		c-3.01-0.04-7.2,1.74-8.83-1.15c-1.78-3.25,2.37-5.74,3.76-8.63c1.92-3.95,5.87-6.87,5.74-11.9c-0.16-5.83-0.22-11.67,0.04-17.5
		c0.18-4.03-1.37-3.07-3.46-1.62c-6.89,5.03-14.58,5.09-22.55,3.35c7.4-0.22,14.72-0.82,21.36-4.48c6.46-6.24,5.72-12.1-2.43-15.97
		c-9.08-4.33-18.36-4.17-27.48,0.08c-4.62,2.15-6.97,5.77-6.81,11.14c0.23,7.81-0.02,15.66,0.1,23.47c0.04,2.68-0.72,3.58-3.45,3.01
		c-4.72-0.96-9.32-0.08-13.64,1.78c-6.54,2.82-9.16,8.89-2.39,13.68c3.23,1.31,6.44,2.72,9.96,2.99c4.07-0.33,8.2-0.08,12.23-0.9
		c-4.89,2.37-9.85,3.93-15.29,1.96h-0.02c-2.96-0.23-5.72-0.96-7.91-3.11c-1.51-0.84-3.17-2.53-2.98,1.23
		c0.23,4.33,0.18,8.67,0.02,13c-0.12,3.21,1.31,5.46,3.86,7.07c3.27,2.09,6.89,3.15,10.75,3.68c5.72,0.78,10.86-3.33,15.91-2.58
		c5.5,0.78,10.96,3.62,16.56,2.39c11.86-2.6,23.74-0.41,35.6-1.08c4.82-0.27,9.67,0.08,14.48-0.08c4.8-0.18,10.94,2.07,14.01-0.94
		C124.29,157.3,121.63,151.04,122.18,146.12z M26.89,133.77c-2.49-0.22-4.8-0.61-4.91-2.99c-0.12-2.49,2.13-3.03,4.23-3.13
		c2.27-0.1,3.78,0.65,3.93,3.29C30.32,133.91,27.97,133.17,26.89,133.77z M53.43,88.68c2.66-0.02,5.97,0.59,6.07,3.7
		c0.08,2.88-2.99,3.46-5.62,3.52c-2.58-0.06-5.54-0.35-5.75-3.39C47.91,89.34,50.95,88.69,53.43,88.68z"/>
	<path class="st1" d="M84.65,67.67c12.15-5.74,23.45-10.54,34.19-16.36c6.69-3.63,12.13-3.65,18.85,0.03
		c10.74,5.87,22.1,10.61,34.17,16.29c-3.07,1.86-5.38,3.29-7.71,4.67c-10.58,6.28-21.17,12.54-31.74,18.85
		c-1.76,1.05-3.23,1.89-5.45,0.6C113.29,83.85,99.53,76.12,84.65,67.67z"/>
	<path class="st1" d="M174.32,122.54c0.02,1.76-0.86,2.7-2.25,3.52c-13.41,8.03-26.78,16.11-40.2,24.08
		c-3.46,2.06-7.61-0.57-7.97-4.68c-0.2-2.56,1.02-5.32-0.98-7.67c-2.64-4.89-4.87-10.04-8.93-14.05v-0.02
		c-0.53-2.13-7.09,1.82-3.99-3.95c0.14-0.67,0.18-1.27,0.1-1.82c0.63-0.78,1.35-1.45,2.37-1.84c0.18,0.02,0.33,0.02,0.49,0.02
		c0.51,0.02,1-0.02,1.49-0.12c1.66-0.27,3.13-1.1,4.44-2.27c3.35-5.38,6.67-10.77,10.33-16.68c2.11,3.62,3.9,6.67,5.68,9.75
		c0.43,2.02,1.33,3.8,2.82,5.25c3.52,7.59,3.52,7.59,10.53,3.31c8.44-5.19,16.89-10.35,26.05-15.95
		C174.3,107.68,174.26,115.12,174.32,122.54z"/>
	<path class="st1" d="M188.42,87.05c-14.64,8.89-29.26,17.81-43.73,26.99c-4.78,3.03-3.8-2.23-5.68-3.33
		c-0.49-2.25-1.49-4.25-3.05-5.95c-4.29-9.49-4.29-9.49,4.66-14.8c10.73-6.36,21.51-12.63,32.16-19.12
		c2.43-1.47,3.93-1.55,5.85,0.76c3.19,3.84,6.64,7.46,10.12,11.04C190.45,84.41,191.06,85.45,188.42,87.05z"/>
	<path class="st1" d="M125.25,98.5c-2.7,4.56-4.97,9.38-7.44,14.07c-1.19,1.62-2.35,2.33-4.46,0.94c-3.29-2.17-6.87-3.93-10.33-5.87
		c-6.13-3.68-12.27-7.3-18.32-11.08c-3.97-2.47-8.95-4.01-9.85-9.69c-0.04-0.29-0.39-0.53-0.53-0.82c-1.04-2.23-5.7-2.99-4.52-4.97
		c2.58-4.35,6.48-7.93,10.04-11.63c0.9-0.92,2.13,0.39,3.11,0.94c13.58,7.71,27.15,15.48,40.77,23.12
		C126.07,94.82,126.78,95.92,125.25,98.5z"/>
	<path class="st1" d="M66.01,58.96c4.82-2.26,8.97-4.22,13.13-6.15c10.39-4.82,20.87-9.49,31.15-14.54
		c2.61-1.28,4.33-1.33,6.65,0.35c2.77,1.99,5.89,3.5,9.61,5.64c-8.43,4.02-16.03,7.66-23.65,11.26c-6.15,2.91-12.46,5.52-18.43,8.77
		c-3.68,2-6.64,2.07-10.01-0.37C72.07,62.18,69.36,60.89,66.01,58.96z"/>
	<path class="st1" d="M130.31,44.13c4.27-2.54,7.59-4.42,10.81-6.46c1.3-0.82,2.24-0.75,3.63-0.09
		c14.47,6.81,28.99,13.52,43.49,20.27c0.56,0.26,1.02,0.76,1.81,1.38c-3.88,2.22-7.5,4.25-11.08,6.36
		c-1.27,0.74-2.38,0.79-3.74,0.14C160.55,58.62,145.84,51.58,130.31,44.13z"/>
	<path class="st1" d="M121.26,138.43c-0.06,0.16-0.2,0.27-0.37,0.37c-17.87,0-34.74,0.02-51.6-0.04c-0.53,0-1.06-0.63-1.59-0.98
		c1.92-3.09,3.93-6.15,5.74-9.32c1.31-2.31,2.88-4.62,5.72-3.27c2.33,1.1,3.48,4.35,2.58,6.34c-1.61,3.54,0.35,3.23,2.45,3.25
		c6.97,0.02,13.94,0.02,20.9,0c2.06-0.02,3.52,0.1,1.92-3.01c-1.49-2.92,1.94-6.56,5.72-6.87
		C115.42,129.19,118.14,133.52,121.26,138.43z"/>
	<path class="st1" d="M106.71,116.41c-3.01-2.13-6.73-2.68-9.4-0.72c-5.42,4.01-10.67,3.72-16.32,1.21
		c-0.12,5.3,1.96,10.22,4.64,14.29c1.62,2.43,6.3,0.18,9.43,0.94c8.18,2,10-3.6,11.86-9.38
		C106.56,120.66,109.59,118.45,106.71,116.41z M98.47,117.21c1.86-2.13,3.41-2.23,5.15,0.1
		C101.82,117.84,100.27,117.96,98.47,117.21z"/>
	<path class="st1" d="M113.25,116.61c-1.7,0.39-2.02,2.25-3.25,3.15c0.14-0.67,0.18-1.27,0.1-1.82c-0.14-1.06-0.7-1.94-1.94-2.74
		c-4.35-2.9-8.71-3.8-13.23-0.76c-4.35,2.92-8.55,3.11-12.9,0.14c0-4.17,0.18-8.36-0.08-12.51c-0.25-4.01,1.23-3.64,3.88-2.06
		c5.01,2.99,10.1,5.81,15.15,8.71c3.84,2.45,7.65,4.93,11.49,7.38c0.18,0.02,0.33,0.02,0.49,0.02
		C113.08,116.27,113.15,116.43,113.25,116.61z"/>
	<path class="st1" d="M112.96,116.12c0.51,0.02,1-0.02,1.49-0.12l-1.19,0.61c-0.25-0.18-0.53-0.33-0.78-0.51
		C112.64,116.12,112.8,116.12,112.96,116.12z"/>
	<path class="st1" d="M115.7,115.35l1.29-0.67C116.7,115.1,116.25,115.33,115.7,115.35z"/>
</g>
<g class="st0">
	<path class="st1" d="M313.06,45.7c13.21,1.31,26.43,2.61,39.64,3.93c2.52,0.25,5.03,0.66,7.56,0.78c2.93,0.15,4.33,1.46,4.62,4.46
		c1.49,15.53,3.08,31.06,4.71,46.58c0.25,2.43-0.43,4.2-2.18,5.94c-18.84,18.75-37.6,37.58-56.42,56.35
		c-9.27,9.25-14.15,9.23-23.5-0.09c-11.94-11.88-23.85-23.79-35.71-35.74c-1.92-1.93-3.67-4.07-5.23-6.3
		c-2.61-3.72-2.53-7.65,0.06-11.34c1.56-2.23,3.35-4.34,5.27-6.27c18.62-18.69,37.27-37.34,55.98-55.94
		c1.31-1.31,3.17-2.07,4.77-3.08C312.77,45.23,312.91,45.46,313.06,45.7z M362.41,99.68c-0.23-0.13-0.46-0.26-0.69-0.39
		c-1.27-13.11-2.57-26.22-3.78-39.34c-0.16-1.77-0.89-2.43-2.61-2.59c-13.22-1.23-26.42-2.59-39.65-3.7
		c-1.43-0.12-3.37,0.66-4.41,1.69c-14.07,13.9-28.03,27.91-42.01,41.9c-4.88,4.88-9.79,9.72-14.57,14.69
		c-3.29,3.43-3.21,4.66,0.02,8.2c0.89,0.98,1.82,1.9,2.76,2.84c11.62,11.62,23.23,23.25,34.86,34.86c6.77,6.76,7.18,6.76,13.92,0.02
		c17.94-17.92,35.89-35.84,53.76-53.83C361.12,102.9,361.62,101.14,362.41,99.68z"/>
	<path class="st1" d="M334.83,95.6c-8.62-0.08-15.62-7.18-15.59-15.8c0.03-8.6,7.13-15.7,15.71-15.73
		c8.63-0.03,15.92,7.37,15.77,16.01C350.58,88.68,343.42,95.68,334.83,95.6z M326.87,79.72c-0.07,4.52,3.39,8.18,7.89,8.34
		c4.47,0.15,8.41-3.69,8.42-8.21c0.01-4.4-3.7-8.12-8.14-8.15C330.54,71.66,326.95,75.19,326.87,79.72z"/>
	<path class="st1" d="M262.85,115.67c1.15-1.9,1.85-3.75,3.12-5.06c5.83-6.05,11.77-11.99,17.8-17.84c0.69-0.67,2.2-0.51,3.33-0.73
		c-0.3,1.14-0.24,2.61-0.95,3.35c-5.54,5.76-11.21,11.41-16.89,17.04c-1.98,1.97-2.99,3.77-0.47,6.13c0.56,0.52,0.32,1.88,0.45,2.86
		c-1.06-0.16-2.55,0.07-3.1-0.55C264.86,119.43,264.02,117.59,262.85,115.67z"/>
	<path class="st1" d="M293.7,88.12c-1.65,1.25-2.8,2.24-4.1,2.97c-0.15,0.09-1.69-1.69-1.58-1.83c0.92-1.2,2.02-2.3,3.24-3.19
		C291.42,85.96,292.53,87.13,293.7,88.12z"/>
</g>
<g>
	<path class="st2" d="M180.07,148.98c-0.56,2.33-0.96,4.71-1.7,6.98c-4.32,13.36-16.38,22.78-30.33,23.81
		c-13.7,1.01-26.94-6.54-33.13-19.05c-1.36-2.74-3.48-0.96-5.63-1.73c2.2,4.47,2.54,8.57,0.67,12.71c-1.3,2.87-3.37,5.05-6.15,6.54
		c-5.49,2.95-12.24,1.73-16.53-2.91c-3.54-3.83-5.72-10.85-0.54-17.92c-0.96-0.68-1.98-1.29-2.88-2.04
		c-3.07-2.55-4.59-6.03-5.53-9.77c-4.33-17.27-8.63-34.55-12.92-51.83C60.35,73.34,55.29,52.92,50.23,32.5
		c-0.08-0.31-0.14-0.62-0.23-0.92c-2.48-8.24-5.07-10.17-13.67-10.17c-4.82,0-9.63,0-14.5,0c-0.17,0.73-0.27,1.34-0.45,1.93
		c-1.02,3.42-4.26,5.44-7.81,4.88c-3.23-0.52-5.72-3.54-5.67-6.89c0.05-3.42,2.64-6.62,6.08-6.67c9.01-0.12,18.03-0.17,27.02,0.22
		c6.96,0.3,11.73,4.29,14.07,10.77c1.57,4.33,2.64,8.85,3.8,13.33c1.62,6.26,3.11,12.55,4.66,18.82c0.12,0.49,0.3,0.96,0.5,1.58
		c1.84,0,3.68,0.11,5.5-0.06c0.7-0.07,1.46-0.66,2.01-1.2c9.09-9.04,18.15-18.12,27.21-27.18c2.62-2.62,4.09-2.63,6.72,0
		c3.4,3.41,6.79,6.84,10.28,10.36c0.5-0.44,0.93-0.77,1.31-1.15c3.19-3.18,6.37-6.38,9.57-9.55c2.19-2.17,3.86-2.17,6.04,0
		c9.17,9.15,18.33,18.29,27.46,27.48c0.92,0.92,1.82,1.41,3.15,1.33c1.77-0.11,3.55-0.03,5.33-0.03c3.94,0.02,5.3,1.94,3.92,5.6
		c-4.16,11.03-8.33,22.05-12.5,33.07c-1.55,4.09-3.1,8.17-4.64,12.27c-0.22,0.58-0.38,1.18-0.6,1.9c4.76,1.45,9.04,3.61,12.76,6.76
		c6.81,5.77,10.97,13.03,12.19,21.92c0.04,0.3,0.21,0.57,0.32,0.86C180.07,144.16,180.07,146.57,180.07,148.98z M164.73,66.33
		c-33.16,0-66.01,0-98.93,0c0.07,0.51,0.09,0.89,0.18,1.25c4.56,18.46,9.16,36.9,13.66,55.37c0.37,1.52,1.04,1.82,2.46,1.81
		c11.43-0.05,22.85-0.05,34.28,0c1.36,0.01,2.17-0.48,3.02-1.48c7.02-8.17,15.96-12.3,26.74-12.29c1.32,0,1.87-0.37,2.31-1.58
		c3.42-9.21,6.91-18.39,10.38-27.57C160.77,76.76,162.71,71.68,164.73,66.33z M145.74,172.96c15.06-0.04,27.46-12.48,27.46-27.56
		c0-15.15-12.53-27.64-27.65-27.58c-15.06,0.06-27.48,12.52-27.48,27.57C118.07,160.53,130.58,172.99,145.74,172.96z M81.63,131.72
		c1.59,5.37,3.01,10.54,4.68,15.63c0.91,2.76,3.19,4.49,6.03,4.58c6.45,0.22,12.91,0.07,19.49,0.07
		c-1.38-6.79-0.51-13.55,2.17-20.27C103.19,131.72,92.65,131.72,81.63,131.72z M102.38,38.21c-6.95,6.95-14.16,14.16-21.06,21.06
		c13.71,0,28.01,0,42.09,0C116.28,52.13,109.09,44.94,102.38,38.21z M121.08,46.44c4.03,4.05,8.16,8.23,12.36,12.35
		c0.42,0.41,1.25,0.54,1.89,0.55c3.42,0.05,6.84,0.02,10.27,0.02c1.86,0,3.73,0,5.58,0c-7.33-7.34-14.53-14.53-21.51-21.52
		C126.93,40.59,124.03,43.49,121.08,46.44z M97.41,159.22c-3.87,0.01-6.86,3-6.85,6.86c0.01,3.83,3.07,6.88,6.89,6.87
		c3.83-0.01,6.85-3.06,6.84-6.91C104.29,162.17,101.3,159.21,97.41,159.22z"/>
	<path class="st2" d="M142.21,124.81c2.37,0,4.49,0,6.72,0c0.07,0.49,0.17,0.91,0.17,1.33c0.01,6.53,0.03,13.07-0.02,19.6
		c0,0.62-0.22,1.48-0.66,1.82c-4.72,3.63-9.5,7.18-14.48,10.92c-1.37-1.83-2.69-3.57-4.13-5.49c3.33-2.51,6.51-5.09,9.9-7.37
		c1.96-1.32,2.67-2.79,2.56-5.15c-0.21-4.49-0.06-9-0.06-13.51C142.21,126.28,142.21,125.6,142.21,124.81z"/>
</g>
<g class="st0">
	<path class="st1" d="M172.43,173.52c0,1.96,0.76,4.66-0.22,5.65c-0.96,0.98-3.69,0.22-5.64,0.22c-45.74,0-91.47-0.05-137.21,0.1
		c-3.36,0.01-4.61-0.68-3.92-4.02c0.13-0.62,0.02-1.3,0.02-1.95c1.4-2.58,3.54-3.58,6.45-3.3c1.72,0.17,3.48-0.04,5.21,0.05
		c1.46,0.07,2.13-0.31,2.13-1.96c-0.05-18.89-0.03-37.79-0.04-56.68c0-0.82,0.22-1.76-0.94-2.14c-7.04-2.3-10.79-7.56-12.8-14.35
		c0-2.39,0-4.79,0-7.18c1.07-0.1,2.15-0.28,3.22-0.28c46.84-0.01,93.69-0.01,140.53,0c1.07,0,2.15,0.18,3.22,0.28
		c0,2.39,0,4.79,0,7.18c-1.88,6.13-5,11.31-11.31,13.71c-1.97,0.75-2.52,1.71-2.51,3.75c0.09,17.37,0.05,34.75,0.05,52.12
		c0,5.52,0,5.57,5.68,5.5C167.54,170.19,170.73,169.97,172.43,173.52z M98.97,95.05c-0.07,0.07-0.17,0.12-0.2,0.2
		c-0.14,0.41-0.27,0.82-0.39,1.23c-2.39,7.97-7.56,12.79-15.92,13.76c-2.11,0.24-2.03,1.41-2.03,2.89
		c0.02,18.16,0.05,36.33-0.04,54.49c-0.01,2.22,0.75,2.68,2.81,2.68c21.21-0.07,42.42-0.08,63.63,0.02c2.45,0.01,2.77-0.9,2.77-3.02
		c-0.07-18.27-0.07-36.54,0-54.82c0.01-1.89-0.49-2.83-2.35-3.55c-5.62-2.16-9.22-6.3-10.8-12.14c-0.17-0.63-0.27-1.28-0.89-1.66
		c-2.68,9.58-8.82,14.95-17.42,15.22C108.7,110.63,102.82,105.93,98.97,95.05z M62.39,94.67c-3.91,9.17-3.89,9.2-13.09,14.82
		c-1.16,0.71-0.94,1.59-0.94,2.5c-0.02,18.6,0.02,37.2-0.06,55.8c-0.01,2.09,0.69,2.53,2.61,2.51c7.5-0.1,15.01-0.09,22.52,0
		c1.9,0.02,2.69-0.39,2.68-2.49c-0.07-18.6-0.04-37.2-0.04-55.8c0-1.26-0.13-2.21-1.62-2.75C67.7,106.78,63.81,101.82,62.39,94.67z"
		/>
	<path class="st1" d="M25.46,82.73c0-0.22,0-0.44,0-0.65c1.23-0.55,1.38-1.86,1.89-2.87c5.13-10.18,10.26-20.36,15.27-30.61
		c0.88-1.81,1.9-2.46,3.94-2.46c34.93,0.07,69.85,0.07,104.78,0c2.04,0,3.06,0.65,3.94,2.46c5.01,10.24,10.14,20.43,15.27,30.61
		c0.51,1.01,0.65,2.31,1.89,2.87c0,0.22,0,0.44,0,0.65c-1.52,0.03-3.04,0.09-4.56,0.09c-40.41,0-80.82,0.01-121.23,0
		C39.58,82.81,32.52,82.76,25.46,82.73z M128.73,73.47c-0.05-0.19-0.06-0.54-0.21-0.82c-3.32-6.1-6.64-12.21-10.01-18.29
		c-0.67-1.21-1.87-1.54-3.1-0.91c-1.29,0.65-1.52,1.9-0.94,3.08c1.04,2.15,2.26,4.21,3.4,6.31c2.14,3.91,4.25,7.83,6.44,11.7
		c0.6,1.06,1.49,1.96,2.94,1.35C128.25,75.48,128.77,74.71,128.73,73.47z M64.57,55.56c-0.18-1.22-0.69-2-1.77-2.27
		c-1.59-0.41-2.43,0.56-3.05,1.8c-2.77,5.52-5.5,11.06-8.27,16.59c-0.8,1.59-1.3,3.21,0.72,4.15c1.9,0.88,2.7-0.63,3.41-2.04
		c2.72-5.42,5.44-10.83,8.15-16.26C64.09,56.85,64.33,56.13,64.57,55.56z M135.34,53.16c-1.38,0.56-2.59,1.41-1.56,3.49
		c2.93,5.91,5.84,11.84,8.82,17.73c0.61,1.21,1.6,2.2,3.15,1.43c1.61-0.8,1.65-2.18,0.95-3.6c-2.89-5.82-5.82-11.63-8.73-17.44
		C137.5,53.85,136.81,53.21,135.34,53.16z M82.91,55.53c-0.18-1.24-0.68-2.02-1.77-2.27c-1.59-0.36-2.4,0.62-3.02,1.86
		c-2.76,5.52-5.52,11.05-8.29,16.57c-0.8,1.6-1.26,3.2,0.77,4.13c1.94,0.89,2.72-0.71,3.41-2.07c2.74-5.41,5.45-10.84,8.15-16.27
		C82.48,56.82,82.69,56.09,82.91,55.53z M96.66,64.44c0,2.93,0.02,5.87-0.01,8.8c-0.02,1.53,0.64,2.68,2.14,2.76
		c1.71,0.09,2.44-1.1,2.44-2.77c-0.01-5.76-0.01-11.52,0-17.28c0-1.49-0.53-2.66-2.13-2.74c-1.78-0.09-2.44,1.09-2.44,2.75
		C96.67,58.79,96.66,61.61,96.66,64.44z"/>
	<path class="st1" d="M150.87,32.43c2.05,1.41,3.81,2.99,2.91,5.84c-0.93,2.95-3.28,3.33-5.96,3.33c-32.58-0.03-65.17-0.03-97.75,0
		c-2.69,0-5.03-0.38-5.97-3.33c-0.91-2.85,0.89-4.42,2.91-5.84C81.64,32.43,116.25,32.43,150.87,32.43z"/>
	<path class="st1" d="M129.39,119.3c0.48,0.57,1.3,1.43,1.97,2.4c0.67,0.97-0.43,1.32-0.88,1.77c-7.66,7.71-15.39,15.36-23.02,23.11
		c-1.26,1.28-1.96,1.11-3.06-0.08c-0.98-1.06-1.69-1.74-0.28-3.12c7.75-7.62,15.41-15.35,23.11-23.02
		C127.67,119.92,128.01,119.28,129.39,119.3z"/>
	<path class="st1" d="M116.07,118.88c0.81,0.99,1.61,1.86,2.3,2.82c0.69,0.97-0.4,1.32-0.83,1.76c-3.41,3.48-6.93,6.85-10.28,10.38
		c-1.29,1.35-1.96,0.62-2.8-0.32c-0.76-0.84-1.99-1.47-0.57-2.85c3.57-3.47,7.05-7.03,10.58-10.54
		C114.82,119.77,115.27,119.49,116.07,118.88z"/>
	<path class="st1" d="M119.13,147.66c-1.27-0.31-1.92-1.38-2.69-2.24c-0.74-0.82,0.11-1.37,0.62-1.88
		c3.43-3.46,6.91-6.87,10.31-10.36c1-1.03,1.82-1.1,2.61,0.05c0.56,0.82,2.44,1.3,0.96,2.8c-3.66,3.69-7.34,7.36-11.02,11.03
		C119.68,147.28,119.4,147.46,119.13,147.66z"/>
	<path class="st1" d="M71.26,129.02c-0.06,0.35,0.04,1.07-0.27,1.39c-2.92,2.98-1.67,6.7-1.92,10.16c-0.11,1.56,0.27,2.83,1.3,4.16
		c1.63,2.09,1.25,4.35-0.82,6.05c-1.84,1.51-3.92,1.42-5.66-0.1c-2-1.75-2.13-3.91-0.63-6.13c1.93-2.86,1.92-10.13-0.05-13.03
		c-1.25-1.83-1.25-3.66,0.08-5.42c1.28-1.7,3.1-2.03,4.98-1.45C70.22,125.24,71.23,126.74,71.26,129.02z"/>
</g>
<g class="st0">
	<g class="st3">
		<path class="st2" d="M79.9,123.09c0,11.74,0,23.49,0.01,35.23c0,0.24-0.05,0.29-0.29,0.29c-20.64-0.01-41.28-0.01-61.91,0
			c-0.24,0-0.29-0.05-0.29-0.29c0.01-12.13,0.01-24.25,0.01-36.38c0.11-0.07,0.22-0.13,0.32-0.2c1.48-1.04,2.96-2.08,4.43-3.11
			c4.34-3.05,8.67-6.1,13.02-9.14c0.22-0.15,0.3-0.31,0.29-0.57c-0.02-0.99-0.01-1.98-0.01-2.96c0-1.18,0.83-2.01,2-2.02
			c0.69-0.01,1.38-0.01,2.07,0c0.24,0,0.33-0.06,0.32-0.32c-0.01-1.16-0.01-2.32-0.01-3.47c0-0.64,0.28-0.98,0.92-1.1
			c4.3-0.81,8.6-1.61,12.9-2.42c0.83-0.16,1.67-0.27,2.49-0.5c0.19,0,0.38,0,0.57,0c0.56,0.27,0.71,0.74,0.7,1.33
			c-0.02,2.03,0,4.06-0.02,6.09c0,0.34,0.1,0.41,0.41,0.39c0.64-0.02,1.28-0.01,1.91-0.01c1.28,0.01,2.08,0.82,2.08,2.11
			c0,5.02,0,10.03,0,15.05c0,0.06,0.01,0.13,0,0.19c-0.02,0.19,0.07,0.24,0.24,0.23c0.44-0.01,0.87-0.02,1.31,0
			c0.32,0.02,0.41-0.07,0.41-0.4c-0.01-4.36-0.01-8.71-0.01-13.07c0-0.11,0-0.21,0.01-0.32c0.06-0.5,0.47-0.86,0.95-0.87
			c0.35,0,0.62,0.17,0.85,0.43c1.61,1.79,3.22,3.56,4.82,5.35c0.16,0.17,0.24,0.2,0.41,0.01c0.9-1.02,1.82-2.02,2.73-3.03
			c0.73-0.8,1.45-1.61,2.18-2.41c0.31-0.34,0.72-0.43,1.1-0.28c0.42,0.17,0.61,0.5,0.62,0.95c0,0.1,0,0.19,0,0.29
			c0,4.33,0,8.65-0.01,12.98c0,0.29,0.08,0.38,0.37,0.37c0.72-0.03,1.3,0.25,1.73,0.84C79.72,122.57,79.78,122.84,79.9,123.09z
			 M35.42,111.72c-0.11,0.07-0.21,0.14-0.31,0.21c-5.15,3.62-10.31,7.25-15.47,10.86c-0.21,0.15-0.28,0.3-0.28,0.55
			c0.01,10.97,0,21.93,0.01,32.9c0,0.41,0,0.41,0.41,0.41c5.07,0,10.14,0,15.21,0c0.56,0,0.48,0.06,0.48-0.47
			c0-14.7,0-29.39,0-44.09C35.47,111.98,35.5,111.86,35.42,111.72z M77.94,140.05c0-5.39,0-10.77,0-16.16c0-0.43,0-0.43-0.42-0.43
			c-5.11,0-10.22,0-15.33-0.01c-0.28,0-0.35,0.07-0.35,0.35c0.01,10.82,0.01,21.63,0,32.45c0,0.32,0.07,0.41,0.4,0.41
			c5.1-0.01,10.2-0.01,15.3-0.01c0.41,0,0.41,0,0.41-0.41C77.94,150.84,77.94,145.44,77.94,140.05z M48.67,135.17
			C48.67,135.17,48.67,135.17,48.67,135.17c-3.63,0-7.27,0-10.9,0c-0.25,0-0.36,0.04-0.34,0.32c0.03,0.37,0.01,0.74,0.01,1.12
			c0,6.57,0,13.13-0.01,19.7c0,0.25,0.05,0.36,0.33,0.35c0.76-0.02,1.53-0.02,2.29,0c0.25,0.01,0.32-0.07,0.32-0.32
			c-0.01-4.35-0.01-8.69,0-13.04c0-0.22-0.06-0.31-0.28-0.36c-0.4-0.1-0.63-0.38-0.69-0.78c-0.06-0.41,0.09-0.73,0.43-0.96
			c0.22-0.15,0.48-0.16,0.73-0.16c5.4,0,10.8,0,16.19,0c0.08,0,0.17,0,0.25,0c0.5,0.04,0.86,0.39,0.91,0.87
			c0.05,0.49-0.23,0.93-0.73,1.05c-0.21,0.05-0.24,0.14-0.24,0.32c0,4.37,0,8.73,0,13.1c0,0.23,0.07,0.29,0.29,0.29
			c0.76-0.01,1.53-0.02,2.29,0c0.27,0.01,0.36-0.06,0.36-0.35c-0.01-6.91-0.01-13.81-0.01-20.72c0-0.41,0-0.41-0.41-0.41
			C55.87,135.17,52.27,135.17,48.67,135.17z M42.31,149.81c0,2.17,0,4.33-0.01,6.5c0,0.26,0.06,0.36,0.33,0.34
			c0.4-0.02,0.81,0,1.21-0.01c0.41,0,0.41,0,0.41-0.41c0-3.1,0-6.2,0-9.31c0-1.12,0.81-1.98,1.89-1.99c1.67-0.02,3.34-0.02,5,0
			c1.06,0.01,1.87,0.86,1.89,1.93c0.01,0.45,0,0.89,0,1.34c0,2.7,0,5.4-0.01,8.1c0,0.26,0.06,0.36,0.33,0.34
			c0.41-0.02,0.83-0.03,1.24,0c0.3,0.02,0.39-0.07,0.39-0.38c-0.01-4.3-0.01-8.61,0-12.91c0-0.3-0.07-0.39-0.38-0.39
			c-3.98,0.01-7.97,0.01-11.95,0c-0.29,0-0.38,0.06-0.37,0.36C42.31,145.5,42.31,147.65,42.31,149.81z M48.65,103.93
			c2.17,0,4.33,0,6.5,0c0.16,0,0.34,0.06,0.34-0.23c-0.01-1.73-0.01-3.46,0-5.19c0-0.2-0.07-0.23-0.25-0.18
			c-0.29,0.07-0.58,0.11-0.88,0.16c-4.08,0.76-8.16,1.53-12.24,2.29c-0.23,0.04-0.32,0.12-0.31,0.37c0.02,0.81,0.02,1.61,0,2.42
			c-0.01,0.29,0.07,0.37,0.37,0.37C44.34,103.92,46.49,103.92,48.65,103.93z M46.21,151.77c0,1.51,0.01,3.02-0.01,4.52
			c0,0.3,0.09,0.37,0.38,0.36c1.4-0.01,2.8-0.01,4.21,0c0.23,0,0.31-0.05,0.31-0.3c-0.01-3.06-0.01-6.12,0-9.17
			c0-0.24-0.07-0.3-0.31-0.3c-1.4,0.01-2.8,0.01-4.21,0c-0.28,0-0.38,0.06-0.38,0.36C46.22,148.75,46.21,150.26,46.21,151.77z
			 M48.68,108.81c1.18,0,2.36-0.01,3.54,0.01c0.29,0,0.35-0.09,0.35-0.36c-0.02-0.74-0.02-1.49,0-2.23c0-0.25-0.05-0.35-0.33-0.35
			c-2.39,0.01-4.78,0.01-7.17,0c-0.27,0-0.32,0.09-0.31,0.33c0.01,0.75,0.02,1.51,0,2.26c-0.01,0.29,0.1,0.35,0.36,0.35
			C46.29,108.8,47.49,108.81,48.68,108.81z M48.65,110.77c-1.2,0-2.4,0-3.6,0c-0.21,0-0.3,0.03-0.3,0.27c0.01,0.8,0.01,1.59,0,2.39
			c0,0.22,0.08,0.27,0.28,0.27c2.42,0,4.85-0.01,7.27,0c0.22,0,0.27-0.08,0.27-0.28c-0.01-0.79-0.01-1.57,0-2.36
			c0.01-0.25-0.08-0.3-0.31-0.3C51.05,110.77,49.85,110.77,48.65,110.77z M48.66,118.57C48.66,118.57,48.66,118.57,48.66,118.57
			c1.21,0,2.42-0.01,3.63,0c0.21,0,0.27-0.06,0.27-0.27c-0.01-0.8-0.01-1.59,0-2.39c0-0.2-0.04-0.28-0.26-0.28
			c-2.42,0.01-4.84,0.01-7.26,0c-0.22,0-0.29,0.06-0.29,0.29c0.01,0.77,0.02,1.55,0,2.32c-0.01,0.28,0.09,0.33,0.35,0.33
			C46.28,118.56,47.47,118.57,48.66,118.57z M48.65,130.29c-1.21,0-2.42,0-3.63,0c-0.2,0-0.28,0.04-0.28,0.26
			c0.01,0.8,0.01,1.59,0,2.39c0,0.22,0.07,0.29,0.29,0.29c2.41-0.01,4.82-0.01,7.23,0c0.22,0,0.3-0.05,0.29-0.28
			c-0.01-0.79-0.01-1.57,0-2.36c0-0.24-0.07-0.3-0.31-0.3C51.05,130.3,49.85,130.29,48.65,130.29z M48.69,120.53
			c-1.22,0-2.44,0-3.66,0c-0.2,0-0.28,0.05-0.28,0.27c0.01,0.8,0.01,1.59,0,2.39c0,0.23,0.07,0.28,0.29,0.28
			c2.41-0.01,4.82-0.01,7.23,0c0.22,0,0.3-0.05,0.29-0.28c-0.01-0.79-0.01-1.57,0-2.36c0-0.24-0.07-0.3-0.31-0.3
			C51.06,120.53,49.87,120.53,48.69,120.53z M48.64,128.33c1.21,0,2.42,0,3.63,0c0.22,0,0.29-0.06,0.29-0.28
			c-0.01-0.8-0.01-1.59,0-2.39c0-0.22-0.08-0.27-0.28-0.27c-2.42,0.01-4.84,0-7.26,0c-0.2,0-0.28,0.06-0.27,0.27
			c0.01,0.79,0.02,1.57,0,2.36c-0.01,0.27,0.09,0.31,0.33,0.31C46.26,128.33,47.45,128.33,48.64,128.33z M65.78,110.42
			c-0.03,0.08-0.04,0.1-0.04,0.12c0,3.58,0,7.16-0.01,10.74c0,0.2,0.09,0.23,0.25,0.22c0.46-0.01,0.91-0.02,1.37,0
			c0.26,0.01,0.35-0.06,0.34-0.33c-0.01-1.5,0-3-0.01-4.49c0-0.41,0.12-0.74,0.4-1.03c0.36-0.37,0.69-0.78,1.05-1.15
			c0.14-0.14,0.13-0.22,0-0.36c-0.65-0.7-1.29-1.41-1.93-2.12C66.75,111.49,66.28,110.97,65.78,110.42z M75.5,110.44
			c-0.08,0.05-0.11,0.06-0.13,0.08c-1.1,1.21-2.19,2.43-3.29,3.63c-0.12,0.14-0.1,0.22,0.02,0.35c0.36,0.39,0.7,0.8,1.07,1.18
			c0.28,0.29,0.38,0.61,0.38,1.01c-0.01,1.51,0,3.02-0.01,4.52c0,0.24,0.06,0.31,0.3,0.3c0.42-0.02,0.85-0.03,1.27,0
			c0.31,0.02,0.39-0.07,0.39-0.38c-0.01-3.44-0.01-6.88-0.01-10.32C75.5,110.7,75.5,110.59,75.5,110.44z M40.1,108.81
			c0.81,0,1.61,0,2.42,0c0.2,0,0.28-0.05,0.27-0.27c-0.01-0.81-0.01-1.61,0-2.42c0-0.2-0.07-0.25-0.26-0.25
			c-1.61,0.01-3.23,0.01-4.84,0c-0.24,0-0.28,0.09-0.27,0.3c0.01,0.77,0.02,1.55,0,2.32c-0.01,0.27,0.09,0.32,0.33,0.31
			C38.53,108.8,39.32,108.81,40.1,108.81z M57.2,108.81c0.8,0,1.59-0.01,2.39,0c0.21,0,0.3-0.04,0.3-0.28
			c-0.01-0.8-0.01-1.59,0-2.39c0-0.21-0.07-0.27-0.27-0.27c-1.61,0.01-3.22,0.01-4.84,0c-0.21,0-0.27,0.08-0.27,0.28
			c0.01,0.8,0.01,1.59,0,2.39c0,0.21,0.07,0.27,0.27,0.27C55.59,108.8,56.39,108.81,57.2,108.81z M40.08,113.69
			c0.81,0,1.61-0.01,2.42,0c0.21,0,0.3-0.04,0.3-0.28c-0.01-0.8-0.01-1.59,0-2.39c0-0.21-0.06-0.27-0.27-0.27
			c-1.61,0.01-3.23,0.01-4.84,0c-0.21,0-0.27,0.07-0.27,0.28c0.01,0.8,0.01,1.59,0,2.39c0,0.21,0.07,0.27,0.27,0.27
			C38.49,113.69,39.28,113.69,40.08,113.69z M57.19,110.77c-0.81,0-1.61,0-2.42,0c-0.18,0-0.27,0.03-0.27,0.24
			c0.01,0.82,0.01,1.63,0,2.45c0,0.18,0.06,0.24,0.24,0.24c1.63,0,3.27,0,4.9,0c0.18,0,0.24-0.07,0.23-0.24
			c-0.01-0.81-0.01-1.61,0-2.42c0-0.21-0.06-0.27-0.27-0.27C58.81,110.77,58,110.77,57.19,110.77z M40.11,118.57
			c0.81,0,1.61-0.01,2.42,0c0.21,0,0.27-0.06,0.27-0.27c-0.01-0.8-0.01-1.59,0-2.39c0-0.2-0.05-0.28-0.26-0.28
			c-1.61,0.01-3.23,0.01-4.84,0c-0.21,0-0.27,0.07-0.27,0.27c0.01,0.8,0.01,1.59,0,2.39c0,0.24,0.09,0.28,0.3,0.27
			C38.51,118.56,39.31,118.57,40.11,118.57z M57.2,118.57c0.79,0,1.57-0.01,2.36,0.01c0.28,0.01,0.33-0.09,0.33-0.34
			c-0.02-0.76-0.02-1.53,0-2.29c0-0.24-0.06-0.31-0.3-0.31c-1.59,0.01-3.19,0.01-4.78,0c-0.21,0-0.3,0.04-0.3,0.28
			c0.01,0.8,0.01,1.59,0,2.39c0,0.21,0.06,0.27,0.27,0.27C55.59,118.56,56.39,118.57,57.2,118.57z M40.12,120.53
			c-0.81,0-1.61,0.01-2.42,0c-0.21,0-0.28,0.06-0.27,0.27c0.01,0.8,0.01,1.59,0,2.39c0,0.23,0.08,0.28,0.3,0.28
			c1.6-0.01,3.21-0.01,4.81,0c0.21,0,0.28-0.06,0.27-0.27c-0.01-0.8-0.01-1.59,0-2.39c0-0.23-0.08-0.28-0.29-0.28
			C41.71,120.53,40.91,120.53,40.12,120.53z M57.17,128.33c0.81,0,1.61-0.01,2.42,0c0.21,0,0.3-0.04,0.3-0.27
			c-0.01-0.8-0.01-1.59,0-2.39c0-0.21-0.07-0.27-0.27-0.27c-1.61,0.01-3.23,0.01-4.84,0c-0.21,0-0.27,0.07-0.27,0.28
			c0.01,0.8,0.01,1.59,0,2.39c0,0.21,0.06,0.27,0.27,0.27C55.57,128.32,56.37,128.33,57.17,128.33z M40.13,130.29
			c-0.82,0-1.64,0-2.45,0c-0.19,0-0.26,0.05-0.26,0.25c0.01,0.81,0.01,1.61,0,2.42c0,0.21,0.07,0.27,0.27,0.27
			c1.61-0.01,3.23-0.01,4.84,0c0.19,0,0.26-0.05,0.26-0.25c-0.01-0.81-0.01-1.61,0-2.42c0-0.22-0.08-0.27-0.28-0.26
			C41.72,130.3,40.93,130.29,40.13,130.29z M57.2,130.29c-0.81,0-1.61,0-2.42,0c-0.18,0-0.27,0.03-0.27,0.24
			c0.01,0.82,0.01,1.64,0,2.45c0,0.18,0.05,0.24,0.23,0.24c1.64-0.01,3.27-0.01,4.91,0c0.22,0,0.23-0.11,0.23-0.28
			c-0.01-0.79-0.01-1.57,0-2.36c0-0.23-0.06-0.31-0.3-0.31C58.79,130.3,57.99,130.29,57.2,130.29z M40.11,125.4
			c-0.81,0-1.61,0.01-2.42,0c-0.21,0-0.27,0.06-0.27,0.27c0.01,0.8,0.01,1.59,0,2.39c0,0.2,0.05,0.28,0.26,0.28
			c1.61-0.01,3.23-0.01,4.84,0c0.21,0,0.27-0.06,0.27-0.27c-0.01-0.8-0.01-1.59,0-2.39c0-0.23-0.09-0.28-0.3-0.28
			C41.7,125.41,40.91,125.4,40.11,125.4z M57.2,120.53c-0.8,0-1.59,0.01-2.39-0.01c-0.24,0-0.3,0.07-0.3,0.31
			c0.01,0.78,0.01,1.57,0,2.36c0,0.2,0.06,0.28,0.27,0.28c1.61-0.01,3.23-0.01,4.84,0c0.21,0,0.27-0.07,0.27-0.28
			c-0.01-0.79-0.01-1.57,0-2.36c0-0.23-0.06-0.31-0.3-0.31C58.79,120.54,57.99,120.53,57.2,120.53z M71.6,119.13
			c0-0.68,0-1.36,0-2.04c0-0.16-0.03-0.29-0.15-0.4c-0.23-0.24-0.45-0.48-0.66-0.73c-0.12-0.15-0.2-0.18-0.34-0.01
			c-0.21,0.26-0.45,0.51-0.68,0.76c-0.09,0.1-0.14,0.2-0.14,0.34c0,1.4,0.01,2.8,0,4.2c0,0.2,0.07,0.25,0.26,0.25
			c0.48-0.01,0.95-0.01,1.43,0c0.21,0.01,0.28-0.06,0.27-0.27C71.59,120.53,71.6,119.83,71.6,119.13z"/>
		<path class="st2" d="M27.39,133.22c-1.27,0-2.55,0.01-3.82,0c-0.71,0-1.17-0.58-0.99-1.23c0.11-0.42,0.47-0.72,0.94-0.72
			c2.6-0.01,5.2-0.01,7.8,0c0.58,0,0.99,0.45,0.98,1c-0.01,0.53-0.43,0.95-0.99,0.95C30,133.22,28.69,133.22,27.39,133.22z"/>
		<path class="st2" d="M27.41,142.98c-1.28,0-2.57,0-3.85,0c-0.45,0-0.81-0.24-0.95-0.62c-0.15-0.39-0.04-0.82,0.28-1.1
			c0.19-0.17,0.42-0.24,0.68-0.24c2.57,0,5.14,0,7.71,0c0.61,0,1.04,0.42,1.04,0.98c0,0.57-0.44,0.98-1.07,0.98
			C29.96,142.98,28.68,142.98,27.41,142.98z"/>
		<path class="st2" d="M27.43,145.91c1.28,0,2.57,0,3.85,0c0.49,0,0.86,0.28,0.98,0.71c0.12,0.43-0.06,0.87-0.44,1.1
			c-0.18,0.11-0.38,0.14-0.58,0.14c-2.56,0-5.12,0-7.68,0c-0.61,0-1.03-0.42-1.03-0.98c0-0.55,0.44-0.97,1.04-0.97
			C24.86,145.91,26.14,145.91,27.43,145.91C27.43,145.91,27.43,145.91,27.43,145.91z"/>
		<path class="st2" d="M27.39,128.33c-1.28,0-2.57,0-3.85,0c-0.47,0-0.82-0.25-0.95-0.66c-0.13-0.38-0.01-0.81,0.3-1.07
			c0.19-0.16,0.4-0.22,0.65-0.22c2.58,0,5.16,0,7.74,0c0.59,0,1.01,0.41,1.02,0.96c0.01,0.56-0.42,0.98-1.02,0.99
			C29.98,128.34,28.69,128.33,27.39,128.33z"/>
		<path class="st2" d="M27.41,136.15c1.26,0,2.53,0,3.79,0c0.66,0,1.1,0.39,1.1,0.97c0,0.58-0.45,0.97-1.1,0.97
			c-2.53,0-5.05,0-7.58,0c-0.63,0-1.07-0.39-1.08-0.96c-0.01-0.58,0.44-0.99,1.09-0.99C24.88,136.15,26.15,136.15,27.41,136.15z"/>
		<path class="st2" d="M69.85,133.22c-1.25,0-2.51,0-3.76,0c-0.65,0-1.09-0.4-1.08-0.99c0-0.56,0.45-0.96,1.08-0.97
			c2.54,0,5.08,0,7.61,0c0.63,0,1.07,0.41,1.07,0.98c0,0.56-0.44,0.98-1.07,0.98C72.42,133.22,71.14,133.22,69.85,133.22z"/>
		<path class="st2" d="M69.89,142.98c-1.26,0-2.53,0-3.79,0c-0.64,0-1.08-0.39-1.09-0.95c-0.01-0.58,0.43-1,1.08-1
			c2.54,0,5.08,0,7.61,0c0.65,0,1.09,0.42,1.07,1c-0.01,0.56-0.45,0.95-1.09,0.95C72.42,142.98,71.15,142.98,69.89,142.98z"/>
		<path class="st2" d="M69.92,145.91c1.25,0,2.51,0,3.76,0c0.65,0,1.08,0.38,1.09,0.95c0.01,0.58-0.43,1-1.08,1
			c-2.55,0-5.1,0.01-7.65,0c-0.62,0-1.06-0.43-1.04-1c0.01-0.56,0.45-0.95,1.06-0.95C67.35,145.91,68.64,145.91,69.92,145.91z"/>
		<path class="st2" d="M69.89,138.1c-1.26,0-2.53,0-3.79,0c-0.65,0-1.11-0.41-1.09-0.98c0.01-0.57,0.44-0.96,1.08-0.96
			c2.54,0,5.08,0,7.61,0c0.64,0,1.07,0.39,1.08,0.97c0.01,0.57-0.43,0.98-1.06,0.98C72.44,138.1,71.16,138.1,69.89,138.1z"/>
		<path class="st2" d="M69.85,128.33c-1.25,0-2.51,0-3.76,0c-0.64,0-1.08-0.39-1.09-0.95c-0.01-0.58,0.43-0.99,1.08-0.99
			c2.54,0,5.08,0,7.61,0c0.64,0,1.07,0.4,1.07,0.97c0,0.57-0.43,0.97-1.07,0.97C72.42,128.33,71.14,128.33,69.85,128.33z"/>
	</g>
	<g class="st3">
		<path class="st2" d="M182.59,123.37c0,11.74,0,23.49,0.01,35.23c0,0.24-0.05,0.29-0.29,0.29c-20.64-0.01-41.28-0.01-61.91,0
			c-0.24,0-0.29-0.05-0.29-0.29c0.01-12.13,0.01-24.25,0.01-36.38c0.11-0.07,0.22-0.13,0.32-0.2c1.48-1.04,2.96-2.08,4.43-3.11
			c4.34-3.05,8.67-6.1,13.02-9.14c0.22-0.15,0.3-0.31,0.29-0.57c-0.02-0.99-0.01-1.98-0.01-2.96c0-1.18,0.83-2.01,2-2.02
			c0.69-0.01,1.38-0.01,2.07,0c0.24,0,0.33-0.06,0.32-0.32c-0.01-1.16-0.01-2.32-0.01-3.47c0-0.64,0.28-0.98,0.92-1.1
			c4.3-0.81,8.6-1.61,12.9-2.42c0.83-0.16,1.67-0.27,2.49-0.5c0.19,0,0.38,0,0.57,0c0.56,0.27,0.71,0.74,0.7,1.33
			c-0.02,2.03,0,4.06-0.02,6.09c0,0.34,0.1,0.41,0.41,0.39c0.64-0.02,1.27-0.01,1.91-0.01c1.28,0.01,2.08,0.82,2.08,2.11
			c0,5.02,0,10.03,0,15.05c0,0.06,0.01,0.13,0,0.19c-0.02,0.19,0.07,0.24,0.24,0.23c0.44-0.01,0.87-0.02,1.31,0
			c0.32,0.02,0.41-0.07,0.41-0.4c-0.01-4.36-0.01-8.71-0.01-13.07c0-0.11,0-0.21,0.01-0.32c0.06-0.5,0.47-0.86,0.95-0.87
			c0.35,0,0.62,0.17,0.85,0.43c1.61,1.79,3.22,3.56,4.82,5.35c0.16,0.17,0.24,0.2,0.41,0.01c0.9-1.02,1.82-2.02,2.73-3.03
			c0.73-0.8,1.45-1.61,2.18-2.41c0.31-0.34,0.72-0.43,1.1-0.28c0.42,0.17,0.61,0.5,0.62,0.95c0,0.1,0,0.19,0,0.29
			c0,4.33,0,8.65-0.01,12.98c0,0.29,0.08,0.38,0.37,0.37c0.72-0.03,1.3,0.25,1.73,0.84C182.41,122.85,182.47,123.12,182.59,123.37z
			 M138.11,112c-0.11,0.07-0.21,0.14-0.31,0.21c-5.15,3.62-10.31,7.25-15.47,10.86c-0.21,0.15-0.28,0.3-0.28,0.55
			c0.01,10.97,0,21.93,0.01,32.9c0,0.41,0,0.41,0.41,0.41c5.07,0,10.14,0,15.21,0c0.56,0,0.48,0.06,0.48-0.47
			c0-14.7,0-29.39,0-44.09C138.16,112.26,138.19,112.14,138.11,112z M180.64,140.33c0-5.39,0-10.77,0-16.16c0-0.43,0-0.43-0.42-0.43
			c-5.11,0-10.22,0-15.33-0.01c-0.28,0-0.35,0.07-0.35,0.35c0.01,10.82,0.01,21.63,0,32.45c0,0.32,0.07,0.41,0.4,0.41
			c5.1-0.01,10.2-0.01,15.3-0.01c0.41,0,0.41,0,0.41-0.41C180.64,151.12,180.64,145.73,180.64,140.33z M151.36,135.45
			C151.36,135.45,151.36,135.45,151.36,135.45c-3.63,0-7.27,0-10.9,0c-0.25,0-0.36,0.04-0.34,0.32c0.03,0.37,0.01,0.74,0.01,1.12
			c0,6.57,0,13.13-0.01,19.7c0,0.25,0.05,0.36,0.33,0.35c0.76-0.02,1.53-0.02,2.29,0c0.25,0.01,0.32-0.07,0.32-0.32
			c-0.01-4.35-0.01-8.69,0-13.04c0-0.22-0.06-0.31-0.28-0.36c-0.4-0.1-0.63-0.38-0.69-0.78c-0.06-0.41,0.09-0.73,0.43-0.96
			c0.22-0.15,0.48-0.16,0.73-0.16c5.4,0,10.8,0,16.19,0c0.08,0,0.17,0,0.25,0c0.5,0.04,0.86,0.39,0.91,0.87
			c0.05,0.49-0.23,0.93-0.73,1.05c-0.21,0.05-0.24,0.14-0.24,0.32c0,4.37,0,8.73,0,13.1c0,0.23,0.07,0.29,0.29,0.29
			c0.76-0.01,1.53-0.02,2.29,0c0.27,0.01,0.36-0.06,0.36-0.35c-0.01-6.91-0.01-13.81-0.01-20.72c0-0.41,0-0.41-0.41-0.41
			C158.56,135.45,154.96,135.45,151.36,135.45z M145,150.09c0,2.17,0,4.33-0.01,6.5c0,0.26,0.06,0.36,0.33,0.34
			c0.4-0.02,0.81,0,1.21-0.01c0.41,0,0.41,0,0.41-0.41c0-3.1,0-6.2,0-9.31c0-1.12,0.81-1.98,1.89-1.99c1.67-0.02,3.34-0.02,5,0
			c1.06,0.01,1.87,0.86,1.89,1.93c0.01,0.45,0,0.89,0,1.34c0,2.7,0,5.4-0.01,8.1c0,0.26,0.06,0.36,0.33,0.34
			c0.41-0.02,0.83-0.03,1.24,0c0.3,0.02,0.39-0.07,0.39-0.38c-0.01-4.3-0.01-8.61,0-12.91c0-0.3-0.07-0.39-0.38-0.39
			c-3.98,0.01-7.97,0.01-11.95,0c-0.29,0-0.38,0.06-0.37,0.36C145.01,145.78,145,147.93,145,150.09z M151.34,104.21
			c2.17,0,4.33,0,6.5,0c0.16,0,0.34,0.06,0.34-0.23c-0.01-1.73-0.01-3.46,0-5.19c0-0.2-0.07-0.23-0.25-0.18
			c-0.29,0.07-0.58,0.11-0.88,0.16c-4.08,0.76-8.16,1.53-12.24,2.29c-0.23,0.04-0.32,0.12-0.31,0.37c0.02,0.81,0.02,1.61,0,2.42
			c-0.01,0.29,0.07,0.37,0.37,0.37C147.03,104.2,149.19,104.21,151.34,104.21z M148.91,152.05c0,1.51,0.01,3.02-0.01,4.52
			c0,0.3,0.09,0.37,0.38,0.36c1.4-0.01,2.8-0.01,4.21,0c0.23,0,0.31-0.05,0.31-0.3c-0.01-3.06-0.01-6.12,0-9.17
			c0-0.24-0.07-0.3-0.31-0.3c-1.4,0.01-2.8,0.01-4.21,0c-0.28,0-0.38,0.06-0.38,0.36C148.92,149.03,148.91,150.54,148.91,152.05z
			 M151.37,109.09c1.18,0,2.36-0.01,3.54,0.01c0.29,0,0.35-0.09,0.35-0.36c-0.02-0.74-0.02-1.49,0-2.23c0-0.25-0.05-0.35-0.33-0.35
			c-2.39,0.01-4.78,0.01-7.17,0c-0.27,0-0.32,0.09-0.31,0.33c0.01,0.75,0.02,1.51,0,2.26c-0.01,0.29,0.1,0.35,0.36,0.35
			C148.99,109.08,150.18,109.09,151.37,109.09z M151.34,111.05c-1.2,0-2.4,0-3.6,0c-0.21,0-0.3,0.03-0.3,0.27
			c0.01,0.8,0.01,1.59,0,2.39c0,0.22,0.08,0.27,0.28,0.27c2.42,0,4.85-0.01,7.27,0c0.22,0,0.27-0.08,0.27-0.28
			c-0.01-0.79-0.01-1.57,0-2.36c0.01-0.25-0.08-0.3-0.31-0.3C153.74,111.05,152.54,111.05,151.34,111.05z M151.35,118.85
			C151.35,118.85,151.35,118.85,151.35,118.85c1.21,0,2.42-0.01,3.63,0c0.21,0,0.27-0.06,0.27-0.27c-0.01-0.8-0.01-1.59,0-2.39
			c0-0.2-0.04-0.28-0.26-0.28c-2.42,0.01-4.84,0.01-7.26,0c-0.22,0-0.29,0.06-0.29,0.29c0.01,0.77,0.02,1.55,0,2.32
			c-0.01,0.28,0.09,0.33,0.35,0.33C148.97,118.85,150.16,118.85,151.35,118.85z M151.35,130.57c-1.21,0-2.42,0-3.63,0
			c-0.2,0-0.28,0.04-0.28,0.26c0.01,0.8,0.01,1.59,0,2.39c0,0.22,0.07,0.29,0.29,0.29c2.41-0.01,4.82-0.01,7.23,0
			c0.22,0,0.3-0.05,0.29-0.28c-0.01-0.79-0.01-1.57,0-2.36c0-0.24-0.07-0.3-0.31-0.3C153.75,130.58,152.55,130.57,151.35,130.57z
			 M151.38,120.81c-1.22,0-2.44,0-3.66,0c-0.2,0-0.28,0.05-0.28,0.27c0.01,0.8,0.01,1.59,0,2.39c0,0.23,0.07,0.28,0.29,0.28
			c2.41-0.01,4.82-0.01,7.23,0c0.22,0,0.3-0.05,0.29-0.28c-0.01-0.79-0.01-1.57,0-2.36c0-0.24-0.07-0.3-0.31-0.3
			C153.76,120.82,152.57,120.81,151.38,120.81z M151.33,128.61c1.21,0,2.42,0,3.63,0c0.22,0,0.29-0.06,0.29-0.28
			c-0.01-0.8-0.01-1.59,0-2.39c0-0.22-0.08-0.27-0.28-0.27c-2.42,0.01-4.84,0-7.26,0c-0.2,0-0.28,0.06-0.27,0.27
			c0.01,0.79,0.02,1.57,0,2.36c-0.01,0.27,0.09,0.31,0.33,0.31C148.96,128.61,150.15,128.61,151.33,128.61z M168.48,110.7
			c-0.03,0.08-0.04,0.1-0.04,0.12c0,3.58,0,7.16-0.01,10.74c0,0.2,0.09,0.23,0.25,0.22c0.46-0.01,0.91-0.02,1.37,0
			c0.26,0.01,0.35-0.06,0.34-0.33c-0.01-1.5,0-3-0.01-4.49c0-0.41,0.12-0.74,0.4-1.03c0.36-0.37,0.69-0.78,1.05-1.15
			c0.14-0.14,0.13-0.22,0-0.36c-0.65-0.7-1.29-1.41-1.93-2.12C169.44,111.77,168.97,111.25,168.48,110.7z M178.2,110.72
			c-0.08,0.05-0.11,0.06-0.13,0.08c-1.1,1.21-2.19,2.43-3.29,3.63c-0.12,0.14-0.1,0.22,0.02,0.35c0.36,0.39,0.7,0.8,1.07,1.18
			c0.28,0.29,0.38,0.61,0.38,1.01c-0.01,1.51,0,3.02-0.01,4.52c0,0.24,0.06,0.31,0.3,0.3c0.42-0.02,0.85-0.03,1.27,0
			c0.31,0.02,0.39-0.07,0.39-0.38c-0.01-3.44-0.01-6.88-0.01-10.32C178.2,110.98,178.2,110.87,178.2,110.72z M142.8,109.09
			c0.81,0,1.61,0,2.42,0c0.2,0,0.28-0.05,0.27-0.27c-0.01-0.81-0.01-1.61,0-2.42c0-0.2-0.07-0.25-0.26-0.25
			c-1.61,0.01-3.23,0.01-4.84,0c-0.24,0-0.28,0.09-0.27,0.3c0.01,0.77,0.02,1.55,0,2.32c-0.01,0.27,0.09,0.32,0.33,0.31
			C141.23,109.08,142.01,109.09,142.8,109.09z M159.89,109.09c0.8,0,1.59-0.01,2.39,0c0.21,0,0.3-0.04,0.3-0.28
			c-0.01-0.8-0.01-1.59,0-2.39c0-0.21-0.07-0.27-0.27-0.27c-1.61,0.01-3.22,0.01-4.84,0c-0.21,0-0.27,0.08-0.27,0.28
			c0.01,0.8,0.01,1.59,0,2.39c0,0.21,0.07,0.27,0.27,0.27C158.28,109.08,159.09,109.09,159.89,109.09z M142.78,113.98
			c0.81,0,1.61-0.01,2.42,0c0.21,0,0.3-0.04,0.3-0.28c-0.01-0.8-0.01-1.59,0-2.39c0-0.21-0.06-0.27-0.27-0.27
			c-1.61,0.01-3.23,0.01-4.84,0c-0.21,0-0.27,0.07-0.27,0.28c0.01,0.8,0.01,1.59,0,2.39c0,0.21,0.07,0.27,0.27,0.27
			C141.18,113.97,141.98,113.98,142.78,113.98z M159.89,111.05c-0.81,0-1.61,0-2.42,0c-0.18,0-0.27,0.03-0.27,0.24
			c0.01,0.82,0.01,1.63,0,2.45c0,0.18,0.06,0.24,0.24,0.24c1.63,0,3.27,0,4.9,0c0.18,0,0.24-0.07,0.23-0.24
			c-0.01-0.81-0.01-1.61,0-2.42c0-0.21-0.06-0.27-0.27-0.27C161.5,111.06,160.69,111.05,159.89,111.05z M142.8,118.85
			c0.81,0,1.61-0.01,2.42,0c0.21,0,0.27-0.06,0.27-0.27c-0.01-0.8-0.01-1.59,0-2.39c0-0.2-0.05-0.28-0.26-0.28
			c-1.61,0.01-3.23,0.01-4.84,0c-0.21,0-0.27,0.07-0.27,0.27c0.01,0.8,0.01,1.59,0,2.39c0,0.24,0.09,0.28,0.3,0.27
			C141.21,118.85,142.01,118.85,142.8,118.85z M159.89,118.85c0.79,0,1.57-0.01,2.36,0.01c0.28,0.01,0.33-0.09,0.33-0.34
			c-0.02-0.76-0.02-1.53,0-2.29c0-0.24-0.06-0.31-0.3-0.31c-1.59,0.01-3.19,0.01-4.78,0c-0.21,0-0.3,0.04-0.3,0.28
			c0.01,0.8,0.01,1.59,0,2.39c0,0.21,0.06,0.27,0.27,0.27C158.28,118.85,159.09,118.85,159.89,118.85z M142.81,120.81
			c-0.81,0-1.61,0.01-2.42,0c-0.21,0-0.28,0.06-0.27,0.27c0.01,0.8,0.01,1.59,0,2.39c0,0.23,0.08,0.28,0.3,0.28
			c1.6-0.01,3.21-0.01,4.81,0c0.21,0,0.28-0.06,0.27-0.27c-0.01-0.8-0.01-1.59,0-2.39c0-0.23-0.08-0.28-0.29-0.28
			C144.4,120.82,143.61,120.81,142.81,120.81z M159.86,128.61c0.81,0,1.61-0.01,2.42,0c0.21,0,0.3-0.04,0.3-0.27
			c-0.01-0.8-0.01-1.59,0-2.39c0-0.21-0.07-0.27-0.27-0.27c-1.61,0.01-3.23,0.01-4.84,0c-0.21,0-0.27,0.07-0.27,0.28
			c0.01,0.8,0.01,1.59,0,2.39c0,0.21,0.06,0.27,0.27,0.27C158.27,128.61,159.06,128.61,159.86,128.61z M142.83,130.57
			c-0.82,0-1.64,0-2.45,0c-0.19,0-0.26,0.05-0.26,0.25c0.01,0.81,0.01,1.61,0,2.42c0,0.21,0.07,0.27,0.27,0.27
			c1.61-0.01,3.23-0.01,4.84,0c0.19,0,0.26-0.05,0.26-0.25c-0.01-0.81-0.01-1.61,0-2.42c0-0.22-0.08-0.27-0.28-0.26
			C144.42,130.58,143.62,130.57,142.83,130.57z M159.89,130.57c-0.81,0-1.61,0-2.42,0c-0.18,0-0.27,0.03-0.27,0.24
			c0.01,0.82,0.01,1.64,0,2.45c0,0.18,0.05,0.24,0.23,0.24c1.64-0.01,3.27-0.01,4.91,0c0.22,0,0.23-0.11,0.23-0.28
			c-0.01-0.79-0.01-1.57,0-2.36c0-0.23-0.06-0.31-0.3-0.31C161.48,130.58,160.69,130.57,159.89,130.57z M142.81,125.69
			c-0.81,0-1.61,0.01-2.42,0c-0.21,0-0.27,0.06-0.27,0.27c0.01,0.8,0.01,1.59,0,2.39c0,0.2,0.05,0.28,0.26,0.28
			c1.61-0.01,3.23-0.01,4.84,0c0.21,0,0.27-0.06,0.27-0.27c-0.01-0.8-0.01-1.59,0-2.39c0-0.23-0.09-0.28-0.3-0.28
			C144.4,125.69,143.6,125.69,142.81,125.69z M159.89,120.81c-0.8,0-1.59,0.01-2.39-0.01c-0.24,0-0.3,0.07-0.3,0.31
			c0.01,0.78,0.01,1.57,0,2.36c0,0.2,0.06,0.28,0.27,0.28c1.61-0.01,3.23-0.01,4.84,0c0.21,0,0.27-0.07,0.27-0.28
			c-0.01-0.79-0.01-1.57,0-2.36c0-0.23-0.06-0.31-0.3-0.31C161.48,120.82,160.69,120.81,159.89,120.81z M174.29,119.42
			c0-0.68,0-1.36,0-2.04c0-0.16-0.03-0.29-0.15-0.4c-0.23-0.24-0.45-0.48-0.66-0.73c-0.12-0.15-0.2-0.18-0.34-0.01
			c-0.21,0.26-0.45,0.51-0.68,0.76c-0.09,0.1-0.14,0.2-0.14,0.34c0,1.4,0.01,2.8,0,4.2c0,0.2,0.07,0.25,0.26,0.25
			c0.48-0.01,0.95-0.01,1.43,0c0.21,0.01,0.28-0.06,0.27-0.27C174.29,120.82,174.29,120.12,174.29,119.42z"/>
		<path class="st2" d="M130.08,133.5c-1.27,0-2.55,0.01-3.82,0c-0.71,0-1.17-0.58-0.99-1.23c0.11-0.42,0.47-0.72,0.94-0.72
			c2.6-0.01,5.2-0.01,7.8,0c0.58,0,0.99,0.45,0.98,1c-0.01,0.53-0.43,0.95-0.99,0.95C132.69,133.51,131.39,133.5,130.08,133.5z"/>
		<path class="st2" d="M130.1,143.26c-1.28,0-2.57,0-3.85,0c-0.45,0-0.81-0.24-0.95-0.62c-0.15-0.39-0.04-0.82,0.28-1.1
			c0.19-0.17,0.42-0.24,0.68-0.24c2.57,0,5.14,0,7.71,0c0.61,0,1.04,0.42,1.04,0.98c0,0.57-0.44,0.98-1.07,0.98
			C132.65,143.27,131.38,143.26,130.1,143.26z"/>
		<path class="st2" d="M130.12,146.19c1.28,0,2.57,0,3.85,0c0.49,0,0.86,0.28,0.98,0.71c0.12,0.43-0.06,0.87-0.44,1.1
			c-0.18,0.11-0.38,0.14-0.58,0.14c-2.56,0-5.12,0-7.68,0c-0.61,0-1.03-0.42-1.03-0.98c0-0.55,0.44-0.97,1.04-0.97
			C127.55,146.19,128.84,146.19,130.12,146.19C130.12,146.19,130.12,146.19,130.12,146.19z"/>
		<path class="st2" d="M130.09,128.61c-1.28,0-2.57,0-3.85,0c-0.47,0-0.82-0.25-0.95-0.66c-0.13-0.38-0.01-0.81,0.3-1.07
			c0.19-0.16,0.4-0.22,0.65-0.22c2.58,0,5.16,0,7.74,0c0.59,0,1.01,0.41,1.02,0.96c0.01,0.56-0.42,0.98-1.02,0.99
			C132.68,128.62,131.38,128.61,130.09,128.61z"/>
		<path class="st2" d="M130.1,136.43c1.26,0,2.53,0,3.79,0c0.66,0,1.1,0.39,1.1,0.97c0,0.58-0.45,0.97-1.1,0.97
			c-2.53,0-5.05,0-7.58,0c-0.63,0-1.07-0.39-1.08-0.96c-0.01-0.58,0.44-0.99,1.09-0.99C127.58,136.43,128.84,136.43,130.1,136.43z"
			/>
		<path class="st2" d="M172.55,133.5c-1.25,0-2.51,0-3.76,0c-0.65,0-1.09-0.4-1.08-0.99c0-0.56,0.45-0.96,1.08-0.97
			c2.54,0,5.08,0,7.61,0c0.63,0,1.07,0.41,1.07,0.98c0,0.56-0.44,0.98-1.07,0.98C175.12,133.5,173.83,133.5,172.55,133.5z"/>
		<path class="st2" d="M172.58,143.26c-1.26,0-2.53,0-3.79,0c-0.64,0-1.08-0.39-1.09-0.95c-0.01-0.58,0.43-1,1.08-1
			c2.54,0,5.08,0,7.61,0c0.65,0,1.09,0.42,1.07,1c-0.01,0.56-0.45,0.95-1.09,0.95C175.11,143.26,173.85,143.26,172.58,143.26z"/>
		<path class="st2" d="M172.62,146.19c1.25,0,2.51,0,3.76,0c0.65,0,1.08,0.38,1.09,0.95c0.01,0.58-0.43,1-1.08,1
			c-2.55,0-5.1,0.01-7.65,0c-0.62,0-1.06-0.43-1.04-1c0.01-0.56,0.45-0.95,1.06-0.95C170.05,146.19,171.33,146.19,172.62,146.19z"/>
		<path class="st2" d="M172.58,138.38c-1.26,0-2.53,0-3.79,0c-0.65,0-1.11-0.41-1.09-0.98c0.01-0.57,0.44-0.96,1.08-0.96
			c2.54,0,5.08,0,7.61,0c0.64,0,1.07,0.39,1.08,0.97c0.01,0.57-0.43,0.98-1.06,0.98C175.13,138.38,173.86,138.38,172.58,138.38z"/>
		<path class="st2" d="M172.55,128.61c-1.25,0-2.51,0-3.76,0c-0.64,0-1.08-0.39-1.09-0.95c-0.01-0.58,0.43-0.99,1.08-0.99
			c2.54,0,5.08,0,7.61,0c0.64,0,1.07,0.4,1.07,0.97c0,0.57-0.43,0.97-1.07,0.97C175.12,128.62,173.83,128.61,172.55,128.61z"/>
	</g>
	<g class="st3">
		<path class="st2" d="M138.99,57.47c0,11.74,0,23.49,0.01,35.23c0,0.24-0.05,0.29-0.29,0.29c-20.64-0.01-41.28-0.01-61.91,0
			c-0.24,0-0.29-0.05-0.29-0.29c0.01-12.13,0.01-24.25,0.01-36.38c0.11-0.07,0.22-0.13,0.32-0.2c1.48-1.04,2.96-2.08,4.43-3.11
			c4.34-3.05,8.67-6.1,13.02-9.14c0.22-0.15,0.3-0.31,0.29-0.57c-0.02-0.99-0.01-1.98-0.01-2.96c0-1.18,0.83-2.01,2-2.02
			c0.69-0.01,1.38-0.01,2.07,0c0.24,0,0.33-0.06,0.32-0.32c-0.01-1.16-0.01-2.32-0.01-3.47c0-0.64,0.28-0.98,0.92-1.1
			c4.3-0.81,8.6-1.61,12.9-2.42c0.83-0.16,1.67-0.27,2.49-0.5c0.19,0,0.38,0,0.57,0c0.56,0.27,0.71,0.74,0.7,1.33
			c-0.02,2.03,0,4.06-0.02,6.09c0,0.34,0.1,0.41,0.41,0.39c0.64-0.02,1.27-0.01,1.91-0.01c1.28,0.01,2.08,0.82,2.08,2.11
			c0,5.02,0,10.03,0,15.05c0,0.06,0.01,0.13,0,0.19c-0.02,0.19,0.07,0.24,0.24,0.23c0.44-0.01,0.87-0.02,1.31,0
			c0.32,0.02,0.41-0.07,0.41-0.4c-0.01-4.36-0.01-8.71-0.01-13.07c0-0.11,0-0.21,0.01-0.32c0.06-0.5,0.47-0.86,0.95-0.87
			c0.35,0,0.62,0.17,0.85,0.43c1.61,1.79,3.22,3.56,4.82,5.35c0.16,0.17,0.24,0.2,0.41,0.01c0.9-1.02,1.82-2.02,2.73-3.03
			c0.73-0.8,1.45-1.61,2.18-2.41c0.31-0.34,0.72-0.43,1.1-0.28c0.42,0.17,0.61,0.5,0.62,0.95c0,0.1,0,0.19,0,0.29
			c0,4.33,0,8.65-0.01,12.98c0,0.29,0.08,0.38,0.37,0.37c0.72-0.03,1.3,0.25,1.73,0.84C138.81,56.95,138.87,57.22,138.99,57.47z
			 M94.5,46.1c-0.11,0.07-0.21,0.14-0.31,0.21c-5.15,3.62-10.31,7.25-15.47,10.86c-0.21,0.15-0.28,0.3-0.28,0.55
			c0.01,10.97,0,21.93,0.01,32.9c0,0.41,0,0.41,0.41,0.41c5.07,0,10.14,0,15.21,0c0.56,0,0.48,0.06,0.48-0.47
			c0-14.7,0-29.39,0-44.09C94.56,46.36,94.58,46.24,94.5,46.1z M137.03,74.43c0-5.39,0-10.77,0-16.16c0-0.43,0-0.43-0.42-0.43
			c-5.11,0-10.22,0-15.33-0.01c-0.28,0-0.35,0.07-0.35,0.35c0.01,10.82,0.01,21.63,0,32.45c0,0.32,0.07,0.41,0.4,0.41
			c5.1-0.01,10.2-0.01,15.3-0.01c0.41,0,0.41,0,0.41-0.41C137.03,85.22,137.03,79.83,137.03,74.43z M107.75,69.55
			C107.75,69.55,107.75,69.55,107.75,69.55c-3.63,0-7.27,0-10.9,0c-0.25,0-0.36,0.04-0.34,0.32c0.03,0.37,0.01,0.74,0.01,1.12
			c0,6.57,0,13.13-0.01,19.7c0,0.25,0.05,0.36,0.33,0.35c0.76-0.02,1.53-0.02,2.29,0c0.25,0.01,0.32-0.07,0.32-0.32
			c-0.01-4.35-0.01-8.69,0-13.04c0-0.22-0.06-0.31-0.28-0.36c-0.4-0.1-0.63-0.38-0.69-0.78c-0.06-0.41,0.09-0.73,0.43-0.96
			c0.22-0.15,0.48-0.16,0.73-0.16c5.4,0,10.8,0,16.19,0c0.08,0,0.17,0,0.25,0c0.5,0.04,0.86,0.39,0.91,0.87
			c0.05,0.49-0.23,0.93-0.73,1.05c-0.21,0.05-0.24,0.14-0.24,0.32c0,4.37,0,8.73,0,13.1c0,0.23,0.07,0.29,0.29,0.29
			c0.76-0.01,1.53-0.02,2.29,0c0.27,0.01,0.36-0.06,0.36-0.35c-0.01-6.91-0.01-13.81-0.01-20.72c0-0.41,0-0.41-0.41-0.41
			C114.96,69.55,111.36,69.55,107.75,69.55z M101.39,84.19c0,2.17,0,4.33-0.01,6.5c0,0.26,0.06,0.36,0.33,0.34
			c0.4-0.02,0.81,0,1.21-0.01c0.41,0,0.41,0,0.41-0.41c0-3.1,0-6.2,0-9.31c0-1.12,0.81-1.98,1.89-1.99c1.67-0.02,3.34-0.02,5,0
			c1.06,0.01,1.87,0.86,1.89,1.93c0.01,0.45,0,0.89,0,1.34c0,2.7,0,5.4-0.01,8.1c0,0.26,0.06,0.36,0.33,0.34
			c0.41-0.02,0.83-0.03,1.24,0c0.3,0.02,0.39-0.07,0.39-0.38c-0.01-4.3-0.01-8.61,0-12.91c0-0.3-0.07-0.39-0.38-0.39
			c-3.98,0.01-7.97,0.01-11.95,0c-0.29,0-0.38,0.06-0.37,0.36C101.4,79.88,101.39,82.04,101.39,84.19z M107.74,38.31
			c2.17,0,4.33,0,6.5,0c0.16,0,0.34,0.06,0.34-0.23c-0.01-1.73-0.01-3.46,0-5.19c0-0.2-0.07-0.23-0.25-0.18
			c-0.29,0.07-0.58,0.11-0.88,0.16c-4.08,0.76-8.16,1.53-12.24,2.29c-0.23,0.04-0.32,0.12-0.31,0.37c0.02,0.81,0.02,1.61,0,2.42
			c-0.01,0.29,0.07,0.37,0.37,0.37C103.43,38.3,105.58,38.31,107.74,38.31z M105.3,86.15c0,1.51,0.01,3.02-0.01,4.52
			c0,0.3,0.09,0.37,0.38,0.36c1.4-0.01,2.8-0.01,4.21,0c0.23,0,0.31-0.05,0.31-0.3c-0.01-3.06-0.01-6.12,0-9.17
			c0-0.24-0.07-0.3-0.31-0.3c-1.4,0.01-2.8,0.01-4.21,0c-0.28,0-0.38,0.06-0.38,0.36C105.31,83.13,105.3,84.64,105.3,86.15z
			 M107.76,43.19c1.18,0,2.36-0.01,3.54,0.01c0.29,0,0.35-0.09,0.35-0.36c-0.02-0.74-0.02-1.49,0-2.23c0-0.25-0.05-0.35-0.33-0.35
			c-2.39,0.01-4.78,0.01-7.17,0c-0.27,0-0.32,0.09-0.31,0.33c0.01,0.75,0.02,1.51,0,2.26c-0.01,0.29,0.1,0.35,0.36,0.35
			C105.38,43.18,106.57,43.19,107.76,43.19z M107.74,45.15c-1.2,0-2.4,0-3.6,0c-0.21,0-0.3,0.03-0.3,0.27c0.01,0.8,0.01,1.59,0,2.39
			c0,0.22,0.08,0.27,0.28,0.27c2.42,0,4.85-0.01,7.27,0c0.22,0,0.27-0.08,0.27-0.28c-0.01-0.79-0.01-1.57,0-2.36
			c0.01-0.25-0.08-0.3-0.31-0.3C110.14,45.16,108.94,45.15,107.74,45.15z M107.75,52.95C107.75,52.95,107.75,52.95,107.75,52.95
			c1.21,0,2.42-0.01,3.63,0c0.21,0,0.27-0.06,0.27-0.27c-0.01-0.8-0.01-1.59,0-2.39c0-0.2-0.04-0.28-0.26-0.28
			c-2.42,0.01-4.84,0.01-7.26,0c-0.22,0-0.29,0.06-0.29,0.29c0.01,0.77,0.02,1.55,0,2.32c-0.01,0.28,0.09,0.33,0.35,0.33
			C105.37,52.95,106.56,52.95,107.75,52.95z M107.74,64.67c-1.21,0-2.42,0-3.63,0c-0.2,0-0.28,0.04-0.28,0.26
			c0.01,0.8,0.01,1.59,0,2.39c0,0.22,0.07,0.29,0.29,0.29c2.41-0.01,4.82-0.01,7.23,0c0.22,0,0.3-0.05,0.29-0.28
			c-0.01-0.79-0.01-1.57,0-2.36c0-0.24-0.07-0.3-0.31-0.3C110.14,64.68,108.94,64.67,107.74,64.67z M107.77,54.91
			c-1.22,0-2.44,0-3.66,0c-0.2,0-0.28,0.05-0.28,0.27c0.01,0.8,0.01,1.59,0,2.39c0,0.23,0.07,0.28,0.29,0.28
			c2.41-0.01,4.82-0.01,7.23,0c0.22,0,0.3-0.05,0.29-0.28c-0.01-0.79-0.01-1.57,0-2.36c0-0.24-0.07-0.3-0.31-0.3
			C110.15,54.92,108.96,54.91,107.77,54.91z M107.73,62.71c1.21,0,2.42,0,3.63,0c0.22,0,0.29-0.06,0.29-0.28
			c-0.01-0.8-0.01-1.59,0-2.39c0-0.22-0.08-0.27-0.28-0.27c-2.42,0.01-4.84,0-7.26,0c-0.2,0-0.28,0.06-0.27,0.27
			c0.01,0.79,0.02,1.57,0,2.36c-0.01,0.27,0.09,0.31,0.33,0.31C105.35,62.71,106.54,62.71,107.73,62.71z M124.87,44.81
			c-0.03,0.08-0.04,0.1-0.04,0.12c0,3.58,0,7.16-0.01,10.74c0,0.2,0.09,0.23,0.25,0.22c0.46-0.01,0.91-0.02,1.37,0
			c0.26,0.01,0.35-0.06,0.34-0.33c-0.01-1.5,0-3-0.01-4.49c0-0.41,0.12-0.74,0.4-1.03c0.36-0.37,0.69-0.78,1.05-1.15
			c0.14-0.14,0.13-0.22,0-0.36c-0.65-0.7-1.29-1.41-1.93-2.12C125.84,45.87,125.37,45.36,124.87,44.81z M134.59,44.82
			c-0.08,0.05-0.11,0.06-0.13,0.08c-1.1,1.21-2.19,2.43-3.29,3.63c-0.12,0.14-0.1,0.22,0.02,0.35c0.36,0.39,0.7,0.8,1.07,1.18
			c0.28,0.29,0.38,0.61,0.38,1.01c-0.01,1.51,0,3.02-0.01,4.52c0,0.24,0.06,0.31,0.3,0.3c0.42-0.02,0.85-0.03,1.27,0
			c0.31,0.02,0.39-0.07,0.39-0.38c-0.01-3.44-0.01-6.88-0.01-10.32C134.59,45.08,134.59,44.98,134.59,44.82z M99.19,43.19
			c0.81,0,1.61,0,2.42,0c0.2,0,0.28-0.05,0.27-0.27c-0.01-0.81-0.01-1.61,0-2.42c0-0.2-0.07-0.25-0.26-0.25
			c-1.61,0.01-3.23,0.01-4.84,0c-0.24,0-0.28,0.09-0.27,0.3c0.01,0.77,0.02,1.55,0,2.32c-0.01,0.27,0.09,0.32,0.33,0.31
			C97.62,43.18,98.41,43.19,99.19,43.19z M116.29,43.19c0.8,0,1.59-0.01,2.39,0c0.21,0,0.3-0.04,0.3-0.28
			c-0.01-0.8-0.01-1.59,0-2.39c0-0.21-0.07-0.27-0.27-0.27c-1.61,0.01-3.22,0.01-4.84,0c-0.21,0-0.27,0.08-0.27,0.28
			c0.01,0.8,0.01,1.59,0,2.39c0,0.21,0.07,0.27,0.27,0.27C114.68,43.18,115.48,43.19,116.29,43.19z M99.17,48.08
			c0.81,0,1.61-0.01,2.42,0c0.21,0,0.3-0.04,0.3-0.28c-0.01-0.8-0.01-1.59,0-2.39c0-0.21-0.06-0.27-0.27-0.27
			c-1.61,0.01-3.23,0.01-4.84,0c-0.21,0-0.27,0.07-0.27,0.28c0.01,0.8,0.01,1.59,0,2.39c0,0.21,0.07,0.27,0.27,0.27
			C97.58,48.07,98.37,48.08,99.17,48.08z M116.28,45.15c-0.81,0-1.61,0-2.42,0c-0.18,0-0.27,0.03-0.27,0.24
			c0.01,0.82,0.01,1.63,0,2.45c0,0.18,0.06,0.24,0.24,0.24c1.63,0,3.27,0,4.9,0c0.18,0,0.24-0.07,0.23-0.24
			c-0.01-0.81-0.01-1.61,0-2.42c0-0.21-0.06-0.27-0.27-0.27C117.89,45.16,117.09,45.15,116.28,45.15z M99.2,52.95
			c0.81,0,1.61-0.01,2.42,0c0.21,0,0.27-0.06,0.27-0.27c-0.01-0.8-0.01-1.59,0-2.39c0-0.2-0.05-0.28-0.26-0.28
			c-1.61,0.01-3.23,0.01-4.84,0c-0.21,0-0.27,0.07-0.27,0.27c0.01,0.8,0.01,1.59,0,2.39c0,0.24,0.09,0.28,0.3,0.27
			C97.6,52.95,98.4,52.95,99.2,52.95z M116.29,52.95c0.79,0,1.57-0.01,2.36,0.01c0.28,0.01,0.33-0.09,0.33-0.34
			c-0.02-0.76-0.02-1.53,0-2.29c0-0.24-0.06-0.31-0.3-0.31c-1.59,0.01-3.19,0.01-4.78,0c-0.21,0-0.3,0.04-0.3,0.28
			c0.01,0.8,0.01,1.59,0,2.39c0,0.21,0.06,0.27,0.27,0.27C114.67,52.95,115.48,52.95,116.29,52.95z M99.2,54.91
			c-0.81,0-1.61,0.01-2.42,0c-0.21,0-0.28,0.06-0.27,0.27c0.01,0.8,0.01,1.59,0,2.39c0,0.23,0.08,0.28,0.3,0.28
			c1.6-0.01,3.21-0.01,4.81,0c0.21,0,0.28-0.06,0.27-0.27c-0.01-0.8-0.01-1.59,0-2.39c0-0.23-0.08-0.28-0.29-0.28
			C100.8,54.92,100,54.91,99.2,54.91z M116.25,62.71c0.81,0,1.61-0.01,2.42,0c0.21,0,0.3-0.04,0.3-0.27c-0.01-0.8-0.01-1.59,0-2.39
			c0-0.21-0.07-0.27-0.27-0.27c-1.61,0.01-3.23,0.01-4.84,0c-0.21,0-0.27,0.07-0.27,0.28c0.01,0.8,0.01,1.59,0,2.39
			c0,0.21,0.06,0.27,0.27,0.27C114.66,62.71,115.46,62.71,116.25,62.71z M99.22,64.67c-0.82,0-1.64,0-2.45,0
			c-0.19,0-0.26,0.05-0.26,0.25c0.01,0.81,0.01,1.61,0,2.42c0,0.21,0.07,0.27,0.27,0.27c1.61-0.01,3.23-0.01,4.84,0
			c0.19,0,0.26-0.05,0.26-0.25c-0.01-0.81-0.01-1.61,0-2.42c0-0.22-0.08-0.27-0.28-0.26C100.81,64.68,100.02,64.67,99.22,64.67z
			 M116.28,64.67c-0.81,0-1.61,0-2.42,0c-0.18,0-0.27,0.03-0.27,0.24c0.01,0.82,0.01,1.64,0,2.45c0,0.18,0.05,0.24,0.23,0.24
			c1.64-0.01,3.27-0.01,4.91,0c0.22,0,0.23-0.11,0.23-0.28c-0.01-0.79-0.01-1.57,0-2.36c0-0.23-0.06-0.31-0.3-0.31
			C117.88,64.68,117.08,64.67,116.28,64.67z M99.2,59.79c-0.81,0-1.61,0.01-2.42,0c-0.21,0-0.27,0.06-0.27,0.27
			c0.01,0.8,0.01,1.59,0,2.39c0,0.2,0.05,0.28,0.26,0.28c1.61-0.01,3.23-0.01,4.84,0c0.21,0,0.27-0.06,0.27-0.27
			c-0.01-0.8-0.01-1.59,0-2.39c0-0.23-0.09-0.28-0.3-0.28C100.79,59.79,100,59.79,99.2,59.79z M116.28,54.91
			c-0.8,0-1.59,0.01-2.39-0.01c-0.24,0-0.3,0.07-0.3,0.31c0.01,0.78,0.01,1.57,0,2.36c0,0.2,0.06,0.28,0.27,0.28
			c1.61-0.01,3.23-0.01,4.84,0c0.21,0,0.27-0.07,0.27-0.28c-0.01-0.79-0.01-1.57,0-2.36c0-0.23-0.06-0.31-0.3-0.31
			C117.88,54.92,117.08,54.91,116.28,54.91z M130.69,53.52c0-0.68,0-1.36,0-2.04c0-0.16-0.03-0.29-0.15-0.4
			c-0.23-0.24-0.45-0.48-0.66-0.73c-0.12-0.15-0.2-0.18-0.34-0.01c-0.21,0.26-0.45,0.51-0.68,0.76c-0.09,0.1-0.14,0.2-0.14,0.34
			c0,1.4,0.01,2.8,0,4.2c0,0.2,0.07,0.25,0.26,0.25c0.48-0.01,0.95-0.01,1.43,0c0.21,0.01,0.28-0.06,0.27-0.27
			C130.68,54.92,130.69,54.22,130.69,53.52z"/>
		<path class="st2" d="M86.48,67.6c-1.27,0-2.55,0.01-3.82,0c-0.71,0-1.17-0.58-0.99-1.23c0.11-0.42,0.47-0.72,0.94-0.72
			c2.6-0.01,5.2-0.01,7.8,0c0.58,0,0.99,0.45,0.98,1c-0.01,0.53-0.43,0.95-0.99,0.95C89.09,67.61,87.78,67.6,86.48,67.6z"/>
		<path class="st2" d="M86.5,77.36c-1.28,0-2.57,0-3.85,0c-0.45,0-0.81-0.24-0.95-0.62c-0.15-0.39-0.04-0.82,0.28-1.1
			c0.19-0.17,0.42-0.24,0.68-0.24c2.57,0,5.14,0,7.71,0c0.61,0,1.04,0.42,1.04,0.98c0,0.57-0.44,0.98-1.07,0.98
			C89.04,77.37,87.77,77.36,86.5,77.36z"/>
		<path class="st2" d="M86.52,80.29c1.28,0,2.57,0,3.85,0c0.49,0,0.86,0.28,0.98,0.71c0.12,0.43-0.06,0.87-0.44,1.1
			c-0.18,0.11-0.38,0.14-0.58,0.14c-2.56,0-5.12,0-7.68,0c-0.61,0-1.03-0.42-1.03-0.98c0-0.55,0.44-0.97,1.04-0.97
			C83.95,80.29,85.23,80.29,86.52,80.29C86.52,80.29,86.52,80.29,86.52,80.29z"/>
		<path class="st2" d="M86.48,62.71c-1.28,0-2.57,0-3.85,0c-0.47,0-0.82-0.25-0.95-0.66c-0.13-0.38-0.01-0.81,0.3-1.07
			c0.19-0.16,0.4-0.22,0.65-0.22c2.58,0,5.16,0,7.74,0c0.59,0,1.01,0.41,1.02,0.96c0.01,0.56-0.42,0.98-1.02,0.99
			C89.07,62.72,87.78,62.72,86.48,62.71z"/>
		<path class="st2" d="M86.5,70.53c1.26,0,2.53,0,3.79,0c0.66,0,1.1,0.39,1.1,0.97c0,0.58-0.45,0.97-1.1,0.97c-2.53,0-5.05,0-7.58,0
			c-0.63,0-1.07-0.39-1.08-0.96c-0.01-0.58,0.44-0.99,1.09-0.99C83.97,70.53,85.23,70.53,86.5,70.53z"/>
		<path class="st2" d="M128.94,67.6c-1.25,0-2.51,0-3.76,0c-0.65,0-1.09-0.4-1.08-0.99c0-0.56,0.45-0.96,1.08-0.97
			c2.54,0,5.08,0,7.61,0c0.63,0,1.07,0.41,1.07,0.98c0,0.56-0.44,0.98-1.07,0.98C131.51,67.6,130.23,67.6,128.94,67.6z"/>
		<path class="st2" d="M128.98,77.36c-1.26,0-2.53,0-3.79,0c-0.64,0-1.08-0.39-1.09-0.95c-0.01-0.58,0.43-1,1.08-1
			c2.54,0,5.08,0,7.61,0c0.65,0,1.09,0.42,1.07,1c-0.01,0.56-0.45,0.95-1.09,0.95C131.51,77.37,130.24,77.36,128.98,77.36z"/>
		<path class="st2" d="M129.01,80.29c1.25,0,2.51,0,3.76,0c0.65,0,1.08,0.38,1.09,0.95c0.01,0.58-0.43,1-1.08,1
			c-2.55,0-5.1,0.01-7.65,0c-0.62,0-1.06-0.43-1.04-1c0.01-0.56,0.45-0.95,1.06-0.95C126.44,80.29,127.72,80.29,129.01,80.29z"/>
		<path class="st2" d="M128.98,72.48c-1.26,0-2.53,0-3.79,0c-0.65,0-1.11-0.41-1.09-0.98c0.01-0.57,0.44-0.96,1.08-0.96
			c2.54,0,5.08,0,7.61,0c0.64,0,1.07,0.39,1.08,0.97c0.01,0.57-0.43,0.98-1.06,0.98C131.53,72.48,130.25,72.48,128.98,72.48z"/>
		<path class="st2" d="M128.94,62.71c-1.25,0-2.51,0-3.76,0c-0.64,0-1.08-0.39-1.09-0.95c-0.01-0.58,0.43-0.99,1.08-0.99
			c2.54,0,5.08,0,7.61,0c0.64,0,1.07,0.4,1.07,0.97c0,0.57-0.43,0.97-1.07,0.97C131.51,62.72,130.22,62.71,128.94,62.71z"/>
	</g>
</g>
<g class="st0">
	<path class="st1" d="M176.13,86.82c0,28.61,0,57.23,0.01,85.84c0,0.58-0.13,0.71-0.71,0.71c-50.29-0.02-100.57-0.02-150.86,0
		c-0.58,0-0.71-0.13-0.71-0.71c0.02-29.55,0.01-59.09,0.01-88.64c0.26-0.16,0.53-0.31,0.79-0.49c3.6-2.53,7.2-5.06,10.8-7.59
		c10.57-7.43,21.14-14.86,31.72-22.27c0.53-0.37,0.73-0.75,0.72-1.39c-0.04-2.41-0.02-4.82-0.01-7.22c0.01-2.88,2.02-4.9,4.88-4.92
		c1.68-0.01,3.37-0.03,5.05,0c0.6,0.01,0.8-0.15,0.79-0.77c-0.03-2.82-0.02-5.64-0.01-8.47c0-1.57,0.69-2.39,2.24-2.68
		c10.48-1.97,20.96-3.92,31.44-5.9c2.03-0.38,4.08-0.65,6.07-1.22c0.47,0,0.93,0,1.4,0c1.36,0.67,1.73,1.79,1.71,3.25
		c-0.06,4.95,0,9.89-0.04,14.84c-0.01,0.82,0.24,0.99,1,0.96c1.55-0.06,3.11-0.03,4.66-0.01c3.12,0.02,5.07,2,5.07,5.13
		c0,12.22,0,24.44,0,36.67c0,0.16,0.01,0.31,0,0.47c-0.05,0.45,0.16,0.57,0.59,0.56c1.06-0.02,2.13-0.06,3.18,0.01
		c0.77,0.05,0.99-0.16,0.99-0.96c-0.03-10.62-0.02-21.23-0.02-31.85c0-0.26-0.01-0.52,0.02-0.78c0.16-1.21,1.13-2.1,2.31-2.11
		c0.86-0.01,1.51,0.41,2.08,1.04c3.91,4.35,7.84,8.68,11.75,13.04c0.38,0.43,0.57,0.48,0.99,0.02c2.2-2.48,4.43-4.93,6.66-7.38
		c1.77-1.96,3.53-3.92,5.32-5.87c0.76-0.83,1.74-1.06,2.68-0.67c1.02,0.42,1.5,1.22,1.52,2.31c0,0.23,0,0.47,0,0.7
		c0,10.54,0.01,21.08-0.02,31.62c0,0.72,0.18,0.93,0.9,0.9c1.75-0.08,3.16,0.61,4.21,2.04C175.7,85.55,175.84,86.22,176.13,86.82z
		 M67.75,59.12c-0.26,0.17-0.51,0.33-0.76,0.51C54.43,68.45,41.87,77.28,29.3,86.09c-0.51,0.36-0.67,0.74-0.67,1.34
		c0.01,26.72,0.01,53.45,0.01,80.17c0,1,0,1,1.01,1c12.35,0,24.7,0,37.05,0c1.35,0,1.17,0.15,1.17-1.14c0.01-35.81,0-71.62,0-107.43
		C67.87,59.75,67.94,59.46,67.75,59.12z M171.36,128.14c0-13.13,0-26.25,0-39.38c0-1.04,0-1.05-1.03-1.05
		c-12.45,0-24.9,0-37.36-0.02c-0.68,0-0.86,0.16-0.86,0.85c0.02,26.35,0.02,52.71,0,79.06c0,0.77,0.17,0.99,0.97,0.99
		c12.43-0.03,24.85-0.02,37.28-0.02c1,0,1,0,1-1C171.36,154.44,171.36,141.29,171.36,128.14z M100.03,116.26
		C100.03,116.26,100.03,116.26,100.03,116.26c-8.85,0-17.71,0.01-26.56-0.01c-0.61,0-0.89,0.1-0.84,0.79
		c0.06,0.9,0.02,1.81,0.02,2.72c0,16,0,32-0.01,48c0,0.61,0.11,0.87,0.8,0.85c1.86-0.05,3.73-0.04,5.59,0
		c0.61,0.01,0.78-0.17,0.78-0.78c-0.02-10.59-0.02-21.18,0-31.77c0-0.53-0.14-0.76-0.67-0.89c-0.97-0.24-1.54-0.92-1.69-1.91
		c-0.15-0.99,0.23-1.78,1.05-2.35c0.54-0.37,1.16-0.39,1.79-0.39c13.15,0,26.3,0,39.46,0c0.21,0,0.42-0.01,0.62,0.01
		c1.22,0.11,2.1,0.95,2.22,2.11c0.13,1.21-0.56,2.27-1.78,2.56c-0.5,0.12-0.59,0.33-0.59,0.78c0.01,10.64,0.01,21.28,0,31.92
		c0,0.55,0.17,0.7,0.71,0.7c1.86-0.03,3.73-0.04,5.59,0c0.67,0.02,0.87-0.14,0.87-0.85c-0.02-16.83-0.02-33.66-0.02-50.49
		c0-1.01,0-1.01-0.99-1.01C117.59,116.26,108.81,116.26,100.03,116.26z M84.53,151.93c0,5.28,0.01,10.56-0.01,15.84
		c0,0.64,0.15,0.87,0.81,0.83c0.98-0.05,1.97-0.01,2.95-0.01c1.01,0,1.01,0,1.01-0.99c0-7.56-0.01-15.12,0-22.68
		c0-2.72,1.97-4.83,4.62-4.85c4.06-0.04,8.13-0.04,12.19,0.01c2.59,0.03,4.57,2.11,4.6,4.71c0.01,1.09,0,2.17,0,3.26
		c0,6.58,0.01,13.15-0.01,19.73c0,0.63,0.15,0.87,0.81,0.83c1.01-0.05,2.02-0.06,3.03,0c0.74,0.05,0.96-0.17,0.95-0.93
		c-0.03-10.48-0.03-20.97,0-31.45c0-0.74-0.17-0.95-0.93-0.95c-9.71,0.03-19.42,0.03-29.12,0c-0.69,0-0.92,0.16-0.91,0.89
		C84.55,141.42,84.54,146.67,84.53,151.93z M99.99,40.13c5.28,0,10.56,0,15.84,0c0.39,0,0.83,0.14,0.83-0.56
		c-0.02-4.22-0.01-8.44,0-12.65c0-0.49-0.18-0.55-0.61-0.45c-0.7,0.16-1.42,0.27-2.13,0.4c-9.94,1.86-19.88,3.73-29.82,5.58
		c-0.55,0.1-0.77,0.3-0.76,0.89c0.04,1.97,0.05,3.93,0,5.9c-0.02,0.71,0.18,0.91,0.89,0.91C89.48,40.11,94.74,40.13,99.99,40.13z
		 M94.06,156.7c0,3.67,0.02,7.35-0.02,11.02c-0.01,0.74,0.23,0.89,0.91,0.89c3.42-0.03,6.83-0.03,10.25,0
		c0.56,0,0.75-0.13,0.75-0.73c-0.02-7.45-0.02-14.9,0-22.36c0-0.59-0.18-0.74-0.75-0.74c-3.42,0.03-6.83,0.03-10.25,0
		c-0.69-0.01-0.92,0.15-0.92,0.89C94.08,149.35,94.06,153.02,94.06,156.7z M100.05,52.02c2.87,0,5.75-0.03,8.62,0.02
		c0.71,0.01,0.86-0.22,0.85-0.88c-0.04-1.81-0.04-3.63,0-5.44c0.01-0.61-0.12-0.85-0.8-0.85c-5.83,0.03-11.65,0.02-17.48,0
		c-0.65,0-0.77,0.23-0.76,0.81c0.03,1.84,0.04,3.68-0.01,5.51c-0.02,0.72,0.23,0.85,0.88,0.84C94.25,52,97.15,52.02,100.05,52.02z
		 M99.99,56.8c-2.93,0-5.85,0.01-8.78-0.01c-0.5,0-0.74,0.08-0.73,0.66c0.03,1.94,0.03,3.88,0,5.82c-0.01,0.54,0.21,0.65,0.68,0.65
		c5.9-0.01,11.81-0.01,17.71,0c0.53,0,0.65-0.19,0.65-0.68c-0.02-1.92-0.03-3.83,0.01-5.75c0.01-0.61-0.2-0.73-0.76-0.72
		C105.84,56.81,102.91,56.8,99.99,56.8z M100.01,75.81C100.01,75.81,100.01,75.81,100.01,75.81c2.95,0,5.9-0.01,8.85,0.01
		c0.51,0,0.67-0.15,0.66-0.66c-0.03-1.94-0.02-3.88,0-5.82c0-0.48-0.09-0.69-0.64-0.69c-5.9,0.02-11.79,0.02-17.69,0
		c-0.53,0-0.71,0.15-0.7,0.7c0.03,1.89,0.04,3.78-0.01,5.66c-0.02,0.68,0.23,0.8,0.84,0.8C94.22,75.79,97.11,75.81,100.01,75.81z
		 M100,104.37c-2.95,0-5.9,0.01-8.85-0.01c-0.48,0-0.68,0.11-0.67,0.64c0.03,1.94,0.03,3.88,0,5.82c-0.01,0.55,0.17,0.7,0.71,0.7
		c5.87-0.02,11.75-0.02,17.62,0c0.53,0,0.72-0.13,0.71-0.69c-0.03-1.91-0.03-3.83,0-5.74c0.01-0.59-0.18-0.74-0.75-0.73
		C105.85,104.38,102.93,104.37,100,104.37z M100.08,80.58c-2.97,0-5.95,0.01-8.92-0.01c-0.49,0-0.68,0.12-0.67,0.65
		c0.03,1.94,0.03,3.88,0,5.82c-0.01,0.55,0.18,0.69,0.71,0.69c5.87-0.02,11.74-0.02,17.61,0c0.53,0,0.72-0.13,0.71-0.69
		c-0.03-1.91-0.03-3.83,0-5.74c0.01-0.59-0.18-0.74-0.75-0.73C105.87,80.59,102.98,80.58,100.08,80.58z M99.97,99.6
		c2.95,0,5.9-0.01,8.84,0.01c0.53,0,0.72-0.14,0.71-0.69c-0.03-1.94-0.03-3.88,0-5.82c0.01-0.53-0.19-0.65-0.68-0.65
		c-5.9,0.01-11.79,0.01-17.69,0c-0.49,0-0.68,0.14-0.67,0.66c0.03,1.91,0.04,3.83,0,5.74c-0.01,0.65,0.22,0.76,0.8,0.75
		C94.17,99.58,97.07,99.6,99.97,99.6z M141.74,55.96c-0.07,0.19-0.1,0.24-0.1,0.29c0,8.72,0,17.44-0.02,26.16
		c0,0.48,0.22,0.55,0.61,0.55c1.11-0.01,2.23-0.04,3.34,0.01c0.63,0.03,0.84-0.15,0.84-0.81c-0.03-3.65,0.01-7.3-0.03-10.95
		c-0.01-1,0.29-1.8,0.98-2.51c0.88-0.91,1.69-1.89,2.56-2.81c0.33-0.34,0.31-0.55,0-0.89c-1.58-1.71-3.13-3.45-4.69-5.17
		C144.09,58.56,142.95,57.3,141.74,55.96z M165.42,56c-0.18,0.12-0.26,0.14-0.3,0.2c-2.67,2.95-5.34,5.91-8.03,8.85
		c-0.3,0.33-0.24,0.54,0.04,0.84c0.88,0.95,1.71,1.94,2.61,2.87c0.68,0.7,0.94,1.49,0.93,2.45c-0.03,3.67,0,7.35-0.02,11.02
		c0,0.58,0.16,0.76,0.74,0.73c1.03-0.05,2.07-0.07,3.1,0c0.75,0.05,0.95-0.17,0.94-0.93c-0.03-8.38-0.02-16.76-0.02-25.15
		C165.42,56.63,165.42,56.37,165.42,56z M79.17,52.02c1.97,0,3.93-0.01,5.9,0.01c0.48,0,0.68-0.12,0.67-0.65
		c-0.03-1.96-0.03-3.93,0-5.9c0.01-0.5-0.18-0.61-0.63-0.61c-3.93,0.01-7.86,0.02-11.79,0c-0.58,0-0.67,0.23-0.67,0.73
		c0.02,1.89,0.04,3.78-0.01,5.66c-0.02,0.65,0.22,0.77,0.8,0.76C75.34,52.01,77.25,52.02,79.17,52.02z M120.83,52.02
		c1.94,0,3.88-0.01,5.82,0.01c0.5,0.01,0.74-0.09,0.73-0.67c-0.04-1.94-0.03-3.88,0-5.82c0.01-0.51-0.16-0.66-0.66-0.66
		c-3.93,0.02-7.86,0.02-11.79,0c-0.52,0-0.65,0.18-0.65,0.68c0.02,1.94,0.02,3.88,0,5.82c-0.01,0.51,0.16,0.66,0.67,0.66
		C116.9,52.01,118.86,52.02,120.83,52.02z M79.11,63.93c1.96,0,3.93-0.01,5.89,0.01c0.51,0.01,0.74-0.1,0.73-0.67
		c-0.03-1.94-0.03-3.88,0-5.82c0.01-0.51-0.16-0.66-0.66-0.66c-3.93,0.02-7.86,0.02-11.79,0c-0.52,0-0.65,0.18-0.65,0.67
		c0.02,1.94,0.03,3.88,0,5.82c-0.01,0.52,0.16,0.66,0.66,0.66C75.24,63.91,77.17,63.93,79.11,63.93z M120.81,56.8
		c-1.96,0-3.93,0.01-5.89-0.01c-0.44,0-0.65,0.08-0.65,0.59c0.03,1.99,0.02,3.98,0,5.97c0,0.44,0.14,0.58,0.58,0.58
		c3.98-0.01,7.96-0.01,11.94,0c0.44,0,0.57-0.16,0.57-0.59c-0.02-1.96-0.02-3.93,0-5.89c0.01-0.51-0.15-0.66-0.66-0.66
		C124.74,56.82,122.78,56.8,120.81,56.8z M79.18,75.81c1.97,0,3.93-0.02,5.9,0.01c0.51,0.01,0.66-0.15,0.66-0.66
		c-0.03-1.94-0.02-3.88,0-5.82c0.01-0.49-0.12-0.68-0.65-0.68c-3.93,0.02-7.86,0.02-11.79,0c-0.51,0-0.66,0.16-0.66,0.67
		c0.03,1.94,0.03,3.88,0,5.82c-0.01,0.58,0.22,0.67,0.73,0.67C75.3,75.79,77.24,75.81,79.18,75.81z M120.83,75.81
		c1.91,0,3.83-0.03,5.74,0.02c0.67,0.02,0.81-0.21,0.8-0.83c-0.04-1.86-0.04-3.73,0-5.59c0.01-0.58-0.15-0.75-0.74-0.75
		c-3.88,0.02-7.76,0.02-11.64,0c-0.52,0-0.73,0.11-0.72,0.68c0.03,1.94,0.03,3.88,0,5.82c-0.01,0.51,0.15,0.67,0.66,0.66
		C116.89,75.8,118.86,75.81,120.83,75.81z M79.2,80.58c-1.97,0-3.93,0.01-5.9-0.01c-0.5-0.01-0.67,0.14-0.67,0.65
		c0.03,1.94,0.03,3.88,0,5.82c-0.01,0.56,0.2,0.69,0.72,0.68c3.9-0.02,7.81-0.02,11.71,0c0.5,0,0.67-0.14,0.66-0.66
		c-0.03-1.94-0.03-3.88,0-5.82c0.01-0.56-0.19-0.69-0.72-0.68C83.08,80.6,81.14,80.58,79.2,80.58z M120.74,99.6
		c1.96,0,3.93-0.01,5.89,0.01c0.5,0.01,0.74-0.09,0.73-0.67c-0.03-1.94-0.03-3.88,0-5.82c0.01-0.51-0.16-0.67-0.66-0.67
		c-3.93,0.01-7.86,0.02-11.79,0c-0.52,0-0.66,0.18-0.65,0.68c0.03,1.94,0.03,3.88,0,5.82c-0.01,0.51,0.15,0.67,0.66,0.66
		C116.87,99.58,118.8,99.6,120.74,99.6z M79.24,104.37c-1.99,0-3.99,0.01-5.98-0.01c-0.46,0-0.63,0.12-0.62,0.61
		c0.02,1.97,0.03,3.93,0,5.9c-0.01,0.52,0.17,0.65,0.67,0.65c3.93-0.02,7.87-0.02,11.8,0c0.47,0,0.63-0.13,0.63-0.61
		c-0.02-1.97-0.03-3.93,0-5.9c0.01-0.53-0.19-0.65-0.67-0.64C83.12,104.38,81.18,104.37,79.24,104.37z M120.82,104.37
		c-1.97,0-3.93,0.01-5.9-0.01c-0.44,0-0.66,0.08-0.65,0.59c0.03,1.99,0.02,3.98,0,5.98c0,0.43,0.12,0.59,0.57,0.59
		c3.98-0.01,7.97-0.02,11.95,0c0.54,0,0.57-0.26,0.56-0.67c-0.01-1.91-0.03-3.83,0.01-5.74c0.01-0.57-0.14-0.76-0.73-0.75
		C124.7,104.39,122.76,104.37,120.82,104.37z M79.19,92.46c-1.97,0-3.93,0.01-5.9-0.01c-0.51-0.01-0.67,0.15-0.66,0.66
		c0.03,1.94,0.02,3.88,0,5.82c-0.01,0.48,0.11,0.68,0.64,0.68c3.93-0.02,7.86-0.02,11.79,0c0.5,0,0.67-0.15,0.66-0.66
		c-0.03-1.94-0.03-3.88,0-5.82c0.01-0.57-0.21-0.68-0.72-0.68C83.07,92.48,81.13,92.46,79.19,92.46z M120.82,80.58
		c-1.94,0-3.88,0.02-5.82-0.01c-0.59-0.01-0.74,0.17-0.73,0.75c0.03,1.91,0.02,3.83,0,5.74c-0.01,0.5,0.13,0.68,0.65,0.67
		c3.93-0.02,7.86-0.02,11.79,0c0.52,0,0.66-0.17,0.65-0.67c-0.02-1.91-0.03-3.83,0-5.74c0.01-0.57-0.14-0.76-0.73-0.75
		C124.7,80.6,122.76,80.58,120.82,80.58z M155.91,77.19c0-1.65-0.01-3.31,0.01-4.96c0-0.38-0.08-0.69-0.35-0.98
		c-0.55-0.58-1.1-1.17-1.61-1.78c-0.3-0.36-0.5-0.43-0.83-0.02c-0.52,0.64-1.09,1.24-1.66,1.84c-0.23,0.24-0.33,0.49-0.33,0.83
		c0.01,3.41,0.01,6.82,0,10.23c0,0.49,0.17,0.62,0.63,0.61c1.16-0.02,2.33-0.03,3.49,0c0.51,0.02,0.68-0.15,0.67-0.66
		C155.9,80.6,155.91,78.89,155.91,77.19z"/>
	<path class="st1" d="M48.18,111.5c-3.1,0-6.21,0.01-9.31,0c-1.72-0.01-2.84-1.42-2.42-3c0.27-1.03,1.15-1.75,2.29-1.75
		c6.34-0.02,12.68-0.02,19.02,0c1.4,0,2.42,1.09,2.39,2.43c-0.03,1.3-1.04,2.31-2.42,2.32C54.55,111.52,51.37,111.5,48.18,111.5z"/>
	<path class="st1" d="M48.23,135.29c-3.13,0-6.26,0.01-9.39,0c-1.1,0-1.98-0.59-2.32-1.5c-0.36-0.95-0.1-2.01,0.68-2.68
		c0.47-0.41,1.03-0.58,1.65-0.58c6.26,0,12.52-0.01,18.78,0c1.48,0,2.52,1.02,2.52,2.38c0,1.38-1.08,2.38-2.6,2.38
		C54.44,135.3,51.34,135.29,48.23,135.29z"/>
	<path class="st1" d="M48.28,142.43c3.13,0,6.26-0.01,9.39,0c1.19,0,2.11,0.68,2.39,1.73c0.28,1.04-0.15,2.12-1.07,2.69
		c-0.44,0.27-0.91,0.35-1.41,0.35c-6.24,0-12.47,0.01-18.71-0.01c-1.48,0-2.52-1.02-2.52-2.39c0-1.35,1.06-2.36,2.53-2.37
		C42.02,142.43,45.15,142.43,48.28,142.43C48.28,142.43,48.28,142.43,48.28,142.43z"/>
	<path class="st1" d="M48.2,99.6c-3.13,0-6.26,0.01-9.39,0c-1.14,0-2-0.62-2.33-1.6c-0.31-0.93-0.01-1.97,0.74-2.6
		c0.46-0.38,0.99-0.54,1.58-0.54c6.29,0,12.57-0.01,18.86,0c1.43,0,2.46,0.99,2.49,2.33c0.02,1.37-1.02,2.4-2.48,2.41
		C54.51,99.61,51.35,99.6,48.2,99.6z"/>
	<path class="st1" d="M48.24,118.65c3.08,0,6.16,0,9.24,0c1.61,0,2.68,0.96,2.68,2.37c0,1.41-1.09,2.37-2.69,2.37
		c-6.16,0-12.31,0-18.47,0c-1.54,0-2.62-0.96-2.64-2.34c-0.02-1.41,1.06-2.41,2.65-2.41C42.08,118.64,45.16,118.65,48.24,118.65z"/>
	<path class="st1" d="M151.65,111.51c-3.05,0-6.11,0-9.16,0c-1.58,0-2.65-0.99-2.64-2.41c0.01-1.37,1.1-2.35,2.63-2.35
		c6.18,0,12.37,0,18.55,0c1.54,0,2.61,0.99,2.61,2.38c0,1.38-1.08,2.38-2.6,2.39C157.92,111.51,154.78,111.51,151.65,111.51z"/>
	<path class="st1" d="M151.74,135.29c-3.08,0-6.16,0-9.24,0c-1.55,0-2.63-0.94-2.66-2.32c-0.03-1.42,1.05-2.44,2.62-2.44
		c6.18-0.01,12.37-0.01,18.55,0c1.58,0,2.65,1.01,2.62,2.44c-0.03,1.38-1.1,2.31-2.66,2.32
		C157.9,135.29,154.82,135.29,151.74,135.29z"/>
	<path class="st1" d="M151.82,142.43c3.05,0,6.11,0,9.16,0c1.58,0,2.63,0.92,2.66,2.31c0.03,1.42-1.04,2.43-2.62,2.44
		c-6.21,0.01-12.42,0.01-18.63,0.01c-1.5,0-2.58-1.06-2.55-2.44c0.03-1.35,1.09-2.31,2.59-2.32
		C145.56,142.43,148.69,142.43,151.82,142.43z"/>
	<path class="st1" d="M151.74,123.39c-3.08,0-6.16,0-9.24,0c-1.59,0-2.69-0.99-2.67-2.39c0.03-1.4,1.08-2.35,2.63-2.35
		c6.18,0,12.37-0.01,18.55,0c1.55,0,2.61,0.96,2.62,2.35c0.02,1.39-1.05,2.38-2.59,2.39C157.95,123.4,154.85,123.39,151.74,123.39z"
		/>
	<path class="st1" d="M151.65,99.6c-3.05,0-6.11,0-9.16,0c-1.56,0-2.63-0.94-2.65-2.32c-0.02-1.42,1.06-2.41,2.64-2.41
		c6.18,0,12.37,0,18.55,0c1.55,0,2.61,0.97,2.61,2.36c0,1.4-1.05,2.37-2.6,2.37C157.91,99.6,154.78,99.6,151.65,99.6z"/>
</g>
</svg>
